<svg width="654" height="112" viewBox="0 0 654 112" fill="none" xmlns="http://www.w3.org/2000/svg">
<g filter="url(#filter0_d_1370_5297)">
<path d="M42.7843 48.0142V57.6573C42.7843 60.2718 41.7996 61.3244 40 60.883V64.9916C44.7876 65.5009 47.1644 63.158 47.1644 57.895V52.2246H51.8502V64.9916H56.2303V48.0142H42.7843Z" fill="white"/>
<path d="M42.7843 48.0142V57.6573C42.7843 60.2718 41.7996 61.3244 40 60.883V64.9916C44.7876 65.5009 47.1644 63.158 47.1644 57.895V52.2246H51.8502V64.9916H56.2303V48.0142H42.7843Z" fill="url(#paint0_linear_1370_5297)"/>
<path d="M65.157 57.6573V48.0142H60.8787V64.9916H64.1383L72.1177 55.3484V64.9916H76.396V48.0142H73.1363L65.157 57.6573Z" fill="white"/>
<path d="M65.157 57.6573V48.0142H60.8787V64.9916H64.1383L72.1177 55.3484V64.9916H76.396V48.0142H73.1363L65.157 57.6573Z" fill="url(#paint1_linear_1370_5297)"/>
<path d="M89.1696 65.4669C92.4632 65.4669 95.3493 63.7352 96.8433 61.0528L93.0404 58.8797C92.3613 60.2718 90.9013 61.1207 89.1356 61.1207C87.8114 61.1207 86.7248 60.6793 85.876 59.8304C85.0271 58.9476 84.5857 57.8271 84.5857 56.5029C84.5857 53.7865 86.5211 51.8511 89.1356 51.8511C90.8673 51.8511 92.3274 52.7339 93.0065 54.126L96.7754 51.919C95.3833 49.2366 92.4632 47.5388 89.1696 47.5388C86.623 47.5388 84.4838 48.3877 82.7521 50.1194C81.0544 51.8511 80.2055 53.9563 80.2055 56.5029C80.2055 59.0495 81.0544 61.1547 82.7521 62.8864C84.4838 64.6181 86.623 65.4669 89.1696 65.4669Z" fill="white"/>
<path d="M89.1696 65.4669C92.4632 65.4669 95.3493 63.7352 96.8433 61.0528L93.0404 58.8797C92.3613 60.2718 90.9013 61.1207 89.1356 61.1207C87.8114 61.1207 86.7248 60.6793 85.876 59.8304C85.0271 58.9476 84.5857 57.8271 84.5857 56.5029C84.5857 53.7865 86.5211 51.8511 89.1356 51.8511C90.8673 51.8511 92.3274 52.7339 93.0065 54.126L96.7754 51.919C95.3833 49.2366 92.4632 47.5388 89.1696 47.5388C86.623 47.5388 84.4838 48.3877 82.7521 50.1194C81.0544 51.8511 80.2055 53.9563 80.2055 56.5029C80.2055 59.0495 81.0544 61.1547 82.7521 62.8864C84.4838 64.6181 86.623 65.4669 89.1696 65.4669Z" fill="url(#paint2_linear_1370_5297)"/>
<path d="M98.0758 48.0142V52.2246H103.441V64.9916H107.821V52.2246H113.118V48.0142H98.0758Z" fill="white"/>
<path d="M98.0758 48.0142V52.2246H103.441V64.9916H107.821V52.2246H113.118V48.0142H98.0758Z" fill="url(#paint3_linear_1370_5297)"/>
<path d="M128.376 50.0175C127.051 48.3538 125.218 47.5388 122.841 47.5388C120.566 47.5388 118.631 48.4217 117.001 50.1533C115.405 51.885 114.59 53.9902 114.59 56.5029C114.59 59.0155 115.405 61.1547 117.001 62.8864C118.631 64.6181 120.566 65.4669 122.841 65.4669C125.218 65.4669 127.051 64.652 128.376 62.9882V64.9916H132.756V48.0142H128.376V50.0175ZM120.294 59.9663C119.412 59.0495 118.97 57.895 118.97 56.5029C118.97 55.1107 119.412 53.9563 120.294 53.0735C121.177 52.1567 122.298 51.7153 123.656 51.7153C125.014 51.7153 126.135 52.1567 127.017 53.0735C127.934 53.9563 128.376 55.1107 128.376 56.5029C128.376 57.895 127.934 59.0495 127.017 59.9663C126.135 60.8491 125.014 61.2905 123.656 61.2905C122.298 61.2905 121.177 60.8491 120.294 59.9663Z" fill="white"/>
<path d="M128.376 50.0175C127.051 48.3538 125.218 47.5388 122.841 47.5388C120.566 47.5388 118.631 48.4217 117.001 50.1533C115.405 51.885 114.59 53.9902 114.59 56.5029C114.59 59.0155 115.405 61.1547 117.001 62.8864C118.631 64.6181 120.566 65.4669 122.841 65.4669C125.218 65.4669 127.051 64.652 128.376 62.9882V64.9916H132.756V48.0142H128.376V50.0175ZM120.294 59.9663C119.412 59.0495 118.97 57.895 118.97 56.5029C118.97 55.1107 119.412 53.9563 120.294 53.0735C121.177 52.1567 122.298 51.7153 123.656 51.7153C125.014 51.7153 126.135 52.1567 127.017 53.0735C127.934 53.9563 128.376 55.1107 128.376 56.5029C128.376 57.895 127.934 59.0495 127.017 59.9663C126.135 60.8491 125.014 61.2905 123.656 61.2905C122.298 61.2905 121.177 60.8491 120.294 59.9663Z" fill="url(#paint4_linear_1370_5297)"/>
<path d="M150.106 45.8411V42.0382H140.259V45.8411H150.106ZM141.685 57.6573V48.0142H137.407V64.9916H140.666L148.646 55.3484V64.9916H152.924V48.0142H149.664L141.685 57.6573Z" fill="white"/>
<path d="M150.106 45.8411V42.0382H140.259V45.8411H150.106ZM141.685 57.6573V48.0142H137.407V64.9916H140.666L148.646 55.3484V64.9916H152.924V48.0142H149.664L141.685 57.6573Z" fill="url(#paint5_linear_1370_5297)"/>
<path d="M179.008 56.2992C180.128 55.4503 180.672 54.2958 180.672 52.8018C180.672 49.9496 178.6 48.0142 175.035 48.0142H166.784V64.9916H175.714C179.347 64.9916 181.385 63.0222 181.385 60.17C181.385 58.3704 180.604 57.0801 179.008 56.2992ZM174.628 51.6134C175.884 51.6134 176.495 52.1227 176.495 53.1414C176.495 54.16 175.884 54.6693 174.628 54.6693H170.893V51.6134H174.628ZM170.893 61.2905V58.1327H175.205C176.393 58.1327 177.106 58.7099 177.106 59.6607C177.106 60.7472 176.461 61.2905 175.205 61.2905H170.893Z" fill="white"/>
<path d="M179.008 56.2992C180.128 55.4503 180.672 54.2958 180.672 52.8018C180.672 49.9496 178.6 48.0142 175.035 48.0142H166.784V64.9916H175.714C179.347 64.9916 181.385 63.0222 181.385 60.17C181.385 58.3704 180.604 57.0801 179.008 56.2992ZM174.628 51.6134C175.884 51.6134 176.495 52.1227 176.495 53.1414C176.495 54.16 175.884 54.6693 174.628 54.6693H170.893V51.6134H174.628ZM170.893 61.2905V58.1327H175.205C176.393 58.1327 177.106 58.7099 177.106 59.6607C177.106 60.7472 176.461 61.2905 175.205 61.2905H170.893Z" fill="url(#paint6_linear_1370_5297)"/>
<path d="M197.708 50.0175C196.384 48.3538 194.55 47.5388 192.174 47.5388C189.899 47.5388 187.963 48.4217 186.333 50.1533C184.737 51.885 183.923 53.9902 183.923 56.5029C183.923 59.0155 184.737 61.1547 186.333 62.8864C187.963 64.6181 189.899 65.4669 192.174 65.4669C194.55 65.4669 196.384 64.652 197.708 62.9882V64.9916H202.088V48.0142H197.708V50.0175ZM189.627 59.9663C188.744 59.0495 188.303 57.895 188.303 56.5029C188.303 55.1107 188.744 53.9563 189.627 53.0735C190.51 52.1567 191.63 51.7153 192.988 51.7153C194.347 51.7153 195.467 52.1567 196.35 53.0735C197.267 53.9563 197.708 55.1107 197.708 56.5029C197.708 57.895 197.267 59.0495 196.35 59.9663C195.467 60.8491 194.347 61.2905 192.988 61.2905C191.63 61.2905 190.51 60.8491 189.627 59.9663Z" fill="white"/>
<path d="M197.708 50.0175C196.384 48.3538 194.55 47.5388 192.174 47.5388C189.899 47.5388 187.963 48.4217 186.333 50.1533C184.737 51.885 183.923 53.9902 183.923 56.5029C183.923 59.0155 184.737 61.1547 186.333 62.8864C187.963 64.6181 189.899 65.4669 192.174 65.4669C194.55 65.4669 196.384 64.652 197.708 62.9882V64.9916H202.088V48.0142H197.708V50.0175ZM189.627 59.9663C188.744 59.0495 188.303 57.895 188.303 56.5029C188.303 55.1107 188.744 53.9563 189.627 53.0735C190.51 52.1567 191.63 51.7153 192.988 51.7153C194.347 51.7153 195.467 52.1567 196.35 53.0735C197.267 53.9563 197.708 55.1107 197.708 56.5029C197.708 57.895 197.267 59.0495 196.35 59.9663C195.467 60.8491 194.347 61.2905 192.988 61.2905C191.63 61.2905 190.51 60.8491 189.627 59.9663Z" fill="url(#paint7_linear_1370_5297)"/>
<path d="M219.438 45.8411V42.0382H209.592V45.8411H219.438ZM211.018 57.6573V48.0142H206.739V64.9916H209.999L217.978 55.3484V64.9916H222.257V48.0142H218.997L211.018 57.6573Z" fill="white"/>
<path d="M219.438 45.8411V42.0382H209.592V45.8411H219.438ZM211.018 57.6573V48.0142H206.739V64.9916H209.999L217.978 55.3484V64.9916H222.257V48.0142H218.997L211.018 57.6573Z" fill="url(#paint8_linear_1370_5297)"/>
<path d="M234.996 65.4669C237.543 65.4669 239.614 64.7199 241.176 63.2259C242.772 61.7319 243.553 59.8304 243.553 57.4876C243.553 55.2126 242.806 53.413 241.346 52.0548C239.886 50.6627 238.188 49.9836 236.32 49.9836C234.181 49.9836 232.484 50.6287 231.227 51.919C231.805 50.3231 232.925 49.3045 235.811 48.184C237.882 47.403 239.41 46.6221 240.429 45.8751C241.482 45.0941 242.127 44.0415 242.432 42.6494L238.833 40.5781C238.256 41.9024 237.916 42.5135 236.694 43.2605C236.253 43.5322 235.879 43.7359 235.607 43.8717L234.181 44.5848C233.468 44.8904 232.925 45.162 232.552 45.3318C229.937 46.6221 228.205 48.0482 227.356 49.644C226.508 51.2059 226.066 53.447 226.066 56.3331C226.066 58.9816 226.881 61.1547 228.511 62.8864C230.175 64.6181 232.314 65.4669 234.996 65.4669ZM234.928 53.4809C237.407 53.4809 239.173 55.1786 239.173 57.4876C239.173 58.642 238.765 59.5928 237.984 60.3398C237.203 61.0868 236.185 61.4603 234.962 61.4603C233.74 61.4603 232.721 61.0868 231.872 60.3058C231.058 59.5248 230.65 58.5402 230.65 57.3517C230.65 56.1633 231.091 55.2466 231.94 54.5335C232.823 53.8205 233.808 53.4809 234.928 53.4809Z" fill="white"/>
<path d="M234.996 65.4669C237.543 65.4669 239.614 64.7199 241.176 63.2259C242.772 61.7319 243.553 59.8304 243.553 57.4876C243.553 55.2126 242.806 53.413 241.346 52.0548C239.886 50.6627 238.188 49.9836 236.32 49.9836C234.181 49.9836 232.484 50.6287 231.227 51.919C231.805 50.3231 232.925 49.3045 235.811 48.184C237.882 47.403 239.41 46.6221 240.429 45.8751C241.482 45.0941 242.127 44.0415 242.432 42.6494L238.833 40.5781C238.256 41.9024 237.916 42.5135 236.694 43.2605C236.253 43.5322 235.879 43.7359 235.607 43.8717L234.181 44.5848C233.468 44.8904 232.925 45.162 232.552 45.3318C229.937 46.6221 228.205 48.0482 227.356 49.644C226.508 51.2059 226.066 53.447 226.066 56.3331C226.066 58.9816 226.881 61.1547 228.511 62.8864C230.175 64.6181 232.314 65.4669 234.996 65.4669ZM234.928 53.4809C237.407 53.4809 239.173 55.1786 239.173 57.4876C239.173 58.642 238.765 59.5928 237.984 60.3398C237.203 61.0868 236.185 61.4603 234.962 61.4603C233.74 61.4603 232.721 61.0868 231.872 60.3058C231.058 59.5248 230.65 58.5402 230.65 57.3517C230.65 56.1633 231.091 55.2466 231.94 54.5335C232.823 53.8205 233.808 53.4809 234.928 53.4809Z" fill="url(#paint9_linear_1370_5297)"/>
<path d="M251.274 53.447V48.0142H246.893V64.9916H254.567C258.404 64.9916 260.985 62.7166 260.985 59.2193C260.985 55.7219 258.404 53.447 254.567 53.447H251.274ZM262.852 64.9916H267.232V48.0142H262.852V64.9916ZM251.274 61.1207V57.2838H254.601C255.823 57.2838 256.706 58.0987 256.706 59.2193C256.706 60.3398 255.823 61.1207 254.601 61.1207H251.274Z" fill="white"/>
<path d="M251.274 53.447V48.0142H246.893V64.9916H254.567C258.404 64.9916 260.985 62.7166 260.985 59.2193C260.985 55.7219 258.404 53.447 254.567 53.447H251.274ZM262.852 64.9916H267.232V48.0142H262.852V64.9916ZM251.274 61.1207V57.2838H254.601C255.823 57.2838 256.706 58.0987 256.706 59.2193C256.706 60.3398 255.823 61.1207 254.601 61.1207H251.274Z" fill="url(#paint10_linear_1370_5297)"/>
<path d="M285.357 57.6573V48.0142H281.079V64.9916H284.339L292.318 55.3484V64.9916H296.596V48.0142H293.337L285.357 57.6573Z" fill="white"/>
<path d="M285.357 57.6573V48.0142H281.079V64.9916H284.339L292.318 55.3484V64.9916H296.596V48.0142H293.337L285.357 57.6573Z" fill="url(#paint11_linear_1370_5297)"/>
<path d="M322.68 56.2992C323.801 55.4503 324.344 54.2958 324.344 52.8018C324.344 49.9496 322.273 48.0142 318.707 48.0142H310.456V64.9916H319.386C323.02 64.9916 325.057 63.0222 325.057 60.17C325.057 58.3704 324.276 57.0801 322.68 56.2992ZM318.3 51.6134C319.556 51.6134 320.167 52.1227 320.167 53.1414C320.167 54.16 319.556 54.6693 318.3 54.6693H314.565V51.6134H318.3ZM314.565 61.2905V58.1327H318.877C320.065 58.1327 320.779 58.7099 320.779 59.6607C320.779 60.7472 320.133 61.2905 318.877 61.2905H314.565Z" fill="white"/>
<path d="M322.68 56.2992C323.801 55.4503 324.344 54.2958 324.344 52.8018C324.344 49.9496 322.273 48.0142 318.707 48.0142H310.456V64.9916H319.386C323.02 64.9916 325.057 63.0222 325.057 60.17C325.057 58.3704 324.276 57.0801 322.68 56.2992ZM318.3 51.6134C319.556 51.6134 320.167 52.1227 320.167 53.1414C320.167 54.16 319.556 54.6693 318.3 54.6693H314.565V51.6134H318.3ZM314.565 61.2905V58.1327H318.877C320.065 58.1327 320.779 58.7099 320.779 59.6607C320.779 60.7472 320.133 61.2905 318.877 61.2905H314.565Z" fill="url(#paint12_linear_1370_5297)"/>
<path d="M332.858 53.447V48.0142H328.478V64.9916H336.151C339.988 64.9916 342.569 62.7166 342.569 59.2193C342.569 55.7219 339.988 53.447 336.151 53.447H332.858ZM344.436 64.9916H348.816V48.0142H344.436V64.9916ZM332.858 61.1207V57.2838H336.185C337.408 57.2838 338.29 58.0987 338.29 59.2193C338.29 60.3398 337.408 61.1207 336.185 61.1207H332.858Z" fill="white"/>
<path d="M332.858 53.447V48.0142H328.478V64.9916H336.151C339.988 64.9916 342.569 62.7166 342.569 59.2193C342.569 55.7219 339.988 53.447 336.151 53.447H332.858ZM344.436 64.9916H348.816V48.0142H344.436V64.9916ZM332.858 61.1207V57.2838H336.185C337.408 57.2838 338.29 58.0987 338.29 59.2193C338.29 60.3398 337.408 61.1207 336.185 61.1207H332.858Z" fill="url(#paint13_linear_1370_5297)"/>
<path d="M357.773 57.6573V48.0142H353.495V64.9916H356.755L364.734 55.3484V64.9916H369.013V48.0142H365.753L357.773 57.6573Z" fill="white"/>
<path d="M357.773 57.6573V48.0142H353.495V64.9916H356.755L364.734 55.3484V64.9916H369.013V48.0142H365.753L357.773 57.6573Z" fill="url(#paint14_linear_1370_5297)"/>
<path d="M373.705 48.0142V64.9916H378.085V52.2246H385.317V48.0142H373.705Z" fill="white"/>
<path d="M373.705 48.0142V64.9916H378.085V52.2246H385.317V48.0142H373.705Z" fill="url(#paint15_linear_1370_5297)"/>
<path d="M398.225 47.5388C395.848 47.5388 394.014 48.3538 392.724 50.0175V48.0142H388.344V71.7825H392.724V62.9882C394.014 64.652 395.848 65.4669 398.225 65.4669C400.5 65.4669 402.469 64.6181 404.065 62.8864C405.695 61.1547 406.51 59.0155 406.51 56.5029C406.51 53.9902 405.695 51.885 404.065 50.1533C402.469 48.4217 400.5 47.5388 398.225 47.5388ZM394.048 59.9663C393.165 59.0495 392.724 57.895 392.724 56.5029C392.724 55.1107 393.165 53.9563 394.048 53.0735C394.931 52.1567 396.052 51.7153 397.41 51.7153C398.768 51.7153 399.888 52.1567 400.771 53.0735C401.688 53.9563 402.13 55.1107 402.13 56.5029C402.13 57.895 401.688 59.0495 400.771 59.9663C399.888 60.8491 398.768 61.2905 397.41 61.2905C396.052 61.2905 394.931 60.8491 394.048 59.9663Z" fill="white"/>
<path d="M398.225 47.5388C395.848 47.5388 394.014 48.3538 392.724 50.0175V48.0142H388.344V71.7825H392.724V62.9882C394.014 64.652 395.848 65.4669 398.225 65.4669C400.5 65.4669 402.469 64.6181 404.065 62.8864C405.695 61.1547 406.51 59.0155 406.51 56.5029C406.51 53.9902 405.695 51.885 404.065 50.1533C402.469 48.4217 400.5 47.5388 398.225 47.5388ZM394.048 59.9663C393.165 59.0495 392.724 57.895 392.724 56.5029C392.724 55.1107 393.165 53.9563 394.048 53.0735C394.931 52.1567 396.052 51.7153 397.41 51.7153C398.768 51.7153 399.888 52.1567 400.771 53.0735C401.688 53.9563 402.13 55.1107 402.13 56.5029C402.13 57.895 401.688 59.0495 400.771 59.9663C399.888 60.8491 398.768 61.2905 397.41 61.2905C396.052 61.2905 394.931 60.8491 394.048 59.9663Z" fill="url(#paint16_linear_1370_5297)"/>
<path d="M414.658 53.447V48.0142H410.278V64.9916H417.952C421.788 64.9916 424.369 62.7166 424.369 59.2193C424.369 55.7219 421.788 53.447 417.952 53.447H414.658ZM426.237 64.9916H430.617V48.0142H426.237V64.9916ZM414.658 61.1207V57.2838H417.986C419.208 57.2838 420.091 58.0987 420.091 59.2193C420.091 60.3398 419.208 61.1207 417.986 61.1207H414.658Z" fill="white"/>
<path d="M414.658 53.447V48.0142H410.278V64.9916H417.952C421.788 64.9916 424.369 62.7166 424.369 59.2193C424.369 55.7219 421.788 53.447 417.952 53.447H414.658ZM426.237 64.9916H430.617V48.0142H426.237V64.9916ZM414.658 61.1207V57.2838H417.986C419.208 57.2838 420.091 58.0987 420.091 59.2193C420.091 60.3398 419.208 61.1207 417.986 61.1207H414.658Z" fill="url(#paint17_linear_1370_5297)"/>
<path d="M447.519 56.2992C448.64 55.4503 449.183 54.2958 449.183 52.8018C449.183 49.9496 447.112 48.0142 443.547 48.0142H435.296V64.9916H444.226C447.859 64.9916 449.896 63.0222 449.896 60.17C449.896 58.3704 449.115 57.0801 447.519 56.2992ZM443.139 51.6134C444.395 51.6134 445.007 52.1227 445.007 53.1414C445.007 54.16 444.395 54.6693 443.139 54.6693H439.404V51.6134H443.139ZM439.404 61.2905V58.1327H443.716C444.905 58.1327 445.618 58.7099 445.618 59.6607C445.618 60.7472 444.973 61.2905 443.716 61.2905H439.404Z" fill="white"/>
<path d="M447.519 56.2992C448.64 55.4503 449.183 54.2958 449.183 52.8018C449.183 49.9496 447.112 48.0142 443.547 48.0142H435.296V64.9916H444.226C447.859 64.9916 449.896 63.0222 449.896 60.17C449.896 58.3704 449.115 57.0801 447.519 56.2992ZM443.139 51.6134C444.395 51.6134 445.007 52.1227 445.007 53.1414C445.007 54.16 444.395 54.6693 443.139 54.6693H439.404V51.6134H443.139ZM439.404 61.2905V58.1327H443.716C444.905 58.1327 445.618 58.7099 445.618 59.6607C445.618 60.7472 444.973 61.2905 443.716 61.2905H439.404Z" fill="url(#paint18_linear_1370_5297)"/>
<path d="M466.22 50.0175C464.895 48.3538 463.062 47.5388 460.685 47.5388C458.41 47.5388 456.474 48.4217 454.845 50.1533C453.249 51.885 452.434 53.9902 452.434 56.5029C452.434 59.0155 453.249 61.1547 454.845 62.8864C456.474 64.6181 458.41 65.4669 460.685 65.4669C463.062 65.4669 464.895 64.652 466.22 62.9882V64.9916H470.6V48.0142H466.22V50.0175ZM458.138 59.9663C457.255 59.0495 456.814 57.895 456.814 56.5029C456.814 55.1107 457.255 53.9563 458.138 53.0735C459.021 52.1567 460.142 51.7153 461.5 51.7153C462.858 51.7153 463.978 52.1567 464.861 53.0735C465.778 53.9563 466.22 55.1107 466.22 56.5029C466.22 57.895 465.778 59.0495 464.861 59.9663C463.978 60.8491 462.858 61.2905 461.5 61.2905C460.142 61.2905 459.021 60.8491 458.138 59.9663Z" fill="white"/>
<path d="M466.22 50.0175C464.895 48.3538 463.062 47.5388 460.685 47.5388C458.41 47.5388 456.474 48.4217 454.845 50.1533C453.249 51.885 452.434 53.9902 452.434 56.5029C452.434 59.0155 453.249 61.1547 454.845 62.8864C456.474 64.6181 458.41 65.4669 460.685 65.4669C463.062 65.4669 464.895 64.652 466.22 62.9882V64.9916H470.6V48.0142H466.22V50.0175ZM458.138 59.9663C457.255 59.0495 456.814 57.895 456.814 56.5029C456.814 55.1107 457.255 53.9563 458.138 53.0735C459.021 52.1567 460.142 51.7153 461.5 51.7153C462.858 51.7153 463.978 52.1567 464.861 53.0735C465.778 53.9563 466.22 55.1107 466.22 56.5029C466.22 57.895 465.778 59.0495 464.861 59.9663C463.978 60.8491 462.858 61.2905 461.5 61.2905C460.142 61.2905 459.021 60.8491 458.138 59.9663Z" fill="url(#paint19_linear_1370_5297)"/>
<path d="M487.95 45.8411V42.0382H478.103V45.8411H487.95ZM479.529 57.6573V48.0142H475.251V64.9916H478.51L486.49 55.3484V64.9916H490.768V48.0142H487.508L479.529 57.6573Z" fill="white"/>
<path d="M487.95 45.8411V42.0382H478.103V45.8411H487.95ZM479.529 57.6573V48.0142H475.251V64.9916H478.51L486.49 55.3484V64.9916H490.768V48.0142H487.508L479.529 57.6573Z" fill="url(#paint20_linear_1370_5297)"/>
<path d="M504.628 48.0142V64.9916H509.008V52.1227H515.765V64.9916H520.145V48.0142H504.628Z" fill="white"/>
<path d="M504.628 48.0142V64.9916H509.008V52.1227H515.765V64.9916H520.145V48.0142H504.628Z" fill="url(#paint21_linear_1370_5297)"/>
<path d="M534.719 47.5388C532.342 47.5388 530.508 48.3538 529.218 50.0175V48.0142H524.838V71.7825H529.218V62.9882C530.508 64.652 532.342 65.4669 534.719 65.4669C536.994 65.4669 538.963 64.6181 540.559 62.8864C542.189 61.1547 543.004 59.0155 543.004 56.5029C543.004 53.9902 542.189 51.885 540.559 50.1533C538.963 48.4217 536.994 47.5388 534.719 47.5388ZM530.542 59.9663C529.659 59.0495 529.218 57.895 529.218 56.5029C529.218 55.1107 529.659 53.9563 530.542 53.0735C531.425 52.1567 532.546 51.7153 533.904 51.7153C535.262 51.7153 536.382 52.1567 537.265 53.0735C538.182 53.9563 538.623 55.1107 538.623 56.5029C538.623 57.895 538.182 59.0495 537.265 59.9663C536.382 60.8491 535.262 61.2905 533.904 61.2905C532.546 61.2905 531.425 60.8491 530.542 59.9663Z" fill="white"/>
<path d="M534.719 47.5388C532.342 47.5388 530.508 48.3538 529.218 50.0175V48.0142H524.838V71.7825H529.218V62.9882C530.508 64.652 532.342 65.4669 534.719 65.4669C536.994 65.4669 538.963 64.6181 540.559 62.8864C542.189 61.1547 543.004 59.0155 543.004 56.5029C543.004 53.9902 542.189 51.885 540.559 50.1533C538.963 48.4217 536.994 47.5388 534.719 47.5388ZM530.542 59.9663C529.659 59.0495 529.218 57.895 529.218 56.5029C529.218 55.1107 529.659 53.9563 530.542 53.0735C531.425 52.1567 532.546 51.7153 533.904 51.7153C535.262 51.7153 536.382 52.1567 537.265 53.0735C538.182 53.9563 538.623 55.1107 538.623 56.5029C538.623 57.895 538.182 59.0495 537.265 59.9663C536.382 60.8491 535.262 61.2905 533.904 61.2905C532.546 61.2905 531.425 60.8491 530.542 59.9663Z" fill="url(#paint22_linear_1370_5297)"/>
<path d="M551.05 57.6573V48.0142H546.772V64.9916H550.031L558.011 55.3484V64.9916H562.289V48.0142H559.029L551.05 57.6573Z" fill="white"/>
<path d="M551.05 57.6573V48.0142H546.772V64.9916H550.031L558.011 55.3484V64.9916H562.289V48.0142H559.029L551.05 57.6573Z" fill="url(#paint23_linear_1370_5297)"/>
<path d="M576.93 56.3331C578.186 55.4842 578.798 54.2619 578.798 52.5981C578.798 51.2059 578.22 50.0175 577.066 49.0328C575.945 48.0482 574.384 47.5388 572.448 47.5388C569.324 47.5388 567.117 48.8291 565.827 51.4436L569.358 53.4809C570.003 52.0548 571.056 51.3418 572.516 51.3418C573.772 51.3418 574.621 51.9869 574.621 52.9716C574.621 54.0242 573.976 54.5335 572.652 54.5335H570.818V58.2685H573.229C574.553 58.2685 575.232 58.7778 575.232 59.8304C575.232 60.917 574.316 61.5961 572.686 61.5961C570.886 61.5961 569.732 60.8151 569.188 59.2872L565.623 61.3924C566.88 64.1087 569.222 65.4669 572.652 65.4669C576.998 65.4669 579.511 63.2599 579.511 60.3737C579.511 58.5062 578.662 57.182 576.93 56.3331Z" fill="white"/>
<path d="M576.93 56.3331C578.186 55.4842 578.798 54.2619 578.798 52.5981C578.798 51.2059 578.22 50.0175 577.066 49.0328C575.945 48.0482 574.384 47.5388 572.448 47.5388C569.324 47.5388 567.117 48.8291 565.827 51.4436L569.358 53.4809C570.003 52.0548 571.056 51.3418 572.516 51.3418C573.772 51.3418 574.621 51.9869 574.621 52.9716C574.621 54.0242 573.976 54.5335 572.652 54.5335H570.818V58.2685H573.229C574.553 58.2685 575.232 58.7778 575.232 59.8304C575.232 60.917 574.316 61.5961 572.686 61.5961C570.886 61.5961 569.732 60.8151 569.188 59.2872L565.623 61.3924C566.88 64.1087 569.222 65.4669 572.652 65.4669C576.998 65.4669 579.511 63.2599 579.511 60.3737C579.511 58.5062 578.662 57.182 576.93 56.3331Z" fill="url(#paint24_linear_1370_5297)"/>
<path d="M587.327 53.447V48.0142H582.947V64.9916H590.621C594.457 64.9916 597.038 62.7166 597.038 59.2193C597.038 55.7219 594.457 53.447 590.621 53.447H587.327ZM598.905 64.9916H603.286V48.0142H598.905V64.9916ZM587.327 61.1207V57.2838H590.654C591.877 57.2838 592.76 58.0987 592.76 59.2193C592.76 60.3398 591.877 61.1207 590.654 61.1207H587.327Z" fill="white"/>
<path d="M587.327 53.447V48.0142H582.947V64.9916H590.621C594.457 64.9916 597.038 62.7166 597.038 59.2193C597.038 55.7219 594.457 53.447 590.621 53.447H587.327ZM598.905 64.9916H603.286V48.0142H598.905V64.9916ZM587.327 61.1207V57.2838H590.654C591.877 57.2838 592.76 58.0987 592.76 59.2193C592.76 60.3398 591.877 61.1207 590.654 61.1207H587.327Z" fill="url(#paint25_linear_1370_5297)"/>
<path d="M612.243 57.0122L613.126 48.0142V41.2233H607.863V48.0142L608.779 57.0122H612.243ZM612.548 64.5841C613.669 63.4636 613.669 61.63 612.548 60.5095C611.428 59.389 609.594 59.389 608.474 60.5095C607.353 61.63 607.353 63.4636 608.474 64.5841C609.594 65.7046 611.428 65.7046 612.548 64.5841Z" fill="white"/>
<path d="M612.243 57.0122L613.126 48.0142V41.2233H607.863V48.0142L608.779 57.0122H612.243ZM612.548 64.5841C613.669 63.4636 613.669 61.63 612.548 60.5095C611.428 59.389 609.594 59.389 608.474 60.5095C607.353 61.63 607.353 63.4636 608.474 64.5841C609.594 65.7046 611.428 65.7046 612.548 64.5841Z" fill="url(#paint26_linear_1370_5297)"/>
</g>
<g filter="url(#filter1_f_1370_5297)">
<mask id="path-2-outside-1_1370_5297" maskUnits="userSpaceOnUse" x="37" y="35.5781" width="580" height="40" fill="black">
<rect fill="white" x="37" y="35.5781" width="580" height="40"/>
<path d="M42.7843 48.0142V57.6573C42.7843 60.2718 41.7996 61.3244 40 60.883V64.9916C44.7876 65.5009 47.1644 63.158 47.1644 57.895V52.2246H51.8502V64.9916H56.2303V48.0142H42.7843Z"/>
<path d="M65.157 57.6573V48.0142H60.8787V64.9916H64.1383L72.1177 55.3484V64.9916H76.396V48.0142H73.1363L65.157 57.6573Z"/>
<path d="M89.1696 65.4669C92.4632 65.4669 95.3493 63.7352 96.8433 61.0528L93.0404 58.8797C92.3613 60.2718 90.9013 61.1207 89.1356 61.1207C87.8114 61.1207 86.7248 60.6793 85.876 59.8304C85.0271 58.9476 84.5857 57.8271 84.5857 56.5029C84.5857 53.7865 86.5211 51.8511 89.1356 51.8511C90.8673 51.8511 92.3274 52.7339 93.0065 54.126L96.7754 51.919C95.3833 49.2366 92.4632 47.5388 89.1696 47.5388C86.623 47.5388 84.4838 48.3877 82.7521 50.1194C81.0544 51.8511 80.2055 53.9563 80.2055 56.5029C80.2055 59.0495 81.0544 61.1547 82.7521 62.8864C84.4838 64.6181 86.623 65.4669 89.1696 65.4669Z"/>
<path d="M98.0758 48.0142V52.2246H103.441V64.9916H107.821V52.2246H113.118V48.0142H98.0758Z"/>
<path d="M128.376 50.0175C127.051 48.3538 125.218 47.5388 122.841 47.5388C120.566 47.5388 118.631 48.4217 117.001 50.1533C115.405 51.885 114.59 53.9902 114.59 56.5029C114.59 59.0155 115.405 61.1547 117.001 62.8864C118.631 64.6181 120.566 65.4669 122.841 65.4669C125.218 65.4669 127.051 64.652 128.376 62.9882V64.9916H132.756V48.0142H128.376V50.0175ZM120.294 59.9663C119.412 59.0495 118.97 57.895 118.97 56.5029C118.97 55.1107 119.412 53.9563 120.294 53.0735C121.177 52.1567 122.298 51.7153 123.656 51.7153C125.014 51.7153 126.135 52.1567 127.017 53.0735C127.934 53.9563 128.376 55.1107 128.376 56.5029C128.376 57.895 127.934 59.0495 127.017 59.9663C126.135 60.8491 125.014 61.2905 123.656 61.2905C122.298 61.2905 121.177 60.8491 120.294 59.9663Z"/>
<path d="M150.106 45.8411V42.0382H140.259V45.8411H150.106ZM141.685 57.6573V48.0142H137.407V64.9916H140.666L148.646 55.3484V64.9916H152.924V48.0142H149.664L141.685 57.6573Z"/>
<path d="M179.008 56.2992C180.128 55.4503 180.672 54.2958 180.672 52.8018C180.672 49.9496 178.6 48.0142 175.035 48.0142H166.784V64.9916H175.714C179.347 64.9916 181.385 63.0222 181.385 60.17C181.385 58.3704 180.604 57.0801 179.008 56.2992ZM174.628 51.6134C175.884 51.6134 176.495 52.1227 176.495 53.1414C176.495 54.16 175.884 54.6693 174.628 54.6693H170.893V51.6134H174.628ZM170.893 61.2905V58.1327H175.205C176.393 58.1327 177.106 58.7099 177.106 59.6607C177.106 60.7472 176.461 61.2905 175.205 61.2905H170.893Z"/>
<path d="M197.708 50.0175C196.384 48.3538 194.55 47.5388 192.174 47.5388C189.899 47.5388 187.963 48.4217 186.333 50.1533C184.737 51.885 183.923 53.9902 183.923 56.5029C183.923 59.0155 184.737 61.1547 186.333 62.8864C187.963 64.6181 189.899 65.4669 192.174 65.4669C194.55 65.4669 196.384 64.652 197.708 62.9882V64.9916H202.088V48.0142H197.708V50.0175ZM189.627 59.9663C188.744 59.0495 188.303 57.895 188.303 56.5029C188.303 55.1107 188.744 53.9563 189.627 53.0735C190.51 52.1567 191.63 51.7153 192.988 51.7153C194.347 51.7153 195.467 52.1567 196.35 53.0735C197.267 53.9563 197.708 55.1107 197.708 56.5029C197.708 57.895 197.267 59.0495 196.35 59.9663C195.467 60.8491 194.347 61.2905 192.988 61.2905C191.63 61.2905 190.51 60.8491 189.627 59.9663Z"/>
<path d="M219.438 45.8411V42.0382H209.592V45.8411H219.438ZM211.018 57.6573V48.0142H206.739V64.9916H209.999L217.978 55.3484V64.9916H222.257V48.0142H218.997L211.018 57.6573Z"/>
<path d="M234.996 65.4669C237.543 65.4669 239.614 64.7199 241.176 63.2259C242.772 61.7319 243.553 59.8304 243.553 57.4876C243.553 55.2126 242.806 53.413 241.346 52.0548C239.886 50.6627 238.188 49.9836 236.32 49.9836C234.181 49.9836 232.484 50.6287 231.227 51.919C231.805 50.3231 232.925 49.3045 235.811 48.184C237.882 47.403 239.41 46.6221 240.429 45.8751C241.482 45.0941 242.127 44.0415 242.432 42.6494L238.833 40.5781C238.256 41.9024 237.916 42.5135 236.694 43.2605C236.253 43.5322 235.879 43.7359 235.607 43.8717L234.181 44.5848C233.468 44.8904 232.925 45.162 232.552 45.3318C229.937 46.6221 228.205 48.0482 227.356 49.644C226.508 51.2059 226.066 53.447 226.066 56.3331C226.066 58.9816 226.881 61.1547 228.511 62.8864C230.175 64.6181 232.314 65.4669 234.996 65.4669ZM234.928 53.4809C237.407 53.4809 239.173 55.1786 239.173 57.4876C239.173 58.642 238.765 59.5928 237.984 60.3398C237.203 61.0868 236.185 61.4603 234.962 61.4603C233.74 61.4603 232.721 61.0868 231.872 60.3058C231.058 59.5248 230.65 58.5402 230.65 57.3517C230.65 56.1633 231.091 55.2466 231.94 54.5335C232.823 53.8205 233.808 53.4809 234.928 53.4809Z"/>
<path d="M251.274 53.447V48.0142H246.893V64.9916H254.567C258.404 64.9916 260.985 62.7166 260.985 59.2193C260.985 55.7219 258.404 53.447 254.567 53.447H251.274ZM262.852 64.9916H267.232V48.0142H262.852V64.9916ZM251.274 61.1207V57.2838H254.601C255.823 57.2838 256.706 58.0987 256.706 59.2193C256.706 60.3398 255.823 61.1207 254.601 61.1207H251.274Z"/>
<path d="M285.357 57.6573V48.0142H281.079V64.9916H284.339L292.318 55.3484V64.9916H296.596V48.0142H293.337L285.357 57.6573Z"/>
<path d="M322.68 56.2992C323.801 55.4503 324.344 54.2958 324.344 52.8018C324.344 49.9496 322.273 48.0142 318.707 48.0142H310.456V64.9916H319.386C323.02 64.9916 325.057 63.0222 325.057 60.17C325.057 58.3704 324.276 57.0801 322.68 56.2992ZM318.3 51.6134C319.556 51.6134 320.167 52.1227 320.167 53.1414C320.167 54.16 319.556 54.6693 318.3 54.6693H314.565V51.6134H318.3ZM314.565 61.2905V58.1327H318.877C320.065 58.1327 320.779 58.7099 320.779 59.6607C320.779 60.7472 320.133 61.2905 318.877 61.2905H314.565Z"/>
<path d="M332.858 53.447V48.0142H328.478V64.9916H336.151C339.988 64.9916 342.569 62.7166 342.569 59.2193C342.569 55.7219 339.988 53.447 336.151 53.447H332.858ZM344.436 64.9916H348.816V48.0142H344.436V64.9916ZM332.858 61.1207V57.2838H336.185C337.408 57.2838 338.29 58.0987 338.29 59.2193C338.29 60.3398 337.408 61.1207 336.185 61.1207H332.858Z"/>
<path d="M357.773 57.6573V48.0142H353.495V64.9916H356.755L364.734 55.3484V64.9916H369.013V48.0142H365.753L357.773 57.6573Z"/>
<path d="M373.705 48.0142V64.9916H378.085V52.2246H385.317V48.0142H373.705Z"/>
<path d="M398.225 47.5388C395.848 47.5388 394.014 48.3538 392.724 50.0175V48.0142H388.344V71.7825H392.724V62.9882C394.014 64.652 395.848 65.4669 398.225 65.4669C400.5 65.4669 402.469 64.6181 404.065 62.8864C405.695 61.1547 406.51 59.0155 406.51 56.5029C406.51 53.9902 405.695 51.885 404.065 50.1533C402.469 48.4217 400.5 47.5388 398.225 47.5388ZM394.048 59.9663C393.165 59.0495 392.724 57.895 392.724 56.5029C392.724 55.1107 393.165 53.9563 394.048 53.0735C394.931 52.1567 396.052 51.7153 397.41 51.7153C398.768 51.7153 399.888 52.1567 400.771 53.0735C401.688 53.9563 402.13 55.1107 402.13 56.5029C402.13 57.895 401.688 59.0495 400.771 59.9663C399.888 60.8491 398.768 61.2905 397.41 61.2905C396.052 61.2905 394.931 60.8491 394.048 59.9663Z"/>
<path d="M414.658 53.447V48.0142H410.278V64.9916H417.952C421.788 64.9916 424.369 62.7166 424.369 59.2193C424.369 55.7219 421.788 53.447 417.952 53.447H414.658ZM426.237 64.9916H430.617V48.0142H426.237V64.9916ZM414.658 61.1207V57.2838H417.986C419.208 57.2838 420.091 58.0987 420.091 59.2193C420.091 60.3398 419.208 61.1207 417.986 61.1207H414.658Z"/>
<path d="M447.519 56.2992C448.64 55.4503 449.183 54.2958 449.183 52.8018C449.183 49.9496 447.112 48.0142 443.547 48.0142H435.296V64.9916H444.226C447.859 64.9916 449.896 63.0222 449.896 60.17C449.896 58.3704 449.115 57.0801 447.519 56.2992ZM443.139 51.6134C444.395 51.6134 445.007 52.1227 445.007 53.1414C445.007 54.16 444.395 54.6693 443.139 54.6693H439.404V51.6134H443.139ZM439.404 61.2905V58.1327H443.716C444.905 58.1327 445.618 58.7099 445.618 59.6607C445.618 60.7472 444.973 61.2905 443.716 61.2905H439.404Z"/>
<path d="M466.22 50.0175C464.895 48.3538 463.062 47.5388 460.685 47.5388C458.41 47.5388 456.474 48.4217 454.845 50.1533C453.249 51.885 452.434 53.9902 452.434 56.5029C452.434 59.0155 453.249 61.1547 454.845 62.8864C456.474 64.6181 458.41 65.4669 460.685 65.4669C463.062 65.4669 464.895 64.652 466.22 62.9882V64.9916H470.6V48.0142H466.22V50.0175ZM458.138 59.9663C457.255 59.0495 456.814 57.895 456.814 56.5029C456.814 55.1107 457.255 53.9563 458.138 53.0735C459.021 52.1567 460.142 51.7153 461.5 51.7153C462.858 51.7153 463.978 52.1567 464.861 53.0735C465.778 53.9563 466.22 55.1107 466.22 56.5029C466.22 57.895 465.778 59.0495 464.861 59.9663C463.978 60.8491 462.858 61.2905 461.5 61.2905C460.142 61.2905 459.021 60.8491 458.138 59.9663Z"/>
<path d="M487.95 45.8411V42.0382H478.103V45.8411H487.95ZM479.529 57.6573V48.0142H475.251V64.9916H478.51L486.49 55.3484V64.9916H490.768V48.0142H487.508L479.529 57.6573Z"/>
<path d="M504.628 48.0142V64.9916H509.008V52.1227H515.765V64.9916H520.145V48.0142H504.628Z"/>
<path d="M534.719 47.5388C532.342 47.5388 530.508 48.3538 529.218 50.0175V48.0142H524.838V71.7825H529.218V62.9882C530.508 64.652 532.342 65.4669 534.719 65.4669C536.994 65.4669 538.963 64.6181 540.559 62.8864C542.189 61.1547 543.004 59.0155 543.004 56.5029C543.004 53.9902 542.189 51.885 540.559 50.1533C538.963 48.4217 536.994 47.5388 534.719 47.5388ZM530.542 59.9663C529.659 59.0495 529.218 57.895 529.218 56.5029C529.218 55.1107 529.659 53.9563 530.542 53.0735C531.425 52.1567 532.546 51.7153 533.904 51.7153C535.262 51.7153 536.382 52.1567 537.265 53.0735C538.182 53.9563 538.623 55.1107 538.623 56.5029C538.623 57.895 538.182 59.0495 537.265 59.9663C536.382 60.8491 535.262 61.2905 533.904 61.2905C532.546 61.2905 531.425 60.8491 530.542 59.9663Z"/>
<path d="M551.05 57.6573V48.0142H546.772V64.9916H550.031L558.011 55.3484V64.9916H562.289V48.0142H559.029L551.05 57.6573Z"/>
<path d="M576.93 56.3331C578.186 55.4842 578.798 54.2619 578.798 52.5981C578.798 51.2059 578.22 50.0175 577.066 49.0328C575.945 48.0482 574.384 47.5388 572.448 47.5388C569.324 47.5388 567.117 48.8291 565.827 51.4436L569.358 53.4809C570.003 52.0548 571.056 51.3418 572.516 51.3418C573.772 51.3418 574.621 51.9869 574.621 52.9716C574.621 54.0242 573.976 54.5335 572.652 54.5335H570.818V58.2685H573.229C574.553 58.2685 575.232 58.7778 575.232 59.8304C575.232 60.917 574.316 61.5961 572.686 61.5961C570.886 61.5961 569.732 60.8151 569.188 59.2872L565.623 61.3924C566.88 64.1087 569.222 65.4669 572.652 65.4669C576.998 65.4669 579.511 63.2599 579.511 60.3737C579.511 58.5062 578.662 57.182 576.93 56.3331Z"/>
<path d="M587.327 53.447V48.0142H582.947V64.9916H590.621C594.457 64.9916 597.038 62.7166 597.038 59.2193C597.038 55.7219 594.457 53.447 590.621 53.447H587.327ZM598.905 64.9916H603.286V48.0142H598.905V64.9916ZM587.327 61.1207V57.2838H590.654C591.877 57.2838 592.76 58.0987 592.76 59.2193C592.76 60.3398 591.877 61.1207 590.654 61.1207H587.327Z"/>
<path d="M612.243 57.0122L613.126 48.0142V41.2233H607.863V48.0142L608.779 57.0122H612.243ZM612.548 64.5841C613.669 63.4636 613.669 61.63 612.548 60.5095C611.428 59.389 609.594 59.389 608.474 60.5095C607.353 61.63 607.353 63.4636 608.474 64.5841C609.594 65.7046 611.428 65.7046 612.548 64.5841Z"/>
</mask>
<path d="M42.7843 48.0142V57.6573C42.7843 60.2718 41.7996 61.3244 40 60.883V64.9916C44.7876 65.5009 47.1644 63.158 47.1644 57.895V52.2246H51.8502V64.9916H56.2303V48.0142H42.7843Z" stroke="#FFE0BB" stroke-opacity="0.8" stroke-width="5.8" mask="url(#path-2-outside-1_1370_5297)"/>
<path d="M65.157 57.6573V48.0142H60.8787V64.9916H64.1383L72.1177 55.3484V64.9916H76.396V48.0142H73.1363L65.157 57.6573Z" stroke="#FFE0BB" stroke-opacity="0.8" stroke-width="5.8" mask="url(#path-2-outside-1_1370_5297)"/>
<path d="M89.1696 65.4669C92.4632 65.4669 95.3493 63.7352 96.8433 61.0528L93.0404 58.8797C92.3613 60.2718 90.9013 61.1207 89.1356 61.1207C87.8114 61.1207 86.7248 60.6793 85.876 59.8304C85.0271 58.9476 84.5857 57.8271 84.5857 56.5029C84.5857 53.7865 86.5211 51.8511 89.1356 51.8511C90.8673 51.8511 92.3274 52.7339 93.0065 54.126L96.7754 51.919C95.3833 49.2366 92.4632 47.5388 89.1696 47.5388C86.623 47.5388 84.4838 48.3877 82.7521 50.1194C81.0544 51.8511 80.2055 53.9563 80.2055 56.5029C80.2055 59.0495 81.0544 61.1547 82.7521 62.8864C84.4838 64.6181 86.623 65.4669 89.1696 65.4669Z" stroke="#FFE0BB" stroke-opacity="0.8" stroke-width="5.8" mask="url(#path-2-outside-1_1370_5297)"/>
<path d="M98.0758 48.0142V52.2246H103.441V64.9916H107.821V52.2246H113.118V48.0142H98.0758Z" stroke="#FFE0BB" stroke-opacity="0.8" stroke-width="5.8" mask="url(#path-2-outside-1_1370_5297)"/>
<path d="M128.376 50.0175C127.051 48.3538 125.218 47.5388 122.841 47.5388C120.566 47.5388 118.631 48.4217 117.001 50.1533C115.405 51.885 114.59 53.9902 114.59 56.5029C114.59 59.0155 115.405 61.1547 117.001 62.8864C118.631 64.6181 120.566 65.4669 122.841 65.4669C125.218 65.4669 127.051 64.652 128.376 62.9882V64.9916H132.756V48.0142H128.376V50.0175ZM120.294 59.9663C119.412 59.0495 118.97 57.895 118.97 56.5029C118.97 55.1107 119.412 53.9563 120.294 53.0735C121.177 52.1567 122.298 51.7153 123.656 51.7153C125.014 51.7153 126.135 52.1567 127.017 53.0735C127.934 53.9563 128.376 55.1107 128.376 56.5029C128.376 57.895 127.934 59.0495 127.017 59.9663C126.135 60.8491 125.014 61.2905 123.656 61.2905C122.298 61.2905 121.177 60.8491 120.294 59.9663Z" stroke="#FFE0BB" stroke-opacity="0.8" stroke-width="5.8" mask="url(#path-2-outside-1_1370_5297)"/>
<path d="M150.106 45.8411V42.0382H140.259V45.8411H150.106ZM141.685 57.6573V48.0142H137.407V64.9916H140.666L148.646 55.3484V64.9916H152.924V48.0142H149.664L141.685 57.6573Z" stroke="#FFE0BB" stroke-opacity="0.8" stroke-width="5.8" mask="url(#path-2-outside-1_1370_5297)"/>
<path d="M179.008 56.2992C180.128 55.4503 180.672 54.2958 180.672 52.8018C180.672 49.9496 178.6 48.0142 175.035 48.0142H166.784V64.9916H175.714C179.347 64.9916 181.385 63.0222 181.385 60.17C181.385 58.3704 180.604 57.0801 179.008 56.2992ZM174.628 51.6134C175.884 51.6134 176.495 52.1227 176.495 53.1414C176.495 54.16 175.884 54.6693 174.628 54.6693H170.893V51.6134H174.628ZM170.893 61.2905V58.1327H175.205C176.393 58.1327 177.106 58.7099 177.106 59.6607C177.106 60.7472 176.461 61.2905 175.205 61.2905H170.893Z" stroke="#FFE0BB" stroke-opacity="0.8" stroke-width="5.8" mask="url(#path-2-outside-1_1370_5297)"/>
<path d="M197.708 50.0175C196.384 48.3538 194.55 47.5388 192.174 47.5388C189.899 47.5388 187.963 48.4217 186.333 50.1533C184.737 51.885 183.923 53.9902 183.923 56.5029C183.923 59.0155 184.737 61.1547 186.333 62.8864C187.963 64.6181 189.899 65.4669 192.174 65.4669C194.55 65.4669 196.384 64.652 197.708 62.9882V64.9916H202.088V48.0142H197.708V50.0175ZM189.627 59.9663C188.744 59.0495 188.303 57.895 188.303 56.5029C188.303 55.1107 188.744 53.9563 189.627 53.0735C190.51 52.1567 191.63 51.7153 192.988 51.7153C194.347 51.7153 195.467 52.1567 196.35 53.0735C197.267 53.9563 197.708 55.1107 197.708 56.5029C197.708 57.895 197.267 59.0495 196.35 59.9663C195.467 60.8491 194.347 61.2905 192.988 61.2905C191.63 61.2905 190.51 60.8491 189.627 59.9663Z" stroke="#FFE0BB" stroke-opacity="0.8" stroke-width="5.8" mask="url(#path-2-outside-1_1370_5297)"/>
<path d="M219.438 45.8411V42.0382H209.592V45.8411H219.438ZM211.018 57.6573V48.0142H206.739V64.9916H209.999L217.978 55.3484V64.9916H222.257V48.0142H218.997L211.018 57.6573Z" stroke="#FFE0BB" stroke-opacity="0.8" stroke-width="5.8" mask="url(#path-2-outside-1_1370_5297)"/>
<path d="M234.996 65.4669C237.543 65.4669 239.614 64.7199 241.176 63.2259C242.772 61.7319 243.553 59.8304 243.553 57.4876C243.553 55.2126 242.806 53.413 241.346 52.0548C239.886 50.6627 238.188 49.9836 236.32 49.9836C234.181 49.9836 232.484 50.6287 231.227 51.919C231.805 50.3231 232.925 49.3045 235.811 48.184C237.882 47.403 239.41 46.6221 240.429 45.8751C241.482 45.0941 242.127 44.0415 242.432 42.6494L238.833 40.5781C238.256 41.9024 237.916 42.5135 236.694 43.2605C236.253 43.5322 235.879 43.7359 235.607 43.8717L234.181 44.5848C233.468 44.8904 232.925 45.162 232.552 45.3318C229.937 46.6221 228.205 48.0482 227.356 49.644C226.508 51.2059 226.066 53.447 226.066 56.3331C226.066 58.9816 226.881 61.1547 228.511 62.8864C230.175 64.6181 232.314 65.4669 234.996 65.4669ZM234.928 53.4809C237.407 53.4809 239.173 55.1786 239.173 57.4876C239.173 58.642 238.765 59.5928 237.984 60.3398C237.203 61.0868 236.185 61.4603 234.962 61.4603C233.74 61.4603 232.721 61.0868 231.872 60.3058C231.058 59.5248 230.65 58.5402 230.65 57.3517C230.65 56.1633 231.091 55.2466 231.94 54.5335C232.823 53.8205 233.808 53.4809 234.928 53.4809Z" stroke="#FFE0BB" stroke-opacity="0.8" stroke-width="5.8" mask="url(#path-2-outside-1_1370_5297)"/>
<path d="M251.274 53.447V48.0142H246.893V64.9916H254.567C258.404 64.9916 260.985 62.7166 260.985 59.2193C260.985 55.7219 258.404 53.447 254.567 53.447H251.274ZM262.852 64.9916H267.232V48.0142H262.852V64.9916ZM251.274 61.1207V57.2838H254.601C255.823 57.2838 256.706 58.0987 256.706 59.2193C256.706 60.3398 255.823 61.1207 254.601 61.1207H251.274Z" stroke="#FFE0BB" stroke-opacity="0.8" stroke-width="5.8" mask="url(#path-2-outside-1_1370_5297)"/>
<path d="M285.357 57.6573V48.0142H281.079V64.9916H284.339L292.318 55.3484V64.9916H296.596V48.0142H293.337L285.357 57.6573Z" stroke="#FFE0BB" stroke-opacity="0.8" stroke-width="5.8" mask="url(#path-2-outside-1_1370_5297)"/>
<path d="M322.68 56.2992C323.801 55.4503 324.344 54.2958 324.344 52.8018C324.344 49.9496 322.273 48.0142 318.707 48.0142H310.456V64.9916H319.386C323.02 64.9916 325.057 63.0222 325.057 60.17C325.057 58.3704 324.276 57.0801 322.68 56.2992ZM318.3 51.6134C319.556 51.6134 320.167 52.1227 320.167 53.1414C320.167 54.16 319.556 54.6693 318.3 54.6693H314.565V51.6134H318.3ZM314.565 61.2905V58.1327H318.877C320.065 58.1327 320.779 58.7099 320.779 59.6607C320.779 60.7472 320.133 61.2905 318.877 61.2905H314.565Z" stroke="#FFE0BB" stroke-opacity="0.8" stroke-width="5.8" mask="url(#path-2-outside-1_1370_5297)"/>
<path d="M332.858 53.447V48.0142H328.478V64.9916H336.151C339.988 64.9916 342.569 62.7166 342.569 59.2193C342.569 55.7219 339.988 53.447 336.151 53.447H332.858ZM344.436 64.9916H348.816V48.0142H344.436V64.9916ZM332.858 61.1207V57.2838H336.185C337.408 57.2838 338.29 58.0987 338.29 59.2193C338.29 60.3398 337.408 61.1207 336.185 61.1207H332.858Z" stroke="#FFE0BB" stroke-opacity="0.8" stroke-width="5.8" mask="url(#path-2-outside-1_1370_5297)"/>
<path d="M357.773 57.6573V48.0142H353.495V64.9916H356.755L364.734 55.3484V64.9916H369.013V48.0142H365.753L357.773 57.6573Z" stroke="#FFE0BB" stroke-opacity="0.8" stroke-width="5.8" mask="url(#path-2-outside-1_1370_5297)"/>
<path d="M373.705 48.0142V64.9916H378.085V52.2246H385.317V48.0142H373.705Z" stroke="#FFE0BB" stroke-opacity="0.8" stroke-width="5.8" mask="url(#path-2-outside-1_1370_5297)"/>
<path d="M398.225 47.5388C395.848 47.5388 394.014 48.3538 392.724 50.0175V48.0142H388.344V71.7825H392.724V62.9882C394.014 64.652 395.848 65.4669 398.225 65.4669C400.5 65.4669 402.469 64.6181 404.065 62.8864C405.695 61.1547 406.51 59.0155 406.51 56.5029C406.51 53.9902 405.695 51.885 404.065 50.1533C402.469 48.4217 400.5 47.5388 398.225 47.5388ZM394.048 59.9663C393.165 59.0495 392.724 57.895 392.724 56.5029C392.724 55.1107 393.165 53.9563 394.048 53.0735C394.931 52.1567 396.052 51.7153 397.41 51.7153C398.768 51.7153 399.888 52.1567 400.771 53.0735C401.688 53.9563 402.13 55.1107 402.13 56.5029C402.13 57.895 401.688 59.0495 400.771 59.9663C399.888 60.8491 398.768 61.2905 397.41 61.2905C396.052 61.2905 394.931 60.8491 394.048 59.9663Z" stroke="#FFE0BB" stroke-opacity="0.8" stroke-width="5.8" mask="url(#path-2-outside-1_1370_5297)"/>
<path d="M414.658 53.447V48.0142H410.278V64.9916H417.952C421.788 64.9916 424.369 62.7166 424.369 59.2193C424.369 55.7219 421.788 53.447 417.952 53.447H414.658ZM426.237 64.9916H430.617V48.0142H426.237V64.9916ZM414.658 61.1207V57.2838H417.986C419.208 57.2838 420.091 58.0987 420.091 59.2193C420.091 60.3398 419.208 61.1207 417.986 61.1207H414.658Z" stroke="#FFE0BB" stroke-opacity="0.8" stroke-width="5.8" mask="url(#path-2-outside-1_1370_5297)"/>
<path d="M447.519 56.2992C448.64 55.4503 449.183 54.2958 449.183 52.8018C449.183 49.9496 447.112 48.0142 443.547 48.0142H435.296V64.9916H444.226C447.859 64.9916 449.896 63.0222 449.896 60.17C449.896 58.3704 449.115 57.0801 447.519 56.2992ZM443.139 51.6134C444.395 51.6134 445.007 52.1227 445.007 53.1414C445.007 54.16 444.395 54.6693 443.139 54.6693H439.404V51.6134H443.139ZM439.404 61.2905V58.1327H443.716C444.905 58.1327 445.618 58.7099 445.618 59.6607C445.618 60.7472 444.973 61.2905 443.716 61.2905H439.404Z" stroke="#FFE0BB" stroke-opacity="0.8" stroke-width="5.8" mask="url(#path-2-outside-1_1370_5297)"/>
<path d="M466.22 50.0175C464.895 48.3538 463.062 47.5388 460.685 47.5388C458.41 47.5388 456.474 48.4217 454.845 50.1533C453.249 51.885 452.434 53.9902 452.434 56.5029C452.434 59.0155 453.249 61.1547 454.845 62.8864C456.474 64.6181 458.41 65.4669 460.685 65.4669C463.062 65.4669 464.895 64.652 466.22 62.9882V64.9916H470.6V48.0142H466.22V50.0175ZM458.138 59.9663C457.255 59.0495 456.814 57.895 456.814 56.5029C456.814 55.1107 457.255 53.9563 458.138 53.0735C459.021 52.1567 460.142 51.7153 461.5 51.7153C462.858 51.7153 463.978 52.1567 464.861 53.0735C465.778 53.9563 466.22 55.1107 466.22 56.5029C466.22 57.895 465.778 59.0495 464.861 59.9663C463.978 60.8491 462.858 61.2905 461.5 61.2905C460.142 61.2905 459.021 60.8491 458.138 59.9663Z" stroke="#FFE0BB" stroke-opacity="0.8" stroke-width="5.8" mask="url(#path-2-outside-1_1370_5297)"/>
<path d="M487.95 45.8411V42.0382H478.103V45.8411H487.95ZM479.529 57.6573V48.0142H475.251V64.9916H478.51L486.49 55.3484V64.9916H490.768V48.0142H487.508L479.529 57.6573Z" stroke="#FFE0BB" stroke-opacity="0.8" stroke-width="5.8" mask="url(#path-2-outside-1_1370_5297)"/>
<path d="M504.628 48.0142V64.9916H509.008V52.1227H515.765V64.9916H520.145V48.0142H504.628Z" stroke="#FFE0BB" stroke-opacity="0.8" stroke-width="5.8" mask="url(#path-2-outside-1_1370_5297)"/>
<path d="M534.719 47.5388C532.342 47.5388 530.508 48.3538 529.218 50.0175V48.0142H524.838V71.7825H529.218V62.9882C530.508 64.652 532.342 65.4669 534.719 65.4669C536.994 65.4669 538.963 64.6181 540.559 62.8864C542.189 61.1547 543.004 59.0155 543.004 56.5029C543.004 53.9902 542.189 51.885 540.559 50.1533C538.963 48.4217 536.994 47.5388 534.719 47.5388ZM530.542 59.9663C529.659 59.0495 529.218 57.895 529.218 56.5029C529.218 55.1107 529.659 53.9563 530.542 53.0735C531.425 52.1567 532.546 51.7153 533.904 51.7153C535.262 51.7153 536.382 52.1567 537.265 53.0735C538.182 53.9563 538.623 55.1107 538.623 56.5029C538.623 57.895 538.182 59.0495 537.265 59.9663C536.382 60.8491 535.262 61.2905 533.904 61.2905C532.546 61.2905 531.425 60.8491 530.542 59.9663Z" stroke="#FFE0BB" stroke-opacity="0.8" stroke-width="5.8" mask="url(#path-2-outside-1_1370_5297)"/>
<path d="M551.05 57.6573V48.0142H546.772V64.9916H550.031L558.011 55.3484V64.9916H562.289V48.0142H559.029L551.05 57.6573Z" stroke="#FFE0BB" stroke-opacity="0.8" stroke-width="5.8" mask="url(#path-2-outside-1_1370_5297)"/>
<path d="M576.93 56.3331C578.186 55.4842 578.798 54.2619 578.798 52.5981C578.798 51.2059 578.22 50.0175 577.066 49.0328C575.945 48.0482 574.384 47.5388 572.448 47.5388C569.324 47.5388 567.117 48.8291 565.827 51.4436L569.358 53.4809C570.003 52.0548 571.056 51.3418 572.516 51.3418C573.772 51.3418 574.621 51.9869 574.621 52.9716C574.621 54.0242 573.976 54.5335 572.652 54.5335H570.818V58.2685H573.229C574.553 58.2685 575.232 58.7778 575.232 59.8304C575.232 60.917 574.316 61.5961 572.686 61.5961C570.886 61.5961 569.732 60.8151 569.188 59.2872L565.623 61.3924C566.88 64.1087 569.222 65.4669 572.652 65.4669C576.998 65.4669 579.511 63.2599 579.511 60.3737C579.511 58.5062 578.662 57.182 576.93 56.3331Z" stroke="#FFE0BB" stroke-opacity="0.8" stroke-width="5.8" mask="url(#path-2-outside-1_1370_5297)"/>
<path d="M587.327 53.447V48.0142H582.947V64.9916H590.621C594.457 64.9916 597.038 62.7166 597.038 59.2193C597.038 55.7219 594.457 53.447 590.621 53.447H587.327ZM598.905 64.9916H603.286V48.0142H598.905V64.9916ZM587.327 61.1207V57.2838H590.654C591.877 57.2838 592.76 58.0987 592.76 59.2193C592.76 60.3398 591.877 61.1207 590.654 61.1207H587.327Z" stroke="#FFE0BB" stroke-opacity="0.8" stroke-width="5.8" mask="url(#path-2-outside-1_1370_5297)"/>
<path d="M612.243 57.0122L613.126 48.0142V41.2233H607.863V48.0142L608.779 57.0122H612.243ZM612.548 64.5841C613.669 63.4636 613.669 61.63 612.548 60.5095C611.428 59.389 609.594 59.389 608.474 60.5095C607.353 61.63 607.353 63.4636 608.474 64.5841C609.594 65.7046 611.428 65.7046 612.548 64.5841Z" stroke="#FFE0BB" stroke-opacity="0.8" stroke-width="5.8" mask="url(#path-2-outside-1_1370_5297)"/>
</g>
<g filter="url(#filter2_f_1370_5297)">
<mask id="path-3-outside-2_1370_5297" maskUnits="userSpaceOnUse" x="38" y="38.5781" width="577" height="35" fill="black">
<rect fill="white" x="38" y="38.5781" width="577" height="35"/>
<path d="M42.7843 48.0142V57.6573C42.7843 60.2718 41.7996 61.3244 40 60.883V64.9916C44.7876 65.5009 47.1644 63.158 47.1644 57.895V52.2246H51.8502V64.9916H56.2303V48.0142H42.7843Z"/>
<path d="M65.157 57.6573V48.0142H60.8787V64.9916H64.1383L72.1177 55.3484V64.9916H76.396V48.0142H73.1363L65.157 57.6573Z"/>
<path d="M89.1696 65.4669C92.4632 65.4669 95.3493 63.7352 96.8433 61.0528L93.0404 58.8797C92.3613 60.2718 90.9013 61.1207 89.1356 61.1207C87.8114 61.1207 86.7248 60.6793 85.876 59.8304C85.0271 58.9476 84.5857 57.8271 84.5857 56.5029C84.5857 53.7865 86.5211 51.8511 89.1356 51.8511C90.8673 51.8511 92.3274 52.7339 93.0065 54.126L96.7754 51.919C95.3833 49.2366 92.4632 47.5388 89.1696 47.5388C86.623 47.5388 84.4838 48.3877 82.7521 50.1194C81.0544 51.8511 80.2055 53.9563 80.2055 56.5029C80.2055 59.0495 81.0544 61.1547 82.7521 62.8864C84.4838 64.6181 86.623 65.4669 89.1696 65.4669Z"/>
<path d="M98.0758 48.0142V52.2246H103.441V64.9916H107.821V52.2246H113.118V48.0142H98.0758Z"/>
<path d="M128.376 50.0175C127.051 48.3538 125.218 47.5388 122.841 47.5388C120.566 47.5388 118.631 48.4217 117.001 50.1533C115.405 51.885 114.59 53.9902 114.59 56.5029C114.59 59.0155 115.405 61.1547 117.001 62.8864C118.631 64.6181 120.566 65.4669 122.841 65.4669C125.218 65.4669 127.051 64.652 128.376 62.9882V64.9916H132.756V48.0142H128.376V50.0175ZM120.294 59.9663C119.412 59.0495 118.97 57.895 118.97 56.5029C118.97 55.1107 119.412 53.9563 120.294 53.0735C121.177 52.1567 122.298 51.7153 123.656 51.7153C125.014 51.7153 126.135 52.1567 127.017 53.0735C127.934 53.9563 128.376 55.1107 128.376 56.5029C128.376 57.895 127.934 59.0495 127.017 59.9663C126.135 60.8491 125.014 61.2905 123.656 61.2905C122.298 61.2905 121.177 60.8491 120.294 59.9663Z"/>
<path d="M150.106 45.8411V42.0382H140.259V45.8411H150.106ZM141.685 57.6573V48.0142H137.407V64.9916H140.666L148.646 55.3484V64.9916H152.924V48.0142H149.664L141.685 57.6573Z"/>
<path d="M179.008 56.2992C180.128 55.4503 180.672 54.2958 180.672 52.8018C180.672 49.9496 178.6 48.0142 175.035 48.0142H166.784V64.9916H175.714C179.347 64.9916 181.385 63.0222 181.385 60.17C181.385 58.3704 180.604 57.0801 179.008 56.2992ZM174.628 51.6134C175.884 51.6134 176.495 52.1227 176.495 53.1414C176.495 54.16 175.884 54.6693 174.628 54.6693H170.893V51.6134H174.628ZM170.893 61.2905V58.1327H175.205C176.393 58.1327 177.106 58.7099 177.106 59.6607C177.106 60.7472 176.461 61.2905 175.205 61.2905H170.893Z"/>
<path d="M197.708 50.0175C196.384 48.3538 194.55 47.5388 192.174 47.5388C189.899 47.5388 187.963 48.4217 186.333 50.1533C184.737 51.885 183.923 53.9902 183.923 56.5029C183.923 59.0155 184.737 61.1547 186.333 62.8864C187.963 64.6181 189.899 65.4669 192.174 65.4669C194.55 65.4669 196.384 64.652 197.708 62.9882V64.9916H202.088V48.0142H197.708V50.0175ZM189.627 59.9663C188.744 59.0495 188.303 57.895 188.303 56.5029C188.303 55.1107 188.744 53.9563 189.627 53.0735C190.51 52.1567 191.63 51.7153 192.988 51.7153C194.347 51.7153 195.467 52.1567 196.35 53.0735C197.267 53.9563 197.708 55.1107 197.708 56.5029C197.708 57.895 197.267 59.0495 196.35 59.9663C195.467 60.8491 194.347 61.2905 192.988 61.2905C191.63 61.2905 190.51 60.8491 189.627 59.9663Z"/>
<path d="M219.438 45.8411V42.0382H209.592V45.8411H219.438ZM211.018 57.6573V48.0142H206.739V64.9916H209.999L217.978 55.3484V64.9916H222.257V48.0142H218.997L211.018 57.6573Z"/>
<path d="M234.996 65.4669C237.543 65.4669 239.614 64.7199 241.176 63.2259C242.772 61.7319 243.553 59.8304 243.553 57.4876C243.553 55.2126 242.806 53.413 241.346 52.0548C239.886 50.6627 238.188 49.9836 236.32 49.9836C234.181 49.9836 232.484 50.6287 231.227 51.919C231.805 50.3231 232.925 49.3045 235.811 48.184C237.882 47.403 239.41 46.6221 240.429 45.8751C241.482 45.0941 242.127 44.0415 242.432 42.6494L238.833 40.5781C238.256 41.9024 237.916 42.5135 236.694 43.2605C236.253 43.5322 235.879 43.7359 235.607 43.8717L234.181 44.5848C233.468 44.8904 232.925 45.162 232.552 45.3318C229.937 46.6221 228.205 48.0482 227.356 49.644C226.508 51.2059 226.066 53.447 226.066 56.3331C226.066 58.9816 226.881 61.1547 228.511 62.8864C230.175 64.6181 232.314 65.4669 234.996 65.4669ZM234.928 53.4809C237.407 53.4809 239.173 55.1786 239.173 57.4876C239.173 58.642 238.765 59.5928 237.984 60.3398C237.203 61.0868 236.185 61.4603 234.962 61.4603C233.74 61.4603 232.721 61.0868 231.872 60.3058C231.058 59.5248 230.65 58.5402 230.65 57.3517C230.65 56.1633 231.091 55.2466 231.94 54.5335C232.823 53.8205 233.808 53.4809 234.928 53.4809Z"/>
<path d="M251.274 53.447V48.0142H246.893V64.9916H254.567C258.404 64.9916 260.985 62.7166 260.985 59.2193C260.985 55.7219 258.404 53.447 254.567 53.447H251.274ZM262.852 64.9916H267.232V48.0142H262.852V64.9916ZM251.274 61.1207V57.2838H254.601C255.823 57.2838 256.706 58.0987 256.706 59.2193C256.706 60.3398 255.823 61.1207 254.601 61.1207H251.274Z"/>
<path d="M285.357 57.6573V48.0142H281.079V64.9916H284.339L292.318 55.3484V64.9916H296.596V48.0142H293.337L285.357 57.6573Z"/>
<path d="M322.68 56.2992C323.801 55.4503 324.344 54.2958 324.344 52.8018C324.344 49.9496 322.273 48.0142 318.707 48.0142H310.456V64.9916H319.386C323.02 64.9916 325.057 63.0222 325.057 60.17C325.057 58.3704 324.276 57.0801 322.68 56.2992ZM318.3 51.6134C319.556 51.6134 320.167 52.1227 320.167 53.1414C320.167 54.16 319.556 54.6693 318.3 54.6693H314.565V51.6134H318.3ZM314.565 61.2905V58.1327H318.877C320.065 58.1327 320.779 58.7099 320.779 59.6607C320.779 60.7472 320.133 61.2905 318.877 61.2905H314.565Z"/>
<path d="M332.858 53.447V48.0142H328.478V64.9916H336.151C339.988 64.9916 342.569 62.7166 342.569 59.2193C342.569 55.7219 339.988 53.447 336.151 53.447H332.858ZM344.436 64.9916H348.816V48.0142H344.436V64.9916ZM332.858 61.1207V57.2838H336.185C337.408 57.2838 338.29 58.0987 338.29 59.2193C338.29 60.3398 337.408 61.1207 336.185 61.1207H332.858Z"/>
<path d="M357.773 57.6573V48.0142H353.495V64.9916H356.755L364.734 55.3484V64.9916H369.013V48.0142H365.753L357.773 57.6573Z"/>
<path d="M373.705 48.0142V64.9916H378.085V52.2246H385.317V48.0142H373.705Z"/>
<path d="M398.225 47.5388C395.848 47.5388 394.014 48.3538 392.724 50.0175V48.0142H388.344V71.7825H392.724V62.9882C394.014 64.652 395.848 65.4669 398.225 65.4669C400.5 65.4669 402.469 64.6181 404.065 62.8864C405.695 61.1547 406.51 59.0155 406.51 56.5029C406.51 53.9902 405.695 51.885 404.065 50.1533C402.469 48.4217 400.5 47.5388 398.225 47.5388ZM394.048 59.9663C393.165 59.0495 392.724 57.895 392.724 56.5029C392.724 55.1107 393.165 53.9563 394.048 53.0735C394.931 52.1567 396.052 51.7153 397.41 51.7153C398.768 51.7153 399.888 52.1567 400.771 53.0735C401.688 53.9563 402.13 55.1107 402.13 56.5029C402.13 57.895 401.688 59.0495 400.771 59.9663C399.888 60.8491 398.768 61.2905 397.41 61.2905C396.052 61.2905 394.931 60.8491 394.048 59.9663Z"/>
<path d="M414.658 53.447V48.0142H410.278V64.9916H417.952C421.788 64.9916 424.369 62.7166 424.369 59.2193C424.369 55.7219 421.788 53.447 417.952 53.447H414.658ZM426.237 64.9916H430.617V48.0142H426.237V64.9916ZM414.658 61.1207V57.2838H417.986C419.208 57.2838 420.091 58.0987 420.091 59.2193C420.091 60.3398 419.208 61.1207 417.986 61.1207H414.658Z"/>
<path d="M447.519 56.2992C448.64 55.4503 449.183 54.2958 449.183 52.8018C449.183 49.9496 447.112 48.0142 443.547 48.0142H435.296V64.9916H444.226C447.859 64.9916 449.896 63.0222 449.896 60.17C449.896 58.3704 449.115 57.0801 447.519 56.2992ZM443.139 51.6134C444.395 51.6134 445.007 52.1227 445.007 53.1414C445.007 54.16 444.395 54.6693 443.139 54.6693H439.404V51.6134H443.139ZM439.404 61.2905V58.1327H443.716C444.905 58.1327 445.618 58.7099 445.618 59.6607C445.618 60.7472 444.973 61.2905 443.716 61.2905H439.404Z"/>
<path d="M466.22 50.0175C464.895 48.3538 463.062 47.5388 460.685 47.5388C458.41 47.5388 456.474 48.4217 454.845 50.1533C453.249 51.885 452.434 53.9902 452.434 56.5029C452.434 59.0155 453.249 61.1547 454.845 62.8864C456.474 64.6181 458.41 65.4669 460.685 65.4669C463.062 65.4669 464.895 64.652 466.22 62.9882V64.9916H470.6V48.0142H466.22V50.0175ZM458.138 59.9663C457.255 59.0495 456.814 57.895 456.814 56.5029C456.814 55.1107 457.255 53.9563 458.138 53.0735C459.021 52.1567 460.142 51.7153 461.5 51.7153C462.858 51.7153 463.978 52.1567 464.861 53.0735C465.778 53.9563 466.22 55.1107 466.22 56.5029C466.22 57.895 465.778 59.0495 464.861 59.9663C463.978 60.8491 462.858 61.2905 461.5 61.2905C460.142 61.2905 459.021 60.8491 458.138 59.9663Z"/>
<path d="M487.95 45.8411V42.0382H478.103V45.8411H487.95ZM479.529 57.6573V48.0142H475.251V64.9916H478.51L486.49 55.3484V64.9916H490.768V48.0142H487.508L479.529 57.6573Z"/>
<path d="M504.628 48.0142V64.9916H509.008V52.1227H515.765V64.9916H520.145V48.0142H504.628Z"/>
<path d="M534.719 47.5388C532.342 47.5388 530.508 48.3538 529.218 50.0175V48.0142H524.838V71.7825H529.218V62.9882C530.508 64.652 532.342 65.4669 534.719 65.4669C536.994 65.4669 538.963 64.6181 540.559 62.8864C542.189 61.1547 543.004 59.0155 543.004 56.5029C543.004 53.9902 542.189 51.885 540.559 50.1533C538.963 48.4217 536.994 47.5388 534.719 47.5388ZM530.542 59.9663C529.659 59.0495 529.218 57.895 529.218 56.5029C529.218 55.1107 529.659 53.9563 530.542 53.0735C531.425 52.1567 532.546 51.7153 533.904 51.7153C535.262 51.7153 536.382 52.1567 537.265 53.0735C538.182 53.9563 538.623 55.1107 538.623 56.5029C538.623 57.895 538.182 59.0495 537.265 59.9663C536.382 60.8491 535.262 61.2905 533.904 61.2905C532.546 61.2905 531.425 60.8491 530.542 59.9663Z"/>
<path d="M551.05 57.6573V48.0142H546.772V64.9916H550.031L558.011 55.3484V64.9916H562.289V48.0142H559.029L551.05 57.6573Z"/>
<path d="M576.93 56.3331C578.186 55.4842 578.798 54.2619 578.798 52.5981C578.798 51.2059 578.22 50.0175 577.066 49.0328C575.945 48.0482 574.384 47.5388 572.448 47.5388C569.324 47.5388 567.117 48.8291 565.827 51.4436L569.358 53.4809C570.003 52.0548 571.056 51.3418 572.516 51.3418C573.772 51.3418 574.621 51.9869 574.621 52.9716C574.621 54.0242 573.976 54.5335 572.652 54.5335H570.818V58.2685H573.229C574.553 58.2685 575.232 58.7778 575.232 59.8304C575.232 60.917 574.316 61.5961 572.686 61.5961C570.886 61.5961 569.732 60.8151 569.188 59.2872L565.623 61.3924C566.88 64.1087 569.222 65.4669 572.652 65.4669C576.998 65.4669 579.511 63.2599 579.511 60.3737C579.511 58.5062 578.662 57.182 576.93 56.3331Z"/>
<path d="M587.327 53.447V48.0142H582.947V64.9916H590.621C594.457 64.9916 597.038 62.7166 597.038 59.2193C597.038 55.7219 594.457 53.447 590.621 53.447H587.327ZM598.905 64.9916H603.286V48.0142H598.905V64.9916ZM587.327 61.1207V57.2838H590.654C591.877 57.2838 592.76 58.0987 592.76 59.2193C592.76 60.3398 591.877 61.1207 590.654 61.1207H587.327Z"/>
<path d="M612.243 57.0122L613.126 48.0142V41.2233H607.863V48.0142L608.779 57.0122H612.243ZM612.548 64.5841C613.669 63.4636 613.669 61.63 612.548 60.5095C611.428 59.389 609.594 59.389 608.474 60.5095C607.353 61.63 607.353 63.4636 608.474 64.5841C609.594 65.7046 611.428 65.7046 612.548 64.5841Z"/>
</mask>
<path d="M42.7843 48.0142V57.6573C42.7843 60.2718 41.7996 61.3244 40 60.883V64.9916C44.7876 65.5009 47.1644 63.158 47.1644 57.895V52.2246H51.8502V64.9916H56.2303V48.0142H42.7843Z" stroke="white" stroke-width="2.4" mask="url(#path-3-outside-2_1370_5297)"/>
<path d="M65.157 57.6573V48.0142H60.8787V64.9916H64.1383L72.1177 55.3484V64.9916H76.396V48.0142H73.1363L65.157 57.6573Z" stroke="white" stroke-width="2.4" mask="url(#path-3-outside-2_1370_5297)"/>
<path d="M89.1696 65.4669C92.4632 65.4669 95.3493 63.7352 96.8433 61.0528L93.0404 58.8797C92.3613 60.2718 90.9013 61.1207 89.1356 61.1207C87.8114 61.1207 86.7248 60.6793 85.876 59.8304C85.0271 58.9476 84.5857 57.8271 84.5857 56.5029C84.5857 53.7865 86.5211 51.8511 89.1356 51.8511C90.8673 51.8511 92.3274 52.7339 93.0065 54.126L96.7754 51.919C95.3833 49.2366 92.4632 47.5388 89.1696 47.5388C86.623 47.5388 84.4838 48.3877 82.7521 50.1194C81.0544 51.8511 80.2055 53.9563 80.2055 56.5029C80.2055 59.0495 81.0544 61.1547 82.7521 62.8864C84.4838 64.6181 86.623 65.4669 89.1696 65.4669Z" stroke="white" stroke-width="2.4" mask="url(#path-3-outside-2_1370_5297)"/>
<path d="M98.0758 48.0142V52.2246H103.441V64.9916H107.821V52.2246H113.118V48.0142H98.0758Z" stroke="white" stroke-width="2.4" mask="url(#path-3-outside-2_1370_5297)"/>
<path d="M128.376 50.0175C127.051 48.3538 125.218 47.5388 122.841 47.5388C120.566 47.5388 118.631 48.4217 117.001 50.1533C115.405 51.885 114.59 53.9902 114.59 56.5029C114.59 59.0155 115.405 61.1547 117.001 62.8864C118.631 64.6181 120.566 65.4669 122.841 65.4669C125.218 65.4669 127.051 64.652 128.376 62.9882V64.9916H132.756V48.0142H128.376V50.0175ZM120.294 59.9663C119.412 59.0495 118.97 57.895 118.97 56.5029C118.97 55.1107 119.412 53.9563 120.294 53.0735C121.177 52.1567 122.298 51.7153 123.656 51.7153C125.014 51.7153 126.135 52.1567 127.017 53.0735C127.934 53.9563 128.376 55.1107 128.376 56.5029C128.376 57.895 127.934 59.0495 127.017 59.9663C126.135 60.8491 125.014 61.2905 123.656 61.2905C122.298 61.2905 121.177 60.8491 120.294 59.9663Z" stroke="white" stroke-width="2.4" mask="url(#path-3-outside-2_1370_5297)"/>
<path d="M150.106 45.8411V42.0382H140.259V45.8411H150.106ZM141.685 57.6573V48.0142H137.407V64.9916H140.666L148.646 55.3484V64.9916H152.924V48.0142H149.664L141.685 57.6573Z" stroke="white" stroke-width="2.4" mask="url(#path-3-outside-2_1370_5297)"/>
<path d="M179.008 56.2992C180.128 55.4503 180.672 54.2958 180.672 52.8018C180.672 49.9496 178.6 48.0142 175.035 48.0142H166.784V64.9916H175.714C179.347 64.9916 181.385 63.0222 181.385 60.17C181.385 58.3704 180.604 57.0801 179.008 56.2992ZM174.628 51.6134C175.884 51.6134 176.495 52.1227 176.495 53.1414C176.495 54.16 175.884 54.6693 174.628 54.6693H170.893V51.6134H174.628ZM170.893 61.2905V58.1327H175.205C176.393 58.1327 177.106 58.7099 177.106 59.6607C177.106 60.7472 176.461 61.2905 175.205 61.2905H170.893Z" stroke="white" stroke-width="2.4" mask="url(#path-3-outside-2_1370_5297)"/>
<path d="M197.708 50.0175C196.384 48.3538 194.55 47.5388 192.174 47.5388C189.899 47.5388 187.963 48.4217 186.333 50.1533C184.737 51.885 183.923 53.9902 183.923 56.5029C183.923 59.0155 184.737 61.1547 186.333 62.8864C187.963 64.6181 189.899 65.4669 192.174 65.4669C194.55 65.4669 196.384 64.652 197.708 62.9882V64.9916H202.088V48.0142H197.708V50.0175ZM189.627 59.9663C188.744 59.0495 188.303 57.895 188.303 56.5029C188.303 55.1107 188.744 53.9563 189.627 53.0735C190.51 52.1567 191.63 51.7153 192.988 51.7153C194.347 51.7153 195.467 52.1567 196.35 53.0735C197.267 53.9563 197.708 55.1107 197.708 56.5029C197.708 57.895 197.267 59.0495 196.35 59.9663C195.467 60.8491 194.347 61.2905 192.988 61.2905C191.63 61.2905 190.51 60.8491 189.627 59.9663Z" stroke="white" stroke-width="2.4" mask="url(#path-3-outside-2_1370_5297)"/>
<path d="M219.438 45.8411V42.0382H209.592V45.8411H219.438ZM211.018 57.6573V48.0142H206.739V64.9916H209.999L217.978 55.3484V64.9916H222.257V48.0142H218.997L211.018 57.6573Z" stroke="white" stroke-width="2.4" mask="url(#path-3-outside-2_1370_5297)"/>
<path d="M234.996 65.4669C237.543 65.4669 239.614 64.7199 241.176 63.2259C242.772 61.7319 243.553 59.8304 243.553 57.4876C243.553 55.2126 242.806 53.413 241.346 52.0548C239.886 50.6627 238.188 49.9836 236.32 49.9836C234.181 49.9836 232.484 50.6287 231.227 51.919C231.805 50.3231 232.925 49.3045 235.811 48.184C237.882 47.403 239.41 46.6221 240.429 45.8751C241.482 45.0941 242.127 44.0415 242.432 42.6494L238.833 40.5781C238.256 41.9024 237.916 42.5135 236.694 43.2605C236.253 43.5322 235.879 43.7359 235.607 43.8717L234.181 44.5848C233.468 44.8904 232.925 45.162 232.552 45.3318C229.937 46.6221 228.205 48.0482 227.356 49.644C226.508 51.2059 226.066 53.447 226.066 56.3331C226.066 58.9816 226.881 61.1547 228.511 62.8864C230.175 64.6181 232.314 65.4669 234.996 65.4669ZM234.928 53.4809C237.407 53.4809 239.173 55.1786 239.173 57.4876C239.173 58.642 238.765 59.5928 237.984 60.3398C237.203 61.0868 236.185 61.4603 234.962 61.4603C233.74 61.4603 232.721 61.0868 231.872 60.3058C231.058 59.5248 230.65 58.5402 230.65 57.3517C230.65 56.1633 231.091 55.2466 231.94 54.5335C232.823 53.8205 233.808 53.4809 234.928 53.4809Z" stroke="white" stroke-width="2.4" mask="url(#path-3-outside-2_1370_5297)"/>
<path d="M251.274 53.447V48.0142H246.893V64.9916H254.567C258.404 64.9916 260.985 62.7166 260.985 59.2193C260.985 55.7219 258.404 53.447 254.567 53.447H251.274ZM262.852 64.9916H267.232V48.0142H262.852V64.9916ZM251.274 61.1207V57.2838H254.601C255.823 57.2838 256.706 58.0987 256.706 59.2193C256.706 60.3398 255.823 61.1207 254.601 61.1207H251.274Z" stroke="white" stroke-width="2.4" mask="url(#path-3-outside-2_1370_5297)"/>
<path d="M285.357 57.6573V48.0142H281.079V64.9916H284.339L292.318 55.3484V64.9916H296.596V48.0142H293.337L285.357 57.6573Z" stroke="white" stroke-width="2.4" mask="url(#path-3-outside-2_1370_5297)"/>
<path d="M322.68 56.2992C323.801 55.4503 324.344 54.2958 324.344 52.8018C324.344 49.9496 322.273 48.0142 318.707 48.0142H310.456V64.9916H319.386C323.02 64.9916 325.057 63.0222 325.057 60.17C325.057 58.3704 324.276 57.0801 322.68 56.2992ZM318.3 51.6134C319.556 51.6134 320.167 52.1227 320.167 53.1414C320.167 54.16 319.556 54.6693 318.3 54.6693H314.565V51.6134H318.3ZM314.565 61.2905V58.1327H318.877C320.065 58.1327 320.779 58.7099 320.779 59.6607C320.779 60.7472 320.133 61.2905 318.877 61.2905H314.565Z" stroke="white" stroke-width="2.4" mask="url(#path-3-outside-2_1370_5297)"/>
<path d="M332.858 53.447V48.0142H328.478V64.9916H336.151C339.988 64.9916 342.569 62.7166 342.569 59.2193C342.569 55.7219 339.988 53.447 336.151 53.447H332.858ZM344.436 64.9916H348.816V48.0142H344.436V64.9916ZM332.858 61.1207V57.2838H336.185C337.408 57.2838 338.29 58.0987 338.29 59.2193C338.29 60.3398 337.408 61.1207 336.185 61.1207H332.858Z" stroke="white" stroke-width="2.4" mask="url(#path-3-outside-2_1370_5297)"/>
<path d="M357.773 57.6573V48.0142H353.495V64.9916H356.755L364.734 55.3484V64.9916H369.013V48.0142H365.753L357.773 57.6573Z" stroke="white" stroke-width="2.4" mask="url(#path-3-outside-2_1370_5297)"/>
<path d="M373.705 48.0142V64.9916H378.085V52.2246H385.317V48.0142H373.705Z" stroke="white" stroke-width="2.4" mask="url(#path-3-outside-2_1370_5297)"/>
<path d="M398.225 47.5388C395.848 47.5388 394.014 48.3538 392.724 50.0175V48.0142H388.344V71.7825H392.724V62.9882C394.014 64.652 395.848 65.4669 398.225 65.4669C400.5 65.4669 402.469 64.6181 404.065 62.8864C405.695 61.1547 406.51 59.0155 406.51 56.5029C406.51 53.9902 405.695 51.885 404.065 50.1533C402.469 48.4217 400.5 47.5388 398.225 47.5388ZM394.048 59.9663C393.165 59.0495 392.724 57.895 392.724 56.5029C392.724 55.1107 393.165 53.9563 394.048 53.0735C394.931 52.1567 396.052 51.7153 397.41 51.7153C398.768 51.7153 399.888 52.1567 400.771 53.0735C401.688 53.9563 402.13 55.1107 402.13 56.5029C402.13 57.895 401.688 59.0495 400.771 59.9663C399.888 60.8491 398.768 61.2905 397.41 61.2905C396.052 61.2905 394.931 60.8491 394.048 59.9663Z" stroke="white" stroke-width="2.4" mask="url(#path-3-outside-2_1370_5297)"/>
<path d="M414.658 53.447V48.0142H410.278V64.9916H417.952C421.788 64.9916 424.369 62.7166 424.369 59.2193C424.369 55.7219 421.788 53.447 417.952 53.447H414.658ZM426.237 64.9916H430.617V48.0142H426.237V64.9916ZM414.658 61.1207V57.2838H417.986C419.208 57.2838 420.091 58.0987 420.091 59.2193C420.091 60.3398 419.208 61.1207 417.986 61.1207H414.658Z" stroke="white" stroke-width="2.4" mask="url(#path-3-outside-2_1370_5297)"/>
<path d="M447.519 56.2992C448.64 55.4503 449.183 54.2958 449.183 52.8018C449.183 49.9496 447.112 48.0142 443.547 48.0142H435.296V64.9916H444.226C447.859 64.9916 449.896 63.0222 449.896 60.17C449.896 58.3704 449.115 57.0801 447.519 56.2992ZM443.139 51.6134C444.395 51.6134 445.007 52.1227 445.007 53.1414C445.007 54.16 444.395 54.6693 443.139 54.6693H439.404V51.6134H443.139ZM439.404 61.2905V58.1327H443.716C444.905 58.1327 445.618 58.7099 445.618 59.6607C445.618 60.7472 444.973 61.2905 443.716 61.2905H439.404Z" stroke="white" stroke-width="2.4" mask="url(#path-3-outside-2_1370_5297)"/>
<path d="M466.22 50.0175C464.895 48.3538 463.062 47.5388 460.685 47.5388C458.41 47.5388 456.474 48.4217 454.845 50.1533C453.249 51.885 452.434 53.9902 452.434 56.5029C452.434 59.0155 453.249 61.1547 454.845 62.8864C456.474 64.6181 458.41 65.4669 460.685 65.4669C463.062 65.4669 464.895 64.652 466.22 62.9882V64.9916H470.6V48.0142H466.22V50.0175ZM458.138 59.9663C457.255 59.0495 456.814 57.895 456.814 56.5029C456.814 55.1107 457.255 53.9563 458.138 53.0735C459.021 52.1567 460.142 51.7153 461.5 51.7153C462.858 51.7153 463.978 52.1567 464.861 53.0735C465.778 53.9563 466.22 55.1107 466.22 56.5029C466.22 57.895 465.778 59.0495 464.861 59.9663C463.978 60.8491 462.858 61.2905 461.5 61.2905C460.142 61.2905 459.021 60.8491 458.138 59.9663Z" stroke="white" stroke-width="2.4" mask="url(#path-3-outside-2_1370_5297)"/>
<path d="M487.95 45.8411V42.0382H478.103V45.8411H487.95ZM479.529 57.6573V48.0142H475.251V64.9916H478.51L486.49 55.3484V64.9916H490.768V48.0142H487.508L479.529 57.6573Z" stroke="white" stroke-width="2.4" mask="url(#path-3-outside-2_1370_5297)"/>
<path d="M504.628 48.0142V64.9916H509.008V52.1227H515.765V64.9916H520.145V48.0142H504.628Z" stroke="white" stroke-width="2.4" mask="url(#path-3-outside-2_1370_5297)"/>
<path d="M534.719 47.5388C532.342 47.5388 530.508 48.3538 529.218 50.0175V48.0142H524.838V71.7825H529.218V62.9882C530.508 64.652 532.342 65.4669 534.719 65.4669C536.994 65.4669 538.963 64.6181 540.559 62.8864C542.189 61.1547 543.004 59.0155 543.004 56.5029C543.004 53.9902 542.189 51.885 540.559 50.1533C538.963 48.4217 536.994 47.5388 534.719 47.5388ZM530.542 59.9663C529.659 59.0495 529.218 57.895 529.218 56.5029C529.218 55.1107 529.659 53.9563 530.542 53.0735C531.425 52.1567 532.546 51.7153 533.904 51.7153C535.262 51.7153 536.382 52.1567 537.265 53.0735C538.182 53.9563 538.623 55.1107 538.623 56.5029C538.623 57.895 538.182 59.0495 537.265 59.9663C536.382 60.8491 535.262 61.2905 533.904 61.2905C532.546 61.2905 531.425 60.8491 530.542 59.9663Z" stroke="white" stroke-width="2.4" mask="url(#path-3-outside-2_1370_5297)"/>
<path d="M551.05 57.6573V48.0142H546.772V64.9916H550.031L558.011 55.3484V64.9916H562.289V48.0142H559.029L551.05 57.6573Z" stroke="white" stroke-width="2.4" mask="url(#path-3-outside-2_1370_5297)"/>
<path d="M576.93 56.3331C578.186 55.4842 578.798 54.2619 578.798 52.5981C578.798 51.2059 578.22 50.0175 577.066 49.0328C575.945 48.0482 574.384 47.5388 572.448 47.5388C569.324 47.5388 567.117 48.8291 565.827 51.4436L569.358 53.4809C570.003 52.0548 571.056 51.3418 572.516 51.3418C573.772 51.3418 574.621 51.9869 574.621 52.9716C574.621 54.0242 573.976 54.5335 572.652 54.5335H570.818V58.2685H573.229C574.553 58.2685 575.232 58.7778 575.232 59.8304C575.232 60.917 574.316 61.5961 572.686 61.5961C570.886 61.5961 569.732 60.8151 569.188 59.2872L565.623 61.3924C566.88 64.1087 569.222 65.4669 572.652 65.4669C576.998 65.4669 579.511 63.2599 579.511 60.3737C579.511 58.5062 578.662 57.182 576.93 56.3331Z" stroke="white" stroke-width="2.4" mask="url(#path-3-outside-2_1370_5297)"/>
<path d="M587.327 53.447V48.0142H582.947V64.9916H590.621C594.457 64.9916 597.038 62.7166 597.038 59.2193C597.038 55.7219 594.457 53.447 590.621 53.447H587.327ZM598.905 64.9916H603.286V48.0142H598.905V64.9916ZM587.327 61.1207V57.2838H590.654C591.877 57.2838 592.76 58.0987 592.76 59.2193C592.76 60.3398 591.877 61.1207 590.654 61.1207H587.327Z" stroke="white" stroke-width="2.4" mask="url(#path-3-outside-2_1370_5297)"/>
<path d="M612.243 57.0122L613.126 48.0142V41.2233H607.863V48.0142L608.779 57.0122H612.243ZM612.548 64.5841C613.669 63.4636 613.669 61.63 612.548 60.5095C611.428 59.389 609.594 59.389 608.474 60.5095C607.353 61.63 607.353 63.4636 608.474 64.5841C609.594 65.7046 611.428 65.7046 612.548 64.5841Z" stroke="white" stroke-width="2.4" mask="url(#path-3-outside-2_1370_5297)"/>
</g>
<defs>
<filter id="filter0_d_1370_5297" x="0" y="0.578125" width="653.389" height="111.205" filterUnits="userSpaceOnUse" color-interpolation-filters="sRGB">
<feFlood flood-opacity="0" result="BackgroundImageFix"/>
<feColorMatrix in="SourceAlpha" type="matrix" values="0 0 0 0 0 0 0 0 0 0 0 0 0 0 0 0 0 0 127 0" result="hardAlpha"/>
<feOffset/>
<feGaussianBlur stdDeviation="20"/>
<feComposite in2="hardAlpha" operator="out"/>
<feColorMatrix type="matrix" values="0 0 0 0 0.998917 0 0 0 0 1 0 0 0 0 0.945833 0 0 0 1 0"/>
<feBlend mode="normal" in2="BackgroundImageFix" result="effect1_dropShadow_1370_5297"/>
<feBlend mode="normal" in="SourceGraphic" in2="effect1_dropShadow_1370_5297" result="shape"/>
</filter>
<filter id="filter1_f_1370_5297" x="35.8759" y="35.2231" width="581.637" height="40.6827" filterUnits="userSpaceOnUse" color-interpolation-filters="sRGB">
<feFlood flood-opacity="0" result="BackgroundImageFix"/>
<feBlend mode="normal" in="SourceGraphic" in2="BackgroundImageFix" result="shape"/>
<feGaussianBlur stdDeviation="0.612077" result="effect1_foregroundBlur_1370_5297"/>
</filter>
<filter id="filter2_f_1370_5297" x="37.9837" y="38.053" width="577.421" height="35.7455" filterUnits="userSpaceOnUse" color-interpolation-filters="sRGB">
<feFlood flood-opacity="0" result="BackgroundImageFix"/>
<feBlend mode="normal" in="SourceGraphic" in2="BackgroundImageFix" result="shape"/>
<feGaussianBlur stdDeviation="0.408051" result="effect1_foregroundBlur_1370_5297"/>
</filter>
<linearGradient id="paint0_linear_1370_5297" x1="326.694" y1="40.5781" x2="326.694" y2="71.7825" gradientUnits="userSpaceOnUse">
<stop stop-color="#F28B50"/>
<stop offset="1" stop-color="#ED6A1F"/>
</linearGradient>
<linearGradient id="paint1_linear_1370_5297" x1="326.694" y1="40.5781" x2="326.694" y2="71.7825" gradientUnits="userSpaceOnUse">
<stop stop-color="#F28B50"/>
<stop offset="1" stop-color="#ED6A1F"/>
</linearGradient>
<linearGradient id="paint2_linear_1370_5297" x1="326.694" y1="40.5781" x2="326.694" y2="71.7825" gradientUnits="userSpaceOnUse">
<stop stop-color="#F28B50"/>
<stop offset="1" stop-color="#ED6A1F"/>
</linearGradient>
<linearGradient id="paint3_linear_1370_5297" x1="326.694" y1="40.5781" x2="326.694" y2="71.7825" gradientUnits="userSpaceOnUse">
<stop stop-color="#F28B50"/>
<stop offset="1" stop-color="#ED6A1F"/>
</linearGradient>
<linearGradient id="paint4_linear_1370_5297" x1="326.694" y1="40.5781" x2="326.694" y2="71.7825" gradientUnits="userSpaceOnUse">
<stop stop-color="#F28B50"/>
<stop offset="1" stop-color="#ED6A1F"/>
</linearGradient>
<linearGradient id="paint5_linear_1370_5297" x1="326.694" y1="40.5781" x2="326.694" y2="71.7825" gradientUnits="userSpaceOnUse">
<stop stop-color="#F28B50"/>
<stop offset="1" stop-color="#ED6A1F"/>
</linearGradient>
<linearGradient id="paint6_linear_1370_5297" x1="326.694" y1="40.5781" x2="326.694" y2="71.7825" gradientUnits="userSpaceOnUse">
<stop stop-color="#F28B50"/>
<stop offset="1" stop-color="#ED6A1F"/>
</linearGradient>
<linearGradient id="paint7_linear_1370_5297" x1="326.694" y1="40.5781" x2="326.694" y2="71.7825" gradientUnits="userSpaceOnUse">
<stop stop-color="#F28B50"/>
<stop offset="1" stop-color="#ED6A1F"/>
</linearGradient>
<linearGradient id="paint8_linear_1370_5297" x1="326.694" y1="40.5781" x2="326.694" y2="71.7825" gradientUnits="userSpaceOnUse">
<stop stop-color="#F28B50"/>
<stop offset="1" stop-color="#ED6A1F"/>
</linearGradient>
<linearGradient id="paint9_linear_1370_5297" x1="326.694" y1="40.5781" x2="326.694" y2="71.7825" gradientUnits="userSpaceOnUse">
<stop stop-color="#F28B50"/>
<stop offset="1" stop-color="#ED6A1F"/>
</linearGradient>
<linearGradient id="paint10_linear_1370_5297" x1="326.694" y1="40.5781" x2="326.694" y2="71.7825" gradientUnits="userSpaceOnUse">
<stop stop-color="#F28B50"/>
<stop offset="1" stop-color="#ED6A1F"/>
</linearGradient>
<linearGradient id="paint11_linear_1370_5297" x1="326.694" y1="40.5781" x2="326.694" y2="71.7825" gradientUnits="userSpaceOnUse">
<stop stop-color="#F28B50"/>
<stop offset="1" stop-color="#ED6A1F"/>
</linearGradient>
<linearGradient id="paint12_linear_1370_5297" x1="326.694" y1="40.5781" x2="326.694" y2="71.7825" gradientUnits="userSpaceOnUse">
<stop stop-color="#F28B50"/>
<stop offset="1" stop-color="#ED6A1F"/>
</linearGradient>
<linearGradient id="paint13_linear_1370_5297" x1="326.694" y1="40.5781" x2="326.694" y2="71.7825" gradientUnits="userSpaceOnUse">
<stop stop-color="#F28B50"/>
<stop offset="1" stop-color="#ED6A1F"/>
</linearGradient>
<linearGradient id="paint14_linear_1370_5297" x1="326.694" y1="40.5781" x2="326.694" y2="71.7825" gradientUnits="userSpaceOnUse">
<stop stop-color="#F28B50"/>
<stop offset="1" stop-color="#ED6A1F"/>
</linearGradient>
<linearGradient id="paint15_linear_1370_5297" x1="326.694" y1="40.5781" x2="326.694" y2="71.7825" gradientUnits="userSpaceOnUse">
<stop stop-color="#F28B50"/>
<stop offset="1" stop-color="#ED6A1F"/>
</linearGradient>
<linearGradient id="paint16_linear_1370_5297" x1="326.694" y1="40.5781" x2="326.694" y2="71.7825" gradientUnits="userSpaceOnUse">
<stop stop-color="#F28B50"/>
<stop offset="1" stop-color="#ED6A1F"/>
</linearGradient>
<linearGradient id="paint17_linear_1370_5297" x1="326.694" y1="40.5781" x2="326.694" y2="71.7825" gradientUnits="userSpaceOnUse">
<stop stop-color="#F28B50"/>
<stop offset="1" stop-color="#ED6A1F"/>
</linearGradient>
<linearGradient id="paint18_linear_1370_5297" x1="326.694" y1="40.5781" x2="326.694" y2="71.7825" gradientUnits="userSpaceOnUse">
<stop stop-color="#F28B50"/>
<stop offset="1" stop-color="#ED6A1F"/>
</linearGradient>
<linearGradient id="paint19_linear_1370_5297" x1="326.694" y1="40.5781" x2="326.694" y2="71.7825" gradientUnits="userSpaceOnUse">
<stop stop-color="#F28B50"/>
<stop offset="1" stop-color="#ED6A1F"/>
</linearGradient>
<linearGradient id="paint20_linear_1370_5297" x1="326.694" y1="40.5781" x2="326.694" y2="71.7825" gradientUnits="userSpaceOnUse">
<stop stop-color="#F28B50"/>
<stop offset="1" stop-color="#ED6A1F"/>
</linearGradient>
<linearGradient id="paint21_linear_1370_5297" x1="326.694" y1="40.5781" x2="326.694" y2="71.7825" gradientUnits="userSpaceOnUse">
<stop stop-color="#F28B50"/>
<stop offset="1" stop-color="#ED6A1F"/>
</linearGradient>
<linearGradient id="paint22_linear_1370_5297" x1="326.694" y1="40.5781" x2="326.694" y2="71.7825" gradientUnits="userSpaceOnUse">
<stop stop-color="#F28B50"/>
<stop offset="1" stop-color="#ED6A1F"/>
</linearGradient>
<linearGradient id="paint23_linear_1370_5297" x1="326.694" y1="40.5781" x2="326.694" y2="71.7825" gradientUnits="userSpaceOnUse">
<stop stop-color="#F28B50"/>
<stop offset="1" stop-color="#ED6A1F"/>
</linearGradient>
<linearGradient id="paint24_linear_1370_5297" x1="326.694" y1="40.5781" x2="326.694" y2="71.7825" gradientUnits="userSpaceOnUse">
<stop stop-color="#F28B50"/>
<stop offset="1" stop-color="#ED6A1F"/>
</linearGradient>
<linearGradient id="paint25_linear_1370_5297" x1="326.694" y1="40.5781" x2="326.694" y2="71.7825" gradientUnits="userSpaceOnUse">
<stop stop-color="#F28B50"/>
<stop offset="1" stop-color="#ED6A1F"/>
</linearGradient>
<linearGradient id="paint26_linear_1370_5297" x1="326.694" y1="40.5781" x2="326.694" y2="71.7825" gradientUnits="userSpaceOnUse">
<stop stop-color="#F28B50"/>
<stop offset="1" stop-color="#ED6A1F"/>
</linearGradient>
</defs>
</svg>
