<svg width="41" height="41" viewBox="0 0 41 41" fill="none" xmlns="http://www.w3.org/2000/svg">
<path d="M29.2977 23.75C29.5366 24.0939 29.8791 24.3525 30.2754 24.488C30.6716 24.6235 31.1007 24.6288 31.5002 24.5032C31.8997 24.3776 32.2485 24.1276 32.4959 23.7897C32.7432 23.4518 32.8762 23.0438 32.8752 22.625C32.8762 22.2063 32.7432 21.7982 32.4959 21.4603C32.2485 21.1224 31.8997 20.8724 31.5002 20.7468C31.1007 20.6212 30.6716 20.6265 30.2754 20.762C29.8791 20.8975 29.5366 21.1561 29.2977 21.5H28.3752C28.3752 19.7338 27.8127 18.125 26.8002 16.7863L28.3077 15.2788C28.9377 15.3913 29.579 15.2113 30.0627 14.75C30.8165 13.9738 30.8165 12.725 30.0627 11.9375C29.2865 11.1838 28.0377 11.1838 27.2502 11.9375C26.789 12.4213 26.609 13.0625 26.7215 13.6925L25.214 15.2C24.179 14.4238 22.964 13.9063 21.6252 13.715V12.14C21.9691 11.9011 22.2277 11.5586 22.3632 11.1623C22.4987 10.7661 22.504 10.337 22.3784 9.93751C22.2528 9.53805 22.0028 9.18918 21.6649 8.94182C21.327 8.69447 20.919 8.56156 20.5002 8.5625C20.0815 8.56156 19.6734 8.69447 19.3355 8.94182C18.9976 9.18918 18.7476 9.53805 18.622 9.93751C18.4964 10.337 18.5017 10.7661 18.6372 11.1623C18.7727 11.5586 19.0313 11.9011 19.3752 12.14V13.715C18.3627 13.8613 17.4177 14.1875 16.5627 14.6825L15.314 12.8938C15.5277 12.3088 15.4715 11.6338 15.089 11.0938C14.9407 10.8815 14.752 10.7006 14.5337 10.5614C14.3154 10.4222 14.0718 10.3274 13.8168 10.2825C13.5618 10.2376 13.3005 10.2434 13.0478 10.2996C12.795 10.3558 12.5559 10.4612 12.344 10.61C11.4552 11.2288 11.2302 12.455 11.8602 13.3438C12.2427 13.895 12.8502 14.1875 13.469 14.1875L14.7965 16.0775C14.3127 16.5613 13.9302 17.1013 13.604 17.6975C13.2493 17.5589 12.8622 17.5256 12.4891 17.6014C12.116 17.6772 11.7726 17.859 11.5002 18.125C10.7465 18.9125 10.7465 20.15 11.5002 20.9375C11.8265 21.2413 12.2202 21.4213 12.6252 21.5C12.6252 22.1075 12.704 22.6925 12.8277 23.255L11.354 23.6488C10.8815 23.255 10.229 23.0863 9.57646 23.255C9.07222 23.3923 8.64315 23.7242 8.38365 24.1778C8.12414 24.6314 8.05546 25.1695 8.19271 25.6738C8.32996 26.178 8.6619 26.6071 9.1155 26.8666C9.56911 27.1261 10.1072 27.1948 10.6115 27.0575C11.2527 26.8775 11.7365 26.405 11.939 25.82L13.6377 25.3588C14.144 26.2475 14.819 27.035 15.6065 27.6875L14.369 29.9375C13.7502 30.0275 13.1877 30.3763 12.8615 30.9725C12.7388 31.2 12.6622 31.4495 12.636 31.7066C12.6098 31.9637 12.6345 32.2235 12.7086 32.4711C12.7828 32.7186 12.905 32.9492 13.0683 33.1495C13.2316 33.3499 13.4327 33.5161 13.6602 33.6388C13.8877 33.7614 14.1372 33.838 14.3943 33.8642C14.6514 33.8904 14.9112 33.8657 15.1588 33.7916C15.4063 33.7174 15.6369 33.5952 15.8373 33.4319C16.0376 33.2687 16.2038 33.0675 16.3265 32.84C16.6415 32.255 16.6302 31.58 16.349 31.0288L17.5527 28.8125C18.464 29.1725 19.454 29.375 20.5002 29.375H20.7027C20.5565 29.6675 20.5002 30.005 20.5002 30.365C20.5902 31.4563 21.5352 32.2663 22.6152 32.1875C23.6952 32.1088 24.5165 31.1525 24.4377 30.0725C24.3927 29.51 24.1115 29.015 23.7065 28.6888C24.2352 28.4525 24.7415 28.1488 25.214 27.8L27.8465 30.4325C27.734 31.0625 27.914 31.7038 28.3752 32.1875C29.1627 32.9413 30.4002 32.9413 31.1877 32.1875C31.9752 31.4338 31.9415 30.1625 31.1877 29.375C30.704 28.9138 30.0627 28.7338 29.4327 28.8463L26.8002 26.2138C27.3515 25.4825 27.779 24.65 28.049 23.75H29.2977ZM18.8127 21.5C17.879 21.5 17.1252 20.7463 17.1252 19.8125C17.1252 18.8788 17.879 18.125 18.8127 18.125C19.7465 18.125 20.5002 18.8788 20.5002 19.8125C20.5002 20.7463 19.7465 21.5 18.8127 21.5ZM22.7502 24.875C22.1315 24.875 21.6252 24.3688 21.6252 23.75C21.6252 23.1313 22.1315 22.625 22.7502 22.625C23.369 22.625 23.8752 23.1313 23.8752 23.75C23.8752 24.3688 23.369 24.875 22.7502 24.875Z" fill="#7EE1FF"/>
<circle cx="20.5001" cy="21.4996" r="5.12069" fill="#7EE1FF"/>
<path d="M20.7052 1.20559C10.051 1.09206 1.31907 9.63988 1.20554 20.294C1.09202 30.9482 9.63983 39.6802 20.294 39.7937C30.9482 39.9072 39.6801 31.3594 39.7936 20.7052C39.9072 10.0511 31.3594 1.31912 20.7052 1.20559ZM20.3289 36.5214C17.3001 36.488 14.3429 35.5968 11.8 33.9513C9.25709 32.3057 7.23261 29.9732 5.96124 27.224C4.68988 24.4748 4.2237 21.4216 4.61675 18.4183C5.0098 15.415 6.24597 12.5846 8.18197 10.2552L30.4792 33.0308C27.6009 35.3328 24.0142 36.5669 20.3289 36.5233L20.3289 36.5214ZM32.8172 30.744L10.52 7.96845C13.624 5.51204 17.5274 4.29142 21.4778 4.54182C25.4283 4.79222 29.1463 6.49592 31.9153 9.3246C34.6844 12.1533 36.3085 15.9067 36.4746 19.8617C36.6408 23.8166 35.3373 27.693 32.8153 30.744L32.8172 30.744Z" fill="white" stroke="white"/>
</svg>
