<svg width="245" height="50" viewBox="0 0 245 50" fill="none" xmlns="http://www.w3.org/2000/svg">
<g clip-path="url(#clip0_1370_4842)">
<path d="M48.457 1.16296H61.598C62.8214 1.15074 64.0426 1.27067 65.2403 1.52067C66.2602 1.71421 67.2314 2.10943 68.097 2.68326C68.8689 3.23039 69.4845 3.97033 69.8825 4.82956C70.342 5.86705 70.5617 6.99508 70.5252 8.12951C70.5817 9.3581 70.2708 10.5756 69.6325 11.6262C68.906 12.6385 67.9229 13.4381 66.7847 13.9424C68.3318 14.3264 69.6905 15.2528 70.6145 16.5538C71.482 17.88 71.9243 19.4402 71.8822 21.0252C71.9123 22.2992 71.6303 23.5612 71.0609 24.7008C70.5323 25.7074 69.7737 26.5746 68.8469 27.2316C67.8852 27.8999 66.8119 28.3905 65.6777 28.6804C64.484 29 63.2532 29.1594 62.0176 29.1544H48.457V1.16296ZM60.8302 12.5205C61.784 12.5517 62.7226 12.2759 63.5084 11.7335C63.8819 11.4273 64.1749 11.034 64.3616 10.5881C64.5483 10.1423 64.6232 9.65738 64.5797 9.17583C64.5986 8.61763 64.4757 8.06376 64.2226 7.5661C63.9972 7.16189 63.6712 6.823 63.2763 6.58238C62.8555 6.34164 62.3965 6.17526 61.9194 6.09052C61.3916 5.99963 60.8569 5.95475 60.3214 5.95637H54.5722V12.5205H60.8302ZM61.1873 24.4146C61.7694 24.4194 62.3503 24.3594 62.9192 24.2358C63.4351 24.1307 63.9279 23.9338 64.3744 23.6545C64.7983 23.3707 65.1426 22.9827 65.3742 22.5276C65.6419 21.9706 65.7705 21.3569 65.7492 20.7391C65.8041 20.1658 65.7218 19.5877 65.5091 19.0527C65.2964 18.5176 64.9594 18.0411 64.5261 17.6627C63.5796 17.017 62.4466 16.7026 61.3034 16.7684H54.5722V24.4146H61.1873Z" fill="#106FB8"/>
<path d="M74.0967 1.16211H80.2119V20.5683H80.3458L90.996 1.16211H97.8968V29.2072H91.7816V9.72945H91.6655L80.9528 29.2072H74.0967V1.16211Z" fill="#106FB8"/>
<path d="M112.484 26.7755C110.73 26.7216 108.996 26.3834 107.35 25.7739C105.886 25.2327 104.54 24.4128 103.387 23.3593C102.294 22.328 101.438 21.0708 100.878 19.6748C100.268 18.1579 99.9644 16.5346 99.9854 14.8993C99.976 13.3113 100.279 11.7371 100.878 10.2668C101.43 8.88192 102.281 7.63609 103.369 6.6181C104.506 5.55727 105.845 4.73617 107.306 4.20351C108.966 3.59654 110.716 3.27308 112.484 3.24661V0.492188H118.599V3.24661C120.376 3.27191 122.135 3.59848 123.803 4.21245C125.26 4.74835 126.595 5.56915 127.731 6.62705C128.811 7.65025 129.658 8.89482 130.213 10.2758C130.808 11.7473 131.111 13.3207 131.106 14.9082C131.127 16.5436 130.823 18.1668 130.213 19.6837C129.654 21.0794 128.794 22.3344 127.696 23.3593C126.549 24.4125 125.209 25.2325 123.75 25.7739C122.107 26.3841 120.377 26.7224 118.626 26.7755V29.834H112.484V26.7755ZM112.484 7.68231C111.536 7.71783 110.605 7.93965 109.743 8.33515C108.966 8.69075 108.27 9.20208 107.699 9.83756C107.117 10.4979 106.671 11.2667 106.386 12.1001C106.077 12.9943 105.923 13.935 105.931 14.8814C105.93 15.7966 106.09 16.7047 106.404 17.5643C106.707 18.4096 107.167 19.1896 107.761 19.8626C108.332 20.5357 109.026 21.0941 109.805 21.5081C110.634 21.9372 111.551 22.1669 112.484 22.1788V7.68231ZM121.277 21.5081C122.072 21.1102 122.779 20.5568 123.357 19.8805C123.935 19.1981 124.391 18.4205 124.705 17.5822C125.026 16.7243 125.189 15.8154 125.187 14.8993C125.197 13.952 125.04 13.0105 124.723 12.118C124.443 11.2864 124.014 10.5134 123.455 9.83756C122.887 9.19759 122.191 8.68552 121.411 8.33515C120.546 7.93962 119.612 7.71782 118.661 7.68231V22.1788C119.584 22.1562 120.49 21.927 121.313 21.5081H121.277Z" fill="#106FB8"/>
<path d="M133.222 1.16211H154.12V6.38479H139.337V12.3587H152.906V17.1521H139.337V23.9845H154.442V29.2072H133.222V1.16211Z" fill="#106FB8"/>
<path d="M156.674 1.16364H169.297C170.821 1.12641 172.337 1.38767 173.761 1.93274C174.897 2.3773 175.921 3.06739 176.76 3.95384C177.53 4.77936 178.106 5.76607 178.447 6.84241C179.162 9.00255 179.162 11.3358 178.447 13.496C178.098 14.5634 177.522 15.5427 176.76 16.3666C175.917 17.2522 174.89 17.942 173.752 18.3878C172.328 18.9324 170.812 19.1936 169.288 19.1568H162.807V29.2087H156.674V1.16364ZM167.592 14.3634C168.277 14.3649 168.96 14.3111 169.636 14.2025C170.26 14.1219 170.862 13.915 171.404 13.5943C171.908 13.2843 172.32 12.8461 172.6 12.3244C172.93 11.6526 173.087 10.9085 173.055 10.1602C173.087 9.41204 172.93 8.66787 172.6 7.99605C172.32 7.47437 171.908 7.03622 171.404 6.72615C170.856 6.40321 170.249 6.19623 169.618 6.11803C168.942 6.00939 168.259 5.95556 167.574 5.95706H162.771V14.3634H167.592Z" fill="#106FB8"/>
<path d="M193.41 29.834C191.419 29.8722 189.442 29.4914 187.607 28.7161C185.964 28.0119 184.493 26.9593 183.295 25.6308C182.105 24.2864 181.194 22.7176 180.617 21.0162C179.972 19.181 179.652 17.2472 179.671 15.3017C179.654 13.3243 179.975 11.3586 180.617 9.48879C181.194 7.75754 182.103 6.15635 183.295 4.77586C184.49 3.43111 185.961 2.36044 187.607 1.63688C191.324 0.105414 195.495 0.105414 199.212 1.63688C200.865 2.35822 202.342 3.42902 203.542 4.77586C204.734 6.15635 205.644 7.75754 206.22 9.48879C206.856 11.3601 207.173 13.3251 207.158 15.3017C207.174 17.2462 206.857 19.1792 206.22 21.0162C205.643 22.7176 204.733 24.2864 203.542 25.6308C202.34 26.9618 200.862 28.0147 199.212 28.7161C197.377 29.4898 195.401 29.8706 193.41 29.834ZM193.41 24.6918C194.649 24.7339 195.879 24.4568 196.981 23.8869C197.929 23.3747 198.74 22.6416 199.346 21.7496C199.947 20.8427 200.385 19.838 200.641 18.7805C200.918 17.657 201.056 16.5037 201.052 15.3464C201.058 14.1419 200.92 12.9409 200.641 11.7692C200.387 10.6732 199.939 9.63137 199.32 8.69286C198.719 7.79121 197.907 7.05112 196.954 6.53761C195.84 6.0009 194.619 5.72222 193.383 5.72222C192.147 5.72222 190.926 6.0009 189.812 6.53761C188.868 7.04886 188.064 7.78619 187.473 8.68392C186.85 9.62046 186.402 10.6629 186.152 11.7603C185.87 12.9316 185.729 14.1326 185.732 15.3375C185.731 16.4951 185.872 17.6484 186.152 18.7716C186.411 19.8353 186.859 20.8439 187.473 21.7496C188.074 22.6431 188.883 23.3767 189.83 23.8869C190.935 24.4568 192.167 24.7339 193.41 24.6918Z" fill="#106FB8"/>
<path d="M209.407 1.16211H215.522V11.8936H226.931V1.16211H233.047V29.2072H226.931V17.1074H215.522V29.2072H209.407V1.16211Z" fill="#106FB8"/>
<path d="M235.394 2.86216C235.651 2.27951 236.025 1.75596 236.492 1.32398C236.96 0.903567 237.502 0.573134 238.09 0.349197C238.697 0.116616 239.342 -0.00162618 239.991 0.000422359C240.654 -0.00802657 241.311 0.110355 241.929 0.349197C242.52 0.570836 243.065 0.901456 243.536 1.32398C243.988 1.76327 244.351 2.28546 244.607 2.86216C244.889 3.49467 245.029 4.18157 245.018 4.87433C245.029 5.57282 244.889 6.2655 244.607 6.90438C244.343 7.48331 243.971 8.00566 243.509 8.44256C243.041 8.8709 242.496 9.20491 241.902 9.42629C241.297 9.65299 240.656 9.76812 240.009 9.76612C239.36 9.76668 238.717 9.65161 238.108 9.42629C237.518 9.2027 236.976 8.86887 236.51 8.44256C236.043 8.01058 235.669 7.48703 235.412 6.90438C235.127 6.26619 234.983 5.57349 234.992 4.87433C234.978 4.18227 235.115 3.49545 235.394 2.86216ZM236.599 6.43934C236.783 6.89026 237.049 7.30276 237.385 7.65558C237.711 8.00242 238.106 8.27664 238.545 8.46045C239.002 8.65557 239.495 8.75303 239.991 8.74662C240.482 8.75292 240.969 8.65541 241.42 8.46045C241.862 8.27703 242.26 8.00284 242.589 7.65558C242.925 7.30276 243.191 6.89026 243.375 6.43934C243.593 5.94617 243.708 5.41366 243.714 4.87433C243.719 4.34707 243.619 3.82412 243.42 3.33614C243.236 2.88791 242.969 2.47835 242.634 2.12884C242.301 1.78811 241.903 1.5175 241.465 1.33292C241.012 1.14216 240.527 1.04482 240.036 1.04675C239.54 1.04388 239.048 1.14121 238.59 1.33292C238.153 1.5166 237.758 1.7874 237.429 2.12884C237.069 2.47213 236.778 2.88209 236.572 3.33614C236.376 3.82475 236.279 4.34767 236.287 4.87433C236.278 5.40396 236.375 5.93 236.572 6.42146L236.599 6.43934ZM240.143 2.12884C240.694 2.09659 241.243 2.22387 241.723 2.4955C241.918 2.63668 242.073 2.8266 242.171 3.0463C242.27 3.26599 242.31 3.50778 242.286 3.74752C242.288 3.97047 242.249 4.19189 242.17 4.40035C242.106 4.56915 242.002 4.71964 241.866 4.83855C241.731 4.95093 241.577 5.0387 241.411 5.0979C241.229 5.15974 241.04 5.19879 240.849 5.21416L242.313 7.61087H241.179L239.84 5.26782H239.161V7.61087H238.081V2.12884H240.143ZM240.143 4.41824C240.406 4.42684 240.667 4.38118 240.911 4.28409C241.107 4.20361 241.206 3.98898 241.206 3.65809C241.189 3.5262 241.13 3.40351 241.036 3.30931C240.963 3.2217 240.872 3.15144 240.768 3.10362C240.651 3.05509 240.528 3.02202 240.402 3.00525H240.018H239.126V4.41824H240.143Z" fill="#106FB8"/>
<path d="M49.5818 35.7715H56.2416L55.8845 37.6495H51.5012L50.9834 40.1714H52.3939C52.905 40.1623 53.4151 40.2194 53.9115 40.3413C54.2989 40.441 54.6531 40.6415 54.9382 40.9226C55.2062 41.2225 55.3774 41.5966 55.4292 41.9958C55.4974 42.5393 55.4672 43.0906 55.3399 43.6234C55.2328 44.2069 55.0307 44.7689 54.7418 45.2868C54.4981 45.7255 54.1633 46.1068 53.7598 46.4046C53.3612 46.698 52.9094 46.9106 52.4296 47.0307C51.8859 47.1609 51.3282 47.224 50.7691 47.2185H47.1982L49.5818 35.7715ZM50.7156 45.4746C51.0152 45.4802 51.3145 45.4532 51.6083 45.3941C51.8409 45.3469 52.0603 45.2492 52.2511 45.1079C52.4446 44.9558 52.6029 44.7637 52.7153 44.5445C52.8542 44.2606 52.9562 43.9601 53.0188 43.6502C53.1527 42.9974 53.0902 42.5592 52.8314 42.3267C52.4523 42.0584 51.99 41.9348 51.528 41.9779H50.6352L49.9121 45.5014L50.7156 45.4746Z" fill="#106FB8"/>
<path d="M58.5625 47.3988C57.9397 47.4429 57.318 47.2996 56.777 46.9874C56.4011 46.7393 56.1257 46.3652 56.0003 45.9321C55.8738 45.451 55.8434 44.9495 55.9111 44.4565C55.9736 43.911 56.0628 43.3655 56.17 42.82C56.2865 42.2506 56.4386 41.689 56.6253 41.1387C56.81 40.6249 57.0719 40.1424 57.4019 39.7078C57.7385 39.2904 58.162 38.9516 58.6428 38.7152C59.2311 38.4496 59.8728 38.3241 60.5175 38.3485C61.0391 38.319 61.5593 38.427 62.0263 38.6615C62.3858 38.8593 62.6663 39.1751 62.8208 39.5558C62.9848 39.9953 63.0518 40.4651 63.0172 40.933C62.9812 41.5344 62.9006 42.1322 62.7761 42.7216L62.669 43.2224H58.2947L58.1518 43.911C58.0863 44.175 58.0444 44.4444 58.0268 44.7159C58.0066 44.929 58.0247 45.1441 58.0804 45.3508C58.1143 45.5233 58.1981 45.6819 58.3214 45.8069C58.4544 45.9235 58.627 45.9844 58.8035 45.9768C58.973 45.9815 59.1413 45.9477 59.2959 45.878C59.4505 45.8083 59.5873 45.7045 59.6962 45.5744C59.9677 45.2055 60.1704 44.7904 60.2944 44.3492H62.2851C62.1115 45.2288 61.6683 46.0322 61.0175 46.6476C60.318 47.1896 59.4449 47.4568 58.5625 47.3988ZM60.8211 41.9257C60.8766 41.63 60.9153 41.3314 60.9371 41.0314C60.9707 40.8181 60.9707 40.6008 60.9371 40.3875C60.9055 40.2273 60.8166 40.0843 60.6872 39.9851C60.5298 39.8866 60.3457 39.8397 60.1604 39.8509C59.9535 39.8435 59.7489 39.8963 59.5713 40.0029C59.4044 40.1056 59.2613 40.2428 59.1517 40.4054C59.0245 40.5747 58.9222 40.7614 58.8481 40.9598C58.7711 41.157 58.7113 41.3604 58.6696 41.568L58.5982 41.9078L60.8211 41.9257Z" fill="#106FB8"/>
<path d="M64.383 38.5792H66.4988L66.3113 39.4735C66.5819 39.1117 66.9218 38.8077 67.3112 38.5792C67.6803 38.3982 68.0877 38.3093 68.4985 38.3198C68.8714 38.2769 69.248 38.3578 69.5705 38.55C69.8931 38.7423 70.1437 39.0353 70.284 39.384C70.5894 40.5463 70.5771 41.7695 70.2482 42.9254C70.0658 44.1663 69.6049 45.3496 68.9002 46.3863C68.6315 46.7138 68.2914 46.9752 67.906 47.1504C67.5207 47.3256 67.1003 47.4099 66.6773 47.3969C66.3231 47.4155 65.9707 47.335 65.6596 47.1644C65.3734 46.9901 65.1487 46.7306 65.0169 46.4221L64.2848 49.9993H62.0352L64.383 38.5792ZM66.2935 45.7335C66.5256 45.7371 66.7535 45.6708 66.9477 45.5433C67.1418 45.4157 67.2933 45.2328 67.3826 45.0181C67.6835 44.3495 67.9023 43.6468 68.0343 42.9254C68.2063 42.2297 68.2814 41.5134 68.2575 40.797C68.2581 40.6959 68.2373 40.5958 68.1965 40.5033C68.1557 40.4108 68.0958 40.328 68.0207 40.2604C67.9457 40.1928 67.8571 40.1419 67.761 40.1111C67.6648 40.0802 67.5632 40.0702 67.4629 40.0816C67.2295 40.0774 67.0002 40.1433 66.8045 40.2708C66.6089 40.3983 66.4557 40.5816 66.3649 40.797C66.0535 41.4748 65.8314 42.1903 65.7043 42.9254C65.5386 43.6222 65.4666 44.338 65.49 45.0539C65.4916 45.154 65.5144 45.2527 65.5569 45.3433C65.5994 45.434 65.6607 45.5146 65.7367 45.5797C65.8127 45.6448 65.9016 45.693 65.9976 45.7211C66.0936 45.7491 66.1944 45.7564 66.2935 45.7425V45.7335Z" fill="#106FB8"/>
<path d="M73.2041 47.3987C72.5813 47.4429 71.9596 47.2996 71.4186 46.9874C71.0427 46.7393 70.7673 46.3652 70.6419 45.9321C70.5154 45.4509 70.485 44.9495 70.5527 44.4565C70.6181 43.914 70.7074 43.3684 70.8205 42.8199C70.9286 42.2486 71.0808 41.6864 71.2758 41.1387C71.4538 40.6237 71.713 40.1407 72.0435 39.7078C72.3801 39.2903 72.8036 38.9516 73.2844 38.7151C73.8727 38.4495 74.5144 38.324 75.1591 38.3485C75.6836 38.3191 76.2066 38.427 76.6768 38.6615C77.0363 38.8567 77.3148 39.1737 77.4624 39.5558C77.6338 39.9934 77.704 40.4643 77.6677 40.933C77.6317 41.5343 77.5512 42.1322 77.4267 42.7216L77.3285 43.2224H72.9363L72.7934 43.911C72.7443 44.159 72.7115 44.4099 72.6952 44.6622C72.6837 44.8753 72.7017 45.089 72.7488 45.2971C72.7863 45.4683 72.8697 45.6259 72.9898 45.7532C73.1227 45.8698 73.2954 45.9307 73.4719 45.9231C73.6414 45.9285 73.81 45.895 73.9647 45.8252C74.1194 45.7555 74.2561 45.6514 74.3646 45.5207C74.6438 45.1593 74.8556 44.7503 74.9895 44.3134H76.9714C76.7968 45.1906 76.3574 45.993 75.7126 46.6118C75.003 47.177 74.1088 47.4575 73.2041 47.3987ZM75.4716 41.9257C75.5252 41.5858 75.5609 41.2996 75.5877 41.0314C75.6212 40.818 75.6212 40.6008 75.5877 40.3875C75.5529 40.2263 75.4609 40.0833 75.3288 39.985C75.1714 39.8866 74.9873 39.8397 74.8021 39.8509C74.5978 39.8426 74.3958 39.8955 74.2218 40.0029C74.0504 40.1029 73.9039 40.2405 73.7933 40.4054C73.6661 40.5746 73.5639 40.7614 73.4897 40.9598C73.4168 41.1583 73.3571 41.3615 73.3112 41.5679L73.2398 41.9078L75.4716 41.9257Z" fill="#106FB8"/>
<path d="M80.006 42.0768L78.4348 38.5801H80.6756L82.1307 42.0768L82.8449 38.5801H84.9607L84.2465 42.0768L87.0943 38.5801H89.2725L86.2551 42.0768L87.6924 47.219H85.4606L84.5679 43.7402L83.6484 44.8312L83.1484 47.219H81.0327L81.5326 44.8312L81.0148 43.7402L78.7294 47.219H76.4619L80.006 42.0768Z" fill="#106FB8"/>
<path d="M89.7902 38.5801H92.0042L91.3435 41.7727H93.4593L94.1199 38.5801H96.3339L94.5484 47.219H92.3345L93.0933 43.5434H90.9686L90.2187 47.219H88.0137L89.7902 38.5801Z" fill="#106FB8"/>
<path d="M97.3876 47.3983C97.0775 47.4055 96.7706 47.3348 96.4949 47.1927C96.2662 47.067 96.0821 46.8732 95.9682 46.6382C95.8507 46.3949 95.7839 46.1302 95.7718 45.8602C95.755 45.5602 95.7791 45.2593 95.8432 44.9659C95.9103 44.6009 96.0244 44.2462 96.1824 43.9106C96.3217 43.6297 96.509 43.3755 96.7359 43.1594C96.9618 42.9391 97.2247 42.7605 97.5126 42.6318C97.8568 42.4825 98.212 42.3599 98.5749 42.2651L99.8962 41.9253C100.176 41.8793 100.438 41.7588 100.655 41.5765C100.834 41.3978 100.95 41.1654 100.985 40.9147C101.064 40.6559 101.038 40.3768 100.914 40.1367C100.798 39.9489 100.557 39.8594 100.182 39.8594C100.029 39.8516 99.8757 39.8745 99.7317 39.9267C99.5876 39.9789 99.4553 40.0594 99.3427 40.1635C99.1221 40.3848 98.9755 40.6691 98.9231 40.9773L98.8695 41.2188H96.8787V41.0131C96.9595 40.5663 97.1296 40.1404 97.3787 39.7611C97.5961 39.4332 97.875 39.1507 98.2 38.9294C98.5221 38.7194 98.8787 38.5681 99.2534 38.4822C99.6488 38.3925 100.053 38.3475 100.459 38.3481C100.986 38.3322 101.512 38.3955 102.021 38.5359C102.347 38.6339 102.638 38.8232 102.86 39.0814C103.039 39.3291 103.138 39.6254 103.146 39.931C103.151 40.2887 103.115 40.6458 103.039 40.9952L102.146 45.5472C102.072 45.8585 102.024 46.1757 102.003 46.4951C101.997 46.7356 102.021 46.976 102.074 47.2105H99.9586C99.908 47.0699 99.8808 46.9218 99.8783 46.7723C99.8783 46.6203 99.8783 46.4683 99.8783 46.3162C99.6113 46.7085 99.2403 47.0182 98.807 47.2105C98.3493 47.3593 97.8682 47.423 97.3876 47.3983ZM98.5571 45.9406C98.7201 45.9375 98.8822 45.9135 99.0391 45.8691C99.2131 45.8156 99.3785 45.7373 99.5301 45.6366C99.6864 45.5203 99.8247 45.3817 99.9408 45.2252C100.065 45.0377 100.153 44.8283 100.2 44.6081L100.548 42.9C100.377 43.0145 100.194 43.1105 100.003 43.1862C99.8433 43.2482 99.6792 43.299 99.5123 43.3382C99.1187 43.3919 98.7494 43.5598 98.4499 43.8212C98.2244 44.0534 98.0631 44.3404 97.9817 44.654C97.9003 44.9675 97.9017 45.2969 97.9857 45.6098C98.0291 45.7219 98.1093 45.8158 98.2132 45.876C98.3171 45.9361 98.4384 45.9589 98.5571 45.9406Z" fill="#106FB8"/>
<path d="M104.949 43.8192C104.513 43.6625 104.154 43.3418 103.949 42.9249C103.743 42.4195 103.709 41.8601 103.851 41.3331C103.977 40.5047 104.415 39.756 105.074 39.2404C105.731 38.7925 106.512 38.564 107.306 38.5876H110.939L109.154 47.2265H106.958L107.61 44.0338H107.003L104.771 47.2265H102.235L104.949 43.8192ZM107.967 42.4688L108.44 40.1884H107.547C107.183 40.1697 106.821 40.2633 106.512 40.4567C106.236 40.6792 106.057 40.9995 106.012 41.351C105.959 41.4981 105.941 41.6556 105.959 41.8108C105.978 41.9661 106.032 42.1149 106.119 42.2453C106.241 42.3492 106.383 42.4261 106.537 42.4708C106.691 42.5155 106.853 42.527 107.011 42.5046L107.967 42.4688Z" fill="#106FB8"/>
<path d="M116.465 47.3963C115.678 47.4667 114.894 47.2296 114.278 46.7345C114.04 46.425 113.883 46.061 113.82 45.6754C113.758 45.2897 113.792 44.8946 113.921 44.5256V44.3647H115.894V44.472C115.785 44.8245 115.785 45.2016 115.894 45.5541C116.019 45.8134 116.286 45.9386 116.715 45.9386C117.027 45.9432 117.329 45.8243 117.554 45.6077C117.802 45.3672 117.968 45.0541 118.027 44.7134C118.12 44.4181 118.098 44.0986 117.965 43.8192C117.867 43.7167 117.747 43.639 117.613 43.5924C117.48 43.5457 117.337 43.5315 117.197 43.5509H116.947H116.51L116.831 42.0127H117.501C117.778 42.0161 118.049 41.9247 118.268 41.7533C118.532 41.5222 118.706 41.2056 118.759 40.859C118.798 40.7336 118.808 40.6013 118.789 40.4715C118.771 40.3417 118.724 40.2175 118.652 40.1078C118.575 40.0196 118.478 39.951 118.37 39.9074C118.261 39.8639 118.144 39.8468 118.027 39.8574C117.864 39.8408 117.699 39.8611 117.544 39.9168C117.39 39.9725 117.25 40.0623 117.135 40.1794C116.92 40.4342 116.781 40.7439 116.733 41.0737V41.1899H114.778V41.0468C114.859 40.6114 115.023 40.1956 115.26 39.8217C115.468 39.5001 115.738 39.2235 116.054 39.0078C116.383 38.7976 116.745 38.6463 117.126 38.5607C117.545 38.469 117.973 38.4241 118.402 38.4266C118.775 38.3864 119.152 38.4202 119.512 38.5261C119.872 38.6319 120.208 38.8078 120.5 39.0436C120.705 39.2751 120.846 39.5557 120.91 39.8583C120.975 40.1608 120.959 40.4748 120.866 40.7696C120.823 40.9888 120.755 41.202 120.661 41.4046C120.461 41.8238 120.152 42.1819 119.768 42.4419C119.577 42.5711 119.366 42.6678 119.143 42.7281C119.345 42.7566 119.538 42.83 119.708 42.943C119.878 43.0559 120.021 43.2056 120.125 43.3809C120.33 43.8106 120.371 44.3002 120.241 44.7582C120.156 45.184 119.992 45.5903 119.759 45.9565C119.541 46.2946 119.255 46.5838 118.92 46.8061C118.572 47.0406 118.185 47.2102 117.777 47.3069C117.345 47.3891 116.904 47.4191 116.465 47.3963Z" fill="#106FB8"/>
<path d="M122.411 47.3966C122.086 47.4086 121.764 47.3379 121.474 47.1909C121.249 47.06 121.066 46.8677 120.947 46.6364C120.833 46.3925 120.769 46.1278 120.76 45.8584C120.745 45.5589 120.765 45.2586 120.822 44.9641C120.896 44.5998 121.013 44.2456 121.17 43.9088C121.306 43.6257 121.494 43.3708 121.724 43.1576C121.95 42.9373 122.213 42.7587 122.5 42.63C122.844 42.4793 123.199 42.3567 123.563 42.2633L124.884 41.9235C125.163 41.8754 125.425 41.7552 125.643 41.5747C125.818 41.3935 125.934 41.1624 125.973 40.913C126.051 40.6542 126.026 40.375 125.902 40.1349C125.786 39.9471 125.536 39.8577 125.161 39.8577C125.009 39.8511 124.858 39.8746 124.715 39.9267C124.573 39.9789 124.442 40.0588 124.331 40.1617C124.107 40.3808 123.96 40.6662 123.911 40.9756L123.857 41.217H121.867L121.911 41.0113C121.992 40.5645 122.162 40.1387 122.411 39.7593C122.629 39.4314 122.908 39.149 123.232 38.9276C123.554 38.716 123.911 38.5645 124.286 38.4805C124.681 38.3897 125.086 38.3447 125.491 38.3463C126.015 38.3298 126.539 38.3931 127.044 38.5341C127.373 38.6252 127.667 38.8157 127.884 39.0797C128.065 39.3266 128.168 39.6228 128.178 39.9292C128.184 40.2869 128.148 40.6441 128.071 40.9934L127.178 45.5454C127.104 45.8568 127.056 46.1739 127.036 46.4934C127.03 46.7339 127.054 46.9742 127.107 47.2088H124.982C124.928 47.0693 124.9 46.9205 124.902 46.7706C124.902 46.6186 124.902 46.4665 124.902 46.3145C124.635 46.7067 124.264 47.0165 123.831 47.2088C123.373 47.3576 122.892 47.4212 122.411 47.3966ZM123.581 45.9389C123.744 45.9358 123.906 45.9117 124.063 45.8673C124.235 45.8156 124.397 45.7371 124.545 45.6348C124.706 45.5218 124.848 45.3828 124.964 45.2235C125.09 45.0376 125.175 44.8274 125.214 44.6064L125.571 42.8983C125.401 43.0128 125.218 43.1087 125.027 43.1845C124.866 43.2452 124.702 43.2959 124.536 43.3365C124.142 43.3881 123.772 43.5562 123.474 43.8194C123.248 44.0517 123.087 44.3387 123.005 44.6522C122.924 44.9658 122.925 45.2951 123.009 45.608C123.053 45.7201 123.133 45.814 123.237 45.8742C123.341 45.9344 123.462 45.9572 123.581 45.9389Z" fill="#106FB8"/>
<path d="M137.284 47.219H127.973L129.758 38.5801H131.972L130.544 45.5556H132.383L133.82 38.5801H136.034L134.597 45.5556H136.445L137.873 38.5801H140.087L138.659 45.5556H139.65L138.9 49.2311H136.891L137.284 47.219Z" fill="#106FB8"/>
<path d="M141.515 38.5801H143.604L142.479 44.0263L145.943 38.5801H148.282L146.496 47.219H144.398L145.505 41.8532L142.051 47.219H139.729L141.515 38.5801Z" fill="#106FB8"/>
<path d="M150.541 40.2426H148.345L148.684 38.5703H155.272L154.933 40.2426H152.737L151.309 47.2092H149.086L150.541 40.2426Z" fill="#106FB8"/>
<path d="M155.656 47.3967C155.346 47.4039 155.039 47.3332 154.763 47.191C154.535 47.0654 154.351 46.8716 154.237 46.6366C154.119 46.3932 154.052 46.1285 154.04 45.8585C154.028 45.5587 154.052 45.2584 154.112 44.9642C154.181 44.5989 154.299 44.2441 154.46 43.909C154.595 43.6281 154.78 43.3737 155.004 43.1578C155.235 42.9398 155.501 42.7615 155.79 42.6301C156.133 42.4781 156.488 42.3555 156.852 42.2635L158.165 41.9236C158.446 41.8755 158.711 41.7554 158.932 41.5749C159.105 41.3914 159.219 41.1613 159.263 40.9131C159.331 40.6535 159.306 40.3778 159.191 40.1351C159.075 39.9473 158.825 39.8578 158.45 39.8578C158.299 39.8502 158.147 39.8732 158.004 39.9255C157.862 39.9777 157.731 40.0581 157.62 40.1619C157.397 40.3827 157.248 40.6668 157.191 40.9757L157.138 41.2172H155.156L155.201 41.0115C155.279 40.5653 155.446 40.1395 155.692 39.7595C155.912 39.4335 156.19 39.1515 156.513 38.9278C156.835 38.7178 157.192 38.5664 157.566 38.4806C157.962 38.3909 158.366 38.3459 158.772 38.3465C159.299 38.3294 159.826 38.3927 160.334 38.5343C160.66 38.6323 160.951 38.8216 161.173 39.0798C161.352 39.3275 161.451 39.6238 161.459 39.9294C161.468 40.2867 161.435 40.6439 161.361 40.9936L160.423 45.5455C160.345 45.8608 160.286 46.1803 160.245 46.5024C160.243 46.7428 160.267 46.9826 160.316 47.2179H158.2C158.154 47.0761 158.127 46.9287 158.12 46.7797C158.12 46.6276 158.12 46.4756 158.12 46.3236C157.853 46.7158 157.482 47.0255 157.049 47.2179C156.599 47.3593 156.127 47.4198 155.656 47.3967ZM156.825 45.939C156.989 45.9359 157.151 45.9119 157.308 45.8675C157.482 45.814 157.647 45.7357 157.799 45.635C157.957 45.5212 158.096 45.3823 158.209 45.2236C158.338 45.0384 158.426 44.8281 158.468 44.6065L158.816 42.9253C158.648 43.0396 158.469 43.1356 158.281 43.2114C158.118 43.2735 157.951 43.3243 157.781 43.3635C157.387 43.4172 157.018 43.585 156.718 43.8464C156.472 44.088 156.306 44.4006 156.245 44.7407C156.168 45.0186 156.168 45.3124 156.245 45.5903C156.286 45.7074 156.366 45.8066 156.472 45.8703C156.578 45.9341 156.703 45.9584 156.825 45.939Z" fill="#106FB8"/>
<path d="M167.744 47.3969C167.198 47.4186 166.654 47.3273 166.146 47.1286C165.758 46.9626 165.442 46.6649 165.253 46.2879C165.059 45.8467 164.973 45.3652 165.003 44.8839C165.023 44.2157 165.107 43.5509 165.253 42.8986C165.378 42.2282 165.569 41.5721 165.824 40.9401C166.035 40.4166 166.337 39.9351 166.717 39.5181C167.05 39.1289 167.469 38.8228 167.94 38.6238C168.469 38.4176 169.033 38.3173 169.6 38.3287C170.145 38.3013 170.689 38.3992 171.19 38.6149C171.578 38.7831 171.895 39.0842 172.082 39.4645C172.276 39.9123 172.365 40.3988 172.341 40.8864C172.318 41.5544 172.234 42.2188 172.091 42.8717C171.961 43.5446 171.767 44.2034 171.511 44.8392C171.298 45.359 170.996 45.8373 170.618 46.2522C170.279 46.6209 169.861 46.9083 169.395 47.0928C168.869 47.2979 168.308 47.4011 167.744 47.3969ZM168.038 45.9392C168.266 45.935 168.489 45.8665 168.68 45.7415C168.871 45.6166 169.023 45.4402 169.118 45.2327C169.472 44.4933 169.718 43.7074 169.85 42.8986C170.051 42.141 170.127 41.3555 170.074 40.5734C170.072 40.4743 170.049 40.3766 170.008 40.2865C169.967 40.1964 169.907 40.1158 169.834 40.0495C169.76 39.9833 169.674 39.9329 169.58 39.9015C169.486 39.8701 169.387 39.8583 169.288 39.8669C169.037 39.8573 168.79 39.9365 168.592 40.0905C168.388 40.2619 168.223 40.4755 168.11 40.7165C167.961 41.0256 167.844 41.3493 167.761 41.6823C167.663 42.0579 167.574 42.4604 167.476 42.8986C167.378 43.3368 167.315 43.7929 167.262 44.1237C167.209 44.4428 167.194 44.767 167.217 45.0896C167.227 45.3132 167.305 45.5285 167.44 45.7066C167.516 45.7884 167.609 45.8518 167.712 45.892C167.816 45.9323 167.927 45.9484 168.038 45.9392Z" fill="#106FB8"/>
<path d="M174.921 40.2426H172.725L173.064 38.5703H179.661L179.313 40.2426H177.117L175.68 47.2092H173.483L174.921 40.2426Z" fill="#106FB8"/>
<path d="M183.509 38.5803H187.151C187.493 38.5769 187.835 38.6129 188.169 38.6876C188.446 38.754 188.703 38.8859 188.919 39.0722C189.114 39.2551 189.25 39.4915 189.312 39.7518C189.388 40.0844 189.388 40.4298 189.312 40.7624C189.225 41.2107 189.025 41.6293 188.731 41.9786C188.434 42.3232 188.033 42.5618 187.589 42.6583C188.597 42.8819 188.981 43.5526 188.74 44.7688C188.667 45.1924 188.509 45.5969 188.276 45.9582C188.082 46.2644 187.823 46.5239 187.517 46.7184C187.203 46.9073 186.859 47.0404 186.499 47.1119C186.108 47.1851 185.71 47.221 185.312 47.2192H181.741L183.509 38.5803ZM185.089 45.681C185.429 45.6977 185.768 45.6236 186.071 45.4664C186.211 45.3592 186.327 45.2246 186.413 45.0708C186.499 44.917 186.553 44.7473 186.571 44.5721C186.669 44.1339 186.624 43.8388 186.455 43.6778C186.193 43.5 185.877 43.4208 185.562 43.4542H184.669L184.214 45.6721L185.089 45.681ZM185.526 42.0144H186.089C186.25 41.9994 186.407 41.9571 186.553 41.8892C186.684 41.8252 186.797 41.73 186.883 41.612C186.984 41.4502 187.053 41.2714 187.089 41.0843C187.129 40.9198 187.129 40.748 187.089 40.5835C187.051 40.4643 186.972 40.3627 186.865 40.2973C186.742 40.2299 186.604 40.1902 186.464 40.1811C186.273 40.1711 186.083 40.1711 185.892 40.1811H185.357L184.973 42.0591L185.526 42.0144Z" fill="#106FB8"/>
<path d="M190.883 38.5801H192.972L191.856 44.0263L195.311 38.5801H197.65L195.865 47.219H193.767L194.883 41.8532L191.428 47.219H189.098L190.883 38.5801Z" fill="#106FB8"/>
<path d="M198.73 38.5785H200.864L200.677 39.4727C200.953 39.1132 201.295 38.8097 201.685 38.5785C202.054 38.3965 202.462 38.3075 202.873 38.3191C203.245 38.2777 203.621 38.3592 203.944 38.5513C204.266 38.7434 204.517 39.0355 204.658 39.3833C204.941 40.529 204.916 41.7291 204.587 42.8621C204.406 44.1049 203.941 45.2891 203.23 46.323C202.97 46.6601 202.635 46.9323 202.253 47.1185C201.87 47.3046 201.45 47.3997 201.025 47.3962C200.671 47.4148 200.318 47.3343 200.007 47.1637C199.721 46.9894 199.496 46.7299 199.364 46.4214L198.632 49.9986H196.4L198.73 38.5785ZM200.641 45.7328C200.873 45.7364 201.101 45.6701 201.295 45.5426C201.489 45.415 201.641 45.2321 201.73 45.0174C202.031 44.3488 202.25 43.6461 202.382 42.9247C202.549 42.2282 202.624 41.5125 202.605 40.7963C202.605 40.6952 202.585 40.5951 202.544 40.5026C202.503 40.4101 202.443 40.3273 202.368 40.2597C202.293 40.1921 202.204 40.1412 202.108 40.1104C202.012 40.0795 201.911 40.0695 201.81 40.0809C201.577 40.0767 201.348 40.1426 201.152 40.2701C200.956 40.3976 200.803 40.5809 200.712 40.7963C200.401 41.4741 200.179 42.1896 200.052 42.9247C199.884 43.6213 199.809 44.3369 199.828 45.0531C199.833 45.1532 199.857 45.2514 199.901 45.3414C199.945 45.4314 200.008 45.5113 200.084 45.576C200.16 45.6407 200.249 45.6888 200.345 45.7174C200.441 45.7459 200.542 45.7542 200.641 45.7418V45.7328Z" fill="#106FB8"/>
<path d="M203.997 50.0008L204.336 48.3464C204.525 48.3824 204.716 48.4003 204.908 48.4C205.077 48.4112 205.248 48.3885 205.409 48.3332C205.569 48.2779 205.718 48.1912 205.845 48.0781C206.086 47.8298 206.256 47.5208 206.336 47.1838L205.693 38.5449H208.005L208.059 44.5188L210.416 38.5449H212.621L208.88 46.5936C208.541 47.3179 208.238 47.8992 207.988 48.3822C207.766 48.7612 207.486 49.1024 207.157 49.3927C206.873 49.6225 206.54 49.7846 206.184 49.8667C205.758 49.9528 205.324 49.9918 204.89 49.9829L203.997 50.0008Z" fill="#106FB8"/>
<path d="M214.254 47.3967C213.779 47.4077 213.305 47.3381 212.853 47.191C212.479 47.0636 212.162 46.8068 211.96 46.4666C211.736 46.0428 211.622 45.569 211.63 45.0894C211.619 44.3519 211.7 43.6158 211.871 42.8984C212.012 42.1352 212.249 41.3929 212.576 40.6895C212.825 40.1668 213.167 39.694 213.585 39.2944C213.946 38.9604 214.375 38.71 214.844 38.561C215.315 38.4184 215.806 38.349 216.299 38.3554C216.701 38.309 217.109 38.3669 217.482 38.5235C217.856 38.6801 218.183 38.9301 218.432 39.2496C218.638 39.6178 218.769 40.0233 218.816 40.4425C218.864 40.8616 218.827 41.2861 218.709 41.6911H216.593C216.629 41.4943 216.656 41.2886 216.674 41.074C216.701 40.8872 216.701 40.6974 216.674 40.5106C216.643 40.3564 216.565 40.2156 216.451 40.1082C216.317 40.0002 216.149 39.9459 215.977 39.9561C215.732 39.9478 215.489 40.0132 215.281 40.1439C215.074 40.2811 214.905 40.4688 214.79 40.6895C214.633 40.9721 214.511 41.2723 214.424 41.5838C214.295 42.0133 214.188 42.4491 214.103 42.8894C213.996 43.426 213.915 43.8821 213.871 44.2666C213.835 44.5637 213.835 44.8639 213.871 45.1609C213.886 45.3642 213.975 45.5549 214.121 45.6975C214.286 45.818 214.488 45.878 214.692 45.8674C214.869 45.8671 215.043 45.8228 215.199 45.7385C215.355 45.6543 215.487 45.5326 215.585 45.3845C215.881 44.9135 216.078 44.3872 216.165 43.8374H218.281C218.127 44.8471 217.654 45.781 216.933 46.5024C216.188 47.1345 215.229 47.4548 214.254 47.3967Z" fill="#106FB8"/>
<path d="M221.397 47.3962C220.854 47.4172 220.313 47.3259 219.807 47.1279C219.42 46.9619 219.104 46.6642 218.915 46.2872C218.722 45.8454 218.633 45.3649 218.656 44.8832C218.681 44.2153 218.764 43.5509 218.906 42.8979C219.037 42.2282 219.232 41.5725 219.486 40.9394C219.7 40.4175 220.002 39.9365 220.379 39.5174C220.717 39.13 221.138 38.8242 221.611 38.6231C222.14 38.4162 222.704 38.3159 223.271 38.328C223.816 38.3031 224.359 38.4009 224.86 38.6142C225.249 38.7824 225.565 39.0835 225.753 39.4638C225.947 39.9116 226.036 40.3981 226.012 40.8857C225.984 41.5533 225.9 42.2174 225.762 42.871C225.632 43.5439 225.437 44.2027 225.182 44.8385C224.969 45.3583 224.667 45.8366 224.289 46.2515C223.946 46.6164 223.529 46.9031 223.066 47.0921C222.534 47.2994 221.967 47.4027 221.397 47.3962ZM221.7 45.9385C221.927 45.9337 222.148 45.8648 222.337 45.7398C222.527 45.6148 222.677 45.4388 222.771 45.232C223.132 44.495 223.382 43.7084 223.512 42.8979C223.708 42.1393 223.783 41.3547 223.735 40.5727C223.732 40.474 223.709 40.377 223.667 40.2875C223.626 40.198 223.566 40.1178 223.493 40.0518C223.42 39.9859 223.334 39.9354 223.24 39.9035C223.147 39.8716 223.048 39.8589 222.95 39.8662C222.699 39.8566 222.452 39.9357 222.254 40.0898C222.05 40.2612 221.885 40.4748 221.771 40.7158C221.623 41.0249 221.506 41.3486 221.423 41.6816C221.325 42.0572 221.227 42.4597 221.138 42.8979C221.048 43.3361 220.977 43.7922 220.914 44.123C220.885 44.4443 220.885 44.7676 220.914 45.0889C220.923 45.3143 221.005 45.5307 221.147 45.7059C221.215 45.7814 221.3 45.8413 221.394 45.8814C221.488 45.9215 221.589 45.941 221.691 45.9385H221.7Z" fill="#106FB8"/>
<path d="M227.386 38.5802H231.038C231.38 38.5776 231.721 38.6136 232.055 38.6875C232.331 38.7508 232.586 38.8831 232.796 39.0721C232.997 39.2516 233.137 39.4891 233.198 39.7517C233.274 40.0843 233.274 40.4297 233.198 40.7623C233.114 41.2115 232.914 41.6307 232.618 41.9785C232.321 42.3231 231.92 42.5617 231.475 42.6582C232.493 42.8818 232.877 43.5525 232.636 44.7687C232.558 45.1912 232.4 45.5949 232.171 45.9581C231.977 46.2668 231.714 46.5268 231.404 46.7183C231.094 46.9086 230.752 47.0419 230.395 47.1118C230.003 47.185 229.606 47.2209 229.208 47.2191H225.637L227.386 38.5802ZM228.976 45.6809C229.313 45.6977 229.649 45.6236 229.949 45.4663C230.091 45.3611 230.21 45.2271 230.298 45.0731C230.385 44.9191 230.44 44.7484 230.457 44.572C230.547 44.1338 230.511 43.8387 230.341 43.6777C230.08 43.4999 229.763 43.4207 229.449 43.4541H228.556L228.11 45.672L228.976 45.6809ZM229.431 42.0322H229.993C230.154 42.0172 230.311 41.9749 230.457 41.907C230.588 41.843 230.702 41.7478 230.788 41.6298C230.889 41.4692 230.955 41.2896 230.984 41.1021C231.024 40.9376 231.024 40.7658 230.984 40.6013C230.969 40.5418 230.942 40.4859 230.906 40.4368C230.869 40.3876 230.823 40.3463 230.77 40.3151C230.643 40.2478 230.503 40.2081 230.359 40.1989C230.169 40.1887 229.978 40.1887 229.788 40.1989H229.261L228.877 42.0769L229.431 42.0322Z" fill="#106FB8"/>
<path d="M25.7556 9.35452C25.5146 6.77001 22.3811 7.63748 20.9349 7.94154C17.9353 8.56754 13.0611 7.44968 10.0972 10.9553C8.59742 12.0732 5.93709 21.1234 8.71347 23.6006C10.6685 25.3445 13.9359 24.6648 16.4266 23.9762C13.3914 26.525 12.4004 30.2363 15.5339 33.5988C18.6674 36.9614 22.6757 40.1361 26.0859 36.0313C27.425 34.4127 28.2999 32.7761 29.6568 31.1664C30.2702 30.4403 30.7277 29.5956 31.0011 28.6848C31.2745 27.774 31.3578 26.8166 31.2459 25.8721C30.9245 22.2234 26.443 20.5064 23.2114 20.0592C23.5388 19.6924 23.8372 19.3008 24.1041 18.8877C24.3938 18.4421 24.6447 17.9724 24.854 17.4837C24.9397 17.4265 25.0061 17.3445 25.0443 17.2487C25.0826 17.1529 25.0909 17.0477 25.0682 16.9471C25.8471 14.4964 26.0698 11.9024 25.7199 9.35452M8.51707 21.4633C7.78281 19.2737 7.83014 16.8967 8.65098 14.7382C9.59727 12.5024 13.3735 8.35291 14.7215 12.3683C14.8822 12.8333 15.7571 11.626 15.6143 11.2504C15.0072 9.46184 14.3912 9.67647 12.9361 9.84639C13.9816 9.36394 15.1151 9.10215 16.2659 9.07729C17.1552 9.17565 18.0513 9.19659 18.9441 9.13989C20.1047 9.13989 23.3631 7.79845 23.9523 9.30981C24.4433 10.5529 24.2023 12.7618 24.1487 14.0853C24.1487 14.4967 23.8988 15.9544 23.8273 16.3479C23.243 15.6487 22.5533 15.0452 21.783 14.5593C21.2027 14.3179 19.7833 14.2016 20.7474 14.5593C21.9694 15.0992 22.9311 16.0978 23.4256 17.3406C23.0318 18.2957 22.4861 19.1806 21.8098 19.9609V20.0056C21.5954 20.1318 21.4194 20.3142 21.3009 20.5332C18.1675 23.4754 10.4632 26.5786 8.58849 21.3828M29.7551 24.4323C31.2102 26.5071 30.0675 29.3152 28.8623 31.0143C28.7552 27.5534 26.6394 23.9762 23.5863 23.1267C23.0774 22.9836 21.5777 22.9836 22.5329 23.2519C25.7378 24.1462 28.1749 28.3672 27.4161 32.1948C27.3929 32.2583 27.3929 32.328 27.4161 32.3915C27.2554 32.5704 27.0947 32.7493 26.9519 32.9281C26.0954 34.1226 25.0309 35.1526 23.8095 35.9687C21.783 37.0955 19.6762 35.7004 18.0693 34.3858C16.7174 33.2026 15.6494 31.7293 14.9447 30.0753C13.4271 26.7664 18.6406 23.4754 20.0779 22.5007H20.1493C20.7544 22.1631 21.3334 21.7805 21.8812 21.356C24.3094 21.508 28.2731 22.3844 29.7461 24.5039" fill="#106FB8"/>
<path d="M17.5956 13.8702C19.9435 11.0978 17.9884 10.5076 17.8723 8.64748C17.8723 7.97675 15.8994 8.64748 16.9796 9.54177C17.2909 9.74698 17.5464 10.0264 17.7231 10.355C17.8999 10.6836 17.9925 11.051 17.9925 11.4243C17.9925 11.7975 17.8999 12.1649 17.7231 12.4935C17.5464 12.8221 17.2909 13.1015 16.9796 13.3067C16.2766 14.0212 15.5345 14.6959 14.7567 15.3279C13.6319 16.1059 12.7213 17.1164 13.9443 18.3416C14.2747 18.6725 14.5782 18.3416 14.3729 18.1628C12.7749 16.5709 16.7564 14.827 17.5956 13.8344" fill="#106FB8"/>
<path d="M21.2288 17.886C21.2785 17.317 21.119 16.7495 20.7804 16.29C20.4417 15.8305 19.9472 15.5108 19.3898 15.3909C19.0896 15.3597 18.7862 15.3895 18.4977 15.4787C18.2093 15.5678 17.9419 15.7144 17.7114 15.9096C17.4615 16.2226 17.9346 16.1958 18.3096 16.321C18.8572 16.4798 19.3451 16.7986 19.7109 17.2367C20.0766 17.6748 20.3036 18.2123 20.3628 18.7803C20.4967 19.5941 21.2556 18.7803 21.2556 17.886" fill="#106FB8"/>
<path d="M13.2658 18.7804C12.7213 18.2796 10.0609 16.9918 10.3823 17.2959C10.7037 17.6 11.275 18.6284 11.5964 18.8609C11.4 18.8609 13.8997 20.9267 14.2121 21.7584C14.5246 22.5901 13.8193 19.2991 13.2658 18.7804Z" fill="#106FB8"/>
<path d="M21.2822 24.6636C20.7428 24.2998 20.0828 24.1618 19.4431 24.279C19.1218 24.279 18.5504 24.5026 18.4701 24.914C18.3897 25.3253 19.0057 25.218 19.1932 25.3432C20.3359 26.0318 20.3359 26.0318 20.5858 26.7026C20.8358 27.3733 21.7821 25.0213 21.2822 24.6636Z" fill="#106FB8"/>
<path d="M22.407 29.4401C22.761 29.627 23.0558 29.9096 23.2577 30.2557C23.4597 30.6019 23.5608 30.9978 23.5497 31.3986C23.505 32.2929 25.4155 29.3685 23.4336 28.3311C23.2226 28.2608 22.9954 28.2546 22.7809 28.3135C22.5664 28.3724 22.3741 28.4937 22.2284 28.662C22.1649 28.7149 22.1173 28.7844 22.0908 28.8628C22.0644 28.9412 22.0602 29.0254 22.0787 29.1061C22.0972 29.1867 22.1377 29.2606 22.1957 29.3196C22.2536 29.3786 22.3268 29.4203 22.407 29.4401Z" fill="#106FB8"/>
<path d="M19.4171 30.7115C19.6224 30.5863 19.9706 30.1928 19.5867 30.014C19.4617 29.9603 19.435 29.9335 19.4171 29.7367C19.3993 29.54 19.1939 29.5131 19.0957 29.5131C18.887 29.4743 18.6719 29.4897 18.4708 29.5579C18.1941 29.6383 19.0779 30.953 19.4171 30.7294" fill="#106FB8"/>
<path d="M19.6401 31.5593C18.4349 31.5593 17.319 29.7707 17.1048 28.6081C16.9887 27.9642 16.3995 31.0227 16.8548 31.6308C17.1088 31.9444 17.4301 32.1966 17.7949 32.3685C18.1597 32.5403 18.5585 32.6275 18.9616 32.6235C19.175 32.6326 19.3876 32.5921 19.5827 32.5053C19.7778 32.4184 19.9503 32.2874 20.0865 32.1227C20.3275 31.7381 19.899 31.5682 19.6401 31.5593Z" fill="#106FB8"/>
<path d="M36.9505 32.6675C37.6557 34.9837 39.1198 36.978 39.9768 39.2495C40.3593 40.6036 40.4626 42.0216 40.2803 43.4169C40.1196 45.3754 39.1466 46.5112 37.2986 46.7616C34.6204 47.1104 31.8887 46.386 29.2641 46.064C26.6395 45.7421 24.2113 45.912 21.6938 45.8226C19.1667 45.6181 16.6557 45.2477 14.177 44.7137C11.597 44.2665 9.48126 43.1576 8.285 40.43C7.27622 38.1585 7.24944 35.2252 7.48155 32.7748C7.58868 31.7017 7.33871 30.4497 8.52604 31.3887C9.91869 32.4976 9.96333 34.161 10.124 35.0463C10.2222 35.6097 11.6506 35.6992 11.8202 35.1537C15.2572 36.3341 14.418 39.169 15.9178 40.9666C16.9177 42.1649 18.596 42.2186 19.8994 42.2365C21.938 42.3977 23.9865 42.0919 25.8896 41.3422C27.1751 40.7341 28.3535 39.8755 29.6033 39.1869C30.6552 38.6345 31.8351 38.3731 33.0215 38.4297C34.2078 38.4863 35.3576 38.8588 36.3523 39.5089C36.9326 39.8487 33.6742 36.9154 31.4245 37.291C31.2438 37.3194 31.065 37.3582 30.8888 37.4073C33.1296 34.9748 35.9952 31.4602 36.763 29.4928C37.7539 26.9083 37.2897 22.9823 37.4415 20.2279C36.0557 18.9574 34.2657 18.2192 32.3886 18.1442C32.4015 18.0913 32.4015 18.0361 32.3886 17.9832C32.3886 15.0052 31.7459 12.2597 29.5944 10.2118C28.6035 9.31749 27.5233 9.31749 26.7734 7.96711C25.8807 6.35738 25.72 3.88913 24.3719 2.60134C22.3812 0.741211 18.8906 0.544466 16.391 0.481865C13.494 0.441427 10.6526 1.28006 8.24037 2.88752C3.25002 6.10698 2.47335 14.1914 2.884 20.371C3.16968 24.8424 3.1429 30.0115 1.53599 34.3399C0.870449 35.7201 0.355635 37.1683 0.000496895 38.6593C-0.249467 40.269 2.67868 43.8462 2.58941 43.0592C2.41979 41.9056 2.0627 40.8324 1.80381 39.7056C1.35744 37.8365 2.40193 36.0748 3.09826 34.474C4.23202 31.8627 4.05348 28.7237 3.84815 25.9067C3.59819 22.5978 2.95542 19.0385 3.56248 15.7743C4.16953 12.5101 4.4552 9.4427 6.24066 6.76875C7.16618 5.36294 8.3968 4.18476 9.84062 3.32222C11.2844 2.45967 12.9041 1.93505 14.5787 1.78754C17.489 1.42982 21.6581 1.91274 23.747 4.47042C24.9433 5.90129 25.1843 8.63783 26.943 9.39798C28.5053 10.0866 29.5587 10.811 30.0854 12.6711C30.5348 14.4992 30.7449 16.3781 30.7103 18.2604C30.7061 18.275 30.7061 18.2905 30.7103 18.3052C29.2194 18.4035 27.8982 18.5734 27.184 18.5913C26.2913 18.5913 24.5773 19.3872 25.7378 19.3783C27.7732 19.3783 31.0228 19.4946 33.0492 19.6198C34.0641 19.6985 35.0533 19.9781 35.9595 20.4425C36.5755 20.7645 36.2452 22.7587 36.2184 23.3669C36.1426 25.7005 35.6842 28.0057 34.8615 30.1903C34.0223 32.3635 29.0498 37.6666 27.4697 39.1333C26.4238 39.803 25.2915 40.3266 24.1041 40.6893C21.5688 41.4048 18.23 42.0755 16.632 39.4552C15.3822 37.4162 13.7128 35.1984 11.5256 34.4293C11.3616 34.3876 11.1897 34.3876 11.0257 34.4293C10.4365 32.4976 9.31164 30.2529 7.56189 30.3871C5.81215 30.5212 5.77644 33.1415 5.66931 34.6081C5.52648 37.9796 6.16924 41.5836 8.56175 43.8194C10.7311 45.8584 14.0788 45.76 16.7034 46.3234C20.7743 47.2177 24.9522 46.6096 29.0498 47.1104C31.9869 47.477 35.3882 48.3803 38.3342 47.477C40.7267 46.7437 41.8158 45.2324 42.0301 42.4153C42.3068 38.9455 36.9058 32.4797 36.9505 32.6496" fill="#106FB8"/>
<path d="M11.2122 18.9336C11.2122 18.9336 11.855 20.7222 12.7031 20.588C12.6288 20.7391 12.5153 20.8674 12.3745 20.9594C12.2338 21.0515 12.0709 21.1039 11.9029 21.1112C11.735 21.1185 11.5681 21.0805 11.4199 21.001C11.2717 20.9215 11.1476 20.8036 11.0605 20.6596C10.1677 19.5507 10.5516 19.3629 11.2122 18.9336Z" fill="#106FB8"/>
</g>
<defs>
<clipPath id="clip0_1370_4842">
<rect width="245" height="50" fill="white"/>
</clipPath>
</defs>
</svg>
