<svg width="34" height="34" viewBox="0 0 34 34" fill="none" xmlns="http://www.w3.org/2000/svg">
<g opacity="0.7">
<path d="M4.23607 10.4541C4.07116 10.6186 3.94032 10.814 3.85105 11.0292C3.76177 11.2443 3.71582 11.475 3.71582 11.7079C3.71582 11.9408 3.76177 12.1715 3.85105 12.3866C3.94032 12.6017 4.07116 12.7971 4.23607 12.9616L16.0086 24.7341C16.1396 24.8655 16.2953 24.9697 16.4667 25.0408C16.6381 25.1118 16.8218 25.1484 17.0073 25.1484C17.1929 25.1484 17.3766 25.1118 17.548 25.0408C17.7193 24.9697 17.875 24.8655 18.0061 24.7341L29.7786 12.9616C30.4727 12.2675 30.4727 11.1483 29.7786 10.4541C29.0844 9.75997 27.9652 9.75997 27.2711 10.4541L17.0002 20.7108L6.7294 10.44C6.0494 9.75998 4.91607 9.75997 4.23607 10.4541Z" fill="#106FB8"/>
</g>
</svg>
