<svg width="655" height="140" viewBox="0 0 655 140" fill="none" xmlns="http://www.w3.org/2000/svg">
<g filter="url(#filter0_dd_1370_5266)">
<path d="M77.9139 65.4755H70.7302L72.4596 55.0325H65.675L63.9456 65.4755H57.161L58.8904 55.0325H52.1724L50.4429 65.4755H43.0597L41.9955 71.994H49.3787L48.381 77.9804H41.0642L40 84.4324H47.2502L45.5208 94.9419H52.2389L53.9683 84.4324H60.7529L59.0235 94.9419H65.808L67.5375 84.4324H74.8542L75.9184 77.9804H68.6682L69.6659 71.994H76.8496L77.9139 65.4755ZM55.099 77.9804L56.0968 71.994H62.8814L61.8836 77.9804H55.099Z" fill="#106FB8"/>
<path d="M119.899 51.7067L106.596 73.7234L93.2265 51.7067H83.7813V98.2677H92.9604V68.1361L106.064 89.6871H107.128L120.232 68.0696V98.2677H129.344V51.7067H119.899Z" fill="#106FB8"/>
<path d="M177.929 98.2677L161.567 51.7067H150.192L133.896 98.2677H143.807L146.601 89.8867H165.158L167.952 98.2677H177.929ZM155.913 62.2827L162.298 81.3062H149.527L155.913 62.2827Z" fill="#106FB8"/>
<path d="M218.568 51.7067L205.265 73.7234L191.896 51.7067H182.45V98.2677H191.63V68.1361L204.733 89.6871H205.797L218.901 68.0696V98.2677H228.014V51.7067H218.568Z" fill="#106FB8"/>
<path d="M272.807 98.2677V51.7067H265.823L245.868 80.1754V51.7067H236.689V98.2677H243.673L263.628 69.8655V98.2677H272.807Z" fill="#106FB8"/>
<path d="M307.917 70.1981H290.623V51.7067H281.444V98.2677H290.623V78.9781H307.917V98.2677H317.03V51.7067H307.917V70.1981Z" fill="#106FB8"/>
<path d="M343.04 98.2677C347.497 98.2677 351.288 96.7378 354.348 93.7446C357.408 90.7514 358.938 87.0265 358.938 82.6365C358.938 78.2465 357.408 74.5216 354.348 71.5284C351.288 68.5352 347.497 67.0053 343.04 67.0053H334.859V51.7067H325.68V98.2677H343.04ZM372.307 98.2677V51.7067H363.195V98.2677H372.307ZM334.859 75.5858H343.04C346.965 75.5858 349.825 78.579 349.825 82.6365C349.825 86.6939 346.965 89.6871 343.04 89.6871H334.859V75.5858Z" fill="#106FB8"/>
<path d="M409.094 74.1225C412.021 71.7944 413.484 68.6682 413.484 64.8103C413.484 61.0189 412.087 57.8927 409.36 55.4316C406.633 52.9705 403.307 51.7067 399.316 51.7067H380.958V98.2677H400.713C404.77 98.2677 408.229 97.0039 411.023 94.4763C413.816 91.9487 415.213 88.6894 415.213 84.765C415.213 80.0424 413.151 76.4505 409.094 74.1225ZM399.316 60.2873C402.243 60.2873 404.305 62.4823 404.305 65.409C404.305 68.3356 402.176 70.5307 399.316 70.5307H390.137V60.2873H399.316ZM390.137 89.6871V78.7121H400.713C403.839 78.7121 406.101 81.0401 406.101 84.1664C406.101 87.3591 403.839 89.6871 400.713 89.6871H390.137Z" fill="#106FB8"/>
<path d="M461.14 98.2677L444.777 51.7067H433.403L417.107 98.2677H427.018L429.811 89.8867H448.369L451.163 98.2677H461.14ZM439.124 62.2827L445.509 81.3062H432.738L439.124 62.2827Z" fill="#106FB8"/>
<path d="M493.332 47.4497V40H474.042V47.4497H493.332ZM501.779 98.2677V51.7067H494.795L474.84 80.1754V51.7067H465.661V98.2677H472.645L492.6 69.8655V98.2677H501.779Z" fill="#106FB8"/>
<path d="M519.595 69.3334V60.4868H539.683V51.7067H510.416V98.2677H528.243C532.766 98.2677 536.49 96.9373 539.351 94.2767C542.211 91.5496 543.674 88.0908 543.674 83.7673C543.674 79.5103 542.211 76.0514 539.351 73.3908C536.49 70.6637 532.766 69.3334 528.243 69.3334H519.595ZM519.595 89.6871V77.9139H528.243C531.901 77.9139 534.562 80.0424 534.562 83.7673C534.562 87.4921 531.901 89.6871 528.243 89.6871H519.595Z" fill="#106FB8"/>
<path d="M566.686 98.2677C571.143 98.2677 574.934 96.7378 577.994 93.7446C581.053 90.7514 582.583 87.0265 582.583 82.6365C582.583 78.2465 581.053 74.5216 577.994 71.5284C574.934 68.5352 571.143 67.0053 566.686 67.0053H558.505V51.7067H549.325V98.2677H566.686ZM595.953 98.2677V51.7067H586.84V98.2677H595.953ZM558.505 75.5858H566.686C570.61 75.5858 573.471 78.579 573.471 82.6365C573.471 86.6939 570.61 89.6871 566.686 89.6871H558.505V75.5858Z" fill="#106FB8"/>
<path d="M613.184 73.6569C615.379 71.4619 615.379 67.87 613.184 65.675C610.989 63.48 607.397 63.48 605.202 65.675C603.007 67.87 603.007 71.4619 605.202 73.6569C607.397 75.8519 610.989 75.8519 613.184 73.6569ZM613.184 97.4695C615.379 95.2745 615.379 91.6826 613.184 89.4876C610.989 87.2926 607.397 87.2926 605.202 89.4876C603.007 91.6826 603.007 95.2745 605.202 97.4695C607.397 99.6645 610.989 99.6645 613.184 97.4695Z" fill="#106FB8"/>
</g>
<g filter="url(#filter1_f_1370_5266)">
<mask id="path-2-outside-1_1370_5266" maskUnits="userSpaceOnUse" x="32.4829" y="33.9121" width="588" height="71" fill="black">
<rect fill="white" x="32.4829" y="33.9121" width="588" height="71"/>
<path d="M77.3968 65.3876H70.2131L71.9425 54.9446H65.1579L63.4285 65.3876H56.6439L58.3733 54.9446H51.6553L49.9259 65.3876H42.5426L41.4784 71.9061H48.8616L47.8639 77.8925H40.5472L39.4829 84.3445H46.7331L45.0037 94.854H51.7218L53.4512 84.3445H60.2358L58.5064 94.854H65.291L67.0204 84.3445H74.3371L75.4013 77.8925H68.1511L69.1489 71.9061H76.3325L77.3968 65.3876ZM54.5819 77.8925L55.5797 71.9061H62.3643L61.3665 77.8925H54.5819Z"/>
<path d="M119.382 51.6189L106.079 73.6355L92.7094 51.6189H83.2642V98.1798H92.4433V68.0482L105.547 89.5993H106.611L119.715 67.9817V98.1798H128.827V51.6189H119.382Z"/>
<path d="M177.412 98.1798L161.049 51.6189H149.675L133.379 98.1798H143.29L146.083 89.7988H164.641L167.435 98.1798H177.412ZM155.396 62.1948L161.781 81.2183H149.01L155.396 62.1948Z"/>
<path d="M218.051 51.6189L204.748 73.6355L191.379 51.6189H181.933V98.1798H191.112V68.0482L204.216 89.5993H205.28L218.384 67.9817V98.1798H227.496V51.6189H218.051Z"/>
<path d="M272.29 98.1798V51.6189H265.306L245.351 80.0875V51.6189H236.172V98.1798H243.156L263.111 69.7776V98.1798H272.29Z"/>
<path d="M307.4 70.1102H290.106V51.6189H280.927V98.1798H290.106V78.8902H307.4V98.1798H316.513V51.6189H307.4V70.1102Z"/>
<path d="M342.523 98.1798C346.98 98.1798 350.771 96.6499 353.831 93.6567C356.891 90.6635 358.42 86.9386 358.42 82.5486C358.42 78.1586 356.891 74.4337 353.831 71.4405C350.771 68.4473 346.98 66.9174 342.523 66.9174H334.342V51.6189H325.163V98.1798H342.523ZM371.79 98.1798V51.6189H362.677V98.1798H371.79ZM334.342 75.498H342.523C346.448 75.498 349.308 78.4912 349.308 82.5486C349.308 86.6061 346.448 89.5993 342.523 89.5993H334.342V75.498Z"/>
<path d="M408.577 74.0346C411.504 71.7066 412.967 68.5803 412.967 64.7224C412.967 60.931 411.57 57.8048 408.843 55.3437C406.116 52.8826 402.79 51.6189 398.799 51.6189H380.441V98.1798H400.196C404.253 98.1798 407.712 96.916 410.506 94.3884C413.299 91.8608 414.696 88.6015 414.696 84.6771C414.696 79.9545 412.634 76.3627 408.577 74.0346ZM398.799 60.1994C401.726 60.1994 403.788 62.3944 403.788 65.3211C403.788 68.2478 401.659 70.4428 398.799 70.4428H389.62V60.1994H398.799ZM389.62 89.5993V78.6242H400.196C403.322 78.6242 405.584 80.9522 405.584 84.0785C405.584 87.2712 403.322 89.5993 400.196 89.5993H389.62Z"/>
<path d="M460.623 98.1798L444.26 51.6189H432.886L416.59 98.1798H426.501L429.294 89.7988H447.852L450.646 98.1798H460.623ZM438.607 62.1948L444.992 81.2183H432.221L438.607 62.1948Z"/>
<path d="M492.815 47.3619V39.9121H473.525V47.3619H492.815ZM501.262 98.1798V51.6189H494.278L474.323 80.0875V51.6189H465.144V98.1798H472.128L492.083 69.7776V98.1798H501.262Z"/>
<path d="M519.078 69.2455V60.3989H539.166V51.6189H509.899V98.1798H527.725C532.249 98.1798 535.973 96.8495 538.834 94.1888C541.694 91.4617 543.157 88.0029 543.157 83.6794C543.157 79.4224 541.694 75.9636 538.834 73.3029C535.973 70.5758 532.249 69.2455 527.725 69.2455H519.078ZM519.078 89.5993V77.826H527.725C531.384 77.826 534.044 79.9545 534.044 83.6794C534.044 87.4042 531.384 89.5993 527.725 89.5993H519.078Z"/>
<path d="M566.169 98.1798C570.625 98.1798 574.417 96.6499 577.477 93.6567C580.536 90.6635 582.066 86.9386 582.066 82.5486C582.066 78.1586 580.536 74.4337 577.477 71.4405C574.417 68.4473 570.625 66.9174 566.169 66.9174H557.987V51.6189H548.808V98.1798H566.169ZM595.436 98.1798V51.6189H586.323V98.1798H595.436ZM557.987 75.498H566.169C570.093 75.498 572.953 78.4912 572.953 82.5486C572.953 86.6061 570.093 89.5993 566.169 89.5993H557.987V75.498Z"/>
<path d="M612.667 73.569C614.862 71.374 614.862 67.7821 612.667 65.5871C610.472 63.3921 606.88 63.3921 604.685 65.5871C602.49 67.7821 602.49 71.374 604.685 73.569C606.88 75.764 610.472 75.764 612.667 73.569ZM612.667 97.3816C614.862 95.1866 614.862 91.5947 612.667 89.3997C610.472 87.2047 606.88 87.2047 604.685 89.3997C602.49 91.5947 602.49 95.1866 604.685 97.3816C606.88 99.5766 610.472 99.5766 612.667 97.3816Z"/>
</mask>
<path d="M77.3968 65.3876H70.2131L71.9425 54.9446H65.1579L63.4285 65.3876H56.6439L58.3733 54.9446H51.6553L49.9259 65.3876H42.5426L41.4784 71.9061H48.8616L47.8639 77.8925H40.5472L39.4829 84.3445H46.7331L45.0037 94.854H51.7218L53.4512 84.3445H60.2358L58.5064 94.854H65.291L67.0204 84.3445H74.3371L75.4013 77.8925H68.1511L69.1489 71.9061H76.3325L77.3968 65.3876ZM54.5819 77.8925L55.5797 71.9061H62.3643L61.3665 77.8925H54.5819Z" stroke="#A8D8EE" stroke-width="10.5658" mask="url(#path-2-outside-1_1370_5266)"/>
<path d="M119.382 51.6189L106.079 73.6355L92.7094 51.6189H83.2642V98.1798H92.4433V68.0482L105.547 89.5993H106.611L119.715 67.9817V98.1798H128.827V51.6189H119.382Z" stroke="#A8D8EE" stroke-width="10.5658" mask="url(#path-2-outside-1_1370_5266)"/>
<path d="M177.412 98.1798L161.049 51.6189H149.675L133.379 98.1798H143.29L146.083 89.7988H164.641L167.435 98.1798H177.412ZM155.396 62.1948L161.781 81.2183H149.01L155.396 62.1948Z" stroke="#A8D8EE" stroke-width="10.5658" mask="url(#path-2-outside-1_1370_5266)"/>
<path d="M218.051 51.6189L204.748 73.6355L191.379 51.6189H181.933V98.1798H191.112V68.0482L204.216 89.5993H205.28L218.384 67.9817V98.1798H227.496V51.6189H218.051Z" stroke="#A8D8EE" stroke-width="10.5658" mask="url(#path-2-outside-1_1370_5266)"/>
<path d="M272.29 98.1798V51.6189H265.306L245.351 80.0875V51.6189H236.172V98.1798H243.156L263.111 69.7776V98.1798H272.29Z" stroke="#A8D8EE" stroke-width="10.5658" mask="url(#path-2-outside-1_1370_5266)"/>
<path d="M307.4 70.1102H290.106V51.6189H280.927V98.1798H290.106V78.8902H307.4V98.1798H316.513V51.6189H307.4V70.1102Z" stroke="#A8D8EE" stroke-width="10.5658" mask="url(#path-2-outside-1_1370_5266)"/>
<path d="M342.523 98.1798C346.98 98.1798 350.771 96.6499 353.831 93.6567C356.891 90.6635 358.42 86.9386 358.42 82.5486C358.42 78.1586 356.891 74.4337 353.831 71.4405C350.771 68.4473 346.98 66.9174 342.523 66.9174H334.342V51.6189H325.163V98.1798H342.523ZM371.79 98.1798V51.6189H362.677V98.1798H371.79ZM334.342 75.498H342.523C346.448 75.498 349.308 78.4912 349.308 82.5486C349.308 86.6061 346.448 89.5993 342.523 89.5993H334.342V75.498Z" stroke="#A8D8EE" stroke-width="10.5658" mask="url(#path-2-outside-1_1370_5266)"/>
<path d="M408.577 74.0346C411.504 71.7066 412.967 68.5803 412.967 64.7224C412.967 60.931 411.57 57.8048 408.843 55.3437C406.116 52.8826 402.79 51.6189 398.799 51.6189H380.441V98.1798H400.196C404.253 98.1798 407.712 96.916 410.506 94.3884C413.299 91.8608 414.696 88.6015 414.696 84.6771C414.696 79.9545 412.634 76.3627 408.577 74.0346ZM398.799 60.1994C401.726 60.1994 403.788 62.3944 403.788 65.3211C403.788 68.2478 401.659 70.4428 398.799 70.4428H389.62V60.1994H398.799ZM389.62 89.5993V78.6242H400.196C403.322 78.6242 405.584 80.9522 405.584 84.0785C405.584 87.2712 403.322 89.5993 400.196 89.5993H389.62Z" stroke="#A8D8EE" stroke-width="10.5658" mask="url(#path-2-outside-1_1370_5266)"/>
<path d="M460.623 98.1798L444.26 51.6189H432.886L416.59 98.1798H426.501L429.294 89.7988H447.852L450.646 98.1798H460.623ZM438.607 62.1948L444.992 81.2183H432.221L438.607 62.1948Z" stroke="#A8D8EE" stroke-width="10.5658" mask="url(#path-2-outside-1_1370_5266)"/>
<path d="M492.815 47.3619V39.9121H473.525V47.3619H492.815ZM501.262 98.1798V51.6189H494.278L474.323 80.0875V51.6189H465.144V98.1798H472.128L492.083 69.7776V98.1798H501.262Z" stroke="#A8D8EE" stroke-width="10.5658" mask="url(#path-2-outside-1_1370_5266)"/>
<path d="M519.078 69.2455V60.3989H539.166V51.6189H509.899V98.1798H527.725C532.249 98.1798 535.973 96.8495 538.834 94.1888C541.694 91.4617 543.157 88.0029 543.157 83.6794C543.157 79.4224 541.694 75.9636 538.834 73.3029C535.973 70.5758 532.249 69.2455 527.725 69.2455H519.078ZM519.078 89.5993V77.826H527.725C531.384 77.826 534.044 79.9545 534.044 83.6794C534.044 87.4042 531.384 89.5993 527.725 89.5993H519.078Z" stroke="#A8D8EE" stroke-width="10.5658" mask="url(#path-2-outside-1_1370_5266)"/>
<path d="M566.169 98.1798C570.625 98.1798 574.417 96.6499 577.477 93.6567C580.536 90.6635 582.066 86.9386 582.066 82.5486C582.066 78.1586 580.536 74.4337 577.477 71.4405C574.417 68.4473 570.625 66.9174 566.169 66.9174H557.987V51.6189H548.808V98.1798H566.169ZM595.436 98.1798V51.6189H586.323V98.1798H595.436ZM557.987 75.498H566.169C570.093 75.498 572.953 78.4912 572.953 82.5486C572.953 86.6061 570.093 89.5993 566.169 89.5993H557.987V75.498Z" stroke="#A8D8EE" stroke-width="10.5658" mask="url(#path-2-outside-1_1370_5266)"/>
<path d="M612.667 73.569C614.862 71.374 614.862 67.7821 612.667 65.5871C610.472 63.3921 606.88 63.3921 604.685 65.5871C602.49 67.7821 602.49 71.374 604.685 73.569C606.88 75.764 610.472 75.764 612.667 73.569ZM612.667 97.3816C614.862 95.1866 614.862 91.5947 612.667 89.3997C610.472 87.2047 606.88 87.2047 604.685 89.3997C602.49 91.5947 602.49 95.1866 604.685 97.3816C606.88 99.5766 610.472 99.5766 612.667 97.3816Z" stroke="#A8D8EE" stroke-width="10.5658" mask="url(#path-2-outside-1_1370_5266)"/>
</g>
<g filter="url(#filter2_f_1370_5266)">
<mask id="path-3-outside-2_1370_5266" maskUnits="userSpaceOnUse" x="35.4829" y="36.9121" width="582" height="65" fill="black">
<rect fill="white" x="35.4829" y="36.9121" width="582" height="65"/>
<path d="M77.3968 65.3876H70.2131L71.9425 54.9446H65.1579L63.4285 65.3876H56.6439L58.3733 54.9446H51.6553L49.9259 65.3876H42.5426L41.4784 71.9061H48.8616L47.8639 77.8925H40.5472L39.4829 84.3445H46.7331L45.0037 94.854H51.7218L53.4512 84.3445H60.2358L58.5064 94.854H65.291L67.0204 84.3445H74.3371L75.4013 77.8925H68.1511L69.1489 71.9061H76.3325L77.3968 65.3876ZM54.5819 77.8925L55.5797 71.9061H62.3643L61.3665 77.8925H54.5819Z"/>
<path d="M119.382 51.6189L106.079 73.6355L92.7094 51.6189H83.2642V98.1798H92.4433V68.0482L105.547 89.5993H106.611L119.715 67.9817V98.1798H128.827V51.6189H119.382Z"/>
<path d="M177.412 98.1798L161.049 51.6189H149.675L133.379 98.1798H143.29L146.083 89.7988H164.641L167.435 98.1798H177.412ZM155.396 62.1948L161.781 81.2183H149.01L155.396 62.1948Z"/>
<path d="M218.051 51.6189L204.748 73.6355L191.379 51.6189H181.933V98.1798H191.112V68.0482L204.216 89.5993H205.28L218.384 67.9817V98.1798H227.496V51.6189H218.051Z"/>
<path d="M272.29 98.1798V51.6189H265.306L245.351 80.0875V51.6189H236.172V98.1798H243.156L263.111 69.7776V98.1798H272.29Z"/>
<path d="M307.4 70.1102H290.106V51.6189H280.927V98.1798H290.106V78.8902H307.4V98.1798H316.513V51.6189H307.4V70.1102Z"/>
<path d="M342.523 98.1798C346.98 98.1798 350.771 96.6499 353.831 93.6567C356.891 90.6635 358.42 86.9386 358.42 82.5486C358.42 78.1586 356.891 74.4337 353.831 71.4405C350.771 68.4473 346.98 66.9174 342.523 66.9174H334.342V51.6189H325.163V98.1798H342.523ZM371.79 98.1798V51.6189H362.677V98.1798H371.79ZM334.342 75.498H342.523C346.448 75.498 349.308 78.4912 349.308 82.5486C349.308 86.6061 346.448 89.5993 342.523 89.5993H334.342V75.498Z"/>
<path d="M408.577 74.0346C411.504 71.7066 412.967 68.5803 412.967 64.7224C412.967 60.931 411.57 57.8048 408.843 55.3437C406.116 52.8826 402.79 51.6189 398.799 51.6189H380.441V98.1798H400.196C404.253 98.1798 407.712 96.916 410.506 94.3884C413.299 91.8608 414.696 88.6015 414.696 84.6771C414.696 79.9545 412.634 76.3627 408.577 74.0346ZM398.799 60.1994C401.726 60.1994 403.788 62.3944 403.788 65.3211C403.788 68.2478 401.659 70.4428 398.799 70.4428H389.62V60.1994H398.799ZM389.62 89.5993V78.6242H400.196C403.322 78.6242 405.584 80.9522 405.584 84.0785C405.584 87.2712 403.322 89.5993 400.196 89.5993H389.62Z"/>
<path d="M460.623 98.1798L444.26 51.6189H432.886L416.59 98.1798H426.501L429.294 89.7988H447.852L450.646 98.1798H460.623ZM438.607 62.1948L444.992 81.2183H432.221L438.607 62.1948Z"/>
<path d="M492.815 47.3619V39.9121H473.525V47.3619H492.815ZM501.262 98.1798V51.6189H494.278L474.323 80.0875V51.6189H465.144V98.1798H472.128L492.083 69.7776V98.1798H501.262Z"/>
<path d="M519.078 69.2455V60.3989H539.166V51.6189H509.899V98.1798H527.725C532.249 98.1798 535.973 96.8495 538.834 94.1888C541.694 91.4617 543.157 88.0029 543.157 83.6794C543.157 79.4224 541.694 75.9636 538.834 73.3029C535.973 70.5758 532.249 69.2455 527.725 69.2455H519.078ZM519.078 89.5993V77.826H527.725C531.384 77.826 534.044 79.9545 534.044 83.6794C534.044 87.4042 531.384 89.5993 527.725 89.5993H519.078Z"/>
<path d="M566.169 98.1798C570.625 98.1798 574.417 96.6499 577.477 93.6567C580.536 90.6635 582.066 86.9386 582.066 82.5486C582.066 78.1586 580.536 74.4337 577.477 71.4405C574.417 68.4473 570.625 66.9174 566.169 66.9174H557.987V51.6189H548.808V98.1798H566.169ZM595.436 98.1798V51.6189H586.323V98.1798H595.436ZM557.987 75.498H566.169C570.093 75.498 572.953 78.4912 572.953 82.5486C572.953 86.6061 570.093 89.5993 566.169 89.5993H557.987V75.498Z"/>
<path d="M612.667 73.569C614.862 71.374 614.862 67.7821 612.667 65.5871C610.472 63.3921 606.88 63.3921 604.685 65.5871C602.49 67.7821 602.49 71.374 604.685 73.569C606.88 75.764 610.472 75.764 612.667 73.569ZM612.667 97.3816C614.862 95.1866 614.862 91.5947 612.667 89.3997C610.472 87.2047 606.88 87.2047 604.685 89.3997C602.49 91.5947 602.49 95.1866 604.685 97.3816C606.88 99.5766 610.472 99.5766 612.667 97.3816Z"/>
</mask>
<path d="M77.3968 65.3876H70.2131L71.9425 54.9446H65.1579L63.4285 65.3876H56.6439L58.3733 54.9446H51.6553L49.9259 65.3876H42.5426L41.4784 71.9061H48.8616L47.8639 77.8925H40.5472L39.4829 84.3445H46.7331L45.0037 94.854H51.7218L53.4512 84.3445H60.2358L58.5064 94.854H65.291L67.0204 84.3445H74.3371L75.4013 77.8925H68.1511L69.1489 71.9061H76.3325L77.3968 65.3876ZM54.5819 77.8925L55.5797 71.9061H62.3643L61.3665 77.8925H54.5819Z" stroke="white" stroke-width="5.28288" mask="url(#path-3-outside-2_1370_5266)"/>
<path d="M119.382 51.6189L106.079 73.6355L92.7094 51.6189H83.2642V98.1798H92.4433V68.0482L105.547 89.5993H106.611L119.715 67.9817V98.1798H128.827V51.6189H119.382Z" stroke="white" stroke-width="5.28288" mask="url(#path-3-outside-2_1370_5266)"/>
<path d="M177.412 98.1798L161.049 51.6189H149.675L133.379 98.1798H143.29L146.083 89.7988H164.641L167.435 98.1798H177.412ZM155.396 62.1948L161.781 81.2183H149.01L155.396 62.1948Z" stroke="white" stroke-width="5.28288" mask="url(#path-3-outside-2_1370_5266)"/>
<path d="M218.051 51.6189L204.748 73.6355L191.379 51.6189H181.933V98.1798H191.112V68.0482L204.216 89.5993H205.28L218.384 67.9817V98.1798H227.496V51.6189H218.051Z" stroke="white" stroke-width="5.28288" mask="url(#path-3-outside-2_1370_5266)"/>
<path d="M272.29 98.1798V51.6189H265.306L245.351 80.0875V51.6189H236.172V98.1798H243.156L263.111 69.7776V98.1798H272.29Z" stroke="white" stroke-width="5.28288" mask="url(#path-3-outside-2_1370_5266)"/>
<path d="M307.4 70.1102H290.106V51.6189H280.927V98.1798H290.106V78.8902H307.4V98.1798H316.513V51.6189H307.4V70.1102Z" stroke="white" stroke-width="5.28288" mask="url(#path-3-outside-2_1370_5266)"/>
<path d="M342.523 98.1798C346.98 98.1798 350.771 96.6499 353.831 93.6567C356.891 90.6635 358.42 86.9386 358.42 82.5486C358.42 78.1586 356.891 74.4337 353.831 71.4405C350.771 68.4473 346.98 66.9174 342.523 66.9174H334.342V51.6189H325.163V98.1798H342.523ZM371.79 98.1798V51.6189H362.677V98.1798H371.79ZM334.342 75.498H342.523C346.448 75.498 349.308 78.4912 349.308 82.5486C349.308 86.6061 346.448 89.5993 342.523 89.5993H334.342V75.498Z" stroke="white" stroke-width="5.28288" mask="url(#path-3-outside-2_1370_5266)"/>
<path d="M408.577 74.0346C411.504 71.7066 412.967 68.5803 412.967 64.7224C412.967 60.931 411.57 57.8048 408.843 55.3437C406.116 52.8826 402.79 51.6189 398.799 51.6189H380.441V98.1798H400.196C404.253 98.1798 407.712 96.916 410.506 94.3884C413.299 91.8608 414.696 88.6015 414.696 84.6771C414.696 79.9545 412.634 76.3627 408.577 74.0346ZM398.799 60.1994C401.726 60.1994 403.788 62.3944 403.788 65.3211C403.788 68.2478 401.659 70.4428 398.799 70.4428H389.62V60.1994H398.799ZM389.62 89.5993V78.6242H400.196C403.322 78.6242 405.584 80.9522 405.584 84.0785C405.584 87.2712 403.322 89.5993 400.196 89.5993H389.62Z" stroke="white" stroke-width="5.28288" mask="url(#path-3-outside-2_1370_5266)"/>
<path d="M460.623 98.1798L444.26 51.6189H432.886L416.59 98.1798H426.501L429.294 89.7988H447.852L450.646 98.1798H460.623ZM438.607 62.1948L444.992 81.2183H432.221L438.607 62.1948Z" stroke="white" stroke-width="5.28288" mask="url(#path-3-outside-2_1370_5266)"/>
<path d="M492.815 47.3619V39.9121H473.525V47.3619H492.815ZM501.262 98.1798V51.6189H494.278L474.323 80.0875V51.6189H465.144V98.1798H472.128L492.083 69.7776V98.1798H501.262Z" stroke="white" stroke-width="5.28288" mask="url(#path-3-outside-2_1370_5266)"/>
<path d="M519.078 69.2455V60.3989H539.166V51.6189H509.899V98.1798H527.725C532.249 98.1798 535.973 96.8495 538.834 94.1888C541.694 91.4617 543.157 88.0029 543.157 83.6794C543.157 79.4224 541.694 75.9636 538.834 73.3029C535.973 70.5758 532.249 69.2455 527.725 69.2455H519.078ZM519.078 89.5993V77.826H527.725C531.384 77.826 534.044 79.9545 534.044 83.6794C534.044 87.4042 531.384 89.5993 527.725 89.5993H519.078Z" stroke="white" stroke-width="5.28288" mask="url(#path-3-outside-2_1370_5266)"/>
<path d="M566.169 98.1798C570.625 98.1798 574.417 96.6499 577.477 93.6567C580.536 90.6635 582.066 86.9386 582.066 82.5486C582.066 78.1586 580.536 74.4337 577.477 71.4405C574.417 68.4473 570.625 66.9174 566.169 66.9174H557.987V51.6189H548.808V98.1798H566.169ZM595.436 98.1798V51.6189H586.323V98.1798H595.436ZM557.987 75.498H566.169C570.093 75.498 572.953 78.4912 572.953 82.5486C572.953 86.6061 570.093 89.5993 566.169 89.5993H557.987V75.498Z" stroke="white" stroke-width="5.28288" mask="url(#path-3-outside-2_1370_5266)"/>
<path d="M612.667 73.569C614.862 71.374 614.862 67.7821 612.667 65.5871C610.472 63.3921 606.88 63.3921 604.685 65.5871C602.49 67.7821 602.49 71.374 604.685 73.569C606.88 75.764 610.472 75.764 612.667 73.569ZM612.667 97.3816C614.862 95.1866 614.862 91.5947 612.667 89.3997C610.472 87.2047 606.88 87.2047 604.685 89.3997C602.49 91.5947 602.49 95.1866 604.685 97.3816C606.88 99.5766 610.472 99.5766 612.667 97.3816Z" stroke="white" stroke-width="5.28288" mask="url(#path-3-outside-2_1370_5266)"/>
</g>
<defs>
<filter id="filter0_dd_1370_5266" x="0" y="0" width="654.83" height="139.115" filterUnits="userSpaceOnUse" color-interpolation-filters="sRGB">
<feFlood flood-opacity="0" result="BackgroundImageFix"/>
<feColorMatrix in="SourceAlpha" type="matrix" values="0 0 0 0 0 0 0 0 0 0 0 0 0 0 0 0 0 0 127 0" result="hardAlpha"/>
<feOffset/>
<feGaussianBlur stdDeviation="20"/>
<feComposite in2="hardAlpha" operator="out"/>
<feColorMatrix type="matrix" values="0 0 0 0 0.998917 0 0 0 0 1 0 0 0 0 0.945833 0 0 0 1 0"/>
<feBlend mode="normal" in2="BackgroundImageFix" result="effect1_dropShadow_1370_5266"/>
<feColorMatrix in="SourceAlpha" type="matrix" values="0 0 0 0 0 0 0 0 0 0 0 0 0 0 0 0 0 0 127 0" result="hardAlpha"/>
<feOffset/>
<feGaussianBlur stdDeviation="7.5"/>
<feComposite in2="hardAlpha" operator="out"/>
<feColorMatrix type="matrix" values="0 0 0 0 0.592157 0 0 0 0 0.827451 0 0 0 0 0.988235 0 0 0 1 0"/>
<feBlend mode="normal" in2="effect1_dropShadow_1370_5266" result="effect2_dropShadow_1370_5266"/>
<feBlend mode="normal" in="SourceGraphic" in2="effect2_dropShadow_1370_5266" result="shape"/>
</filter>
<filter id="filter1_f_1370_5266" x="27.2573" y="28.6289" width="598.339" height="81.6816" filterUnits="userSpaceOnUse" color-interpolation-filters="sRGB">
<feFlood flood-opacity="0" result="BackgroundImageFix"/>
<feBlend mode="normal" in="SourceGraphic" in2="BackgroundImageFix" result="shape"/>
<feGaussianBlur stdDeviation="3" result="effect1_foregroundBlur_1370_5266"/>
</filter>
<filter id="filter2_f_1370_5266" x="35.4896" y="36.391" width="582.345" height="66.1594" filterUnits="userSpaceOnUse" color-interpolation-filters="sRGB">
<feFlood flood-opacity="0" result="BackgroundImageFix"/>
<feBlend mode="normal" in="SourceGraphic" in2="BackgroundImageFix" result="shape"/>
<feGaussianBlur stdDeviation="0.44024" result="effect1_foregroundBlur_1370_5266"/>
</filter>
</defs>
</svg>
