<svg width="38" height="38" viewBox="0 0 38 38" fill="none" xmlns="http://www.w3.org/2000/svg">
<path d="M27.9913 1.16832C27.2396 0.420133 26.2216 0.00108838 25.161 0.00332516L12.7555 0.029489C11.6946 0.0317266 10.678 0.455338 9.92945 1.20713L1.169 10.0052C0.420499 10.7569 0.0012569 11.7752 0.00349421 12.836L0.0296579 25.2414C0.031895 26.3022 0.455346 27.3185 1.20688 28.0671L10.0054 36.8305C10.7571 37.5792 11.7755 37.9986 12.8364 37.9964L25.2411 37.9709C26.3021 37.9687 27.3188 37.5451 28.0674 36.7932L36.8312 27.9911C37.5796 27.2394 37.9988 26.2213 37.9966 25.1606L37.9711 12.7559C37.9689 11.6946 37.5451 10.6778 36.7929 9.92911L27.9913 1.16832ZM25.564 3.04575L34.9274 12.3598L34.9517 25.5639L25.6368 34.9272L12.3599 34.8791L3.07341 25.6367L3.04592 12.4326L12.3599 3.07324L25.564 3.04575ZM25.564 3.04575L12.3599 3.07324L3.04592 12.4326L3.07341 25.6367L12.4327 34.9515L25.6368 34.9272L34.9517 25.5639L34.9274 12.3598L25.564 3.04575ZM7.06375 15.3111C7.4923 15.3111 7.93702 15.3515 8.38982 15.4162C8.85071 15.4809 9.31969 15.5779 9.80483 15.7073V17.3649C9.37629 17.1708 8.95583 17.0253 8.54345 16.9282C8.13107 16.8312 7.74296 16.7827 7.3791 16.7827C6.89395 16.7827 6.53817 16.8474 6.30773 16.9849C6.07567 17.1142 5.96004 17.3245 5.96004 17.6075C5.96004 17.8177 6.03766 17.9794 6.1921 18.1007C6.34977 18.2139 6.6352 18.319 7.04758 18.3999L7.90467 18.5697C8.77794 18.7476 9.40054 19.0144 9.77249 19.3702C10.1364 19.734 10.3223 20.2434 10.3223 20.8984C10.3223 21.7636 10.0636 22.4104 9.55417 22.839C9.03668 23.2594 8.25236 23.4697 7.19312 23.4697C6.69989 23.4697 6.19857 23.4211 5.69644 23.3241C5.19512 23.2352 4.693 23.0896 4.19168 22.9037V21.1975C4.693 21.4644 5.17733 21.6665 5.64388 21.804C6.11448 21.9334 6.57052 21.998 6.99906 21.998C7.44378 21.998 7.78339 21.9253 8.01787 21.7797C8.25236 21.6342 8.37365 21.424 8.37365 21.149C8.37365 20.8984 8.29279 20.7124 8.13107 20.5749C7.96936 20.4456 7.65401 20.3243 7.17695 20.2192L6.39263 20.0494C5.60588 19.8796 5.03017 19.6127 4.6647 19.2408C4.30326 18.8769 4.12295 18.3756 4.12295 17.753C4.12295 16.9687 4.37522 16.3703 4.88059 15.9499C5.38595 15.5213 6.11286 15.3111 7.06375 15.3111ZM22.2408 15.3111C23.5022 15.3111 24.4886 15.675 25.2083 16.4027C25.9279 17.1223 26.2837 18.1169 26.2837 19.3944C26.2837 20.6639 25.9279 21.6584 25.2083 22.3862C24.4886 23.1058 23.5022 23.4697 22.2408 23.4697C20.9794 23.4697 19.9929 23.1058 19.2733 22.3862C18.5537 21.6584 18.1979 20.6639 18.1979 19.3944C18.1979 18.1169 18.5537 17.1223 19.2733 16.4027C19.9929 15.675 20.9794 15.3111 22.2408 15.3111ZM10.767 15.4566H18.0119V16.9849H15.4083V23.316H13.3788V16.9849H10.767V15.4566ZM27.4076 15.4566H30.7713C31.7659 15.4566 32.534 15.683 33.0677 16.1278C33.6094 16.5644 33.8762 17.1951 33.8762 18.0198C33.8762 18.8446 33.6094 19.4834 33.0677 19.9281C32.534 20.3647 31.7659 20.5911 30.7713 20.5911H29.4291V23.316H27.4076V15.4566ZM22.2408 16.7827C21.6182 16.7827 21.1411 17.0091 20.8015 17.47C20.4619 17.9228 20.2921 18.5697 20.2921 19.3944C20.2921 20.2192 20.4619 20.8579 20.8015 21.3188C21.1411 21.7716 21.6182 21.998 22.2408 21.998C22.8634 21.998 23.3405 21.7716 23.6801 21.3188C24.0197 20.8579 24.1895 20.2192 24.1895 19.3944C24.1895 18.5697 24.0197 17.9228 23.6801 17.47C23.3405 17.0091 22.8634 16.7827 22.2408 16.7827ZM29.4291 16.9282V19.1195H30.553C30.9492 19.1195 31.2484 19.0225 31.4667 18.8365C31.6769 18.6424 31.782 18.3675 31.782 18.0198C31.782 17.6721 31.6769 17.3972 31.4667 17.2113C31.2484 17.0172 30.9492 16.9282 30.553 16.9282H29.4291Z" fill="white"/>
</svg>
