<svg width="36" height="36" viewBox="0 0 36 36" fill="none" xmlns="http://www.w3.org/2000/svg">
<path d="M5.62562 6.87528C8.4796 4.00442 12.2469 2.22093 16.2764 1.83309C16.3991 1.82032 16.5153 1.77195 16.6108 1.69394C16.7063 1.61592 16.7769 1.51167 16.8139 1.39403C16.8877 1.13643 17.0433 0.909844 17.2573 0.748545C17.4712 0.587246 17.7319 0.5 17.9998 0.5C18.2678 0.5 18.5285 0.587246 18.7424 0.748545C18.9564 0.909844 19.112 1.13643 19.1858 1.39403C19.2228 1.51167 19.2934 1.61592 19.3889 1.69394C19.4844 1.77195 19.6006 1.82032 19.7233 1.83309C24.0389 2.26017 28.0422 4.27444 30.9572 7.48541C33.8721 10.6964 35.4909 14.8753 35.4998 19.212C35.5032 19.4254 35.4533 19.6363 35.3545 19.8255C35.2557 20.0148 35.1112 20.1763 34.9342 20.2956C34.6939 20.4527 34.4069 20.5223 34.1214 20.4927C33.8359 20.4631 33.5692 20.3361 33.3662 20.1331C32.6068 19.374 31.5773 18.9471 30.5035 18.9463C29.4298 18.9454 28.3995 19.3705 27.6389 20.1284C27.524 20.2455 27.387 20.3387 27.2359 20.4027C27.0848 20.4667 26.9226 20.5002 26.7585 20.5013C26.5945 20.5024 26.4318 20.471 26.2799 20.409C26.1279 20.3471 25.9898 20.2557 25.8733 20.1401C25.043 19.3138 23.9436 18.813 22.7752 18.7288C21.6068 18.6446 20.447 18.9827 19.5069 19.6815C19.427 19.7415 19.3622 19.8193 19.3176 19.9086C19.273 19.998 19.2498 20.0965 19.2498 20.1964V31.7136C19.2498 32.3854 19.7655 32.9636 20.4366 32.9979C20.6058 33.0065 20.7751 32.9806 20.934 32.9217C21.0929 32.8628 21.2382 32.7723 21.3611 32.6555C21.4839 32.5387 21.5817 32.3982 21.6486 32.2424C21.7154 32.0867 21.7498 31.919 21.7498 31.7495C21.7498 31.5834 21.7829 31.419 21.8471 31.2658C21.9113 31.1127 22.0054 30.9739 22.1239 30.8575C22.2424 30.7411 22.3829 30.6495 22.5372 30.5881C22.6915 30.5266 22.8564 30.4965 23.0225 30.4995C23.7256 30.512 24.2647 31.1331 24.2491 31.8354C24.2257 32.8062 23.8272 33.7302 23.1371 34.4133C22.4471 35.0965 21.5192 35.4858 20.5483 35.4995C18.4483 35.5261 16.7498 33.7862 16.7498 31.6862V20.1964C16.7499 20.0965 16.7267 19.998 16.6821 19.9086C16.6374 19.8193 16.5727 19.7415 16.4928 19.6815C15.554 18.9837 14.3962 18.6456 13.2294 18.7284C12.0626 18.8113 10.9642 19.3096 10.1334 20.1331C9.89904 20.3673 9.58122 20.4989 9.24984 20.4989C8.91846 20.4989 8.60064 20.3673 8.36625 20.1331C7.6058 19.3733 6.57481 18.9465 5.49984 18.9465C4.42487 18.9465 3.39388 19.3733 2.63343 20.1331C2.43638 20.3302 2.17913 20.4557 1.90254 20.4898C1.62595 20.5239 1.3459 20.4646 1.10687 20.3214C0.918259 20.2047 0.763161 20.041 0.656757 19.8465C0.550354 19.6519 0.496284 19.433 0.49984 19.2112C0.498688 16.9186 0.950974 14.6484 1.83067 12.5313C2.71036 10.4142 4.00009 8.49197 5.62562 6.87528Z" fill="white"/>
</svg>
