<svg width="37" height="31" viewBox="0 0 37 31" fill="none" xmlns="http://www.w3.org/2000/svg">
<g clip-path="url(#clip0_24_280)">
<path d="M8.01646 2.32532C8.24628 2.32655 8.47127 2.25908 8.66287 2.13147C8.85446 2.00387 9.00401 1.82189 9.09252 1.60865C9.18103 1.39542 9.20451 1.16054 9.15997 0.93386C9.11543 0.70718 9.00489 0.498922 8.84239 0.335537C8.67988 0.172153 8.47274 0.0610143 8.24728 0.0162373C8.02182 -0.0285398 7.78821 -0.00493483 7.57612 0.0840542C7.36403 0.173043 7.18303 0.323401 7.05611 0.51603C6.92919 0.708659 6.86208 0.934868 6.8633 1.16592C6.86492 1.47291 6.98693 1.76687 7.20284 1.98394C7.41875 2.20102 7.71112 2.3237 8.01646 2.32532Z" fill="white"/>
<path d="M8.15859 2.82107C8.37351 2.82107 8.58359 2.75691 8.76221 2.63673C8.94082 2.51655 9.07992 2.34576 9.16189 2.14601C9.24385 1.94626 9.26498 1.72654 9.2226 1.5147C9.18022 1.30286 9.07624 1.10844 8.92383 0.956082C8.77143 0.803725 8.57746 0.70029 8.36653 0.658889C8.15559 0.617488 7.93717 0.639984 7.73896 0.723525C7.54076 0.807067 7.37168 0.947894 7.25317 1.12815C7.13465 1.30841 7.07204 1.51999 7.07326 1.73607C7.07489 2.0244 7.18996 2.30036 7.39332 2.50366C7.59668 2.70696 7.87181 2.82108 8.15859 2.82107Z" fill="white"/>
<path d="M8.05346 2.66535C8.2906 2.66658 8.52274 2.59692 8.72042 2.46523C8.9181 2.33353 9.07239 2.14575 9.1637 1.92571C9.25501 1.70568 9.27922 1.46332 9.23326 1.22943C9.1873 0.995531 9.07323 0.780645 8.90555 0.612058C8.73787 0.443471 8.52414 0.328789 8.2915 0.282577C8.05886 0.236365 7.81781 0.260706 7.59896 0.352511C7.38011 0.444315 7.19333 0.599441 7.06234 0.798188C6.93136 0.996934 6.86208 1.23034 6.8633 1.46875C6.8633 1.78611 6.98869 2.09047 7.21189 2.31487C7.43509 2.53928 7.73781 2.66535 8.05346 2.66535Z" fill="white"/>
<path d="M12.5183 17.2485C12.7477 17.2484 12.9718 17.1796 13.1621 17.0507C13.3523 16.9219 13.5 16.739 13.5863 16.5253C13.6726 16.3116 13.6936 16.077 13.6466 15.8513C13.5995 15.6255 13.4866 15.4191 13.3222 15.2582C13.1578 15.0974 12.9495 14.9895 12.7238 14.9483C12.4981 14.9071 12.2653 14.9346 12.0552 15.0271C11.8451 15.1196 11.6673 15.273 11.5443 15.4677C11.4214 15.6624 11.359 15.8896 11.3652 16.1201C11.3732 16.4222 11.4982 16.7092 11.7136 16.9199C11.929 17.1307 12.2178 17.2486 12.5183 17.2485Z" fill="white"/>
<path d="M12.8697 17.3595C13.0831 17.3595 13.2918 17.2958 13.4692 17.1766C13.6467 17.0574 13.785 16.8879 13.8667 16.6897C13.9484 16.4914 13.9698 16.2732 13.9281 16.0628C13.8865 15.8523 13.7837 15.659 13.6328 15.5072C13.4819 15.3555 13.2896 15.2522 13.0802 15.2103C12.8709 15.1684 12.6539 15.1899 12.4567 15.272C12.2595 15.3542 12.091 15.4932 11.9724 15.6717C11.8538 15.8501 11.7905 16.0599 11.7905 16.2745C11.7921 16.5617 11.9064 16.8367 12.1084 17.0399C12.3104 17.243 12.584 17.3578 12.8697 17.3595Z" fill="white"/>
<path d="M12.5554 17.5338C12.7908 17.5338 13.0209 17.4636 13.2166 17.3322C13.4124 17.2007 13.5649 17.0138 13.655 16.7951C13.7451 16.5765 13.7686 16.3359 13.7227 16.1038C13.6768 15.8717 13.5634 15.6584 13.397 15.4911C13.2305 15.3238 13.0185 15.2098 12.7876 15.1636C12.5567 15.1174 12.3174 15.1411 12.1 15.2317C11.8825 15.3223 11.6966 15.4757 11.5658 15.6724C11.4351 15.8692 11.3653 16.1006 11.3653 16.3372C11.3644 16.4946 11.3947 16.6506 11.4542 16.7961C11.5137 16.9417 11.6013 17.0739 11.712 17.1852C11.8227 17.2965 11.9542 17.3846 12.099 17.4444C12.2438 17.5043 12.3989 17.5346 12.5554 17.5338Z" fill="white"/>
<path d="M15.5645 20.6771C15.8011 20.6771 16.0324 20.6065 16.2291 20.4744C16.4259 20.3422 16.5792 20.1544 16.6698 19.9346C16.7603 19.7148 16.784 19.473 16.7378 19.2396C16.6917 19.0063 16.5777 18.792 16.4104 18.6238C16.2431 18.4556 16.03 18.341 15.7979 18.2946C15.5658 18.2482 15.3253 18.272 15.1067 18.363C14.8881 18.4541 14.7012 18.6082 14.5698 18.806C14.4383 19.0038 14.3682 19.2364 14.3682 19.4743C14.3682 19.7933 14.4942 20.0992 14.7186 20.3248C14.9429 20.5504 15.2472 20.6771 15.5645 20.6771Z" fill="white"/>
<path d="M15.5398 20.7395C15.7733 20.7407 16.0019 20.6721 16.1965 20.5425C16.3912 20.4128 16.5431 20.228 16.633 20.0113C16.7229 19.7947 16.7467 19.5561 16.7015 19.3258C16.6562 19.0955 16.5439 18.8839 16.3789 18.7179C16.2138 18.552 16.0033 18.439 15.7743 18.3935C15.5452 18.3481 15.3079 18.372 15.0924 18.4624C14.8769 18.5528 14.6931 18.7056 14.5641 18.9012C14.4352 19.0969 14.367 19.3267 14.3682 19.5615C14.3698 19.8734 14.4938 20.1721 14.7131 20.3926C14.9325 20.6132 15.2296 20.7379 15.5398 20.7395Z" fill="white"/>
<path d="M15.3425 20.8752C15.5791 20.8814 15.8121 20.8165 16.0119 20.6888C16.2116 20.5611 16.3689 20.3765 16.4638 20.1584C16.5586 19.9404 16.5866 19.6989 16.5442 19.4648C16.5018 19.2306 16.391 19.0145 16.2258 18.8441C16.0607 18.6736 15.8487 18.5565 15.6171 18.5078C15.3854 18.459 15.1445 18.4809 14.9252 18.5705C14.706 18.66 14.5182 18.8133 14.386 19.0107C14.2539 19.2081 14.1832 19.4407 14.1831 19.6786C14.1814 19.9912 14.3021 20.2918 14.519 20.5157C14.7359 20.7396 15.0317 20.8687 15.3425 20.8752Z" fill="white"/>
<path d="M19.2524 24.1792C19.4963 24.1792 19.7348 24.1065 19.9376 23.9702C20.1404 23.834 20.2985 23.6403 20.3918 23.4137C20.4852 23.1872 20.5096 22.9378 20.462 22.6973C20.4144 22.4568 20.297 22.2358 20.1245 22.0624C19.952 21.889 19.7322 21.7709 19.493 21.723C19.2537 21.6752 19.0058 21.6998 18.7804 21.7936C18.555 21.8875 18.3624 22.0464 18.2269 22.2503C18.0914 22.4542 18.019 22.694 18.019 22.9392C18.019 23.2681 18.149 23.5835 18.3803 23.816C18.6116 24.0486 18.9253 24.1792 19.2524 24.1792Z" fill="white"/>
<path d="M19.0366 24.1792C19.2805 24.1792 19.5189 24.1065 19.7218 23.9702C19.9246 23.834 20.0827 23.6403 20.176 23.4137C20.2694 23.1872 20.2938 22.9378 20.2462 22.6973C20.1986 22.4568 20.0811 22.2358 19.9087 22.0624C19.7362 21.889 19.5164 21.7709 19.2772 21.723C19.0379 21.6752 18.7899 21.6998 18.5646 21.7936C18.3392 21.8875 18.1466 22.0464 18.0111 22.2503C17.8756 22.4542 17.8032 22.694 17.8032 22.9392C17.8032 23.2681 17.9332 23.5835 18.1645 23.816C18.3958 24.0486 18.7095 24.1792 19.0366 24.1792Z" fill="white"/>
<path d="M18.9932 24.2298C19.2298 24.2298 19.4611 24.1593 19.6579 24.0271C19.8546 23.8949 20.0079 23.7071 20.0985 23.4873C20.189 23.2675 20.2127 23.0257 20.1666 22.7924C20.1204 22.559 20.0065 22.3447 19.8392 22.1765C19.6718 22.0083 19.4587 21.8937 19.2266 21.8473C18.9946 21.8009 18.754 21.8247 18.5354 21.9158C18.3168 22.0068 18.13 22.161 17.9985 22.3588C17.8671 22.5566 17.7969 22.7891 17.7969 23.027C17.7961 23.1852 17.8265 23.342 17.8863 23.4883C17.9461 23.6346 18.0342 23.7675 18.1455 23.8794C18.2567 23.9912 18.3889 24.0798 18.5344 24.1399C18.68 24.2001 18.8359 24.2306 18.9932 24.2298Z" fill="white"/>
<path d="M22.7055 27.5464C22.9494 27.5464 23.1879 27.4737 23.3907 27.3374C23.5935 27.2012 23.7516 27.0075 23.845 26.7809C23.9383 26.5544 23.9627 26.305 23.9151 26.0645C23.8675 25.824 23.7501 25.603 23.5776 25.4296C23.4051 25.2562 23.1854 25.1381 22.9461 25.0902C22.7069 25.0424 22.4589 25.0669 22.2335 25.1608C22.0082 25.2546 21.8155 25.4136 21.68 25.6175C21.5445 25.8214 21.4722 26.0612 21.4722 26.3064C21.48 26.6328 21.6124 26.9436 21.8421 27.1745C22.0717 27.4054 22.3809 27.5385 22.7055 27.5464Z" fill="white"/>
<path d="M22.4959 27.6091C22.7472 27.6091 22.9928 27.5342 23.2017 27.3938C23.4106 27.2535 23.5734 27.054 23.6696 26.8207C23.7657 26.5873 23.7909 26.3305 23.7419 26.0827C23.6928 25.835 23.5719 25.6074 23.3942 25.4288C23.2165 25.2502 22.9902 25.1285 22.7438 25.0792C22.4973 25.0299 22.2419 25.0552 22.0098 25.1519C21.7777 25.2486 21.5793 25.4123 21.4397 25.6223C21.3001 25.8324 21.2256 26.0793 21.2256 26.3319C21.2248 26.4998 21.2571 26.6663 21.3206 26.8216C21.3842 26.9769 21.4777 27.1181 21.5959 27.2368C21.714 27.3556 21.8543 27.4496 22.0088 27.5135C22.1633 27.5774 22.3289 27.6099 22.4959 27.6091Z" fill="white"/>
<path d="M22.4467 27.6714C22.6906 27.6714 22.9291 27.5987 23.1319 27.4624C23.3347 27.3262 23.4928 27.1325 23.5862 26.9059C23.6795 26.6794 23.7039 26.43 23.6563 26.1895C23.6088 25.949 23.4913 25.728 23.3188 25.5546C23.1463 25.3812 22.9266 25.2631 22.6873 25.2152C22.4481 25.1674 22.2001 25.1919 21.9747 25.2858C21.7494 25.3796 21.5568 25.5386 21.4212 25.7425C21.2857 25.9464 21.2134 26.1862 21.2134 26.4314C21.2134 26.7603 21.3433 27.0757 21.5746 27.3082C21.8059 27.5408 22.1196 27.6714 22.4467 27.6714Z" fill="white"/>
<path d="M15.8793 27.1879C16.0512 27.1879 16.2193 27.1366 16.3623 27.0405C16.5053 26.9445 16.6168 26.8079 16.6826 26.6482C16.7484 26.4885 16.7656 26.3127 16.7321 26.1431C16.6985 25.9735 16.6157 25.8178 16.4941 25.6955C16.3725 25.5732 16.2176 25.49 16.0489 25.4563C15.8802 25.4225 15.7054 25.4398 15.5465 25.506C15.3876 25.5722 15.2518 25.6842 15.1563 25.828C15.0608 25.9717 15.0098 26.1408 15.0098 26.3137C15.0098 26.5455 15.1014 26.7679 15.2644 26.9318C15.4275 27.0957 15.6487 27.1879 15.8793 27.1879Z" fill="white"/>
<path d="M15.8855 27.1924C16.0589 27.1924 16.2285 27.1406 16.3726 27.0436C16.5167 26.9466 16.6289 26.8087 16.695 26.6475C16.7611 26.4863 16.7781 26.3089 16.7438 26.138C16.7095 25.967 16.6255 25.8102 16.5024 25.6873C16.3793 25.5644 16.2227 25.4811 16.0525 25.4478C15.8822 25.4145 15.706 25.4329 15.5461 25.5004C15.3862 25.568 15.2498 25.6818 15.1544 25.8274C15.0589 25.973 15.0086 26.1439 15.0098 26.3182C15.0098 26.4336 15.0325 26.5478 15.0766 26.6542C15.1206 26.7607 15.1852 26.8573 15.2666 26.9386C15.348 27.0199 15.4446 27.0841 15.5508 27.1277C15.657 27.1713 15.7708 27.1933 15.8855 27.1924Z" fill="white"/>
<path d="M15.8485 27.2359C16.0158 27.2371 16.1797 27.1883 16.3195 27.0958C16.4592 27.0032 16.5685 26.871 16.6334 26.7159C16.6983 26.5608 16.7159 26.3898 16.684 26.2246C16.6521 26.0594 16.5721 25.9075 16.4542 25.7881C16.3363 25.6687 16.1858 25.5872 16.0217 25.5539C15.8577 25.5206 15.6875 25.5371 15.5328 25.6012C15.378 25.6653 15.2457 25.7741 15.1526 25.9139C15.0595 26.0538 15.0098 26.2182 15.0098 26.3865C15.009 26.4977 15.0301 26.6081 15.0718 26.7111C15.1136 26.8141 15.1753 26.9078 15.2532 26.9867C15.3312 27.0657 15.4239 27.1284 15.5261 27.1711C15.6282 27.2139 15.7378 27.2359 15.8485 27.2359Z" fill="white"/>
<path d="M14.7998 30.4288C15.0122 30.4106 15.2101 30.3129 15.3543 30.155C15.4985 29.9971 15.5785 29.7906 15.5785 29.5763C15.5785 29.362 15.4985 29.1555 15.3543 28.9976C15.2101 28.8397 15.0122 28.742 14.7998 28.7238C14.6824 28.7137 14.5642 28.7283 14.4526 28.7665C14.3411 28.8048 14.2387 28.866 14.1519 28.9461C14.0651 29.0262 13.9958 29.1236 13.9484 29.2321C13.9009 29.3406 13.8765 29.4578 13.8765 29.5763C13.8765 29.6948 13.9009 29.812 13.9484 29.9205C13.9958 30.029 14.0651 30.1264 14.1519 30.2065C14.2387 30.2866 14.3411 30.3478 14.4526 30.3861C14.5642 30.4243 14.6824 30.4389 14.7998 30.4288Z" fill="white"/>
<path d="M14.7999 30.4845C14.9679 30.4821 15.1314 30.4297 15.2699 30.3339C15.4083 30.2381 15.5155 30.1033 15.5778 29.9464C15.6401 29.7895 15.6549 29.6176 15.6202 29.4523C15.5854 29.287 15.5028 29.1357 15.3827 29.0175C15.2626 28.8994 15.1104 28.8196 14.9453 28.7883C14.7801 28.7569 14.6095 28.7755 14.4548 28.8415C14.3001 28.9076 14.1684 29.0182 14.0762 29.1594C13.9839 29.3007 13.9353 29.4662 13.9365 29.6351C13.9365 29.7483 13.959 29.8603 14.0026 29.9646C14.0462 30.0688 14.1101 30.1633 14.1905 30.2424C14.2709 30.3216 14.3662 30.3837 14.4709 30.4253C14.5755 30.4669 14.6874 30.487 14.7999 30.4845Z" fill="white"/>
<path d="M14.7567 30.4793C14.9189 30.4793 15.0775 30.4309 15.2124 30.3403C15.3472 30.2497 15.4523 30.1209 15.5144 29.9702C15.5765 29.8196 15.5927 29.6538 15.5611 29.4938C15.5295 29.3339 15.4513 29.1869 15.3366 29.0716C15.2219 28.9563 15.0758 28.8777 14.9167 28.8459C14.7576 28.8141 14.5927 28.8304 14.4428 28.8928C14.293 28.9553 14.1649 29.061 14.0747 29.1966C13.9846 29.3322 13.9365 29.4916 13.9365 29.6547C13.9365 29.8734 14.0229 30.0831 14.1767 30.2378C14.3306 30.3924 14.5392 30.4793 14.7567 30.4793Z" fill="white"/>
<path d="M25.339 30.8515C25.6012 30.8515 25.8576 30.7734 26.0756 30.6269C26.2936 30.4804 26.4636 30.2722 26.5639 30.0287C26.6643 29.7851 26.6905 29.5171 26.6394 29.2585C26.5882 28.9999 26.4619 28.7624 26.2765 28.576C26.0911 28.3896 25.8549 28.2626 25.5977 28.2112C25.3405 28.1597 25.0739 28.1861 24.8316 28.287C24.5894 28.3879 24.3823 28.5588 24.2366 28.778C24.0909 28.9972 24.0132 29.2549 24.0132 29.5185C24.0132 29.8721 24.1529 30.2111 24.4015 30.4611C24.6502 30.7111 24.9874 30.8515 25.339 30.8515Z" fill="white"/>
<path d="M25.1291 30.9128C25.3928 30.914 25.6509 30.8365 25.8707 30.6901C26.0906 30.5437 26.2623 30.335 26.3641 30.0904C26.4658 29.8458 26.4931 29.5763 26.4424 29.3161C26.3917 29.0559 26.2653 28.8167 26.0793 28.6288C25.8932 28.4409 25.6559 28.3127 25.3974 28.2606C25.1388 28.2084 24.8707 28.2345 24.6269 28.3357C24.3832 28.4369 24.1748 28.6085 24.0281 28.8289C23.8815 29.0493 23.8032 29.3084 23.8032 29.5736C23.8032 29.9277 23.9427 30.2674 24.1912 30.5183C24.4396 30.7693 24.7769 30.9111 25.1291 30.9128Z" fill="white"/>
<path d="M25.0797 31.0004C25.3322 31.0004 25.579 30.9251 25.7889 30.7841C25.9988 30.6431 26.1624 30.4426 26.2591 30.2081C26.3557 29.9736 26.381 29.7156 26.3317 29.4666C26.2824 29.2177 26.1609 28.989 25.9823 28.8095C25.8038 28.63 25.5764 28.5078 25.3288 28.4583C25.0811 28.4087 24.8245 28.4342 24.5912 28.5313C24.358 28.6284 24.1586 28.7929 24.0184 29.004C23.8781 29.215 23.8032 29.4632 23.8032 29.717C23.8032 30.0574 23.9377 30.3838 24.1771 30.6245C24.4165 30.8652 24.7412 31.0004 25.0797 31.0004Z" fill="white"/>
<path d="M22.897 20.3927C23.058 20.3927 23.2154 20.3447 23.3492 20.2547C23.4831 20.1648 23.5874 20.037 23.649 19.8874C23.7107 19.7379 23.7268 19.5734 23.6954 19.4146C23.664 19.2558 23.5864 19.11 23.4726 18.9956C23.3588 18.8811 23.2137 18.8032 23.0558 18.7716C22.8979 18.74 22.7342 18.7562 22.5855 18.8182C22.4368 18.8801 22.3096 18.985 22.2202 19.1196C22.1307 19.2542 22.083 19.4124 22.083 19.5743C22.083 19.7913 22.1688 19.9995 22.3214 20.153C22.4741 20.3064 22.6811 20.3927 22.897 20.3927Z" fill="white"/>
<path d="M22.6624 20.3977C22.8717 20.3977 23.0725 20.3141 23.2205 20.1653C23.3686 20.0165 23.4517 19.8146 23.4517 19.6041C23.4517 19.3937 23.3686 19.1918 23.2205 19.043C23.0725 18.8942 22.8717 18.8105 22.6624 18.8105C22.453 18.8105 22.2523 18.8942 22.1042 19.043C21.9562 19.1918 21.873 19.3937 21.873 19.6041C21.873 19.8146 21.9562 20.0165 22.1042 20.1653C22.2523 20.3141 22.453 20.3977 22.6624 20.3977Z" fill="white"/>
<path d="M22.8166 20.4607C22.9669 20.4607 23.1138 20.4159 23.2387 20.3318C23.3635 20.2477 23.4607 20.1282 23.518 19.9885C23.5752 19.8488 23.5898 19.6952 23.5601 19.5471C23.5303 19.399 23.4574 19.2631 23.3508 19.1567C23.2441 19.0503 23.1083 18.9782 22.9608 18.9495C22.8133 18.9207 22.6606 18.9367 22.5221 18.9954C22.3836 19.0541 22.2655 19.1528 22.183 19.279C22.1004 19.4052 22.0569 19.5533 22.0581 19.7043C22.0581 19.8042 22.0778 19.9031 22.116 19.9952C22.1542 20.0874 22.2101 20.1711 22.2807 20.2414C22.3512 20.3117 22.4348 20.3673 22.5268 20.405C22.6188 20.4426 22.7173 20.4616 22.8166 20.4607Z" fill="white"/>
<path d="M29.0884 2.06374C29.245 2.06496 29.3985 2.01931 29.5292 1.93258C29.6599 1.84585 29.7621 1.72197 29.8226 1.57671C29.8831 1.43145 29.8992 1.27137 29.869 1.11685C29.8387 0.962335 29.7634 0.820362 29.6527 0.709003C29.5419 0.597644 29.4007 0.521935 29.247 0.491512C29.0933 0.461089 28.9341 0.477327 28.7896 0.538159C28.6451 0.598992 28.5219 0.701669 28.4357 0.833121C28.3494 0.964574 28.304 1.11886 28.3052 1.27634C28.3052 1.48517 28.3877 1.68545 28.5346 1.83311C28.6815 1.98078 28.8807 2.06374 29.0884 2.06374Z" fill="white"/>
<path d="M28.6136 2.48019C28.7602 2.48018 28.9035 2.43639 29.0253 2.35436C29.1471 2.27233 29.242 2.15576 29.2978 2.01945C29.3536 1.88314 29.3679 1.73323 29.3389 1.58875C29.3098 1.44426 29.2387 1.3117 29.1346 1.2079C29.0305 1.1041 28.8981 1.03374 28.7541 1.00574C28.6102 0.977732 28.4612 0.993353 28.3261 1.05062C28.191 1.10788 28.0758 1.2042 27.9953 1.32737C27.9147 1.45053 27.8723 1.59498 27.8736 1.74239C27.8736 1.8398 27.8927 1.93625 27.93 2.02617C27.9673 2.11609 28.0219 2.1977 28.0907 2.2663C28.1595 2.33489 28.2411 2.3891 28.3308 2.42582C28.4206 2.46253 28.5167 2.48101 28.6136 2.48019Z" fill="white"/>
<path d="M28.9034 2.33211C29.0646 2.33211 29.2223 2.28395 29.3562 2.19375C29.4902 2.10354 29.5946 1.97536 29.656 1.82545C29.7174 1.67555 29.7332 1.51068 29.7013 1.35176C29.6693 1.19284 29.5912 1.04703 29.4767 0.932821C29.3623 0.818616 29.2167 0.741164 29.0584 0.71029C28.9001 0.679415 28.7362 0.696509 28.5876 0.759404C28.439 0.822298 28.3123 0.928159 28.2236 1.06356C28.1349 1.19896 28.0882 1.35779 28.0894 1.51991C28.0894 1.6271 28.1105 1.73322 28.1515 1.83217C28.1924 1.93111 28.2525 2.02093 28.3282 2.09643C28.4038 2.17193 28.4936 2.23163 28.5923 2.27208C28.6911 2.31253 28.7968 2.33293 28.9034 2.33211Z" fill="white"/>
<path fill-rule="evenodd" clip-rule="evenodd" d="M27.6943 1.17094C27.6896 1.02397 27.6285 0.884534 27.524 0.78172C27.4194 0.678906 27.2794 0.620661 27.1332 0.619141H10.6497C10.5744 0.619141 10.4998 0.634055 10.4302 0.663032C10.3606 0.692009 10.2974 0.734481 10.2441 0.788023C10.1909 0.841565 10.1486 0.905129 10.1198 0.975085C10.091 1.04504 10.0762 1.12002 10.0762 1.19574C10.0762 1.27146 10.091 1.34644 10.1198 1.4164C10.1486 1.48635 10.1909 1.54992 10.2441 1.60346C10.2974 1.657 10.3606 1.69947 10.4302 1.72845C10.4998 1.75743 10.5744 1.77234 10.6497 1.77234H27.1332C27.2096 1.77076 27.2849 1.75385 27.3547 1.7226C27.4245 1.69135 27.4874 1.64639 27.5396 1.59037C27.5919 1.53434 27.6325 1.46838 27.6591 1.39635C27.6857 1.32433 27.6976 1.24769 27.6943 1.17094Z" fill="white"/>
<path fill-rule="evenodd" clip-rule="evenodd" d="M27.2072 1.65473C27.2072 1.5018 27.1467 1.35514 27.0392 1.24701C26.9316 1.13887 26.7858 1.07813 26.6337 1.07813H10.8655C10.7902 1.07812 10.7156 1.09304 10.646 1.12202C10.5764 1.15099 10.5132 1.19346 10.46 1.24701C10.4067 1.30055 10.3645 1.36411 10.3356 1.43407C10.3068 1.50403 10.292 1.579 10.292 1.65473C10.292 1.73045 10.3068 1.80542 10.3356 1.87538C10.3645 1.94534 10.4067 2.0089 10.46 2.06244C10.5132 2.11599 10.5764 2.15846 10.646 2.18743C10.7156 2.21641 10.7902 2.23133 10.8655 2.23133H26.6337C26.7858 2.23133 26.9316 2.17058 27.0392 2.06244C27.1467 1.95431 27.2072 1.80765 27.2072 1.65473Z" fill="white"/>
<path fill-rule="evenodd" clip-rule="evenodd" d="M27.349 1.49457C27.349 1.34165 27.2886 1.19498 27.181 1.08685C27.0735 0.978718 26.9276 0.917969 26.7755 0.917969H10.6497C10.5744 0.917969 10.4998 0.932883 10.4302 0.96186C10.3606 0.990837 10.2974 1.03331 10.2441 1.08685C10.1909 1.14039 10.1486 1.20396 10.1198 1.27391C10.091 1.34387 10.0762 1.41885 10.0762 1.49457C10.0762 1.57029 10.091 1.64527 10.1198 1.71522C10.1486 1.78518 10.1909 1.84874 10.2441 1.90229C10.2974 1.95583 10.3606 1.9983 10.4302 2.02728C10.4998 2.05625 10.5744 2.07117 10.6497 2.07117H26.7755C26.9276 2.07117 27.0735 2.01042 27.181 1.90229C27.2886 1.79415 27.349 1.64749 27.349 1.49457Z" fill="white"/>
<path d="M8.63331 6.13884C8.85041 6.13884 9.06263 6.07412 9.24314 5.95285C9.42365 5.83159 9.56434 5.65923 9.64742 5.45757C9.7305 5.25591 9.75224 5.03402 9.70989 4.81994C9.66753 4.60586 9.56299 4.40922 9.40948 4.25488C9.25597 4.10054 9.06038 3.99543 8.84746 3.95285C8.63453 3.91026 8.41382 3.93212 8.21325 4.01565C8.01268 4.09918 7.84125 4.24063 7.72063 4.42211C7.60002 4.6036 7.53564 4.81697 7.53564 5.03524C7.53564 5.32793 7.65129 5.60864 7.85714 5.8156C8.063 6.02257 8.34219 6.13884 8.63331 6.13884Z" fill="white"/>
<path d="M8.74418 6.59032C8.94915 6.59149 9.14982 6.53114 9.32048 6.41698C9.49115 6.30283 9.62404 6.14006 9.70216 5.94953C9.78028 5.75899 9.80007 5.54935 9.75899 5.34744C9.71791 5.14553 9.61784 4.96054 9.47158 4.81615C9.32532 4.67176 9.13953 4.57453 8.93799 4.53692C8.73645 4.49931 8.52833 4.52302 8.34028 4.60503C8.15222 4.68703 7.99278 4.82359 7.88237 4.99723C7.77196 5.17087 7.7156 5.37368 7.72051 5.57971C7.72536 5.84944 7.83535 6.10647 8.0268 6.29547C8.21825 6.48448 8.47586 6.59036 8.74418 6.59032Z" fill="white"/>
<path d="M8.63322 6.47887C8.85763 6.47887 9.07701 6.41196 9.26361 6.28661C9.4502 6.16125 9.59563 5.98309 9.68151 5.77463C9.76739 5.56618 9.78986 5.3368 9.74608 5.11551C9.7023 4.89421 9.59424 4.69094 9.43555 4.5314C9.27686 4.37186 9.07468 4.2632 8.85458 4.21919C8.63448 4.17517 8.40633 4.19776 8.199 4.2841C7.99167 4.37045 7.81446 4.51667 7.68978 4.70427C7.5651 4.89188 7.49855 5.11244 7.49855 5.33807C7.49773 5.48811 7.52653 5.63682 7.58326 5.7756C7.63999 5.91438 7.72354 6.04047 7.82906 6.14657C7.93459 6.25266 8.06 6.33666 8.19803 6.3937C8.33607 6.45074 8.48398 6.47969 8.63322 6.47887Z" fill="white"/>
<path d="M28.6197 5.81551C28.7688 5.81674 28.9148 5.77342 29.0393 5.69106C29.1639 5.60869 29.2613 5.49099 29.3191 5.35289C29.377 5.21479 29.3928 5.06251 29.3645 4.91538C29.3362 4.76825 29.265 4.63289 29.16 4.52648C29.0551 4.42008 28.921 4.34742 28.7749 4.31773C28.6288 4.28804 28.4772 4.30265 28.3394 4.35971C28.2016 4.41678 28.0837 4.51372 28.0008 4.63824C27.9178 4.76276 27.8735 4.90924 27.8735 5.05911C27.8735 5.25865 27.9519 5.45011 28.0917 5.59178C28.2315 5.73346 28.4212 5.81387 28.6197 5.81551Z" fill="white"/>
<path d="M28.1446 6.20003C28.3294 6.20003 28.5066 6.12621 28.6373 5.99483C28.768 5.86344 28.8414 5.68524 28.8414 5.49943C28.8414 5.31362 28.768 5.13542 28.6373 5.00403C28.5066 4.87264 28.3294 4.79883 28.1446 4.79883C27.9598 4.79883 27.7825 4.87264 27.6519 5.00403C27.5212 5.13542 27.4478 5.31362 27.4478 5.49943C27.4478 5.68524 27.5212 5.86344 27.6519 5.99483C27.7825 6.12621 27.9598 6.20003 28.1446 6.20003Z" fill="white"/>
<path d="M28.4282 6.07537C28.581 6.07659 28.7306 6.03219 28.8582 5.94778C28.9857 5.86337 29.0855 5.74277 29.1448 5.60127C29.2041 5.45977 29.2202 5.30375 29.1912 5.15301C29.1621 5.00227 29.0892 4.8636 28.9817 4.75459C28.8741 4.64558 28.7368 4.57115 28.5871 4.54074C28.4374 4.51033 28.2821 4.52531 28.1409 4.58379C27.9997 4.64226 27.8789 4.74158 27.7939 4.86916C27.7089 4.99674 27.6636 5.14682 27.6636 5.30037C27.6636 5.50484 27.7439 5.70103 27.8872 5.84619C28.0304 5.99136 28.2249 6.07373 28.4282 6.07537Z" fill="white"/>
<path fill-rule="evenodd" clip-rule="evenodd" d="M27.2198 5.0225C27.2198 4.87616 27.162 4.7358 27.059 4.63232C26.9561 4.52884 26.8165 4.4707 26.671 4.4707H11.0508C10.9161 4.48512 10.7914 4.54915 10.7008 4.65045C10.6102 4.75175 10.5601 4.88317 10.5601 5.0194C10.5601 5.15564 10.6102 5.28705 10.7008 5.38836C10.7914 5.48966 10.9161 5.55368 11.0508 5.5681H26.671C26.8155 5.56811 26.9541 5.51083 27.0569 5.40868C27.1596 5.30654 27.2182 5.16777 27.2198 5.0225Z" fill="white"/>
<path fill-rule="evenodd" clip-rule="evenodd" d="M26.7631 5.4499C26.7631 5.30519 26.706 5.16642 26.6042 5.0641C26.5024 4.96178 26.3644 4.9043 26.2205 4.9043H11.2663C11.1224 4.9043 10.9843 4.96178 10.8826 5.0641C10.7808 5.16642 10.7236 5.30519 10.7236 5.4499C10.7236 5.5946 10.7808 5.73337 10.8826 5.83569C10.9843 5.93801 11.1224 5.9955 11.2663 5.9955H26.2205C26.292 5.99633 26.3629 5.98278 26.4291 5.95566C26.4953 5.92853 26.5555 5.88838 26.606 5.83755C26.6566 5.78672 26.6965 5.72624 26.7235 5.65967C26.7505 5.5931 26.764 5.52178 26.7631 5.4499Z" fill="white"/>
<path fill-rule="evenodd" clip-rule="evenodd" d="M26.8865 5.28782C26.8873 5.21594 26.8738 5.14462 26.8469 5.07805C26.8199 5.01148 26.7799 4.951 26.7294 4.90017C26.6788 4.84934 26.6187 4.80919 26.5525 4.78206C26.4862 4.75494 26.4153 4.74139 26.3438 4.74222H11.0505C10.9066 4.74222 10.7685 4.79971 10.6668 4.90203C10.565 5.00435 10.5078 5.14312 10.5078 5.28782C10.5078 5.43253 10.565 5.5713 10.6668 5.67362C10.7685 5.77594 10.9066 5.83342 11.0505 5.83342H26.3438C26.4153 5.83425 26.4862 5.82071 26.5525 5.79358C26.6187 5.76646 26.6788 5.7263 26.7294 5.67547C26.7799 5.62464 26.8199 5.56417 26.8469 5.49759C26.8738 5.43102 26.8873 5.3597 26.8865 5.28782Z" fill="white"/>
<path d="M9.90964 9.92085C10.1321 9.92207 10.35 9.85678 10.5355 9.73326C10.721 9.60974 10.8658 9.43358 10.9515 9.22714C11.0372 9.0207 11.06 8.7933 11.0169 8.57384C10.9737 8.35438 10.8667 8.15275 10.7094 7.99456C10.5521 7.83638 10.3515 7.72879 10.1332 7.68544C9.91495 7.6421 9.68878 7.66497 9.48345 7.75114C9.27812 7.83732 9.1029 7.98291 8.98005 8.16942C8.8572 8.35593 8.79225 8.57495 8.79347 8.79865C8.79347 9.09627 8.91107 9.38171 9.12039 9.59216C9.32971 9.80261 9.61361 9.92085 9.90964 9.92085Z" fill="white"/>
<path d="M10.0518 10.3482C10.2594 10.3482 10.4623 10.2863 10.6348 10.1702C10.8074 10.0541 10.9417 9.88909 11.0209 9.69614C11.1 9.50318 11.1204 9.29094 11.0795 9.08632C11.0385 8.8817 10.9381 8.6939 10.7908 8.54675C10.6436 8.39959 10.4562 8.2997 10.2525 8.25974C10.0487 8.21977 9.83774 8.24153 9.6463 8.32226C9.45485 8.40298 9.29155 8.53904 9.17711 8.71318C9.06266 8.88733 9.00221 9.09171 9.00344 9.30043C9.00507 9.5789 9.11623 9.8454 9.31266 10.0417C9.50908 10.238 9.7748 10.3482 10.0518 10.3482Z" fill="white"/>
<path d="M9.7308 10.2426C9.95888 10.2426 10.1818 10.1746 10.3715 10.0472C10.5611 9.91984 10.7089 9.73876 10.7962 9.52691C10.8835 9.31506 10.9063 9.08194 10.8618 8.85704C10.8173 8.63214 10.7075 8.42555 10.5462 8.26341C10.3849 8.10126 10.1795 7.99084 9.95578 7.94611C9.73208 7.90137 9.50022 7.92433 9.28951 8.01208C9.07879 8.09984 8.89869 8.24844 8.77198 8.4391C8.64527 8.62976 8.57764 8.85392 8.57764 9.08323C8.57764 9.39072 8.69913 9.68562 8.91539 9.90305C9.13165 10.1205 9.42496 10.2426 9.7308 10.2426Z" fill="white"/>
<path d="M27.9658 9.55958C28.1109 9.55958 28.2528 9.51631 28.3735 9.43524C28.4941 9.35417 28.5882 9.23894 28.6437 9.10413C28.6993 8.96931 28.7138 8.82097 28.6855 8.67785C28.6572 8.53473 28.5873 8.40326 28.4847 8.30008C28.382 8.1969 28.2513 8.12663 28.1089 8.09816C27.9666 8.06969 27.819 8.0843 27.6849 8.14015C27.5509 8.19599 27.4362 8.29055 27.3556 8.41189C27.275 8.53322 27.2319 8.67586 27.2319 8.82178C27.2319 9.01746 27.3092 9.20512 27.4469 9.34349C27.5845 9.48185 27.7711 9.55958 27.9658 9.55958Z" fill="white"/>
<path d="M27.491 9.92005C27.6279 9.92004 27.7616 9.87916 27.8753 9.80258C27.989 9.726 28.0776 9.61718 28.1296 9.48993C28.1817 9.36269 28.1951 9.22275 28.1679 9.08788C28.1407 8.95302 28.0743 8.8293 27.9771 8.73244C27.8799 8.63558 27.7563 8.56994 27.6219 8.54385C27.4875 8.51776 27.3485 8.5324 27.2224 8.5859C27.0963 8.63941 26.9889 8.72938 26.9137 8.84439C26.8386 8.95939 26.7991 9.09425 26.8003 9.23185C26.8003 9.32275 26.8182 9.41275 26.853 9.49665C26.8878 9.58056 26.9388 9.6567 27.003 9.72069C27.0672 9.78467 27.1434 9.83524 27.2271 9.86945C27.3109 9.90367 27.4006 9.92087 27.491 9.92005Z" fill="white"/>
<path d="M27.7502 9.77129C27.9002 9.77129 28.0469 9.72657 28.1716 9.64277C28.2963 9.55898 28.3936 9.43988 28.451 9.30053C28.5084 9.16118 28.5234 9.00785 28.4941 8.85992C28.4649 8.71199 28.3926 8.57611 28.2865 8.46945C28.1805 8.3628 28.0453 8.29017 27.8982 8.26075C27.751 8.23132 27.5985 8.24642 27.4599 8.30414C27.3213 8.36186 27.2029 8.45961 27.1195 8.58502C27.0362 8.71042 26.9917 8.85787 26.9917 9.00869C26.9917 9.21095 27.0716 9.40492 27.2139 9.54793C27.3561 9.69095 27.549 9.77129 27.7502 9.77129Z" fill="white"/>
<path fill-rule="evenodd" clip-rule="evenodd" d="M26.5473 8.85376C26.5473 8.72057 26.4947 8.59283 26.401 8.49865C26.3074 8.40447 26.1803 8.35156 26.0478 8.35156H11.8645C11.7424 8.36527 11.6296 8.42375 11.5476 8.51583C11.4657 8.60791 11.4204 8.72712 11.4204 8.85066C11.4204 8.97421 11.4657 9.09342 11.5476 9.18549C11.6296 9.27757 11.7424 9.33606 11.8645 9.34976H26.0478C26.1131 9.35058 26.1779 9.33836 26.2385 9.3138C26.2991 9.28924 26.3542 9.25284 26.4007 9.2067C26.4471 9.16056 26.484 9.1056 26.5092 9.04502C26.5344 8.98443 26.5473 8.91942 26.5473 8.85376Z" fill="white"/>
<path fill-rule="evenodd" clip-rule="evenodd" d="M26.1529 9.3378C26.1529 9.20625 26.101 9.08009 26.0084 8.98707C25.9159 8.89405 25.7905 8.8418 25.6596 8.8418H12.0929C11.9621 8.8418 11.8366 8.89405 11.7441 8.98707C11.6516 9.08009 11.5996 9.20625 11.5996 9.3378C11.5996 9.46934 11.6516 9.5955 11.7441 9.68852C11.8366 9.78154 11.9621 9.8338 12.0929 9.8338H25.6596C25.7905 9.8338 25.9159 9.78154 26.0084 9.68852C26.101 9.5955 26.1529 9.46934 26.1529 9.3378Z" fill="white"/>
<path fill-rule="evenodd" clip-rule="evenodd" d="M26.2454 9.06436C26.2454 8.93281 26.1934 8.80665 26.1009 8.71363C26.0084 8.62062 25.8829 8.56836 25.7521 8.56836H11.8586C11.7277 8.56836 11.6022 8.62062 11.5097 8.71363C11.4172 8.80665 11.3652 8.93281 11.3652 9.06436C11.3652 9.19591 11.4172 9.32207 11.5097 9.41508C11.6022 9.5081 11.7277 9.56036 11.8586 9.56036H25.7521C25.8169 9.56036 25.881 9.54753 25.9409 9.5226C26.0007 9.49768 26.0551 9.46114 26.1009 9.41508C26.1467 9.36903 26.1831 9.31435 26.2078 9.25417C26.2326 9.19399 26.2454 9.1295 26.2454 9.06436Z" fill="white"/>
<path fill-rule="evenodd" clip-rule="evenodd" d="M20.726 26.3622C20.726 26.1978 20.661 26.0401 20.5454 25.9238C20.4297 25.8075 20.2729 25.7422 20.1093 25.7422H17.9633C17.83 25.7758 17.7116 25.8532 17.6271 25.9622C17.5425 26.0711 17.4966 26.2054 17.4966 26.3436C17.4966 26.4818 17.5425 26.616 17.6271 26.725C17.7116 26.834 17.83 26.9114 17.9633 26.945H20.134C20.287 26.9391 20.4324 26.8762 20.5419 26.7684C20.6513 26.6607 20.7169 26.5159 20.726 26.3622Z" fill="white"/>
<path fill-rule="evenodd" clip-rule="evenodd" d="M20.3498 26.3197C20.3482 26.1722 20.2892 26.0312 20.1854 25.9269C20.0817 25.8226 19.9415 25.7633 19.7948 25.7617H17.7104C17.5725 25.7763 17.4449 25.8417 17.3521 25.9453C17.2593 26.0489 17.208 26.1834 17.208 26.3228C17.208 26.4622 17.2593 26.5967 17.3521 26.7003C17.4449 26.8039 17.5725 26.8693 17.7104 26.8839H19.7763C19.851 26.8856 19.9253 26.8722 19.9948 26.8446C20.0643 26.817 20.1276 26.7757 20.1811 26.7231C20.2345 26.6706 20.2769 26.6078 20.3059 26.5385C20.3349 26.4693 20.3498 26.3949 20.3498 26.3197Z" fill="white"/>
<path fill-rule="evenodd" clip-rule="evenodd" d="M20.4796 26.4985C20.4796 26.3456 20.4192 26.1989 20.3116 26.0908C20.2041 25.9826 20.0582 25.9219 19.9061 25.9219H17.7293C17.5772 25.9219 17.4313 25.9826 17.3237 26.0908C17.2162 26.1989 17.1558 26.3456 17.1558 26.4985C17.1558 26.6514 17.2162 26.7981 17.3237 26.9062C17.4313 27.0143 17.5772 27.0751 17.7293 27.0751H19.9061C20.0582 27.0751 20.2041 27.0143 20.3116 26.9062C20.4192 26.7981 20.4796 26.6514 20.4796 26.4985Z" fill="white"/>
<path fill-rule="evenodd" clip-rule="evenodd" d="M23.3161 29.661C23.3161 29.4966 23.2512 29.3389 23.1355 29.2226C23.0199 29.1063 22.863 29.041 22.6995 29.041H16.9028C16.7392 29.041 16.5824 29.1063 16.4667 29.2226C16.3511 29.3389 16.2861 29.4966 16.2861 29.661C16.2861 29.8254 16.3511 29.9831 16.4667 30.0994C16.5824 30.2157 16.7392 30.281 16.9028 30.281H22.7118C22.8732 30.2778 23.0269 30.211 23.1399 30.0951C23.2529 29.9792 23.3162 29.8233 23.3161 29.661Z" fill="white"/>
<path fill-rule="evenodd" clip-rule="evenodd" d="M23.008 29.5555C23.008 29.3911 22.943 29.2334 22.8274 29.1171C22.7117 29.0009 22.5549 28.9355 22.3913 28.9355H16.6933C16.5298 28.9355 16.3729 29.0009 16.2573 29.1171C16.1416 29.2334 16.0767 29.3911 16.0767 29.5555C16.0767 29.72 16.1416 29.8777 16.2573 29.994C16.3729 30.1102 16.5298 30.1755 16.6933 30.1755H22.3975C22.56 30.1739 22.7152 30.1079 22.8296 29.9918C22.9439 29.8757 23.008 29.7189 23.008 29.5555Z" fill="white"/>
<path fill-rule="evenodd" clip-rule="evenodd" d="M23.2054 29.7919C23.2054 29.6274 23.1404 29.4697 23.0248 29.3535C22.9091 29.2372 22.7523 29.1719 22.5887 29.1719H16.7119C16.5483 29.1719 16.3915 29.2372 16.2758 29.3535C16.1602 29.4697 16.0952 29.6274 16.0952 29.7919C16.0952 29.9563 16.1602 30.114 16.2758 30.2303C16.3915 30.3466 16.5483 30.4119 16.7119 30.4119H22.5764C22.6584 30.4135 22.7399 30.3987 22.8162 30.3683C22.8924 30.3379 22.9618 30.2925 23.0204 30.2347C23.079 30.177 23.1255 30.1081 23.1573 30.032C23.189 29.956 23.2054 29.8743 23.2054 29.7919Z" fill="white"/>
<path d="M10.9397 13.7012C11.1534 13.7025 11.3626 13.6399 11.5409 13.5214C11.7192 13.4029 11.8585 13.2339 11.9411 13.0358C12.0237 12.8376 12.046 12.6193 12.005 12.4084C11.9641 12.1975 11.8618 12.0036 11.7111 11.8512C11.5605 11.6989 11.3682 11.5949 11.1587 11.5526C10.9492 11.5102 10.7319 11.5313 10.5343 11.6132C10.3368 11.6952 10.1679 11.8342 10.049 12.0128C9.93015 12.1914 9.8667 12.4014 9.8667 12.6162C9.86669 12.9029 9.97954 13.178 10.1806 13.3813C10.3816 13.5846 10.6546 13.6996 10.9397 13.7012Z" fill="white"/>
<path d="M11.1002 14.0981C11.3005 14.098 11.4963 14.0383 11.6627 13.9263C11.8292 13.8142 11.9588 13.6551 12.0351 13.4689C12.1115 13.2828 12.1312 13.078 12.0916 12.8806C12.0521 12.6832 11.9552 12.502 11.8131 12.3601C11.6711 12.2181 11.4903 12.1218 11.2937 12.0832C11.0971 12.0447 10.8936 12.0657 10.7089 12.1436C10.5242 12.2216 10.3667 12.3528 10.2563 12.5209C10.1459 12.6889 10.0877 12.8861 10.0889 13.0875C10.0889 13.2207 10.1151 13.3526 10.166 13.4756C10.2169 13.5986 10.2915 13.7103 10.3855 13.8043C10.4795 13.8982 10.591 13.9725 10.7137 14.0229C10.8363 14.0733 10.9677 14.0989 11.1002 14.0981Z" fill="white"/>
<path d="M10.9767 13.9866C11.1977 13.9878 11.4141 13.923 11.5985 13.8005C11.7828 13.6779 11.9269 13.5031 12.0123 13.2981C12.0977 13.0932 12.1207 12.8674 12.0783 12.6493C12.036 12.4312 11.9301 12.2306 11.7743 12.0731C11.6184 11.9155 11.4196 11.808 11.2029 11.7642C10.9862 11.7204 10.7615 11.7423 10.5572 11.827C10.3529 11.9118 10.1782 12.0556 10.0552 12.2403C9.93232 12.4249 9.8667 12.6422 9.8667 12.8644C9.86669 13.1609 9.98344 13.4454 10.1914 13.6557C10.3994 13.866 10.6817 13.9849 10.9767 13.9866Z" fill="white"/>
<path d="M27.1334 13.4171C27.2827 13.4183 27.429 13.3748 27.5537 13.2922C27.6783 13.2095 27.7757 13.0915 27.8334 12.953C27.8911 12.8145 27.9065 12.6619 27.8777 12.5146C27.8489 12.3673 27.7771 12.232 27.6715 12.1258C27.5659 12.0197 27.4313 11.9475 27.2848 11.9185C27.1383 11.8895 26.9865 11.905 26.8488 11.9631C26.7111 12.0211 26.5936 12.119 26.5115 12.2443C26.4293 12.3697 26.386 12.5167 26.3872 12.6669C26.3888 12.8653 26.468 13.0552 26.6076 13.1956C26.7471 13.3359 26.936 13.4155 27.1334 13.4171Z" fill="white"/>
<path d="M26.6461 13.6949C26.7864 13.6947 26.9235 13.6524 27.0396 13.5732C27.1558 13.4941 27.2458 13.3818 27.298 13.2509C27.3502 13.1199 27.3622 12.9762 27.3324 12.8384C27.3027 12.7005 27.2326 12.5747 27.1312 12.4772C27.0298 12.3797 26.9017 12.3149 26.7633 12.2913C26.625 12.2676 26.4828 12.2861 26.355 12.3444C26.2272 12.4027 26.1197 12.4981 26.0463 12.6183C25.9728 12.7385 25.9369 12.8781 25.9431 13.0191C25.951 13.2011 26.0286 13.373 26.1596 13.4989C26.2905 13.6248 26.4648 13.695 26.6461 13.6949Z" fill="white"/>
<path d="M26.93 13.6405C27.084 13.6417 27.2348 13.597 27.3634 13.5119C27.492 13.4268 27.5925 13.3052 27.6523 13.1626C27.712 13.0199 27.7283 12.8627 27.699 12.7107C27.6697 12.5588 27.5962 12.419 27.4878 12.3091C27.3794 12.1993 27.241 12.1242 27.0901 12.0936C26.9392 12.0629 26.7826 12.0781 26.6403 12.137C26.498 12.1959 26.3762 12.2961 26.2906 12.4247C26.2049 12.5533 26.1592 12.7045 26.1592 12.8593C26.1584 12.9616 26.1777 13.063 26.2161 13.1578C26.2545 13.2525 26.3111 13.3387 26.3828 13.4113C26.4544 13.4839 26.5397 13.5416 26.6336 13.5809C26.7275 13.6203 26.8283 13.6405 26.93 13.6405Z" fill="white"/>
<path fill-rule="evenodd" clip-rule="evenodd" d="M25.7891 12.685C25.7891 12.565 25.7417 12.4499 25.6572 12.365C25.5728 12.2801 25.4583 12.2324 25.3389 12.2324H13.5298C13.4104 12.2324 13.2959 12.2801 13.2114 12.365C13.127 12.4499 13.0796 12.565 13.0796 12.685C13.0796 12.8051 13.127 12.9202 13.2114 13.0051C13.2959 13.0899 13.4104 13.1376 13.5298 13.1376H25.3389C25.3983 13.1385 25.4572 13.1273 25.5122 13.1049C25.5672 13.0824 25.6171 13.0491 25.6591 13.0069C25.7011 12.9647 25.7342 12.9145 25.7565 12.8592C25.7788 12.8039 25.7899 12.7447 25.7891 12.685Z" fill="white"/>
<path fill-rule="evenodd" clip-rule="evenodd" d="M25.2834 13.1186C25.2834 12.9986 25.236 12.8835 25.1516 12.7986C25.0671 12.7137 24.9526 12.666 24.8333 12.666H13.5298C13.4104 12.666 13.2959 12.7137 13.2114 12.7986C13.127 12.8835 13.0796 12.9986 13.0796 13.1186C13.0796 13.2387 13.127 13.3538 13.2114 13.4387C13.2959 13.5235 13.4104 13.5712 13.5298 13.5712H24.8333C24.9526 13.5712 25.0671 13.5235 25.1516 13.4387C25.236 13.3538 25.2834 13.2387 25.2834 13.1186Z" fill="white"/>
<path fill-rule="evenodd" clip-rule="evenodd" d="M25.3266 12.9018C25.3266 12.7818 25.2792 12.6667 25.1948 12.5818C25.1103 12.4969 24.9958 12.4492 24.8764 12.4492H13.3139C13.1945 12.4492 13.08 12.4969 12.9956 12.5818C12.9112 12.6667 12.8638 12.7818 12.8638 12.9018C12.8638 13.0219 12.9112 13.137 12.9956 13.2219C13.08 13.3067 13.1945 13.3544 13.3139 13.3544H24.8764C24.9958 13.3544 25.1103 13.3067 25.1948 13.2219C25.2792 13.137 25.3266 13.0219 25.3266 12.9018Z" fill="white"/>
<path d="M25.8384 16.9199C26.0254 16.9028 26.1993 16.816 26.3259 16.6767C26.4525 16.5373 26.5227 16.3553 26.5227 16.1666C26.5227 15.9778 26.4525 15.7958 26.3259 15.6565C26.1993 15.5171 26.0254 15.4303 25.8384 15.4133C25.7343 15.4038 25.6294 15.4162 25.5303 15.4497C25.4313 15.4832 25.3402 15.5372 25.263 15.608C25.1859 15.6789 25.1242 15.7652 25.082 15.8613C25.0399 15.9575 25.0181 16.0615 25.0181 16.1666C25.0181 16.2717 25.0399 16.3756 25.082 16.4718C25.1242 16.5679 25.1859 16.6542 25.263 16.7251C25.3402 16.796 25.4313 16.8499 25.5303 16.8834C25.6294 16.917 25.7343 16.9294 25.8384 16.9199Z" fill="white"/>
<path d="M25.3572 17.0867C25.4952 17.0879 25.6306 17.0479 25.746 16.9717C25.8614 16.8954 25.9517 16.7865 26.0053 16.6586C26.059 16.5306 26.0737 16.3896 26.0475 16.2533C26.0213 16.117 25.9555 15.9916 25.8583 15.893C25.7611 15.7944 25.6369 15.727 25.5016 15.6995C25.3662 15.6719 25.2258 15.6854 25.0981 15.7383C24.9704 15.7911 24.8612 15.8809 24.7844 15.9963C24.7075 16.1116 24.6665 16.2473 24.6665 16.3861C24.6665 16.5709 24.7391 16.7481 24.8684 16.8793C24.9978 17.0106 25.1734 17.0851 25.3572 17.0867Z" fill="white"/>
<path d="M25.6656 17.1126C25.8215 17.1113 25.9735 17.0638 26.1025 16.9758C26.2314 16.8879 26.3317 16.7635 26.3905 16.6184C26.4493 16.4733 26.464 16.3139 26.4329 16.1604C26.4017 16.0068 26.326 15.866 26.2154 15.7557C26.1048 15.6453 25.9641 15.5703 25.8112 15.5402C25.6582 15.5101 25.4998 15.5261 25.356 15.5864C25.2121 15.6466 25.0892 15.7483 25.0027 15.8787C24.9163 16.0091 24.8701 16.1623 24.8701 16.319C24.8717 16.53 24.9563 16.7319 25.1053 16.8805C25.2543 17.0292 25.4557 17.1126 25.6656 17.1126Z" fill="white"/>
<path fill-rule="evenodd" clip-rule="evenodd" d="M24.4942 16.2138C24.4942 16.0493 24.4293 15.8916 24.3136 15.7753C24.198 15.6591 24.0411 15.5938 23.8776 15.5938H15.4169C15.2484 15.5938 15.0869 15.661 14.9678 15.7808C14.8487 15.9006 14.7817 16.063 14.7817 16.2324C14.7817 16.4017 14.8487 16.5641 14.9678 16.6839C15.0869 16.8037 15.2484 16.8709 15.4169 16.8709H23.8591C23.9448 16.8737 24.0302 16.8584 24.1097 16.8261C24.1892 16.7938 24.2612 16.7452 24.321 16.6833C24.3807 16.6215 24.427 16.5478 24.4569 16.4669C24.4867 16.3861 24.4994 16.2998 24.4942 16.2138Z" fill="white"/>
<path fill-rule="evenodd" clip-rule="evenodd" d="M24.0502 16.3798C24.0552 16.3002 24.044 16.2204 24.0171 16.1453C23.9903 16.0702 23.9484 16.0015 23.894 15.9434C23.8397 15.8853 23.7741 15.839 23.7012 15.8074C23.6284 15.7758 23.5498 15.7596 23.4705 15.7598H14.9482C14.804 15.7747 14.6704 15.8429 14.5732 15.9511C14.4761 16.0593 14.4224 16.1999 14.4224 16.3457C14.4224 16.4914 14.4761 16.632 14.5732 16.7402C14.6704 16.8485 14.804 16.9166 14.9482 16.9316H23.4705C23.619 16.9318 23.762 16.8746 23.8699 16.772C23.9777 16.6693 24.0423 16.5289 24.0502 16.3798Z" fill="white"/>
<path fill-rule="evenodd" clip-rule="evenodd" d="M21.7066 19.5112C21.7066 19.3467 21.6416 19.189 21.526 19.0728C21.4103 18.9565 21.2535 18.8912 21.0899 18.8912H18.1731C18.0808 18.8624 17.9831 18.8558 17.8878 18.8719C17.7925 18.888 17.7023 18.9265 17.6245 18.9841C17.5467 19.0417 17.4834 19.1169 17.4398 19.2036C17.3962 19.2903 17.3735 19.3861 17.3735 19.4833C17.3735 19.5804 17.3962 19.6762 17.4398 19.763C17.4834 19.8497 17.5467 19.9249 17.6245 19.9825C17.7023 20.0401 17.7925 20.0785 17.8878 20.0947C17.9831 20.1108 18.0808 20.1042 18.1731 20.0754H21.1208C21.2698 20.0685 21.4112 20.0075 21.519 19.9038C21.6267 19.8 21.6933 19.6606 21.7066 19.5112Z" fill="white"/>
<path fill-rule="evenodd" clip-rule="evenodd" d="M21.2871 19.661C21.2871 19.4966 21.2222 19.3389 21.1065 19.2226C20.9909 19.1063 20.834 19.041 20.6705 19.041H18.0188C17.8512 19.041 17.6904 19.108 17.5719 19.2271C17.4533 19.3463 17.3867 19.508 17.3867 19.6765C17.3867 19.8451 17.4533 20.0067 17.5719 20.1259C17.6904 20.2451 17.8512 20.312 18.0188 20.312H20.6705C20.7541 20.3121 20.8369 20.2951 20.9138 20.262C20.9907 20.229 21.0601 20.1805 21.1178 20.1196C21.1755 20.0587 21.2202 19.9866 21.2493 19.9078C21.2785 19.829 21.2913 19.745 21.2871 19.661Z" fill="white"/>
<path fill-rule="evenodd" clip-rule="evenodd" d="M36.7781 4.52539C36.8285 6.11827 36.779 7.71276 36.6301 9.29939C36.4796 10.4027 36.1483 11.4733 35.6496 12.4676C35.1882 13.2921 34.6038 14.0407 33.9167 14.6872C32.9728 15.5062 31.8643 16.111 30.6669 16.4604C29.7015 16.6702 28.7189 16.7906 27.7316 16.82C27.0101 16.82 27.1149 15.735 27.7316 15.7474C28.1444 15.7479 28.5567 15.7168 28.9649 15.6544C29.9718 15.4762 30.8891 14.9604 31.5672 14.1912C32.6402 13.0194 32.6834 12.8644 32.8376 12.4614C33.1404 11.7234 33.3777 10.9598 33.5468 10.1798C33.6817 9.23524 33.7476 8.28203 33.7441 7.32779C33.7441 6.84419 33.7441 5.76539 33.7441 5.76539H30.5498C30.4645 5.68643 30.3965 5.59057 30.35 5.48386C30.3035 5.37714 30.2795 5.2619 30.2795 5.14539C30.2795 5.02888 30.3035 4.91364 30.35 4.80693C30.3965 4.70022 30.4645 4.60435 30.5498 4.52539H36.7781ZM34.8849 5.70959H35.7668C35.7668 5.70959 36.2724 10.465 33.9167 13.0752C33.8736 13.0752 34.9897 11.1594 34.8849 5.70959Z" fill="white"/>
<path fill-rule="evenodd" clip-rule="evenodd" d="M36.3834 4.95933C36.4272 6.5482 36.3757 8.13828 36.2292 9.72092C36.0793 10.8263 35.748 11.899 35.2487 12.8953C34.7938 13.7208 34.2133 14.4698 33.5282 15.1149C32.567 15.9429 31.4365 16.5483 30.2167 16.8881C29.2509 17.0968 28.2686 17.2192 27.2814 17.2539C26.5599 17.2539 26.6647 16.1689 27.2814 16.1751C27.6942 16.1799 28.1066 16.1508 28.5147 16.0883C29.5232 15.9056 30.4416 15.3882 31.1232 14.6189C32.2024 13.4347 32.2271 13.2921 32.3997 12.8953C32.6984 12.1564 32.9336 11.393 33.1027 10.6137C33.2407 9.66951 33.3067 8.71606 33.3001 7.76173C33.3001 7.27193 33.3001 6.19312 33.3001 6.19312H30.1242C30.0373 6.11519 29.9678 6.01967 29.9202 5.91282C29.8725 5.80597 29.8479 5.69021 29.8479 5.57312C29.8479 5.45604 29.8725 5.34028 29.9202 5.23343C29.9678 5.12658 30.0373 5.03106 30.1242 4.95312L36.3834 4.95933ZM34.4532 6.14352H35.3289C35.3289 6.14352 35.8284 10.8927 33.4419 13.5091C33.4419 13.5091 34.5334 11.5561 34.4532 6.14352Z" fill="white"/>
<path fill-rule="evenodd" clip-rule="evenodd" d="M36.5681 4.74355C36.6119 6.33449 36.5604 7.92663 36.414 9.51135C36.2635 10.6146 35.9322 11.6852 35.4335 12.6796C34.9732 13.496 34.3932 14.238 33.713 14.8805C32.7659 15.6984 31.6557 16.303 30.457 16.6538C29.4916 16.8639 28.509 16.9843 27.5216 17.0134C26.8001 17.0134 26.905 15.9283 27.5216 15.9407C27.9345 15.9416 28.3468 15.9105 28.755 15.8477C29.7646 15.6682 30.684 15.1503 31.3635 14.3784C32.4365 13.1941 32.4673 13.0515 32.64 12.6547C32.9395 11.9161 33.1748 11.1527 33.343 10.3731C33.4811 9.42895 33.5471 8.47549 33.5403 7.52115C33.5403 7.03135 33.5403 5.95875 33.5403 5.95875H30.3398C30.2537 5.88029 30.185 5.7846 30.1379 5.67782C30.0909 5.57104 30.0666 5.45554 30.0666 5.33875C30.0666 5.22196 30.0909 5.10646 30.1379 4.99968C30.185 4.8929 30.2537 4.79721 30.3398 4.71875L36.5681 4.74355ZM34.6688 5.92775H35.5383C35.5383 5.92775 36.044 10.6831 33.6575 13.2934C33.6575 13.2934 34.7736 11.3465 34.6688 5.92775Z" fill="white"/>
<path fill-rule="evenodd" clip-rule="evenodd" d="M-1.53705e-05 4.52539C-0.0463007 6.11853 0.00724966 7.71302 0.160318 9.29939C0.314241 10.4027 0.647578 11.473 1.14698 12.4676C1.60279 13.2944 2.18316 14.0452 2.86748 14.6934C3.81234 15.5111 4.92049 16.1157 6.11732 16.4666C7.08277 16.6764 8.06533 16.7968 9.05265 16.8262C9.77415 16.8262 9.66932 15.7412 9.05265 15.7536C8.63977 15.7546 8.22743 15.7235 7.81932 15.6606C6.81085 15.4818 5.89182 14.9663 5.21082 14.1974C4.15015 13.0194 4.11932 12.8644 3.95282 12.4614C3.64945 11.7241 3.41412 10.9604 3.24982 10.1798C3.11059 9.23564 3.04256 8.28225 3.04632 7.32779C3.04632 6.84419 3.04632 5.76539 3.04632 5.76539H6.24065C6.3267 5.68693 6.39546 5.59124 6.44252 5.48446C6.48957 5.37768 6.51388 5.26218 6.51388 5.14539C6.51388 5.0286 6.48957 4.9131 6.44252 4.80632C6.39546 4.69954 6.3267 4.60385 6.24065 4.52539H-1.53705e-05ZM1.90548 5.70959H1.03598C1.03598 5.70959 0.536485 10.465 2.92298 13.0752C2.92298 13.0752 1.80065 11.1594 1.90548 5.70959Z" fill="white"/>
<path fill-rule="evenodd" clip-rule="evenodd" d="M0.443898 4.95933C0.401984 6.5486 0.459654 8.13894 0.616565 9.72092C0.758679 10.8249 1.08166 11.8975 1.5724 12.8953C2.03052 13.7204 2.61298 14.4691 3.29906 15.1149C4.24147 15.9362 5.35044 16.5412 6.5489 16.8881C7.51471 17.0968 8.49698 17.2192 9.48423 17.2539C10.2057 17.2539 10.1009 16.1689 9.48423 16.1751C9.07146 16.1799 8.65899 16.1508 8.2509 16.0883C7.24243 15.9056 6.324 15.3882 5.6424 14.6189C4.58173 13.4347 4.5509 13.2921 4.37823 12.8953C4.08794 12.1556 3.861 11.3923 3.6999 10.6137C3.5619 9.66951 3.49593 8.71606 3.50256 7.76173C3.50256 7.27193 3.50256 6.19312 3.50256 6.19312H6.6969C6.78294 6.11467 6.85171 6.01897 6.89877 5.91219C6.94582 5.80541 6.97013 5.68992 6.97013 5.57312C6.97013 5.45633 6.94582 5.34084 6.89877 5.23406C6.85171 5.12728 6.78294 5.03158 6.6969 4.95312L0.443898 4.95933ZM2.33706 6.14352H1.46757C1.46757 6.14352 0.961898 10.8927 3.3484 13.5091C3.3484 13.5091 2.23223 11.5561 2.33706 6.14352Z" fill="white"/>
<path fill-rule="evenodd" clip-rule="evenodd" d="M0.228397 4.79917C0.178286 6.38792 0.227718 7.97826 0.376397 9.56077C0.526279 10.6662 0.857615 11.7389 1.3569 12.7352C1.81502 13.5602 2.39748 14.309 3.08356 14.9548C4.02482 15.7805 5.13387 16.3898 6.3334 16.7404C7.29927 16.9487 8.28151 17.0711 9.26873 17.1062C9.99023 17.1062 9.8854 16.0212 9.26873 16.0274C8.85597 16.0317 8.44353 16.0027 8.0354 15.9406C7.02849 15.7583 6.11186 15.2408 5.43306 14.4712C4.36623 13.2746 4.3169 13.132 4.1689 12.7352C3.86787 11.9965 3.63061 11.2331 3.45973 10.4536C3.32496 9.509 3.25901 8.5558 3.2624 7.60157C3.2624 7.11177 3.2624 6.03297 3.2624 6.03297H6.45673C6.54278 5.95451 6.61154 5.85881 6.6586 5.75204C6.70565 5.64526 6.72996 5.52976 6.72996 5.41297C6.72996 5.29618 6.70565 5.18068 6.6586 5.0739C6.61154 4.96712 6.54278 4.87143 6.45673 4.79297L0.228397 4.79917ZM2.12156 5.97717H1.23356C1.23356 5.97717 0.727897 10.7326 3.1144 13.349C3.1329 13.349 2.01673 11.396 2.12156 5.97717Z" fill="white"/>
</g>
<defs>
<clipPath id="clip0_24_280">
<rect width="37" height="31" fill="white"/>
</clipPath>
</defs>
</svg>
