<?xml version="1.0" encoding="utf-8"?><svg width="245" height="50" fill="none" xmlns="http://www.w3.org/2000/svg" viewBox="0 0 245 50"><g clip-path="url(#aclip0_1370_4842)" fill="#106FB8"><path d="M48.457 1.163h13.141a16.995 16.995 0 013.642.358 7.803 7.803 0 012.857 1.162 5.426 5.426 0 011.785 2.147 7.55 7.55 0 01.643 3.3 6.187 6.187 0 01-.893 3.496 6.992 6.992 0 01-2.847 2.316 6.668 6.668 0 013.83 2.612 7.79 7.79 0 011.267 4.471 7.811 7.811 0 01-.821 3.676 7.212 7.212 0 01-2.214 2.53 9.811 9.811 0 01-3.17 1.45c-1.193.319-2.424.478-3.66.473h-13.56V1.163zM60.83 12.52a4.458 4.458 0 002.678-.787 2.959 2.959 0 001.072-2.557 3.304 3.304 0 00-.357-1.61 2.68 2.68 0 00-.947-.984c-.42-.24-.88-.407-1.357-.491a9.252 9.252 0 00-1.598-.135h-5.749v6.564h6.258zm.357 11.895a7.853 7.853 0 001.732-.18 4.4 4.4 0 001.455-.58 2.986 2.986 0 001-1.127c.268-.557.397-1.171.375-1.789a3.629 3.629 0 00-1.223-3.076 5.19 5.19 0 00-3.223-.895h-6.73v7.647h6.614zM74.097 1.162h6.115v19.406h.134l10.65-19.406h6.9v28.045h-6.114V9.73h-.117L80.953 29.207h-6.856V1.162zM112.484 26.776a16.22 16.22 0 01-5.134-1.002 12.09 12.09 0 01-3.963-2.415 10.377 10.377 0 01-2.509-3.684 12.375 12.375 0 01-.893-4.776c-.009-1.588.294-3.162.893-4.632a10.138 10.138 0 012.491-3.649 11.59 11.59 0 013.937-2.414c1.66-.607 3.41-.93 5.178-.957V.492h6.115v2.755a15.71 15.71 0 015.204.965 11.679 11.679 0 013.928 2.415 10.336 10.336 0 012.482 3.649c.595 1.471.898 3.045.893 4.632a12.375 12.375 0 01-.893 4.776 10.234 10.234 0 01-2.517 3.675 12.014 12.014 0 01-3.946 2.415c-1.643.61-3.373.948-5.124 1.002v3.058h-6.142v-3.058zm0-19.094a7.22 7.22 0 00-2.741.653 6.238 6.238 0 00-2.044 1.503 6.7 6.7 0 00-1.313 2.262 8.301 8.301 0 00-.455 2.781 7.794 7.794 0 00.473 2.683 7.085 7.085 0 001.357 2.299 6.97 6.97 0 002.044 1.645c.829.43 1.746.659 2.679.67V7.683zm8.793 13.826a6.653 6.653 0 002.08-1.627 7.776 7.776 0 001.348-2.299 7.608 7.608 0 00.482-2.683 8.056 8.056 0 00-.464-2.781 7.162 7.162 0 00-1.268-2.28 6.044 6.044 0 00-2.044-1.503 7.264 7.264 0 00-2.75-.653V22.18a6.18 6.18 0 002.652-.67h-.036zM133.222 1.162h20.898v5.223h-14.783v5.974h13.569v4.793h-13.569v6.832h15.105v5.223h-21.22V1.162zM156.674 1.164h12.623c1.524-.038 3.04.224 4.464.769a8.288 8.288 0 012.999 2.02 7.599 7.599 0 011.687 2.89c.715 2.16.715 4.493 0 6.653a7.798 7.798 0 01-1.687 2.87 8.366 8.366 0 01-3.008 2.022c-1.424.544-2.94.806-4.464.769h-6.481v10.052h-6.133V1.164zm10.918 13.2c.685 0 1.368-.053 2.044-.162a4.64 4.64 0 001.768-.608c.504-.31.916-.748 1.196-1.27.33-.671.487-1.415.455-2.164a4.476 4.476 0 00-.455-2.164 3.35 3.35 0 00-1.196-1.27 4.64 4.64 0 00-1.786-.608 12.701 12.701 0 00-2.044-.16h-4.803v8.405h4.821zM193.41 29.834a14.21 14.21 0 01-5.803-1.118 12.367 12.367 0 01-4.312-3.085 13.51 13.51 0 01-2.678-4.615 16.741 16.741 0 01-.946-5.714 17.44 17.44 0 01.946-5.813 13.967 13.967 0 012.678-4.713 12.496 12.496 0 014.312-3.14 15.23 15.23 0 0111.605 0 12.49 12.49 0 014.33 3.14 13.95 13.95 0 012.678 4.713c.636 1.871.953 3.836.938 5.813a17.015 17.015 0 01-.938 5.714 13.493 13.493 0 01-2.678 4.615 12.339 12.339 0 01-4.33 3.085 14.258 14.258 0 01-5.802 1.118zm0-5.142a7.24 7.24 0 003.571-.805 6.723 6.723 0 002.365-2.137 9.362 9.362 0 001.295-2.97c.277-1.123.415-2.276.411-3.434a15.118 15.118 0 00-.411-3.577 9.473 9.473 0 00-1.321-3.076 6.614 6.614 0 00-2.366-2.155 8.229 8.229 0 00-7.142 0 6.516 6.516 0 00-2.339 2.146 9.274 9.274 0 00-1.321 3.076 15.122 15.122 0 00-.42 3.578c-.001 1.157.14 2.31.42 3.434a9.178 9.178 0 001.321 2.978 6.632 6.632 0 002.357 2.137 7.271 7.271 0 003.58.805zM209.407 1.162h6.115v10.732h11.409V1.162h6.116v28.045h-6.116v-12.1h-11.409v12.1h-6.115V1.162zM235.394 2.862a4.655 4.655 0 011.098-1.538c.468-.42 1.01-.75 1.598-.975A5.269 5.269 0 01239.991 0a5.19 5.19 0 011.938.35 5.076 5.076 0 011.607.974c.452.44.815.961 1.071 1.538.282.633.422 1.32.411 2.012a4.839 4.839 0 01-.411 2.03 4.931 4.931 0 01-1.098 1.539 4.93 4.93 0 01-1.607.983 5.462 5.462 0 01-3.794 0 4.984 4.984 0 01-1.598-.983 4.655 4.655 0 01-1.098-1.539 4.827 4.827 0 01-.42-2.03 4.753 4.753 0 01.402-2.012zm1.205 3.577c.184.451.45.864.786 1.217.326.346.721.62 1.16.804.457.196.95.293 1.446.287.491.006.978-.092 1.429-.287.442-.183.84-.457 1.169-.804.336-.353.602-.766.786-1.217a3.98 3.98 0 00.045-3.103 3.868 3.868 0 00-.786-1.207 3.578 3.578 0 00-1.169-.796 3.642 3.642 0 00-1.429-.286 3.69 3.69 0 00-1.446.286 3.49 3.49 0 00-1.161.796c-.36.343-.651.753-.857 1.207a3.97 3.97 0 00-.285 1.538c-.009.53.088 1.056.285 1.547l.027.018zm3.544-4.31c.551-.032 1.1.095 1.58.366a1.374 1.374 0 01.563 1.252c.002.223-.037.445-.116.653-.064.17-.168.32-.304.439-.135.112-.289.2-.455.259-.182.062-.371.1-.562.116l1.464 2.397h-1.134l-1.339-2.343h-.679V7.61h-1.08V2.129h2.062zm0 2.29c.263.008.524-.038.768-.135.196-.08.295-.295.295-.626a.601.601 0 00-.17-.349.764.764 0 00-.268-.205 1.457 1.457 0 00-.366-.099h-1.276v1.413h1.017zM49.582 35.772h6.66l-.357 1.878H51.5l-.518 2.521h1.41a5.921 5.921 0 011.518.17c.388.1.742.3 1.027.582.268.3.44.674.491 1.073a4.56 4.56 0 01-.09 1.627 5.425 5.425 0 01-.597 1.664c-.244.438-.579.82-.982 1.118a3.8 3.8 0 01-1.33.626 6.841 6.841 0 01-1.66.188h-3.572l2.384-11.447zm1.134 9.703c.3.005.599-.022.892-.08.233-.048.452-.146.643-.287.194-.152.352-.344.464-.563.14-.284.241-.585.304-.895.134-.653.071-1.09-.188-1.323a1.944 1.944 0 00-1.303-.35h-.893l-.723 3.524.804-.026zM58.563 47.399a3.13 3.13 0 01-1.786-.412A1.896 1.896 0 0156 45.932a3.78 3.78 0 01-.089-1.476c.063-.545.152-1.09.259-1.636.116-.57.269-1.131.455-1.681a5.37 5.37 0 01.777-1.431 3.68 3.68 0 011.24-.993 4.172 4.172 0 011.875-.367 2.986 2.986 0 011.51.313c.359.198.64.514.794.895.164.44.23.91.196 1.377-.036.601-.116 1.2-.24 1.789l-.108.5h-4.374l-.143.689a4.57 4.57 0 00-.125.805 1.79 1.79 0 00.053.635.895.895 0 00.241.456.687.687 0 00.483.17 1.122 1.122 0 00.892-.403c.272-.368.474-.784.598-1.225h1.991a4.312 4.312 0 01-1.267 2.299 3.62 3.62 0 01-2.456.75zm2.258-5.473c.056-.296.094-.595.116-.895a2.07 2.07 0 000-.643.67.67 0 00-.25-.403.892.892 0 00-.527-.134 1.07 1.07 0 00-.589.152c-.167.103-.31.24-.42.402a2.21 2.21 0 00-.303.555c-.077.197-.137.4-.178.608l-.072.34 2.223.018zM64.383 38.58h2.116l-.188.894c.27-.362.61-.666 1-.895.37-.18.777-.27 1.188-.26a1.712 1.712 0 011.785 1.065 6.71 6.71 0 01-.036 3.541 8.305 8.305 0 01-1.348 3.461 2.767 2.767 0 01-2.223 1.01 1.908 1.908 0 01-1.017-.232 1.61 1.61 0 01-.643-.742L64.285 50h-2.25l2.348-11.42zm1.91 7.154a1.16 1.16 0 001.09-.716c.3-.669.52-1.371.651-2.093a7.787 7.787 0 00.223-2.128.717.717 0 00-.794-.715 1.168 1.168 0 00-1.098.715 8.614 8.614 0 00-.66 2.128 8.062 8.062 0 00-.215 2.129.708.708 0 00.803.688v-.008zM73.204 47.399a3.129 3.129 0 01-1.785-.412 1.896 1.896 0 01-.777-1.055 3.78 3.78 0 01-.09-1.476c.066-.542.155-1.088.268-1.636.109-.571.26-1.134.456-1.681.178-.515.437-.998.767-1.431a3.68 3.68 0 011.241-.993 4.171 4.171 0 011.875-.367 3.021 3.021 0 011.518.313c.36.196.638.513.785.895.172.437.242.908.206 1.377-.036.601-.117 1.2-.241 1.789l-.099.5h-4.392l-.143.689a5.79 5.79 0 00-.098.751c-.011.213.007.427.054.635.037.171.12.329.24.456a.686.686 0 00.483.17 1.112 1.112 0 00.893-.402c.279-.362.49-.77.625-1.208h1.981a4.367 4.367 0 01-1.258 2.299 3.647 3.647 0 01-2.509.787zm2.268-5.473c.053-.34.089-.626.116-.895.033-.213.033-.43 0-.643a.68.68 0 00-.26-.403.892.892 0 00-.526-.134 1.025 1.025 0 00-.58.152c-.172.1-.318.237-.429.402-.127.17-.23.356-.303.555a4.764 4.764 0 00-.179.608l-.071.34 2.232.018zM80.006 42.077l-1.571-3.497h2.24l1.456 3.497.714-3.497h2.116l-.715 3.497 2.848-3.497h2.178l-3.017 3.497 1.437 5.142h-2.231l-.893-3.479-.92 1.091-.5 2.388h-2.115l.5-2.388-.518-1.09-2.286 3.478h-2.267l3.544-5.142zM89.79 38.58h2.214l-.66 3.193h2.115l.66-3.193h2.215l-1.786 8.639h-2.213l.758-3.676H90.97l-.75 3.676h-2.205l1.776-8.639zM97.388 47.398a1.854 1.854 0 01-.893-.205 1.26 1.26 0 01-.527-.555 1.994 1.994 0 01-.196-.778c-.017-.3.007-.6.071-.894.067-.365.181-.72.34-1.055.139-.281.326-.535.553-.752.226-.22.489-.398.777-.527.344-.15.699-.272 1.062-.367l1.321-.34c.28-.046.542-.166.759-.348.179-.18.295-.412.33-.662a1.036 1.036 0 00-.071-.778c-.116-.188-.357-.278-.732-.278a1.15 1.15 0 00-.84.304c-.22.222-.367.506-.419.814l-.053.242h-1.991v-.206c.08-.447.25-.873.5-1.252.217-.328.496-.61.821-.832.322-.21.679-.36 1.053-.447.396-.09.8-.135 1.206-.134a5.273 5.273 0 011.562.188c.326.098.617.287.839.545.179.248.278.544.286.85.005.358-.031.715-.107 1.064l-.893 4.552a5.723 5.723 0 00-.143.948c-.006.24.018.481.071.716h-2.115a1.362 1.362 0 01-.08-.439v-.456a2.544 2.544 0 01-1.072.895 3.937 3.937 0 01-1.42.187zm1.17-1.457c.162-.004.324-.028.481-.072.174-.053.34-.132.491-.232.156-.117.295-.255.41-.412.125-.187.213-.397.26-.617l.348-1.708c-.171.114-.354.21-.545.286-.16.062-.324.113-.49.152a2.034 2.034 0 00-1.063.483 1.87 1.87 0 00-.464 1.789.528.528 0 00.571.33zM104.949 43.82a1.79 1.79 0 01-1-.895 2.497 2.497 0 01-.098-1.592 3.285 3.285 0 011.223-2.093 3.763 3.763 0 012.232-.652h3.633l-1.785 8.639h-2.196l.652-3.193h-.607l-2.232 3.193h-2.536l2.714-3.408zm3.018-1.351l.473-2.28h-.893a1.78 1.78 0 00-1.035.268 1.372 1.372 0 00-.5.894c-.053.147-.071.305-.053.46a1 1 0 00.16.434 1.13 1.13 0 00.892.26l.956-.036zM116.465 47.396a3.057 3.057 0 01-2.187-.662 2.362 2.362 0 01-.357-2.208v-.161h1.973v.107c-.109.352-.109.73 0 1.082.125.26.392.385.821.385.312.004.614-.115.839-.331.248-.24.414-.554.473-.895a1.225 1.225 0 00-.062-.894.892.892 0 00-.768-.268h-.687l.321-1.538h.67c.277.003.548-.088.767-.26.264-.23.438-.547.491-.894a.885.885 0 00-.107-.751.745.745 0 00-.625-.25 1.099 1.099 0 00-.892.321 1.785 1.785 0 00-.402.895v.116h-1.955v-.143c.081-.436.245-.851.482-1.225.208-.322.478-.599.794-.814.329-.21.691-.362 1.072-.447a5.81 5.81 0 011.276-.134 2.85 2.85 0 012.098.617 1.786 1.786 0 01.366 1.726c-.043.219-.111.432-.205.635-.2.419-.509.777-.893 1.037-.191.13-.402.226-.625.286a1.365 1.365 0 01.982.653c.205.43.246.92.116 1.377a3.515 3.515 0 01-.482 1.198 2.918 2.918 0 01-.839.85 3.482 3.482 0 01-1.143.5 5.498 5.498 0 01-1.312.09zM122.411 47.397a1.915 1.915 0 01-.937-.206 1.363 1.363 0 01-.527-.555 1.995 1.995 0 01-.187-.778c-.015-.3.005-.6.062-.894.074-.364.191-.718.348-1.055.136-.283.324-.538.554-.751.226-.22.489-.4.776-.528.344-.15.699-.273 1.063-.367l1.321-.34c.279-.048.541-.168.759-.348.175-.181.291-.413.33-.662a1.041 1.041 0 00-.071-.778c-.116-.188-.366-.277-.741-.277a1.154 1.154 0 00-.83.304c-.224.219-.371.504-.42.814l-.054.241h-1.99l.044-.206a3.38 3.38 0 01.5-1.252c.218-.328.497-.61.821-.831a3.188 3.188 0 011.054-.447c.395-.091.8-.136 1.205-.135a5.171 5.171 0 011.553.188c.329.091.623.282.84.546.181.247.284.543.294.85.006.357-.03.714-.107 1.063l-.893 4.552a5.62 5.62 0 00-.142.948c-.006.24.018.481.071.716h-2.125a1.172 1.172 0 01-.08-.438v-.456a2.546 2.546 0 01-1.071.894 3.943 3.943 0 01-1.42.188zm1.17-1.458a1.715 1.715 0 001.383-.715c.126-.186.211-.397.25-.618l.357-1.708c-.17.115-.353.21-.544.286-.161.061-.325.112-.491.153-.394.051-.764.22-1.062.482a1.873 1.873 0 00-.465 1.789.531.531 0 00.572.33zM137.284 47.219h-9.311l1.785-8.639h2.214l-1.428 6.976h1.839l1.437-6.976h2.214l-1.437 6.976h1.848l1.428-6.976h2.214l-1.428 6.976h.991l-.75 3.675h-2.009l.393-2.012zM141.515 38.58h2.089l-1.125 5.446 3.464-5.446h2.339l-1.786 8.639h-2.098l1.107-5.366-3.454 5.366h-2.322l1.786-8.639zM150.541 40.243h-2.196l.339-1.673h6.588l-.339 1.673h-2.196l-1.428 6.966h-2.223l1.455-6.966zM155.656 47.397a1.856 1.856 0 01-.893-.206 1.262 1.262 0 01-.526-.554 1.986 1.986 0 01-.197-.779 4.268 4.268 0 01.42-1.95c.135-.28.32-.534.544-.75.231-.218.497-.397.786-.528a6.63 6.63 0 011.062-.367l1.313-.34c.281-.047.546-.168.767-.348.173-.184.287-.414.331-.662.068-.26.043-.535-.072-.778-.116-.188-.366-.277-.741-.277a1.134 1.134 0 00-.83.304c-.223.22-.372.505-.429.814l-.053.241h-1.982l.045-.206c.078-.446.245-.872.491-1.252.22-.325.498-.608.821-.831.322-.21.679-.362 1.053-.447.396-.09.8-.135 1.206-.135a5.192 5.192 0 011.562.188c.326.098.617.288.839.546.179.248.278.544.286.85.009.357-.024.714-.098 1.064l-.938 4.551a8.401 8.401 0 00-.178.957c-.002.24.022.48.071.716H158.2a1.675 1.675 0 01-.08-.438v-.456a2.547 2.547 0 01-1.071.894c-.45.141-.922.202-1.393.179zm1.169-1.458c.164-.003.326-.027.483-.072.174-.053.339-.131.491-.232a1.78 1.78 0 00.41-.411 1.6 1.6 0 00.259-.617l.348-1.682a2.836 2.836 0 01-1.035.439 2.036 2.036 0 00-1.063.482 1.667 1.667 0 00-.473.895 1.591 1.591 0 000 .85.53.53 0 00.58.348zM167.744 47.397a3.955 3.955 0 01-1.598-.268 1.783 1.783 0 01-.893-.841 3.022 3.022 0 01-.25-1.404c.02-.668.104-1.333.25-1.985.125-.67.316-1.327.571-1.959a4.742 4.742 0 01.893-1.422 3.3 3.3 0 011.223-.894 4.331 4.331 0 011.66-.295 3.568 3.568 0 011.59.286c.388.168.705.47.892.85.194.447.283.934.259 1.421a11.058 11.058 0 01-.25 1.986c-.13.673-.324 1.331-.58 1.967a4.8 4.8 0 01-.893 1.413 3.323 3.323 0 01-1.223.84 4.456 4.456 0 01-1.651.305zm.294-1.458a1.214 1.214 0 001.08-.706c.354-.74.6-1.526.732-2.334a7.176 7.176 0 00.224-2.326.73.73 0 00-.494-.672.723.723 0 00-.292-.034c-.251-.01-.498.07-.696.224a1.838 1.838 0 00-.482.626c-.149.309-.266.632-.349.965-.098.376-.187.778-.285 1.217-.098.438-.161.894-.214 1.225a4.11 4.11 0 00-.045.966c.01.223.088.438.223.617a.738.738 0 00.598.232zM174.921 40.243h-2.196l.339-1.673h6.597l-.348 1.673h-2.196l-1.437 6.966h-2.197l1.438-6.966zM183.509 38.58h3.642c.342-.003.684.033 1.018.108.277.066.534.198.75.384.195.183.331.42.393.68.076.332.076.678 0 1.01a2.682 2.682 0 01-.581 1.217 2.096 2.096 0 01-1.142.68c1.008.223 1.392.894 1.151 2.11a3.197 3.197 0 01-.464 1.19 2.461 2.461 0 01-.759.76 3.173 3.173 0 01-1.018.393 6.3 6.3 0 01-1.187.107h-3.571l1.768-8.639zm1.58 7.101c.34.017.679-.057.982-.215a1.291 1.291 0 00.5-.894c.098-.438.053-.733-.116-.894a1.338 1.338 0 00-.893-.224h-.893l-.455 2.218.875.009zm.437-3.667h.563a1.41 1.41 0 00.464-.125.894.894 0 00.33-.277c.101-.162.17-.34.206-.528a1.06 1.06 0 000-.5.52.52 0 00-.224-.287.968.968 0 00-.401-.116 5.457 5.457 0 00-.572 0h-.535l-.384 1.878.553-.045zM190.883 38.58h2.089l-1.116 5.446 3.455-5.446h2.339l-1.785 8.639h-2.098l1.116-5.366-3.455 5.366h-2.33l1.785-8.639zM198.73 38.578h2.134l-.187.895c.276-.36.618-.663 1.008-.895a2.525 2.525 0 011.188-.259 1.723 1.723 0 011.785 1.064 6.708 6.708 0 01-.071 3.48 8.193 8.193 0 01-1.357 3.46 2.763 2.763 0 01-2.205 1.073 1.91 1.91 0 01-1.018-.232 1.612 1.612 0 01-.643-.743L198.632 50H196.4l2.33-11.42zm1.911 7.155a1.158 1.158 0 001.089-.716c.301-.668.52-1.37.652-2.092a8.197 8.197 0 00.223-2.129.724.724 0 00-.237-.536.715.715 0 00-.558-.18 1.168 1.168 0 00-1.098.716 8.625 8.625 0 00-.66 2.129 8.155 8.155 0 00-.224 2.128.731.731 0 00.517.664.725.725 0 00.296.025v-.01zM203.997 50l.339-1.654c.189.036.38.054.572.054a1.284 1.284 0 00.937-.322c.241-.248.411-.557.491-.894l-.643-8.64h2.312l.054 5.975 2.357-5.974h2.205l-3.741 8.049c-.339.724-.642 1.305-.892 1.788-.222.38-.502.72-.831 1.01-.284.23-.617.393-.973.475a5.92 5.92 0 01-1.294.116l-.893.018zM214.254 47.397a4.213 4.213 0 01-1.401-.206 1.662 1.662 0 01-.893-.724 2.846 2.846 0 01-.33-1.378 8.879 8.879 0 01.241-2.19 9.21 9.21 0 01.705-2.21 4.765 4.765 0 011.009-1.395c.361-.334.79-.584 1.259-.733a4.807 4.807 0 011.455-.206 2.36 2.36 0 012.133.895 3.166 3.166 0 01.277 2.441h-2.116c.036-.197.063-.402.081-.617a1.97 1.97 0 000-.563.758.758 0 00-.223-.403.689.689 0 00-.474-.152 1.231 1.231 0 00-.696.188 1.469 1.469 0 00-.491.546 4.124 4.124 0 00-.366.894c-.129.43-.236.865-.321 1.305-.107.537-.188.993-.232 1.378a3.716 3.716 0 000 .894.836.836 0 00.25.536.89.89 0 00.571.17 1.07 1.07 0 00.893-.482c.296-.471.493-.998.58-1.548h2.116a4.793 4.793 0 01-1.348 2.665 3.791 3.791 0 01-2.679.895zM221.397 47.396a3.944 3.944 0 01-1.59-.268 1.785 1.785 0 01-.892-.84 3.134 3.134 0 01-.259-1.405c.025-.668.108-1.332.25-1.985.131-.67.326-1.326.58-1.959a4.913 4.913 0 01.893-1.422 3.4 3.4 0 011.232-.894 4.305 4.305 0 011.66-.295 3.633 3.633 0 011.589.286c.389.168.705.47.893.85.194.448.283.934.259 1.422a12.057 12.057 0 01-.25 1.985 10.78 10.78 0 01-.58 1.968 4.8 4.8 0 01-.893 1.413c-.343.364-.76.651-1.223.84a4.459 4.459 0 01-1.669.304zm.303-1.458a1.201 1.201 0 001.071-.706 8.292 8.292 0 00.741-2.334 7.466 7.466 0 00.223-2.325.723.723 0 00-.242-.521.725.725 0 00-.543-.186c-.251-.01-.498.07-.696.224a1.853 1.853 0 00-.483.626c-.148.309-.265.633-.348.966a22.55 22.55 0 00-.285 1.216c-.09.438-.161.894-.224 1.225a5.373 5.373 0 000 .966c.009.225.091.442.233.617a.705.705 0 00.544.232h.009zM227.386 38.58h3.652c.342-.002.683.034 1.017.108.276.063.531.195.741.384.201.18.341.417.402.68.076.332.076.678 0 1.01a2.62 2.62 0 01-.58 1.216 2.095 2.095 0 01-1.143.68c1.018.224 1.402.895 1.161 2.11a3.381 3.381 0 01-.465 1.19 2.388 2.388 0 01-.767.76 3.05 3.05 0 01-1.009.394c-.392.073-.789.109-1.187.107h-3.571l1.749-8.639zm1.59 7.1c.337.018.673-.056.973-.214a1.28 1.28 0 00.508-.894c.09-.438.054-.733-.116-.894a1.335 1.335 0 00-.892-.224h-.893l-.446 2.218.866.009zm.455-3.648h.562a1.41 1.41 0 00.464-.125.897.897 0 00.331-.277c.101-.16.167-.34.196-.528a1.06 1.06 0 000-.5.476.476 0 00-.214-.287 1.016 1.016 0 00-.411-.116c-.19-.01-.381-.01-.571 0h-.527l-.384 1.878.554-.045zM25.756 9.355c-.241-2.585-3.375-1.718-4.821-1.413-3 .626-7.874-.492-10.838 3.013-1.5 1.118-4.16 10.168-1.384 12.646 1.956 1.744 5.223 1.064 7.714.375-3.036 2.549-4.027 6.26-.893 9.623 3.133 3.362 7.142 6.537 10.552 2.432 1.339-1.618 2.214-3.255 3.57-4.865a6.935 6.935 0 001.59-5.294c-.322-3.649-4.803-5.366-8.035-5.813a9.506 9.506 0 001.643-2.575.51.51 0 00.214-.537 17.298 17.298 0 00.652-7.592M8.517 21.463a9.988 9.988 0 01.134-6.725c.946-2.236 4.723-6.385 6.07-2.37.161.465 1.036-.742.893-1.118-.607-1.788-1.223-1.574-2.678-1.404a8.379 8.379 0 013.33-.769c.89.099 1.785.12 2.678.063 1.16 0 4.42-1.342 5.008.17.491 1.243.25 3.452.197 4.775 0 .412-.25 1.87-.322 2.263a8.743 8.743 0 00-2.044-1.789c-.58-.241-2-.357-1.036 0a5.102 5.102 0 012.679 2.782 9.571 9.571 0 01-1.616 2.62v.045c-.215.126-.39.308-.51.527-3.133 2.942-10.837 6.046-12.712.85m21.167 3.05c1.455 2.074.313 4.882-.893 6.581-.107-3.46-2.223-7.038-5.276-7.887-.509-.143-2.008-.143-1.053.125 3.205.894 5.642 5.115 4.883 8.943a.287.287 0 000 .197c-.16.178-.321.357-.464.536a12.223 12.223 0 01-3.143 3.04c-2.026 1.127-4.133-.268-5.74-1.582a11.955 11.955 0 01-3.124-4.31c-1.518-3.31 3.696-6.6 5.133-7.575h.071c.605-.338 1.184-.72 1.732-1.145 2.428.152 6.392 1.028 7.865 3.148"/><path d="M17.596 13.87c2.348-2.772.392-3.362.276-5.223 0-.67-1.973 0-.892.895a2.25 2.25 0 011.012 1.882 2.257 2.257 0 01-1.012 1.883 27.04 27.04 0 01-2.223 2.02c-1.125.779-2.036 1.79-.813 3.015.33.33.634 0 .429-.18-1.598-1.591 2.383-3.335 3.223-4.328M21.229 17.886a2.346 2.346 0 00-1.84-2.495 2.237 2.237 0 00-1.678.519c-.25.313.224.286.599.411a2.865 2.865 0 012.053 2.46c.134.813.893 0 .893-.895M13.266 18.78c-.545-.5-3.205-1.788-2.884-1.484.322.304.893 1.332 1.214 1.565-.196 0 2.304 2.066 2.616 2.897.313.832-.393-2.459-.946-2.978zM21.282 24.664a2.487 2.487 0 00-1.839-.385c-.321 0-.893.224-.973.635-.08.411.536.304.723.43 1.143.688 1.143.688 1.393 1.359.25.67 1.196-1.682.696-2.04zM22.407 29.44A2.144 2.144 0 0123.55 31.4c-.045.894 1.866-2.03-.116-3.068a1.124 1.124 0 00-1.206.331.448.448 0 00.179.778zM19.417 30.712c.205-.126.554-.52.17-.698-.125-.054-.152-.08-.17-.277-.018-.197-.223-.224-.321-.224a1.24 1.24 0 00-.625.045c-.277.08.607 1.395.946 1.171"/><path d="M19.64 31.56c-1.205 0-2.321-1.79-2.535-2.952-.116-.644-.706 2.415-.25 3.023a2.68 2.68 0 002.107.992 1.383 1.383 0 001.125-.5c.24-.385-.188-.555-.447-.564z"/><path d="M36.95 32.667c.706 2.317 2.17 4.311 3.027 6.582.382 1.355.486 2.773.303 4.168-.16 1.958-1.133 3.094-2.981 3.345-2.679.348-5.41-.376-8.035-.698-2.624-.322-5.053-.152-7.57-.241a57.846 57.846 0 01-7.517-1.11c-2.58-.447-4.696-1.555-5.892-4.283-1.009-2.272-1.036-5.205-.803-7.655.107-1.073-.143-2.325 1.044-1.386 1.393 1.109 1.437 2.772 1.598 3.657.098.564 1.527.653 1.696.108 3.437 1.18 2.598 4.015 4.098 5.813 1 1.198 2.678 1.252 3.981 1.27a13.45 13.45 0 005.99-.895c1.286-.608 2.465-1.466 3.714-2.155a6.668 6.668 0 016.75.322c.58.34-2.679-2.594-4.929-2.218-.18.028-.359.067-.535.116 2.24-2.432 5.106-5.947 5.874-7.914.99-2.585.527-6.51.678-9.265a7.947 7.947 0 00-5.052-2.084.34.34 0 000-.16c0-2.979-.643-5.724-2.795-7.772-.99-.895-2.07-.895-2.82-2.245-.893-1.61-1.054-4.078-2.402-5.366C22.382.741 18.89.544 16.39.481a14.337 14.337 0 00-8.15 2.407C3.25 6.107 2.472 14.19 2.883 20.37c.286 4.471.259 9.64-1.348 13.969A21.316 21.316 0 000 38.66c-.25 1.609 2.679 5.186 2.59 4.4-.17-1.154-.527-2.228-.786-3.354-.447-1.87.598-3.631 1.294-5.232 1.134-2.611.955-5.75.75-8.567-.25-3.31-.893-6.869-.286-10.133.608-3.264.893-6.331 2.679-9.005a11.168 11.168 0 018.338-4.981c2.91-.358 7.08.125 9.168 2.682 1.196 1.431 1.437 4.168 3.196 4.928 1.562.689 2.616 1.413 3.142 3.273.45 1.828.66 3.707.625 5.59a.081.081 0 000 .044c-1.49.099-2.812.268-3.526.286-.893 0-2.607.796-1.446.787 2.035 0 5.285.117 7.311.242a7.684 7.684 0 012.91.822c.616.323.286 2.317.26 2.925a21.326 21.326 0 01-1.358 6.823c-.839 2.174-5.811 7.477-7.391 8.943a13.62 13.62 0 01-3.366 1.556c-2.535.716-5.874 1.386-7.472-1.234-1.25-2.039-2.92-4.257-5.106-5.026a1.014 1.014 0 00-.5 0c-.59-1.931-1.714-4.176-3.464-4.042-1.75.134-1.786 2.755-1.893 4.221-.143 3.372.5 6.976 2.893 9.211 2.17 2.04 5.517 1.941 8.141 2.504 4.071.895 8.25.287 12.347.787 2.937.367 6.338 1.27 9.284.367 2.393-.733 3.482-2.245 3.696-5.062.277-3.47-5.124-9.935-5.08-9.765"/><path d="M11.212 18.934s.643 1.788 1.491 1.654a.938.938 0 01-1.643.072c-.892-1.11-.508-1.297.152-1.726z"/></g><defs><clipPath id="aclip0_1370_4842"><path fill="#fff" d="M0 0h245v50H0z"/></clipPath></defs></svg>