<?xml version="1.0" encoding="utf-8"?><svg width="655" height="140" fill="none" xmlns="http://www.w3.org/2000/svg" viewBox="0 0 655 140"><g filter="url(#cfilter0_dd_1370_5266)" fill="#106FB8"><path d="M77.914 65.475H70.73l1.73-10.442h-6.785l-1.73 10.442h-6.784l1.73-10.442h-6.719l-1.73 10.442H43.06l-1.065 6.519h7.384l-.998 5.986h-7.317L40 84.432h7.25l-1.73 10.51h6.719l1.73-10.51h6.784l-1.73 10.51h6.785l1.73-10.51h7.316l1.064-6.452h-7.25l.998-5.986h7.184l1.064-6.519zM55.099 77.98l.998-5.986h6.784l-.997 5.986h-6.785zM119.899 51.707l-13.303 22.016-13.37-22.016h-9.445v46.56h9.18v-30.13l13.103 21.55h1.064l13.104-21.617v30.198h9.112V51.707h-9.445zM177.929 98.268l-16.362-46.561h-11.375l-16.296 46.56h9.911l2.794-8.38h18.557l2.794 8.38h9.977zm-22.016-35.985l6.385 19.023h-12.771l6.386-19.023zM218.568 51.707l-13.303 22.016-13.369-22.016h-9.446v46.56h9.18v-30.13l13.103 21.55h1.064l13.104-21.617v30.198h9.113V51.707h-9.446zM272.807 98.268V51.707h-6.984l-19.955 28.468V51.707h-9.179v46.56h6.984l19.955-28.401v28.402h9.179zM307.917 70.198h-17.294V51.707h-9.179v46.56h9.179V78.979h17.294v19.29h9.113V51.707h-9.113v18.491zM343.04 98.268c4.457 0 8.248-1.53 11.308-4.523 3.06-2.994 4.59-6.719 4.59-11.109s-1.53-8.114-4.59-11.108c-3.06-2.993-6.851-4.523-11.308-4.523h-8.181V51.707h-9.179v46.56h17.36zm29.267 0V51.707h-9.112v46.56h9.112zm-37.448-22.682h8.181c3.925 0 6.785 2.993 6.785 7.05 0 4.058-2.86 7.051-6.785 7.051h-8.181V75.586zM409.094 74.123c2.927-2.329 4.39-5.455 4.39-9.313 0-3.791-1.397-6.917-4.124-9.378-2.727-2.462-6.053-3.725-10.044-3.725h-18.358v46.56h19.755c4.057 0 7.516-1.263 10.31-3.79 2.793-2.528 4.19-5.788 4.19-9.712 0-4.723-2.062-8.314-6.119-10.642zm-9.778-13.836c2.927 0 4.989 2.195 4.989 5.122s-2.129 5.122-4.989 5.122h-9.179V60.287h9.179zm-9.179 29.4V78.712h10.576c3.126 0 5.388 2.328 5.388 5.454 0 3.193-2.262 5.521-5.388 5.521h-10.576zM461.14 98.268l-16.363-46.561h-11.374l-16.296 46.56h9.911l2.793-8.38h18.558l2.794 8.38h9.977zm-22.016-35.985l6.385 19.023h-12.771l6.386-19.023zM493.332 47.45V40h-19.29v7.45h19.29zm8.447 50.818V51.707h-6.984L474.84 80.175V51.707h-9.179v46.56h6.984L492.6 69.867v28.402h9.179zM519.595 69.333v-8.846h20.088v-8.78h-29.267v46.56h17.827c4.523 0 8.247-1.33 11.108-3.99 2.86-2.727 4.323-6.186 4.323-10.51 0-4.257-1.463-7.716-4.323-10.376-2.861-2.727-6.585-4.058-11.108-4.058h-8.648zm0 20.354V77.914h8.648c3.658 0 6.319 2.128 6.319 5.853 0 3.725-2.661 5.92-6.319 5.92h-8.648zM566.686 98.268c4.457 0 8.248-1.53 11.308-4.523 3.059-2.994 4.589-6.719 4.589-11.109s-1.53-8.114-4.589-11.108c-3.06-2.993-6.851-4.523-11.308-4.523h-8.181V51.707h-9.18v46.56h17.361zm29.267 0V51.707h-9.113v46.56h9.113zm-37.448-22.682h8.181c3.924 0 6.785 2.993 6.785 7.05 0 4.058-2.861 7.051-6.785 7.051h-8.181V75.586zM613.184 73.657c2.195-2.195 2.195-5.787 0-7.982-2.195-2.195-5.787-2.195-7.982 0-2.195 2.195-2.195 5.787 0 7.982 2.195 2.195 5.787 2.195 7.982 0zm0 23.813c2.195-2.195 2.195-5.787 0-7.982-2.195-2.195-5.787-2.195-7.982 0-2.195 2.195-2.195 5.787 0 7.981 2.195 2.196 5.787 2.196 7.982 0z"/></g><g filter="url(#cfilter1_f_1370_5266)"><mask id="ca" maskUnits="userSpaceOnUse" x="32.483" y="33.912" width="588" height="71" fill="#000"><path fill="#fff" d="M32.483 33.912h588v71h-588z"/><path d="M77.397 65.388h-7.184l1.73-10.443h-6.785l-1.73 10.443h-6.784l1.73-10.443h-6.719l-1.73 10.443h-7.382l-1.065 6.518h7.384l-.998 5.986h-7.317l-1.064 6.453h7.25l-1.73 10.509h6.719l1.73-10.51h6.784l-1.73 10.51h6.785l1.73-10.51h7.316l1.064-6.451h-7.25l.998-5.987h7.183l1.065-6.518zM54.582 77.892l.998-5.986h6.784l-.997 5.986h-6.785zM119.382 51.619l-13.303 22.016-13.37-22.016h-9.445v46.56h9.18V68.05l13.103 21.55h1.064l13.104-21.617V98.18h9.112V51.619h-9.445zM177.412 98.18l-16.363-46.561h-11.374l-16.296 46.56h9.911l2.793-8.38h18.558l2.794 8.38h9.977zm-22.016-35.985l6.385 19.023H149.01l6.386-19.023zM218.051 51.619l-13.303 22.016-13.369-22.016h-9.446v46.56h9.179V68.05l13.104 21.55h1.064l13.104-21.617V98.18h9.112V51.619h-9.445zM272.29 98.18V51.619h-6.984l-19.955 28.469v-28.47h-9.179V98.18h6.984l19.955-28.402V98.18h9.179zM307.4 70.11h-17.294V51.62h-9.179v46.56h9.179V78.89H307.4v19.29h9.113V51.619H307.4V70.11zM342.523 98.18c4.457 0 8.248-1.53 11.308-4.523 3.06-2.993 4.589-6.718 4.589-11.108 0-4.39-1.529-8.115-4.589-11.109-3.06-2.993-6.851-4.523-11.308-4.523h-8.181V51.62h-9.179v46.56h17.36zm29.267 0V51.619h-9.113v46.56h9.113zm-37.448-22.682h8.181c3.925 0 6.785 2.993 6.785 7.05 0 4.058-2.86 7.051-6.785 7.051h-8.181V75.498zM408.577 74.035c2.927-2.328 4.39-5.455 4.39-9.313 0-3.791-1.397-6.917-4.124-9.378-2.727-2.461-6.053-3.725-10.044-3.725h-18.358v46.56h19.755c4.057 0 7.516-1.263 10.31-3.79 2.793-2.528 4.19-5.787 4.19-9.712 0-4.723-2.062-8.314-6.119-10.642zm-9.778-13.836c2.927 0 4.989 2.195 4.989 5.122s-2.129 5.122-4.989 5.122h-9.179V60.199h9.179zm-9.179 29.4V78.624h10.576c3.126 0 5.388 2.328 5.388 5.455 0 3.192-2.262 5.52-5.388 5.52H389.62zM460.623 98.18L444.26 51.619h-11.374l-16.296 46.56h9.911l2.793-8.38h18.558l2.794 8.38h9.977zm-22.016-35.985l6.385 19.023h-12.771l6.386-19.023zM492.815 47.362v-7.45h-19.29v7.45h19.29zm8.447 50.818V51.619h-6.984l-19.955 28.469v-28.47h-9.179V98.18h6.984l19.955-28.402V98.18h9.179zM519.078 69.246v-8.847h20.088v-8.78h-29.267v46.56h17.826c4.524 0 8.248-1.33 11.109-3.99 2.86-2.727 4.323-6.186 4.323-10.51 0-4.257-1.463-7.715-4.323-10.376-2.861-2.727-6.585-4.057-11.109-4.057h-8.647zm0 20.353V77.826h8.647c3.659 0 6.319 2.129 6.319 5.853 0 3.725-2.66 5.92-6.319 5.92h-8.647zM566.169 98.18c4.456 0 8.248-1.53 11.308-4.523 3.059-2.993 4.589-6.718 4.589-11.108 0-4.39-1.53-8.115-4.589-11.109-3.06-2.993-6.852-4.523-11.308-4.523h-8.182V51.62h-9.179v46.56h17.361zm29.267 0V51.619h-9.113v46.56h9.113zm-37.449-22.682h8.182c3.924 0 6.784 2.993 6.784 7.05 0 4.058-2.86 7.051-6.784 7.051h-8.182V75.498zM612.667 73.569c2.195-2.195 2.195-5.787 0-7.982-2.195-2.195-5.787-2.195-7.982 0-2.195 2.195-2.195 5.787 0 7.982 2.195 2.195 5.787 2.195 7.982 0zm0 23.813c2.195-2.195 2.195-5.787 0-7.982-2.195-2.195-5.787-2.195-7.982 0-2.195 2.195-2.195 5.787 0 7.982 2.195 2.195 5.787 2.195 7.982 0z"/></mask><path d="M77.397 65.388h-7.184l1.73-10.443h-6.785l-1.73 10.443h-6.784l1.73-10.443h-6.719l-1.73 10.443h-7.382l-1.065 6.518h7.384l-.998 5.986h-7.317l-1.064 6.453h7.25l-1.73 10.509h6.719l1.73-10.51h6.784l-1.73 10.51h6.785l1.73-10.51h7.316l1.064-6.451h-7.25l.998-5.987h7.183l1.065-6.518zM54.582 77.892l.998-5.986h6.784l-.997 5.986h-6.785zM119.382 51.619l-13.303 22.016-13.37-22.016h-9.445v46.56h9.18V68.05l13.103 21.55h1.064l13.104-21.617V98.18h9.112V51.619h-9.445zM177.412 98.18l-16.363-46.561h-11.374l-16.296 46.56h9.911l2.793-8.38h18.558l2.794 8.38h9.977zm-22.016-35.985l6.385 19.023H149.01l6.386-19.023zM218.051 51.619l-13.303 22.016-13.369-22.016h-9.446v46.56h9.179V68.05l13.104 21.55h1.064l13.104-21.617V98.18h9.112V51.619h-9.445zM272.29 98.18V51.619h-6.984l-19.955 28.469v-28.47h-9.179V98.18h6.984l19.955-28.402V98.18h9.179zM307.4 70.11h-17.294V51.62h-9.179v46.56h9.179V78.89H307.4v19.29h9.113V51.619H307.4V70.11zM342.523 98.18c4.457 0 8.248-1.53 11.308-4.523 3.06-2.993 4.589-6.718 4.589-11.108 0-4.39-1.529-8.115-4.589-11.109-3.06-2.993-6.851-4.523-11.308-4.523h-8.181V51.62h-9.179v46.56h17.36zm29.267 0V51.619h-9.113v46.56h9.113zm-37.448-22.682h8.181c3.925 0 6.785 2.993 6.785 7.05 0 4.058-2.86 7.051-6.785 7.051h-8.181V75.498zM408.577 74.035c2.927-2.328 4.39-5.455 4.39-9.313 0-3.791-1.397-6.917-4.124-9.378-2.727-2.461-6.053-3.725-10.044-3.725h-18.358v46.56h19.755c4.057 0 7.516-1.263 10.31-3.79 2.793-2.528 4.19-5.787 4.19-9.712 0-4.723-2.062-8.314-6.119-10.642zm-9.778-13.836c2.927 0 4.989 2.195 4.989 5.122s-2.129 5.122-4.989 5.122h-9.179V60.199h9.179zm-9.179 29.4V78.624h10.576c3.126 0 5.388 2.328 5.388 5.455 0 3.192-2.262 5.52-5.388 5.52H389.62zM460.623 98.18L444.26 51.619h-11.374l-16.296 46.56h9.911l2.793-8.38h18.558l2.794 8.38h9.977zm-22.016-35.985l6.385 19.023h-12.771l6.386-19.023zM492.815 47.362v-7.45h-19.29v7.45h19.29zm8.447 50.818V51.619h-6.984l-19.955 28.469v-28.47h-9.179V98.18h6.984l19.955-28.402V98.18h9.179zM519.078 69.246v-8.847h20.088v-8.78h-29.267v46.56h17.826c4.524 0 8.248-1.33 11.109-3.99 2.86-2.727 4.323-6.186 4.323-10.51 0-4.257-1.463-7.715-4.323-10.376-2.861-2.727-6.585-4.057-11.109-4.057h-8.647zm0 20.353V77.826h8.647c3.659 0 6.319 2.129 6.319 5.853 0 3.725-2.66 5.92-6.319 5.92h-8.647zM566.169 98.18c4.456 0 8.248-1.53 11.308-4.523 3.059-2.993 4.589-6.718 4.589-11.108 0-4.39-1.53-8.115-4.589-11.109-3.06-2.993-6.852-4.523-11.308-4.523h-8.182V51.62h-9.179v46.56h17.361zm29.267 0V51.619h-9.113v46.56h9.113zm-37.449-22.682h8.182c3.924 0 6.784 2.993 6.784 7.05 0 4.058-2.86 7.051-6.784 7.051h-8.182V75.498zM612.667 73.569c2.195-2.195 2.195-5.787 0-7.982-2.195-2.195-5.787-2.195-7.982 0-2.195 2.195-2.195 5.787 0 7.982 2.195 2.195 5.787 2.195 7.982 0zm0 23.813c2.195-2.195 2.195-5.787 0-7.982-2.195-2.195-5.787-2.195-7.982 0-2.195 2.195-2.195 5.787 0 7.982 2.195 2.195 5.787 2.195 7.982 0z" stroke="#A8D8EE" stroke-width="10.566" mask="url(#ca)"/></g><g filter="url(#cfilter2_f_1370_5266)"><mask id="cb" maskUnits="userSpaceOnUse" x="35.483" y="36.912" width="582" height="65" fill="#000"><path fill="#fff" d="M35.483 36.912h582v65h-582z"/><path d="M77.397 65.388h-7.184l1.73-10.443h-6.785l-1.73 10.443h-6.784l1.73-10.443h-6.719l-1.73 10.443h-7.382l-1.065 6.518h7.384l-.998 5.986h-7.317l-1.064 6.453h7.25l-1.73 10.509h6.719l1.73-10.51h6.784l-1.73 10.51h6.785l1.73-10.51h7.316l1.064-6.451h-7.25l.998-5.987h7.183l1.065-6.518zM54.582 77.892l.998-5.986h6.784l-.997 5.986h-6.785zM119.382 51.619l-13.303 22.016-13.37-22.016h-9.445v46.56h9.18V68.05l13.103 21.55h1.064l13.104-21.617V98.18h9.112V51.619h-9.445zM177.412 98.18l-16.363-46.561h-11.374l-16.296 46.56h9.911l2.793-8.38h18.558l2.794 8.38h9.977zm-22.016-35.985l6.385 19.023H149.01l6.386-19.023zM218.051 51.619l-13.303 22.016-13.369-22.016h-9.446v46.56h9.179V68.05l13.104 21.55h1.064l13.104-21.617V98.18h9.112V51.619h-9.445zM272.29 98.18V51.619h-6.984l-19.955 28.469v-28.47h-9.179V98.18h6.984l19.955-28.402V98.18h9.179zM307.4 70.11h-17.294V51.62h-9.179v46.56h9.179V78.89H307.4v19.29h9.113V51.619H307.4V70.11zM342.523 98.18c4.457 0 8.248-1.53 11.308-4.523 3.06-2.993 4.589-6.718 4.589-11.108 0-4.39-1.529-8.115-4.589-11.109-3.06-2.993-6.851-4.523-11.308-4.523h-8.181V51.62h-9.179v46.56h17.36zm29.267 0V51.619h-9.113v46.56h9.113zm-37.448-22.682h8.181c3.925 0 6.785 2.993 6.785 7.05 0 4.058-2.86 7.051-6.785 7.051h-8.181V75.498zM408.577 74.035c2.927-2.328 4.39-5.455 4.39-9.313 0-3.791-1.397-6.917-4.124-9.378-2.727-2.461-6.053-3.725-10.044-3.725h-18.358v46.56h19.755c4.057 0 7.516-1.263 10.31-3.79 2.793-2.528 4.19-5.787 4.19-9.712 0-4.723-2.062-8.314-6.119-10.642zm-9.778-13.836c2.927 0 4.989 2.195 4.989 5.122s-2.129 5.122-4.989 5.122h-9.179V60.199h9.179zm-9.179 29.4V78.624h10.576c3.126 0 5.388 2.328 5.388 5.455 0 3.192-2.262 5.52-5.388 5.52H389.62zM460.623 98.18L444.26 51.619h-11.374l-16.296 46.56h9.911l2.793-8.38h18.558l2.794 8.38h9.977zm-22.016-35.985l6.385 19.023h-12.771l6.386-19.023zM492.815 47.362v-7.45h-19.29v7.45h19.29zm8.447 50.818V51.619h-6.984l-19.955 28.469v-28.47h-9.179V98.18h6.984l19.955-28.402V98.18h9.179zM519.078 69.246v-8.847h20.088v-8.78h-29.267v46.56h17.826c4.524 0 8.248-1.33 11.109-3.99 2.86-2.727 4.323-6.186 4.323-10.51 0-4.257-1.463-7.715-4.323-10.376-2.861-2.727-6.585-4.057-11.109-4.057h-8.647zm0 20.353V77.826h8.647c3.659 0 6.319 2.129 6.319 5.853 0 3.725-2.66 5.92-6.319 5.92h-8.647zM566.169 98.18c4.456 0 8.248-1.53 11.308-4.523 3.059-2.993 4.589-6.718 4.589-11.108 0-4.39-1.53-8.115-4.589-11.109-3.06-2.993-6.852-4.523-11.308-4.523h-8.182V51.62h-9.179v46.56h17.361zm29.267 0V51.619h-9.113v46.56h9.113zm-37.449-22.682h8.182c3.924 0 6.784 2.993 6.784 7.05 0 4.058-2.86 7.051-6.784 7.051h-8.182V75.498zM612.667 73.569c2.195-2.195 2.195-5.787 0-7.982-2.195-2.195-5.787-2.195-7.982 0-2.195 2.195-2.195 5.787 0 7.982 2.195 2.195 5.787 2.195 7.982 0zm0 23.813c2.195-2.195 2.195-5.787 0-7.982-2.195-2.195-5.787-2.195-7.982 0-2.195 2.195-2.195 5.787 0 7.982 2.195 2.195 5.787 2.195 7.982 0z"/></mask><path d="M77.397 65.388h-7.184l1.73-10.443h-6.785l-1.73 10.443h-6.784l1.73-10.443h-6.719l-1.73 10.443h-7.382l-1.065 6.518h7.384l-.998 5.986h-7.317l-1.064 6.453h7.25l-1.73 10.509h6.719l1.73-10.51h6.784l-1.73 10.51h6.785l1.73-10.51h7.316l1.064-6.451h-7.25l.998-5.987h7.183l1.065-6.518zM54.582 77.892l.998-5.986h6.784l-.997 5.986h-6.785zM119.382 51.619l-13.303 22.016-13.37-22.016h-9.445v46.56h9.18V68.05l13.103 21.55h1.064l13.104-21.617V98.18h9.112V51.619h-9.445zM177.412 98.18l-16.363-46.561h-11.374l-16.296 46.56h9.911l2.793-8.38h18.558l2.794 8.38h9.977zm-22.016-35.985l6.385 19.023H149.01l6.386-19.023zM218.051 51.619l-13.303 22.016-13.369-22.016h-9.446v46.56h9.179V68.05l13.104 21.55h1.064l13.104-21.617V98.18h9.112V51.619h-9.445zM272.29 98.18V51.619h-6.984l-19.955 28.469v-28.47h-9.179V98.18h6.984l19.955-28.402V98.18h9.179zM307.4 70.11h-17.294V51.62h-9.179v46.56h9.179V78.89H307.4v19.29h9.113V51.619H307.4V70.11zM342.523 98.18c4.457 0 8.248-1.53 11.308-4.523 3.06-2.993 4.589-6.718 4.589-11.108 0-4.39-1.529-8.115-4.589-11.109-3.06-2.993-6.851-4.523-11.308-4.523h-8.181V51.62h-9.179v46.56h17.36zm29.267 0V51.619h-9.113v46.56h9.113zm-37.448-22.682h8.181c3.925 0 6.785 2.993 6.785 7.05 0 4.058-2.86 7.051-6.785 7.051h-8.181V75.498zM408.577 74.035c2.927-2.328 4.39-5.455 4.39-9.313 0-3.791-1.397-6.917-4.124-9.378-2.727-2.461-6.053-3.725-10.044-3.725h-18.358v46.56h19.755c4.057 0 7.516-1.263 10.31-3.79 2.793-2.528 4.19-5.787 4.19-9.712 0-4.723-2.062-8.314-6.119-10.642zm-9.778-13.836c2.927 0 4.989 2.195 4.989 5.122s-2.129 5.122-4.989 5.122h-9.179V60.199h9.179zm-9.179 29.4V78.624h10.576c3.126 0 5.388 2.328 5.388 5.455 0 3.192-2.262 5.52-5.388 5.52H389.62zM460.623 98.18L444.26 51.619h-11.374l-16.296 46.56h9.911l2.793-8.38h18.558l2.794 8.38h9.977zm-22.016-35.985l6.385 19.023h-12.771l6.386-19.023zM492.815 47.362v-7.45h-19.29v7.45h19.29zm8.447 50.818V51.619h-6.984l-19.955 28.469v-28.47h-9.179V98.18h6.984l19.955-28.402V98.18h9.179zM519.078 69.246v-8.847h20.088v-8.78h-29.267v46.56h17.826c4.524 0 8.248-1.33 11.109-3.99 2.86-2.727 4.323-6.186 4.323-10.51 0-4.257-1.463-7.715-4.323-10.376-2.861-2.727-6.585-4.057-11.109-4.057h-8.647zm0 20.353V77.826h8.647c3.659 0 6.319 2.129 6.319 5.853 0 3.725-2.66 5.92-6.319 5.92h-8.647zM566.169 98.18c4.456 0 8.248-1.53 11.308-4.523 3.059-2.993 4.589-6.718 4.589-11.108 0-4.39-1.53-8.115-4.589-11.109-3.06-2.993-6.852-4.523-11.308-4.523h-8.182V51.62h-9.179v46.56h17.361zm29.267 0V51.619h-9.113v46.56h9.113zm-37.449-22.682h8.182c3.924 0 6.784 2.993 6.784 7.05 0 4.058-2.86 7.051-6.784 7.051h-8.182V75.498zM612.667 73.569c2.195-2.195 2.195-5.787 0-7.982-2.195-2.195-5.787-2.195-7.982 0-2.195 2.195-2.195 5.787 0 7.982 2.195 2.195 5.787 2.195 7.982 0zm0 23.813c2.195-2.195 2.195-5.787 0-7.982-2.195-2.195-5.787-2.195-7.982 0-2.195 2.195-2.195 5.787 0 7.982 2.195 2.195 5.787 2.195 7.982 0z" stroke="#fff" stroke-width="5.283" mask="url(#cb)"/></g><defs><filter id="cfilter0_dd_1370_5266" x="0" y="0" width="654.83" height="139.115" filterUnits="userSpaceOnUse" color-interpolation-filters="sRGB"><feFlood flood-opacity="0" result="BackgroundImageFix"/><feColorMatrix in="SourceAlpha" values="0 0 0 0 0 0 0 0 0 0 0 0 0 0 0 0 0 0 127 0" result="hardAlpha"/><feOffset/><feGaussianBlur stdDeviation="20"/><feComposite in2="hardAlpha" operator="out"/><feColorMatrix values="0 0 0 0 0.998917 0 0 0 0 1 0 0 0 0 0.945833 0 0 0 1 0"/><feBlend in2="BackgroundImageFix" result="effect1_dropShadow_1370_5266"/><feColorMatrix in="SourceAlpha" values="0 0 0 0 0 0 0 0 0 0 0 0 0 0 0 0 0 0 127 0" result="hardAlpha"/><feOffset/><feGaussianBlur stdDeviation="7.5"/><feComposite in2="hardAlpha" operator="out"/><feColorMatrix values="0 0 0 0 0.592157 0 0 0 0 0.827451 0 0 0 0 0.988235 0 0 0 1 0"/><feBlend in2="effect1_dropShadow_1370_5266" result="effect2_dropShadow_1370_5266"/><feBlend in="SourceGraphic" in2="effect2_dropShadow_1370_5266" result="shape"/></filter><filter id="cfilter1_f_1370_5266" x="27.257" y="28.629" width="598.339" height="81.682" filterUnits="userSpaceOnUse" color-interpolation-filters="sRGB"><feFlood flood-opacity="0" result="BackgroundImageFix"/><feBlend in="SourceGraphic" in2="BackgroundImageFix" result="shape"/><feGaussianBlur stdDeviation="3" result="effect1_foregroundBlur_1370_5266"/></filter><filter id="cfilter2_f_1370_5266" x="35.49" y="36.391" width="582.345" height="66.159" filterUnits="userSpaceOnUse" color-interpolation-filters="sRGB"><feFlood flood-opacity="0" result="BackgroundImageFix"/><feBlend in="SourceGraphic" in2="BackgroundImageFix" result="shape"/><feGaussianBlur stdDeviation=".44" result="effect1_foregroundBlur_1370_5266"/></filter></defs></svg>