<?xml version="1.0" encoding="utf-8"?><svg width="654" height="112" fill="none" xmlns="http://www.w3.org/2000/svg" viewBox="0 0 654 112"><g filter="url(#dfilter0_d_1370_5297)"><path d="M42.784 48.014v9.643c0 2.615-.984 3.667-2.784 3.226v4.109c4.788.509 7.164-1.834 7.164-7.097v-5.67h4.686v12.767h4.38V48.014H42.784z" fill="#fff"/><path d="M42.784 48.014v9.643c0 2.615-.984 3.667-2.784 3.226v4.109c4.788.509 7.164-1.834 7.164-7.097v-5.67h4.686v12.767h4.38V48.014H42.784z" fill="url(#dpaint0_linear_1370_5297)"/><path d="M65.157 57.657v-9.643h-4.278v16.978h3.26l7.979-9.644v9.644h4.278V48.014h-3.26l-7.979 9.643z" fill="#fff"/><path d="M65.157 57.657v-9.643h-4.278v16.978h3.26l7.979-9.644v9.644h4.278V48.014h-3.26l-7.979 9.643z" fill="url(#dpaint1_linear_1370_5297)"/><path d="M89.17 65.467c3.293 0 6.18-1.732 7.673-4.414L93.04 58.88c-.679 1.392-2.139 2.24-3.904 2.24-1.325 0-2.411-.44-3.26-1.29-.849-.882-1.29-2.003-1.29-3.327 0-2.717 1.935-4.652 4.55-4.652 1.731 0 3.191.883 3.87 2.275l3.77-2.207c-1.393-2.682-4.313-4.38-7.606-4.38-2.547 0-4.686.849-6.418 2.58-1.698 1.732-2.546 3.837-2.546 6.384s.848 4.652 2.546 6.383c1.732 1.732 3.871 2.58 6.418 2.58z" fill="#fff"/><path d="M89.17 65.467c3.293 0 6.18-1.732 7.673-4.414L93.04 58.88c-.679 1.392-2.139 2.24-3.904 2.24-1.325 0-2.411-.44-3.26-1.29-.849-.882-1.29-2.003-1.29-3.327 0-2.717 1.935-4.652 4.55-4.652 1.731 0 3.191.883 3.87 2.275l3.77-2.207c-1.393-2.682-4.313-4.38-7.606-4.38-2.547 0-4.686.849-6.418 2.58-1.698 1.732-2.546 3.837-2.546 6.384s.848 4.652 2.546 6.383c1.732 1.732 3.871 2.58 6.418 2.58z" fill="url(#dpaint2_linear_1370_5297)"/><path d="M98.076 48.014v4.21h5.365v12.768h4.38V52.225h5.297v-4.21H98.076z" fill="#fff"/><path d="M98.076 48.014v4.21h5.365v12.768h4.38V52.225h5.297v-4.21H98.076z" fill="url(#dpaint3_linear_1370_5297)"/><path d="M128.376 50.017c-1.325-1.663-3.158-2.478-5.535-2.478-2.275 0-4.21.883-5.84 2.614-1.596 1.732-2.411 3.837-2.411 6.35 0 2.513.815 4.652 2.411 6.383 1.63 1.732 3.565 2.58 5.84 2.58 2.377 0 4.21-.814 5.535-2.478v2.004h4.38V48.014h-4.38v2.003zm-8.082 9.95c-.882-.917-1.324-2.072-1.324-3.464s.442-2.547 1.324-3.43c.883-.916 2.004-1.358 3.362-1.358s2.479.442 3.361 1.358c.917.883 1.359 2.038 1.359 3.43 0 1.392-.442 2.547-1.359 3.463-.882.883-2.003 1.325-3.361 1.325s-2.479-.442-3.362-1.325z" fill="#fff"/><path d="M128.376 50.017c-1.325-1.663-3.158-2.478-5.535-2.478-2.275 0-4.21.883-5.84 2.614-1.596 1.732-2.411 3.837-2.411 6.35 0 2.513.815 4.652 2.411 6.383 1.63 1.732 3.565 2.58 5.84 2.58 2.377 0 4.21-.814 5.535-2.478v2.004h4.38V48.014h-4.38v2.003zm-8.082 9.95c-.882-.917-1.324-2.072-1.324-3.464s.442-2.547 1.324-3.43c.883-.916 2.004-1.358 3.362-1.358s2.479.442 3.361 1.358c.917.883 1.359 2.038 1.359 3.43 0 1.392-.442 2.547-1.359 3.463-.882.883-2.003 1.325-3.361 1.325s-2.479-.442-3.362-1.325z" fill="url(#dpaint4_linear_1370_5297)"/><path d="M150.106 45.841v-3.803h-9.847v3.803h9.847zm-8.421 11.816v-9.643h-4.278v16.978h3.259l7.98-9.644v9.644h4.278V48.014h-3.26l-7.979 9.643z" fill="#fff"/><path d="M150.106 45.841v-3.803h-9.847v3.803h9.847zm-8.421 11.816v-9.643h-4.278v16.978h3.259l7.98-9.644v9.644h4.278V48.014h-3.26l-7.979 9.643z" fill="url(#dpaint5_linear_1370_5297)"/><path d="M179.008 56.3c1.12-.85 1.664-2.004 1.664-3.498 0-2.852-2.072-4.788-5.637-4.788h-8.251v16.978h8.93c3.633 0 5.671-1.97 5.671-4.822 0-1.8-.781-3.09-2.377-3.87zm-4.38-4.687c1.256 0 1.867.51 1.867 1.528 0 1.019-.611 1.528-1.867 1.528h-3.735v-3.056h3.735zm-3.735 9.678v-3.158h4.312c1.188 0 1.901.577 1.901 1.528 0 1.086-.645 1.63-1.901 1.63h-4.312z" fill="#fff"/><path d="M179.008 56.3c1.12-.85 1.664-2.004 1.664-3.498 0-2.852-2.072-4.788-5.637-4.788h-8.251v16.978h8.93c3.633 0 5.671-1.97 5.671-4.822 0-1.8-.781-3.09-2.377-3.87zm-4.38-4.687c1.256 0 1.867.51 1.867 1.528 0 1.019-.611 1.528-1.867 1.528h-3.735v-3.056h3.735zm-3.735 9.678v-3.158h4.312c1.188 0 1.901.577 1.901 1.528 0 1.086-.645 1.63-1.901 1.63h-4.312z" fill="url(#dpaint6_linear_1370_5297)"/><path d="M197.708 50.017c-1.324-1.663-3.158-2.478-5.534-2.478-2.275 0-4.211.883-5.841 2.614-1.596 1.732-2.41 3.837-2.41 6.35 0 2.513.814 4.652 2.41 6.383 1.63 1.732 3.566 2.58 5.841 2.58 2.376 0 4.21-.814 5.534-2.478v2.004h4.38V48.014h-4.38v2.003zm-8.081 9.95c-.883-.917-1.324-2.072-1.324-3.464s.441-2.547 1.324-3.43c.883-.916 2.003-1.358 3.361-1.358 1.359 0 2.479.442 3.362 1.358.917.883 1.358 2.038 1.358 3.43 0 1.392-.441 2.547-1.358 3.463-.883.883-2.003 1.325-3.362 1.325-1.358 0-2.478-.442-3.361-1.325z" fill="#fff"/><path d="M197.708 50.017c-1.324-1.663-3.158-2.478-5.534-2.478-2.275 0-4.211.883-5.841 2.614-1.596 1.732-2.41 3.837-2.41 6.35 0 2.513.814 4.652 2.41 6.383 1.63 1.732 3.566 2.58 5.841 2.58 2.376 0 4.21-.814 5.534-2.478v2.004h4.38V48.014h-4.38v2.003zm-8.081 9.95c-.883-.917-1.324-2.072-1.324-3.464s.441-2.547 1.324-3.43c.883-.916 2.003-1.358 3.361-1.358 1.359 0 2.479.442 3.362 1.358.917.883 1.358 2.038 1.358 3.43 0 1.392-.441 2.547-1.358 3.463-.883.883-2.003 1.325-3.362 1.325-1.358 0-2.478-.442-3.361-1.325z" fill="url(#dpaint7_linear_1370_5297)"/><path d="M219.438 45.841v-3.803h-9.846v3.803h9.846zm-8.42 11.816v-9.643h-4.279v16.978h3.26l7.979-9.644v9.644h4.279V48.014h-3.26l-7.979 9.643z" fill="#fff"/><path d="M219.438 45.841v-3.803h-9.846v3.803h9.846zm-8.42 11.816v-9.643h-4.279v16.978h3.26l7.979-9.644v9.644h4.279V48.014h-3.26l-7.979 9.643z" fill="url(#dpaint8_linear_1370_5297)"/><path d="M234.996 65.467c2.547 0 4.618-.747 6.18-2.241 1.596-1.494 2.377-3.396 2.377-5.738 0-2.275-.747-4.075-2.207-5.433-1.46-1.392-3.158-2.071-5.026-2.071-2.139 0-3.836.645-5.093 1.935.578-1.596 1.698-2.614 4.584-3.735 2.071-.781 3.599-1.562 4.618-2.309 1.053-.78 1.698-1.834 2.003-3.226l-3.599-2.07c-.577 1.323-.917 1.934-2.139 2.681-.441.272-.815.476-1.087.612l-1.426.713c-.713.305-1.256.577-1.629.747-2.615 1.29-4.347 2.716-5.196 4.312-.848 1.562-1.29 3.803-1.29 6.69 0 2.648.815 4.82 2.445 6.552 1.664 1.732 3.803 2.58 6.485 2.58zm-.068-11.986c2.479 0 4.245 1.698 4.245 4.007 0 1.154-.408 2.105-1.189 2.852-.781.747-1.799 1.12-3.022 1.12-1.222 0-2.241-.373-3.09-1.154-.814-.781-1.222-1.766-1.222-2.954 0-1.189.441-2.105 1.29-2.819a4.594 4.594 0 012.988-1.052z" fill="#fff"/><path d="M234.996 65.467c2.547 0 4.618-.747 6.18-2.241 1.596-1.494 2.377-3.396 2.377-5.738 0-2.275-.747-4.075-2.207-5.433-1.46-1.392-3.158-2.071-5.026-2.071-2.139 0-3.836.645-5.093 1.935.578-1.596 1.698-2.614 4.584-3.735 2.071-.781 3.599-1.562 4.618-2.309 1.053-.78 1.698-1.834 2.003-3.226l-3.599-2.07c-.577 1.323-.917 1.934-2.139 2.681-.441.272-.815.476-1.087.612l-1.426.713c-.713.305-1.256.577-1.629.747-2.615 1.29-4.347 2.716-5.196 4.312-.848 1.562-1.29 3.803-1.29 6.69 0 2.648.815 4.82 2.445 6.552 1.664 1.732 3.803 2.58 6.485 2.58zm-.068-11.986c2.479 0 4.245 1.698 4.245 4.007 0 1.154-.408 2.105-1.189 2.852-.781.747-1.799 1.12-3.022 1.12-1.222 0-2.241-.373-3.09-1.154-.814-.781-1.222-1.766-1.222-2.954 0-1.189.441-2.105 1.29-2.819a4.594 4.594 0 012.988-1.052z" fill="url(#dpaint9_linear_1370_5297)"/><path d="M251.274 53.447v-5.433h-4.381v16.978h7.674c3.837 0 6.418-2.275 6.418-5.773 0-3.497-2.581-5.772-6.418-5.772h-3.293zm11.578 11.545h4.38V48.014h-4.38v16.978zm-11.578-3.871v-3.837h3.327c1.222 0 2.105.815 2.105 1.935s-.883 1.902-2.105 1.902h-3.327z" fill="#fff"/><path d="M251.274 53.447v-5.433h-4.381v16.978h7.674c3.837 0 6.418-2.275 6.418-5.773 0-3.497-2.581-5.772-6.418-5.772h-3.293zm11.578 11.545h4.38V48.014h-4.38v16.978zm-11.578-3.871v-3.837h3.327c1.222 0 2.105.815 2.105 1.935s-.883 1.902-2.105 1.902h-3.327z" fill="url(#dpaint10_linear_1370_5297)"/><path d="M285.357 57.657v-9.643h-4.278v16.978h3.26l7.979-9.644v9.644h4.278V48.014h-3.259l-7.98 9.643z" fill="#fff"/><path d="M285.357 57.657v-9.643h-4.278v16.978h3.26l7.979-9.644v9.644h4.278V48.014h-3.259l-7.98 9.643z" fill="url(#dpaint11_linear_1370_5297)"/><path d="M322.68 56.3c1.121-.85 1.664-2.004 1.664-3.498 0-2.852-2.071-4.788-5.637-4.788h-8.251v16.978h8.93c3.634 0 5.671-1.97 5.671-4.822 0-1.8-.781-3.09-2.377-3.87zm-4.38-4.687c1.256 0 1.867.51 1.867 1.528 0 1.019-.611 1.528-1.867 1.528h-3.735v-3.056h3.735zm-3.735 9.678v-3.158h4.312c1.188 0 1.902.577 1.902 1.528 0 1.086-.646 1.63-1.902 1.63h-4.312z" fill="#fff"/><path d="M322.68 56.3c1.121-.85 1.664-2.004 1.664-3.498 0-2.852-2.071-4.788-5.637-4.788h-8.251v16.978h8.93c3.634 0 5.671-1.97 5.671-4.822 0-1.8-.781-3.09-2.377-3.87zm-4.38-4.687c1.256 0 1.867.51 1.867 1.528 0 1.019-.611 1.528-1.867 1.528h-3.735v-3.056h3.735zm-3.735 9.678v-3.158h4.312c1.188 0 1.902.577 1.902 1.528 0 1.086-.646 1.63-1.902 1.63h-4.312z" fill="url(#dpaint12_linear_1370_5297)"/><path d="M332.858 53.447v-5.433h-4.38v16.978h7.673c3.837 0 6.418-2.275 6.418-5.773 0-3.497-2.581-5.772-6.418-5.772h-3.293zm11.578 11.545h4.38V48.014h-4.38v16.978zm-11.578-3.871v-3.837h3.327c1.223 0 2.105.815 2.105 1.935s-.882 1.902-2.105 1.902h-3.327z" fill="#fff"/><path d="M332.858 53.447v-5.433h-4.38v16.978h7.673c3.837 0 6.418-2.275 6.418-5.773 0-3.497-2.581-5.772-6.418-5.772h-3.293zm11.578 11.545h4.38V48.014h-4.38v16.978zm-11.578-3.871v-3.837h3.327c1.223 0 2.105.815 2.105 1.935s-.882 1.902-2.105 1.902h-3.327z" fill="url(#dpaint13_linear_1370_5297)"/><path d="M357.773 57.657v-9.643h-4.278v16.978h3.26l7.979-9.644v9.644h4.279V48.014h-3.26l-7.98 9.643z" fill="#fff"/><path d="M357.773 57.657v-9.643h-4.278v16.978h3.26l7.979-9.644v9.644h4.279V48.014h-3.26l-7.98 9.643z" fill="url(#dpaint14_linear_1370_5297)"/><path d="M373.705 48.014v16.978h4.38V52.225h7.232v-4.21h-11.612z" fill="#fff"/><path d="M373.705 48.014v16.978h4.38V52.225h7.232v-4.21h-11.612z" fill="url(#dpaint15_linear_1370_5297)"/><path d="M398.225 47.539c-2.377 0-4.211.815-5.501 2.478v-2.003h-4.38v23.768h4.38v-8.794c1.29 1.664 3.124 2.479 5.501 2.479 2.275 0 4.244-.849 5.84-2.58 1.63-1.732 2.445-3.871 2.445-6.384 0-2.513-.815-4.618-2.445-6.35-1.596-1.731-3.565-2.614-5.84-2.614zm-4.177 12.427c-.883-.916-1.324-2.071-1.324-3.463s.441-2.547 1.324-3.43c.883-.916 2.004-1.358 3.362-1.358s2.478.442 3.361 1.358c.917.883 1.359 2.038 1.359 3.43 0 1.392-.442 2.547-1.359 3.463-.883.883-2.003 1.325-3.361 1.325s-2.479-.442-3.362-1.325z" fill="#fff"/><path d="M398.225 47.539c-2.377 0-4.211.815-5.501 2.478v-2.003h-4.38v23.768h4.38v-8.794c1.29 1.664 3.124 2.479 5.501 2.479 2.275 0 4.244-.849 5.84-2.58 1.63-1.732 2.445-3.871 2.445-6.384 0-2.513-.815-4.618-2.445-6.35-1.596-1.731-3.565-2.614-5.84-2.614zm-4.177 12.427c-.883-.916-1.324-2.071-1.324-3.463s.441-2.547 1.324-3.43c.883-.916 2.004-1.358 3.362-1.358s2.478.442 3.361 1.358c.917.883 1.359 2.038 1.359 3.43 0 1.392-.442 2.547-1.359 3.463-.883.883-2.003 1.325-3.361 1.325s-2.479-.442-3.362-1.325z" fill="url(#dpaint16_linear_1370_5297)"/><path d="M414.658 53.447v-5.433h-4.38v16.978h7.674c3.836 0 6.417-2.275 6.417-5.773 0-3.497-2.581-5.772-6.417-5.772h-3.294zm11.579 11.545h4.38V48.014h-4.38v16.978zm-11.579-3.871v-3.837h3.328c1.222 0 2.105.815 2.105 1.935s-.883 1.902-2.105 1.902h-3.328z" fill="#fff"/><path d="M414.658 53.447v-5.433h-4.38v16.978h7.674c3.836 0 6.417-2.275 6.417-5.773 0-3.497-2.581-5.772-6.417-5.772h-3.294zm11.579 11.545h4.38V48.014h-4.38v16.978zm-11.579-3.871v-3.837h3.328c1.222 0 2.105.815 2.105 1.935s-.883 1.902-2.105 1.902h-3.328z" fill="url(#dpaint17_linear_1370_5297)"/><path d="M447.519 56.3c1.121-.85 1.664-2.004 1.664-3.498 0-2.852-2.071-4.788-5.636-4.788h-8.251v16.978h8.93c3.633 0 5.67-1.97 5.67-4.822 0-1.8-.781-3.09-2.377-3.87zm-4.38-4.687c1.256 0 1.868.51 1.868 1.528 0 1.019-.612 1.528-1.868 1.528h-3.735v-3.056h3.735zm-3.735 9.678v-3.158h4.312c1.189 0 1.902.577 1.902 1.528 0 1.086-.645 1.63-1.902 1.63h-4.312z" fill="#fff"/><path d="M447.519 56.3c1.121-.85 1.664-2.004 1.664-3.498 0-2.852-2.071-4.788-5.636-4.788h-8.251v16.978h8.93c3.633 0 5.67-1.97 5.67-4.822 0-1.8-.781-3.09-2.377-3.87zm-4.38-4.687c1.256 0 1.868.51 1.868 1.528 0 1.019-.612 1.528-1.868 1.528h-3.735v-3.056h3.735zm-3.735 9.678v-3.158h4.312c1.189 0 1.902.577 1.902 1.528 0 1.086-.645 1.63-1.902 1.63h-4.312z" fill="url(#dpaint18_linear_1370_5297)"/><path d="M466.22 50.017c-1.325-1.663-3.158-2.478-5.535-2.478-2.275 0-4.211.883-5.84 2.614-1.596 1.732-2.411 3.837-2.411 6.35 0 2.513.815 4.652 2.411 6.383 1.629 1.732 3.565 2.58 5.84 2.58 2.377 0 4.21-.814 5.535-2.478v2.004h4.38V48.014h-4.38v2.003zm-8.082 9.95c-.883-.917-1.324-2.072-1.324-3.464s.441-2.547 1.324-3.43c.883-.916 2.004-1.358 3.362-1.358s2.478.442 3.361 1.358c.917.883 1.359 2.038 1.359 3.43 0 1.392-.442 2.547-1.359 3.463-.883.883-2.003 1.325-3.361 1.325s-2.479-.442-3.362-1.325z" fill="#fff"/><path d="M466.22 50.017c-1.325-1.663-3.158-2.478-5.535-2.478-2.275 0-4.211.883-5.84 2.614-1.596 1.732-2.411 3.837-2.411 6.35 0 2.513.815 4.652 2.411 6.383 1.629 1.732 3.565 2.58 5.84 2.58 2.377 0 4.21-.814 5.535-2.478v2.004h4.38V48.014h-4.38v2.003zm-8.082 9.95c-.883-.917-1.324-2.072-1.324-3.464s.441-2.547 1.324-3.43c.883-.916 2.004-1.358 3.362-1.358s2.478.442 3.361 1.358c.917.883 1.359 2.038 1.359 3.43 0 1.392-.442 2.547-1.359 3.463-.883.883-2.003 1.325-3.361 1.325s-2.479-.442-3.362-1.325z" fill="url(#dpaint19_linear_1370_5297)"/><path d="M487.95 45.841v-3.803h-9.847v3.803h9.847zm-8.421 11.816v-9.643h-4.278v16.978h3.259l7.98-9.644v9.644h4.278V48.014h-3.26l-7.979 9.643z" fill="#fff"/><path d="M487.95 45.841v-3.803h-9.847v3.803h9.847zm-8.421 11.816v-9.643h-4.278v16.978h3.259l7.98-9.644v9.644h4.278V48.014h-3.26l-7.979 9.643z" fill="url(#dpaint20_linear_1370_5297)"/><path d="M504.628 48.014v16.978h4.38v-12.87h6.757v12.87h4.38V48.014h-15.517z" fill="#fff"/><path d="M504.628 48.014v16.978h4.38v-12.87h6.757v12.87h4.38V48.014h-15.517z" fill="url(#dpaint21_linear_1370_5297)"/><path d="M534.719 47.539c-2.377 0-4.211.815-5.501 2.478v-2.003h-4.38v23.768h4.38v-8.794c1.29 1.664 3.124 2.479 5.501 2.479 2.275 0 4.244-.849 5.84-2.58 1.63-1.732 2.445-3.871 2.445-6.384 0-2.513-.815-4.618-2.445-6.35-1.596-1.731-3.565-2.614-5.84-2.614zm-4.177 12.427c-.883-.916-1.324-2.071-1.324-3.463s.441-2.547 1.324-3.43c.883-.916 2.004-1.358 3.362-1.358s2.478.442 3.361 1.358c.917.883 1.358 2.038 1.358 3.43 0 1.392-.441 2.547-1.358 3.463-.883.883-2.003 1.325-3.361 1.325s-2.479-.442-3.362-1.325z" fill="#fff"/><path d="M534.719 47.539c-2.377 0-4.211.815-5.501 2.478v-2.003h-4.38v23.768h4.38v-8.794c1.29 1.664 3.124 2.479 5.501 2.479 2.275 0 4.244-.849 5.84-2.58 1.63-1.732 2.445-3.871 2.445-6.384 0-2.513-.815-4.618-2.445-6.35-1.596-1.731-3.565-2.614-5.84-2.614zm-4.177 12.427c-.883-.916-1.324-2.071-1.324-3.463s.441-2.547 1.324-3.43c.883-.916 2.004-1.358 3.362-1.358s2.478.442 3.361 1.358c.917.883 1.358 2.038 1.358 3.43 0 1.392-.441 2.547-1.358 3.463-.883.883-2.003 1.325-3.361 1.325s-2.479-.442-3.362-1.325z" fill="url(#dpaint22_linear_1370_5297)"/><path d="M551.05 57.657v-9.643h-4.278v16.978h3.259l7.98-9.644v9.644h4.278V48.014h-3.26l-7.979 9.643z" fill="#fff"/><path d="M551.05 57.657v-9.643h-4.278v16.978h3.259l7.98-9.644v9.644h4.278V48.014h-3.26l-7.979 9.643z" fill="url(#dpaint23_linear_1370_5297)"/><path d="M576.93 56.333c1.256-.849 1.868-2.071 1.868-3.735 0-1.392-.578-2.58-1.732-3.565-1.121-.985-2.682-1.494-4.618-1.494-3.124 0-5.331 1.29-6.621 3.905l3.531 2.037c.645-1.426 1.698-2.14 3.158-2.14 1.256 0 2.105.646 2.105 1.63 0 1.053-.645 1.563-1.969 1.563h-1.834v3.735h2.411c1.324 0 2.003.509 2.003 1.561 0 1.087-.916 1.766-2.546 1.766-1.8 0-2.954-.78-3.498-2.309l-3.565 2.105c1.257 2.717 3.599 4.075 7.029 4.075 4.346 0 6.859-2.207 6.859-5.093 0-1.868-.849-3.192-2.581-4.04z" fill="#fff"/><path d="M576.93 56.333c1.256-.849 1.868-2.071 1.868-3.735 0-1.392-.578-2.58-1.732-3.565-1.121-.985-2.682-1.494-4.618-1.494-3.124 0-5.331 1.29-6.621 3.905l3.531 2.037c.645-1.426 1.698-2.14 3.158-2.14 1.256 0 2.105.646 2.105 1.63 0 1.053-.645 1.563-1.969 1.563h-1.834v3.735h2.411c1.324 0 2.003.509 2.003 1.561 0 1.087-.916 1.766-2.546 1.766-1.8 0-2.954-.78-3.498-2.309l-3.565 2.105c1.257 2.717 3.599 4.075 7.029 4.075 4.346 0 6.859-2.207 6.859-5.093 0-1.868-.849-3.192-2.581-4.04z" fill="url(#dpaint24_linear_1370_5297)"/><path d="M587.327 53.447v-5.433h-4.38v16.978h7.674c3.836 0 6.417-2.275 6.417-5.773 0-3.497-2.581-5.772-6.417-5.772h-3.294zm11.578 11.545h4.381V48.014h-4.381v16.978zm-11.578-3.871v-3.837h3.327c1.223 0 2.106.815 2.106 1.935s-.883 1.902-2.106 1.902h-3.327z" fill="#fff"/><path d="M587.327 53.447v-5.433h-4.38v16.978h7.674c3.836 0 6.417-2.275 6.417-5.773 0-3.497-2.581-5.772-6.417-5.772h-3.294zm11.578 11.545h4.381V48.014h-4.381v16.978zm-11.578-3.871v-3.837h3.327c1.223 0 2.106.815 2.106 1.935s-.883 1.902-2.106 1.902h-3.327z" fill="url(#dpaint25_linear_1370_5297)"/><path d="M612.243 57.012l.883-8.998v-6.79h-5.263v6.79l.916 8.998h3.464zm.305 7.572a2.889 2.889 0 000-4.075 2.889 2.889 0 00-4.074 0 2.889 2.889 0 000 4.075 2.889 2.889 0 004.074 0z" fill="#fff"/><path d="M612.243 57.012l.883-8.998v-6.79h-5.263v6.79l.916 8.998h3.464zm.305 7.572a2.889 2.889 0 000-4.075 2.889 2.889 0 00-4.074 0 2.889 2.889 0 000 4.075 2.889 2.889 0 004.074 0z" fill="url(#dpaint26_linear_1370_5297)"/></g><g filter="url(#dfilter1_f_1370_5297)"><mask id="da" maskUnits="userSpaceOnUse" x="37" y="35.578" width="580" height="40" fill="#000"><path fill="#fff" d="M37 35.578h580v40H37z"/><path d="M42.784 48.014v9.643c0 2.615-.984 3.667-2.784 3.226v4.109c4.788.509 7.164-1.834 7.164-7.097v-5.67h4.686v12.767h4.38V48.014H42.784zM65.157 57.657v-9.643h-4.278v16.978h3.26l7.979-9.644v9.644h4.278V48.014h-3.26l-7.979 9.643zM89.17 65.467c3.293 0 6.18-1.732 7.673-4.414L93.04 58.88c-.679 1.392-2.139 2.24-3.904 2.24-1.325 0-2.411-.44-3.26-1.29-.849-.882-1.29-2.003-1.29-3.327 0-2.717 1.935-4.652 4.55-4.652 1.731 0 3.191.883 3.87 2.275l3.77-2.207c-1.393-2.682-4.313-4.38-7.606-4.38-2.547 0-4.686.849-6.418 2.58-1.698 1.732-2.546 3.837-2.546 6.384s.848 4.652 2.546 6.383c1.732 1.732 3.871 2.58 6.418 2.58zM98.076 48.014v4.21h5.365v12.768h4.38V52.225h5.297v-4.21H98.076zM128.376 50.017c-1.325-1.663-3.158-2.478-5.535-2.478-2.275 0-4.21.883-5.84 2.614-1.596 1.732-2.411 3.837-2.411 6.35 0 2.513.815 4.652 2.411 6.383 1.63 1.732 3.565 2.58 5.84 2.58 2.377 0 4.21-.814 5.535-2.478v2.004h4.38V48.014h-4.38v2.003zm-8.082 9.95c-.882-.917-1.324-2.072-1.324-3.464s.442-2.547 1.324-3.43c.883-.916 2.004-1.358 3.362-1.358s2.479.442 3.361 1.358c.917.883 1.359 2.038 1.359 3.43 0 1.392-.442 2.547-1.359 3.463-.882.883-2.003 1.325-3.361 1.325s-2.479-.442-3.362-1.325zM150.106 45.841v-3.803h-9.847v3.803h9.847zm-8.421 11.816v-9.643h-4.278v16.978h3.259l7.98-9.644v9.644h4.278V48.014h-3.26l-7.979 9.643zM179.008 56.3c1.12-.85 1.664-2.004 1.664-3.498 0-2.852-2.072-4.788-5.637-4.788h-8.251v16.978h8.93c3.633 0 5.671-1.97 5.671-4.822 0-1.8-.781-3.09-2.377-3.87zm-4.38-4.687c1.256 0 1.867.51 1.867 1.528 0 1.019-.611 1.528-1.867 1.528h-3.735v-3.056h3.735zm-3.735 9.678v-3.158h4.312c1.188 0 1.901.577 1.901 1.528 0 1.086-.645 1.63-1.901 1.63h-4.312zM197.708 50.017c-1.324-1.663-3.158-2.478-5.534-2.478-2.275 0-4.211.883-5.841 2.614-1.596 1.732-2.41 3.837-2.41 6.35 0 2.513.814 4.652 2.41 6.383 1.63 1.732 3.566 2.58 5.841 2.58 2.376 0 4.21-.814 5.534-2.478v2.004h4.38V48.014h-4.38v2.003zm-8.081 9.95c-.883-.917-1.324-2.072-1.324-3.464s.441-2.547 1.324-3.43c.883-.916 2.003-1.358 3.361-1.358 1.359 0 2.479.442 3.362 1.358.917.883 1.358 2.038 1.358 3.43 0 1.392-.441 2.547-1.358 3.463-.883.883-2.003 1.325-3.362 1.325-1.358 0-2.478-.442-3.361-1.325zM219.438 45.841v-3.803h-9.846v3.803h9.846zm-8.42 11.816v-9.643h-4.279v16.978h3.26l7.979-9.644v9.644h4.279V48.014h-3.26l-7.979 9.643zM234.996 65.467c2.547 0 4.618-.747 6.18-2.241 1.596-1.494 2.377-3.396 2.377-5.738 0-2.275-.747-4.075-2.207-5.433-1.46-1.392-3.158-2.071-5.026-2.071-2.139 0-3.836.645-5.093 1.935.578-1.596 1.698-2.614 4.584-3.735 2.071-.781 3.599-1.562 4.618-2.309 1.053-.78 1.698-1.834 2.003-3.226l-3.599-2.07c-.577 1.323-.917 1.934-2.139 2.681-.441.272-.815.476-1.087.612l-1.426.713c-.713.305-1.256.577-1.629.747-2.615 1.29-4.347 2.716-5.196 4.312-.848 1.562-1.29 3.803-1.29 6.69 0 2.648.815 4.82 2.445 6.552 1.664 1.732 3.803 2.58 6.485 2.58zm-.068-11.986c2.479 0 4.245 1.698 4.245 4.007 0 1.154-.408 2.105-1.189 2.852-.781.747-1.799 1.12-3.022 1.12-1.222 0-2.241-.373-3.09-1.154-.814-.781-1.222-1.766-1.222-2.954 0-1.189.441-2.105 1.29-2.819a4.594 4.594 0 012.988-1.052zM251.274 53.447v-5.433h-4.381v16.978h7.674c3.837 0 6.418-2.275 6.418-5.773 0-3.497-2.581-5.772-6.418-5.772h-3.293zm11.578 11.545h4.38V48.014h-4.38v16.978zm-11.578-3.871v-3.837h3.327c1.222 0 2.105.815 2.105 1.935s-.883 1.902-2.105 1.902h-3.327zM285.357 57.657v-9.643h-4.278v16.978h3.26l7.979-9.644v9.644h4.278V48.014h-3.259l-7.98 9.643zM322.68 56.3c1.121-.85 1.664-2.004 1.664-3.498 0-2.852-2.071-4.788-5.637-4.788h-8.251v16.978h8.93c3.634 0 5.671-1.97 5.671-4.822 0-1.8-.781-3.09-2.377-3.87zm-4.38-4.687c1.256 0 1.867.51 1.867 1.528 0 1.019-.611 1.528-1.867 1.528h-3.735v-3.056h3.735zm-3.735 9.678v-3.158h4.312c1.188 0 1.902.577 1.902 1.528 0 1.086-.646 1.63-1.902 1.63h-4.312zM332.858 53.447v-5.433h-4.38v16.978h7.673c3.837 0 6.418-2.275 6.418-5.773 0-3.497-2.581-5.772-6.418-5.772h-3.293zm11.578 11.545h4.38V48.014h-4.38v16.978zm-11.578-3.871v-3.837h3.327c1.223 0 2.105.815 2.105 1.935s-.882 1.902-2.105 1.902h-3.327zM357.773 57.657v-9.643h-4.278v16.978h3.26l7.979-9.644v9.644h4.279V48.014h-3.26l-7.98 9.643zM373.705 48.014v16.978h4.38V52.225h7.232v-4.21h-11.612zM398.225 47.539c-2.377 0-4.211.815-5.501 2.478v-2.003h-4.38v23.768h4.38v-8.794c1.29 1.664 3.124 2.479 5.501 2.479 2.275 0 4.244-.849 5.84-2.58 1.63-1.732 2.445-3.871 2.445-6.384 0-2.513-.815-4.618-2.445-6.35-1.596-1.731-3.565-2.614-5.84-2.614zm-4.177 12.427c-.883-.916-1.324-2.071-1.324-3.463s.441-2.547 1.324-3.43c.883-.916 2.004-1.358 3.362-1.358s2.478.442 3.361 1.358c.917.883 1.359 2.038 1.359 3.43 0 1.392-.442 2.547-1.359 3.463-.883.883-2.003 1.325-3.361 1.325s-2.479-.442-3.362-1.325zM414.658 53.447v-5.433h-4.38v16.978h7.674c3.836 0 6.417-2.275 6.417-5.773 0-3.497-2.581-5.772-6.417-5.772h-3.294zm11.579 11.545h4.38V48.014h-4.38v16.978zm-11.579-3.871v-3.837h3.328c1.222 0 2.105.815 2.105 1.935s-.883 1.902-2.105 1.902h-3.328zM447.519 56.3c1.121-.85 1.664-2.004 1.664-3.498 0-2.852-2.071-4.788-5.636-4.788h-8.251v16.978h8.93c3.633 0 5.67-1.97 5.67-4.822 0-1.8-.781-3.09-2.377-3.87zm-4.38-4.687c1.256 0 1.868.51 1.868 1.528 0 1.019-.612 1.528-1.868 1.528h-3.735v-3.056h3.735zm-3.735 9.678v-3.158h4.312c1.189 0 1.902.577 1.902 1.528 0 1.086-.645 1.63-1.902 1.63h-4.312zM466.22 50.017c-1.325-1.663-3.158-2.478-5.535-2.478-2.275 0-4.211.883-5.84 2.614-1.596 1.732-2.411 3.837-2.411 6.35 0 2.513.815 4.652 2.411 6.383 1.629 1.732 3.565 2.58 5.84 2.58 2.377 0 4.21-.814 5.535-2.478v2.004h4.38V48.014h-4.38v2.003zm-8.082 9.95c-.883-.917-1.324-2.072-1.324-3.464s.441-2.547 1.324-3.43c.883-.916 2.004-1.358 3.362-1.358s2.478.442 3.361 1.358c.917.883 1.359 2.038 1.359 3.43 0 1.392-.442 2.547-1.359 3.463-.883.883-2.003 1.325-3.361 1.325s-2.479-.442-3.362-1.325zM487.95 45.841v-3.803h-9.847v3.803h9.847zm-8.421 11.816v-9.643h-4.278v16.978h3.259l7.98-9.644v9.644h4.278V48.014h-3.26l-7.979 9.643zM504.628 48.014v16.978h4.38v-12.87h6.757v12.87h4.38V48.014h-15.517zM534.719 47.539c-2.377 0-4.211.815-5.501 2.478v-2.003h-4.38v23.768h4.38v-8.794c1.29 1.664 3.124 2.479 5.501 2.479 2.275 0 4.244-.849 5.84-2.58 1.63-1.732 2.445-3.871 2.445-6.384 0-2.513-.815-4.618-2.445-6.35-1.596-1.731-3.565-2.614-5.84-2.614zm-4.177 12.427c-.883-.916-1.324-2.071-1.324-3.463s.441-2.547 1.324-3.43c.883-.916 2.004-1.358 3.362-1.358s2.478.442 3.361 1.358c.917.883 1.358 2.038 1.358 3.43 0 1.392-.441 2.547-1.358 3.463-.883.883-2.003 1.325-3.361 1.325s-2.479-.442-3.362-1.325zM551.05 57.657v-9.643h-4.278v16.978h3.259l7.98-9.644v9.644h4.278V48.014h-3.26l-7.979 9.643zM576.93 56.333c1.256-.849 1.868-2.071 1.868-3.735 0-1.392-.578-2.58-1.732-3.565-1.121-.985-2.682-1.494-4.618-1.494-3.124 0-5.331 1.29-6.621 3.905l3.531 2.037c.645-1.426 1.698-2.14 3.158-2.14 1.256 0 2.105.646 2.105 1.63 0 1.053-.645 1.563-1.969 1.563h-1.834v3.735h2.411c1.324 0 2.003.509 2.003 1.561 0 1.087-.916 1.766-2.546 1.766-1.8 0-2.954-.78-3.498-2.309l-3.565 2.105c1.257 2.717 3.599 4.075 7.029 4.075 4.346 0 6.859-2.207 6.859-5.093 0-1.868-.849-3.192-2.581-4.04zM587.327 53.447v-5.433h-4.38v16.978h7.674c3.836 0 6.417-2.275 6.417-5.773 0-3.497-2.581-5.772-6.417-5.772h-3.294zm11.578 11.545h4.381V48.014h-4.381v16.978zm-11.578-3.871v-3.837h3.327c1.223 0 2.106.815 2.106 1.935s-.883 1.902-2.106 1.902h-3.327zM612.243 57.012l.883-8.998v-6.79h-5.263v6.79l.916 8.998h3.464zm.305 7.572a2.889 2.889 0 000-4.075 2.889 2.889 0 00-4.074 0 2.889 2.889 0 000 4.075 2.889 2.889 0 004.074 0z"/></mask><path d="M42.784 48.014v9.643c0 2.615-.984 3.667-2.784 3.226v4.109c4.788.509 7.164-1.834 7.164-7.097v-5.67h4.686v12.767h4.38V48.014H42.784zM65.157 57.657v-9.643h-4.278v16.978h3.26l7.979-9.644v9.644h4.278V48.014h-3.26l-7.979 9.643zM89.17 65.467c3.293 0 6.18-1.732 7.673-4.414L93.04 58.88c-.679 1.392-2.139 2.24-3.904 2.24-1.325 0-2.411-.44-3.26-1.29-.849-.882-1.29-2.003-1.29-3.327 0-2.717 1.935-4.652 4.55-4.652 1.731 0 3.191.883 3.87 2.275l3.77-2.207c-1.393-2.682-4.313-4.38-7.606-4.38-2.547 0-4.686.849-6.418 2.58-1.698 1.732-2.546 3.837-2.546 6.384s.848 4.652 2.546 6.383c1.732 1.732 3.871 2.58 6.418 2.58zM98.076 48.014v4.21h5.365v12.768h4.38V52.225h5.297v-4.21H98.076zM128.376 50.017c-1.325-1.663-3.158-2.478-5.535-2.478-2.275 0-4.21.883-5.84 2.614-1.596 1.732-2.411 3.837-2.411 6.35 0 2.513.815 4.652 2.411 6.383 1.63 1.732 3.565 2.58 5.84 2.58 2.377 0 4.21-.814 5.535-2.478v2.004h4.38V48.014h-4.38v2.003zm-8.082 9.95c-.882-.917-1.324-2.072-1.324-3.464s.442-2.547 1.324-3.43c.883-.916 2.004-1.358 3.362-1.358s2.479.442 3.361 1.358c.917.883 1.359 2.038 1.359 3.43 0 1.392-.442 2.547-1.359 3.463-.882.883-2.003 1.325-3.361 1.325s-2.479-.442-3.362-1.325zM150.106 45.841v-3.803h-9.847v3.803h9.847zm-8.421 11.816v-9.643h-4.278v16.978h3.259l7.98-9.644v9.644h4.278V48.014h-3.26l-7.979 9.643zM179.008 56.3c1.12-.85 1.664-2.004 1.664-3.498 0-2.852-2.072-4.788-5.637-4.788h-8.251v16.978h8.93c3.633 0 5.671-1.97 5.671-4.822 0-1.8-.781-3.09-2.377-3.87zm-4.38-4.687c1.256 0 1.867.51 1.867 1.528 0 1.019-.611 1.528-1.867 1.528h-3.735v-3.056h3.735zm-3.735 9.678v-3.158h4.312c1.188 0 1.901.577 1.901 1.528 0 1.086-.645 1.63-1.901 1.63h-4.312zM197.708 50.017c-1.324-1.663-3.158-2.478-5.534-2.478-2.275 0-4.211.883-5.841 2.614-1.596 1.732-2.41 3.837-2.41 6.35 0 2.513.814 4.652 2.41 6.383 1.63 1.732 3.566 2.58 5.841 2.58 2.376 0 4.21-.814 5.534-2.478v2.004h4.38V48.014h-4.38v2.003zm-8.081 9.95c-.883-.917-1.324-2.072-1.324-3.464s.441-2.547 1.324-3.43c.883-.916 2.003-1.358 3.361-1.358 1.359 0 2.479.442 3.362 1.358.917.883 1.358 2.038 1.358 3.43 0 1.392-.441 2.547-1.358 3.463-.883.883-2.003 1.325-3.362 1.325-1.358 0-2.478-.442-3.361-1.325zM219.438 45.841v-3.803h-9.846v3.803h9.846zm-8.42 11.816v-9.643h-4.279v16.978h3.26l7.979-9.644v9.644h4.279V48.014h-3.26l-7.979 9.643zM234.996 65.467c2.547 0 4.618-.747 6.18-2.241 1.596-1.494 2.377-3.396 2.377-5.738 0-2.275-.747-4.075-2.207-5.433-1.46-1.392-3.158-2.071-5.026-2.071-2.139 0-3.836.645-5.093 1.935.578-1.596 1.698-2.614 4.584-3.735 2.071-.781 3.599-1.562 4.618-2.309 1.053-.78 1.698-1.834 2.003-3.226l-3.599-2.07c-.577 1.323-.917 1.934-2.139 2.681-.441.272-.815.476-1.087.612l-1.426.713c-.713.305-1.256.577-1.629.747-2.615 1.29-4.347 2.716-5.196 4.312-.848 1.562-1.29 3.803-1.29 6.69 0 2.648.815 4.82 2.445 6.552 1.664 1.732 3.803 2.58 6.485 2.58zm-.068-11.986c2.479 0 4.245 1.698 4.245 4.007 0 1.154-.408 2.105-1.189 2.852-.781.747-1.799 1.12-3.022 1.12-1.222 0-2.241-.373-3.09-1.154-.814-.781-1.222-1.766-1.222-2.954 0-1.189.441-2.105 1.29-2.819a4.594 4.594 0 012.988-1.052zM251.274 53.447v-5.433h-4.381v16.978h7.674c3.837 0 6.418-2.275 6.418-5.773 0-3.497-2.581-5.772-6.418-5.772h-3.293zm11.578 11.545h4.38V48.014h-4.38v16.978zm-11.578-3.871v-3.837h3.327c1.222 0 2.105.815 2.105 1.935s-.883 1.902-2.105 1.902h-3.327zM285.357 57.657v-9.643h-4.278v16.978h3.26l7.979-9.644v9.644h4.278V48.014h-3.259l-7.98 9.643zM322.68 56.3c1.121-.85 1.664-2.004 1.664-3.498 0-2.852-2.071-4.788-5.637-4.788h-8.251v16.978h8.93c3.634 0 5.671-1.97 5.671-4.822 0-1.8-.781-3.09-2.377-3.87zm-4.38-4.687c1.256 0 1.867.51 1.867 1.528 0 1.019-.611 1.528-1.867 1.528h-3.735v-3.056h3.735zm-3.735 9.678v-3.158h4.312c1.188 0 1.902.577 1.902 1.528 0 1.086-.646 1.63-1.902 1.63h-4.312zM332.858 53.447v-5.433h-4.38v16.978h7.673c3.837 0 6.418-2.275 6.418-5.773 0-3.497-2.581-5.772-6.418-5.772h-3.293zm11.578 11.545h4.38V48.014h-4.38v16.978zm-11.578-3.871v-3.837h3.327c1.223 0 2.105.815 2.105 1.935s-.882 1.902-2.105 1.902h-3.327zM357.773 57.657v-9.643h-4.278v16.978h3.26l7.979-9.644v9.644h4.279V48.014h-3.26l-7.98 9.643zM373.705 48.014v16.978h4.38V52.225h7.232v-4.21h-11.612zM398.225 47.539c-2.377 0-4.211.815-5.501 2.478v-2.003h-4.38v23.768h4.38v-8.794c1.29 1.664 3.124 2.479 5.501 2.479 2.275 0 4.244-.849 5.84-2.58 1.63-1.732 2.445-3.871 2.445-6.384 0-2.513-.815-4.618-2.445-6.35-1.596-1.731-3.565-2.614-5.84-2.614zm-4.177 12.427c-.883-.916-1.324-2.071-1.324-3.463s.441-2.547 1.324-3.43c.883-.916 2.004-1.358 3.362-1.358s2.478.442 3.361 1.358c.917.883 1.359 2.038 1.359 3.43 0 1.392-.442 2.547-1.359 3.463-.883.883-2.003 1.325-3.361 1.325s-2.479-.442-3.362-1.325zM414.658 53.447v-5.433h-4.38v16.978h7.674c3.836 0 6.417-2.275 6.417-5.773 0-3.497-2.581-5.772-6.417-5.772h-3.294zm11.579 11.545h4.38V48.014h-4.38v16.978zm-11.579-3.871v-3.837h3.328c1.222 0 2.105.815 2.105 1.935s-.883 1.902-2.105 1.902h-3.328zM447.519 56.3c1.121-.85 1.664-2.004 1.664-3.498 0-2.852-2.071-4.788-5.636-4.788h-8.251v16.978h8.93c3.633 0 5.67-1.97 5.67-4.822 0-1.8-.781-3.09-2.377-3.87zm-4.38-4.687c1.256 0 1.868.51 1.868 1.528 0 1.019-.612 1.528-1.868 1.528h-3.735v-3.056h3.735zm-3.735 9.678v-3.158h4.312c1.189 0 1.902.577 1.902 1.528 0 1.086-.645 1.63-1.902 1.63h-4.312zM466.22 50.017c-1.325-1.663-3.158-2.478-5.535-2.478-2.275 0-4.211.883-5.84 2.614-1.596 1.732-2.411 3.837-2.411 6.35 0 2.513.815 4.652 2.411 6.383 1.629 1.732 3.565 2.58 5.84 2.58 2.377 0 4.21-.814 5.535-2.478v2.004h4.38V48.014h-4.38v2.003zm-8.082 9.95c-.883-.917-1.324-2.072-1.324-3.464s.441-2.547 1.324-3.43c.883-.916 2.004-1.358 3.362-1.358s2.478.442 3.361 1.358c.917.883 1.359 2.038 1.359 3.43 0 1.392-.442 2.547-1.359 3.463-.883.883-2.003 1.325-3.361 1.325s-2.479-.442-3.362-1.325zM487.95 45.841v-3.803h-9.847v3.803h9.847zm-8.421 11.816v-9.643h-4.278v16.978h3.259l7.98-9.644v9.644h4.278V48.014h-3.26l-7.979 9.643zM504.628 48.014v16.978h4.38v-12.87h6.757v12.87h4.38V48.014h-15.517zM534.719 47.539c-2.377 0-4.211.815-5.501 2.478v-2.003h-4.38v23.768h4.38v-8.794c1.29 1.664 3.124 2.479 5.501 2.479 2.275 0 4.244-.849 5.84-2.58 1.63-1.732 2.445-3.871 2.445-6.384 0-2.513-.815-4.618-2.445-6.35-1.596-1.731-3.565-2.614-5.84-2.614zm-4.177 12.427c-.883-.916-1.324-2.071-1.324-3.463s.441-2.547 1.324-3.43c.883-.916 2.004-1.358 3.362-1.358s2.478.442 3.361 1.358c.917.883 1.358 2.038 1.358 3.43 0 1.392-.441 2.547-1.358 3.463-.883.883-2.003 1.325-3.361 1.325s-2.479-.442-3.362-1.325zM551.05 57.657v-9.643h-4.278v16.978h3.259l7.98-9.644v9.644h4.278V48.014h-3.26l-7.979 9.643zM576.93 56.333c1.256-.849 1.868-2.071 1.868-3.735 0-1.392-.578-2.58-1.732-3.565-1.121-.985-2.682-1.494-4.618-1.494-3.124 0-5.331 1.29-6.621 3.905l3.531 2.037c.645-1.426 1.698-2.14 3.158-2.14 1.256 0 2.105.646 2.105 1.63 0 1.053-.645 1.563-1.969 1.563h-1.834v3.735h2.411c1.324 0 2.003.509 2.003 1.561 0 1.087-.916 1.766-2.546 1.766-1.8 0-2.954-.78-3.498-2.309l-3.565 2.105c1.257 2.717 3.599 4.075 7.029 4.075 4.346 0 6.859-2.207 6.859-5.093 0-1.868-.849-3.192-2.581-4.04zM587.327 53.447v-5.433h-4.38v16.978h7.674c3.836 0 6.417-2.275 6.417-5.773 0-3.497-2.581-5.772-6.417-5.772h-3.294zm11.578 11.545h4.381V48.014h-4.381v16.978zm-11.578-3.871v-3.837h3.327c1.223 0 2.106.815 2.106 1.935s-.883 1.902-2.106 1.902h-3.327zM612.243 57.012l.883-8.998v-6.79h-5.263v6.79l.916 8.998h3.464zm.305 7.572a2.889 2.889 0 000-4.075 2.889 2.889 0 00-4.074 0 2.889 2.889 0 000 4.075 2.889 2.889 0 004.074 0z" stroke="#FFE0BB" stroke-opacity=".8" stroke-width="5.8" mask="url(#da)"/></g><g filter="url(#dfilter2_f_1370_5297)"><mask id="db" maskUnits="userSpaceOnUse" x="38" y="38.578" width="577" height="35" fill="#000"><path fill="#fff" d="M38 38.578h577v35H38z"/><path d="M42.784 48.014v9.643c0 2.615-.984 3.667-2.784 3.226v4.109c4.788.509 7.164-1.834 7.164-7.097v-5.67h4.686v12.767h4.38V48.014H42.784zM65.157 57.657v-9.643h-4.278v16.978h3.26l7.979-9.644v9.644h4.278V48.014h-3.26l-7.979 9.643zM89.17 65.467c3.293 0 6.18-1.732 7.673-4.414L93.04 58.88c-.679 1.392-2.139 2.24-3.904 2.24-1.325 0-2.411-.44-3.26-1.29-.849-.882-1.29-2.003-1.29-3.327 0-2.717 1.935-4.652 4.55-4.652 1.731 0 3.191.883 3.87 2.275l3.77-2.207c-1.393-2.682-4.313-4.38-7.606-4.38-2.547 0-4.686.849-6.418 2.58-1.698 1.732-2.546 3.837-2.546 6.384s.848 4.652 2.546 6.383c1.732 1.732 3.871 2.58 6.418 2.58zM98.076 48.014v4.21h5.365v12.768h4.38V52.225h5.297v-4.21H98.076zM128.376 50.017c-1.325-1.663-3.158-2.478-5.535-2.478-2.275 0-4.21.883-5.84 2.614-1.596 1.732-2.411 3.837-2.411 6.35 0 2.513.815 4.652 2.411 6.383 1.63 1.732 3.565 2.58 5.84 2.58 2.377 0 4.21-.814 5.535-2.478v2.004h4.38V48.014h-4.38v2.003zm-8.082 9.95c-.882-.917-1.324-2.072-1.324-3.464s.442-2.547 1.324-3.43c.883-.916 2.004-1.358 3.362-1.358s2.479.442 3.361 1.358c.917.883 1.359 2.038 1.359 3.43 0 1.392-.442 2.547-1.359 3.463-.882.883-2.003 1.325-3.361 1.325s-2.479-.442-3.362-1.325zM150.106 45.841v-3.803h-9.847v3.803h9.847zm-8.421 11.816v-9.643h-4.278v16.978h3.259l7.98-9.644v9.644h4.278V48.014h-3.26l-7.979 9.643zM179.008 56.3c1.12-.85 1.664-2.004 1.664-3.498 0-2.852-2.072-4.788-5.637-4.788h-8.251v16.978h8.93c3.633 0 5.671-1.97 5.671-4.822 0-1.8-.781-3.09-2.377-3.87zm-4.38-4.687c1.256 0 1.867.51 1.867 1.528 0 1.019-.611 1.528-1.867 1.528h-3.735v-3.056h3.735zm-3.735 9.678v-3.158h4.312c1.188 0 1.901.577 1.901 1.528 0 1.086-.645 1.63-1.901 1.63h-4.312zM197.708 50.017c-1.324-1.663-3.158-2.478-5.534-2.478-2.275 0-4.211.883-5.841 2.614-1.596 1.732-2.41 3.837-2.41 6.35 0 2.513.814 4.652 2.41 6.383 1.63 1.732 3.566 2.58 5.841 2.58 2.376 0 4.21-.814 5.534-2.478v2.004h4.38V48.014h-4.38v2.003zm-8.081 9.95c-.883-.917-1.324-2.072-1.324-3.464s.441-2.547 1.324-3.43c.883-.916 2.003-1.358 3.361-1.358 1.359 0 2.479.442 3.362 1.358.917.883 1.358 2.038 1.358 3.43 0 1.392-.441 2.547-1.358 3.463-.883.883-2.003 1.325-3.362 1.325-1.358 0-2.478-.442-3.361-1.325zM219.438 45.841v-3.803h-9.846v3.803h9.846zm-8.42 11.816v-9.643h-4.279v16.978h3.26l7.979-9.644v9.644h4.279V48.014h-3.26l-7.979 9.643zM234.996 65.467c2.547 0 4.618-.747 6.18-2.241 1.596-1.494 2.377-3.396 2.377-5.738 0-2.275-.747-4.075-2.207-5.433-1.46-1.392-3.158-2.071-5.026-2.071-2.139 0-3.836.645-5.093 1.935.578-1.596 1.698-2.614 4.584-3.735 2.071-.781 3.599-1.562 4.618-2.309 1.053-.78 1.698-1.834 2.003-3.226l-3.599-2.07c-.577 1.323-.917 1.934-2.139 2.681-.441.272-.815.476-1.087.612l-1.426.713c-.713.305-1.256.577-1.629.747-2.615 1.29-4.347 2.716-5.196 4.312-.848 1.562-1.29 3.803-1.29 6.69 0 2.648.815 4.82 2.445 6.552 1.664 1.732 3.803 2.58 6.485 2.58zm-.068-11.986c2.479 0 4.245 1.698 4.245 4.007 0 1.154-.408 2.105-1.189 2.852-.781.747-1.799 1.12-3.022 1.12-1.222 0-2.241-.373-3.09-1.154-.814-.781-1.222-1.766-1.222-2.954 0-1.189.441-2.105 1.29-2.819a4.594 4.594 0 012.988-1.052zM251.274 53.447v-5.433h-4.381v16.978h7.674c3.837 0 6.418-2.275 6.418-5.773 0-3.497-2.581-5.772-6.418-5.772h-3.293zm11.578 11.545h4.38V48.014h-4.38v16.978zm-11.578-3.871v-3.837h3.327c1.222 0 2.105.815 2.105 1.935s-.883 1.902-2.105 1.902h-3.327zM285.357 57.657v-9.643h-4.278v16.978h3.26l7.979-9.644v9.644h4.278V48.014h-3.259l-7.98 9.643zM322.68 56.3c1.121-.85 1.664-2.004 1.664-3.498 0-2.852-2.071-4.788-5.637-4.788h-8.251v16.978h8.93c3.634 0 5.671-1.97 5.671-4.822 0-1.8-.781-3.09-2.377-3.87zm-4.38-4.687c1.256 0 1.867.51 1.867 1.528 0 1.019-.611 1.528-1.867 1.528h-3.735v-3.056h3.735zm-3.735 9.678v-3.158h4.312c1.188 0 1.902.577 1.902 1.528 0 1.086-.646 1.63-1.902 1.63h-4.312zM332.858 53.447v-5.433h-4.38v16.978h7.673c3.837 0 6.418-2.275 6.418-5.773 0-3.497-2.581-5.772-6.418-5.772h-3.293zm11.578 11.545h4.38V48.014h-4.38v16.978zm-11.578-3.871v-3.837h3.327c1.223 0 2.105.815 2.105 1.935s-.882 1.902-2.105 1.902h-3.327zM357.773 57.657v-9.643h-4.278v16.978h3.26l7.979-9.644v9.644h4.279V48.014h-3.26l-7.98 9.643zM373.705 48.014v16.978h4.38V52.225h7.232v-4.21h-11.612zM398.225 47.539c-2.377 0-4.211.815-5.501 2.478v-2.003h-4.38v23.768h4.38v-8.794c1.29 1.664 3.124 2.479 5.501 2.479 2.275 0 4.244-.849 5.84-2.58 1.63-1.732 2.445-3.871 2.445-6.384 0-2.513-.815-4.618-2.445-6.35-1.596-1.731-3.565-2.614-5.84-2.614zm-4.177 12.427c-.883-.916-1.324-2.071-1.324-3.463s.441-2.547 1.324-3.43c.883-.916 2.004-1.358 3.362-1.358s2.478.442 3.361 1.358c.917.883 1.359 2.038 1.359 3.43 0 1.392-.442 2.547-1.359 3.463-.883.883-2.003 1.325-3.361 1.325s-2.479-.442-3.362-1.325zM414.658 53.447v-5.433h-4.38v16.978h7.674c3.836 0 6.417-2.275 6.417-5.773 0-3.497-2.581-5.772-6.417-5.772h-3.294zm11.579 11.545h4.38V48.014h-4.38v16.978zm-11.579-3.871v-3.837h3.328c1.222 0 2.105.815 2.105 1.935s-.883 1.902-2.105 1.902h-3.328zM447.519 56.3c1.121-.85 1.664-2.004 1.664-3.498 0-2.852-2.071-4.788-5.636-4.788h-8.251v16.978h8.93c3.633 0 5.67-1.97 5.67-4.822 0-1.8-.781-3.09-2.377-3.87zm-4.38-4.687c1.256 0 1.868.51 1.868 1.528 0 1.019-.612 1.528-1.868 1.528h-3.735v-3.056h3.735zm-3.735 9.678v-3.158h4.312c1.189 0 1.902.577 1.902 1.528 0 1.086-.645 1.63-1.902 1.63h-4.312zM466.22 50.017c-1.325-1.663-3.158-2.478-5.535-2.478-2.275 0-4.211.883-5.84 2.614-1.596 1.732-2.411 3.837-2.411 6.35 0 2.513.815 4.652 2.411 6.383 1.629 1.732 3.565 2.58 5.84 2.58 2.377 0 4.21-.814 5.535-2.478v2.004h4.38V48.014h-4.38v2.003zm-8.082 9.95c-.883-.917-1.324-2.072-1.324-3.464s.441-2.547 1.324-3.43c.883-.916 2.004-1.358 3.362-1.358s2.478.442 3.361 1.358c.917.883 1.359 2.038 1.359 3.43 0 1.392-.442 2.547-1.359 3.463-.883.883-2.003 1.325-3.361 1.325s-2.479-.442-3.362-1.325zM487.95 45.841v-3.803h-9.847v3.803h9.847zm-8.421 11.816v-9.643h-4.278v16.978h3.259l7.98-9.644v9.644h4.278V48.014h-3.26l-7.979 9.643zM504.628 48.014v16.978h4.38v-12.87h6.757v12.87h4.38V48.014h-15.517zM534.719 47.539c-2.377 0-4.211.815-5.501 2.478v-2.003h-4.38v23.768h4.38v-8.794c1.29 1.664 3.124 2.479 5.501 2.479 2.275 0 4.244-.849 5.84-2.58 1.63-1.732 2.445-3.871 2.445-6.384 0-2.513-.815-4.618-2.445-6.35-1.596-1.731-3.565-2.614-5.84-2.614zm-4.177 12.427c-.883-.916-1.324-2.071-1.324-3.463s.441-2.547 1.324-3.43c.883-.916 2.004-1.358 3.362-1.358s2.478.442 3.361 1.358c.917.883 1.358 2.038 1.358 3.43 0 1.392-.441 2.547-1.358 3.463-.883.883-2.003 1.325-3.361 1.325s-2.479-.442-3.362-1.325zM551.05 57.657v-9.643h-4.278v16.978h3.259l7.98-9.644v9.644h4.278V48.014h-3.26l-7.979 9.643zM576.93 56.333c1.256-.849 1.868-2.071 1.868-3.735 0-1.392-.578-2.58-1.732-3.565-1.121-.985-2.682-1.494-4.618-1.494-3.124 0-5.331 1.29-6.621 3.905l3.531 2.037c.645-1.426 1.698-2.14 3.158-2.14 1.256 0 2.105.646 2.105 1.63 0 1.053-.645 1.563-1.969 1.563h-1.834v3.735h2.411c1.324 0 2.003.509 2.003 1.561 0 1.087-.916 1.766-2.546 1.766-1.8 0-2.954-.78-3.498-2.309l-3.565 2.105c1.257 2.717 3.599 4.075 7.029 4.075 4.346 0 6.859-2.207 6.859-5.093 0-1.868-.849-3.192-2.581-4.04zM587.327 53.447v-5.433h-4.38v16.978h7.674c3.836 0 6.417-2.275 6.417-5.773 0-3.497-2.581-5.772-6.417-5.772h-3.294zm11.578 11.545h4.381V48.014h-4.381v16.978zm-11.578-3.871v-3.837h3.327c1.223 0 2.106.815 2.106 1.935s-.883 1.902-2.106 1.902h-3.327zM612.243 57.012l.883-8.998v-6.79h-5.263v6.79l.916 8.998h3.464zm.305 7.572a2.889 2.889 0 000-4.075 2.889 2.889 0 00-4.074 0 2.889 2.889 0 000 4.075 2.889 2.889 0 004.074 0z"/></mask><path d="M42.784 48.014v9.643c0 2.615-.984 3.667-2.784 3.226v4.109c4.788.509 7.164-1.834 7.164-7.097v-5.67h4.686v12.767h4.38V48.014H42.784zM65.157 57.657v-9.643h-4.278v16.978h3.26l7.979-9.644v9.644h4.278V48.014h-3.26l-7.979 9.643zM89.17 65.467c3.293 0 6.18-1.732 7.673-4.414L93.04 58.88c-.679 1.392-2.139 2.24-3.904 2.24-1.325 0-2.411-.44-3.26-1.29-.849-.882-1.29-2.003-1.29-3.327 0-2.717 1.935-4.652 4.55-4.652 1.731 0 3.191.883 3.87 2.275l3.77-2.207c-1.393-2.682-4.313-4.38-7.606-4.38-2.547 0-4.686.849-6.418 2.58-1.698 1.732-2.546 3.837-2.546 6.384s.848 4.652 2.546 6.383c1.732 1.732 3.871 2.58 6.418 2.58zM98.076 48.014v4.21h5.365v12.768h4.38V52.225h5.297v-4.21H98.076zM128.376 50.017c-1.325-1.663-3.158-2.478-5.535-2.478-2.275 0-4.21.883-5.84 2.614-1.596 1.732-2.411 3.837-2.411 6.35 0 2.513.815 4.652 2.411 6.383 1.63 1.732 3.565 2.58 5.84 2.58 2.377 0 4.21-.814 5.535-2.478v2.004h4.38V48.014h-4.38v2.003zm-8.082 9.95c-.882-.917-1.324-2.072-1.324-3.464s.442-2.547 1.324-3.43c.883-.916 2.004-1.358 3.362-1.358s2.479.442 3.361 1.358c.917.883 1.359 2.038 1.359 3.43 0 1.392-.442 2.547-1.359 3.463-.882.883-2.003 1.325-3.361 1.325s-2.479-.442-3.362-1.325zM150.106 45.841v-3.803h-9.847v3.803h9.847zm-8.421 11.816v-9.643h-4.278v16.978h3.259l7.98-9.644v9.644h4.278V48.014h-3.26l-7.979 9.643zM179.008 56.3c1.12-.85 1.664-2.004 1.664-3.498 0-2.852-2.072-4.788-5.637-4.788h-8.251v16.978h8.93c3.633 0 5.671-1.97 5.671-4.822 0-1.8-.781-3.09-2.377-3.87zm-4.38-4.687c1.256 0 1.867.51 1.867 1.528 0 1.019-.611 1.528-1.867 1.528h-3.735v-3.056h3.735zm-3.735 9.678v-3.158h4.312c1.188 0 1.901.577 1.901 1.528 0 1.086-.645 1.63-1.901 1.63h-4.312zM197.708 50.017c-1.324-1.663-3.158-2.478-5.534-2.478-2.275 0-4.211.883-5.841 2.614-1.596 1.732-2.41 3.837-2.41 6.35 0 2.513.814 4.652 2.41 6.383 1.63 1.732 3.566 2.58 5.841 2.58 2.376 0 4.21-.814 5.534-2.478v2.004h4.38V48.014h-4.38v2.003zm-8.081 9.95c-.883-.917-1.324-2.072-1.324-3.464s.441-2.547 1.324-3.43c.883-.916 2.003-1.358 3.361-1.358 1.359 0 2.479.442 3.362 1.358.917.883 1.358 2.038 1.358 3.43 0 1.392-.441 2.547-1.358 3.463-.883.883-2.003 1.325-3.362 1.325-1.358 0-2.478-.442-3.361-1.325zM219.438 45.841v-3.803h-9.846v3.803h9.846zm-8.42 11.816v-9.643h-4.279v16.978h3.26l7.979-9.644v9.644h4.279V48.014h-3.26l-7.979 9.643zM234.996 65.467c2.547 0 4.618-.747 6.18-2.241 1.596-1.494 2.377-3.396 2.377-5.738 0-2.275-.747-4.075-2.207-5.433-1.46-1.392-3.158-2.071-5.026-2.071-2.139 0-3.836.645-5.093 1.935.578-1.596 1.698-2.614 4.584-3.735 2.071-.781 3.599-1.562 4.618-2.309 1.053-.78 1.698-1.834 2.003-3.226l-3.599-2.07c-.577 1.323-.917 1.934-2.139 2.681-.441.272-.815.476-1.087.612l-1.426.713c-.713.305-1.256.577-1.629.747-2.615 1.29-4.347 2.716-5.196 4.312-.848 1.562-1.29 3.803-1.29 6.69 0 2.648.815 4.82 2.445 6.552 1.664 1.732 3.803 2.58 6.485 2.58zm-.068-11.986c2.479 0 4.245 1.698 4.245 4.007 0 1.154-.408 2.105-1.189 2.852-.781.747-1.799 1.12-3.022 1.12-1.222 0-2.241-.373-3.09-1.154-.814-.781-1.222-1.766-1.222-2.954 0-1.189.441-2.105 1.29-2.819a4.594 4.594 0 012.988-1.052zM251.274 53.447v-5.433h-4.381v16.978h7.674c3.837 0 6.418-2.275 6.418-5.773 0-3.497-2.581-5.772-6.418-5.772h-3.293zm11.578 11.545h4.38V48.014h-4.38v16.978zm-11.578-3.871v-3.837h3.327c1.222 0 2.105.815 2.105 1.935s-.883 1.902-2.105 1.902h-3.327zM285.357 57.657v-9.643h-4.278v16.978h3.26l7.979-9.644v9.644h4.278V48.014h-3.259l-7.98 9.643zM322.68 56.3c1.121-.85 1.664-2.004 1.664-3.498 0-2.852-2.071-4.788-5.637-4.788h-8.251v16.978h8.93c3.634 0 5.671-1.97 5.671-4.822 0-1.8-.781-3.09-2.377-3.87zm-4.38-4.687c1.256 0 1.867.51 1.867 1.528 0 1.019-.611 1.528-1.867 1.528h-3.735v-3.056h3.735zm-3.735 9.678v-3.158h4.312c1.188 0 1.902.577 1.902 1.528 0 1.086-.646 1.63-1.902 1.63h-4.312zM332.858 53.447v-5.433h-4.38v16.978h7.673c3.837 0 6.418-2.275 6.418-5.773 0-3.497-2.581-5.772-6.418-5.772h-3.293zm11.578 11.545h4.38V48.014h-4.38v16.978zm-11.578-3.871v-3.837h3.327c1.223 0 2.105.815 2.105 1.935s-.882 1.902-2.105 1.902h-3.327zM357.773 57.657v-9.643h-4.278v16.978h3.26l7.979-9.644v9.644h4.279V48.014h-3.26l-7.98 9.643zM373.705 48.014v16.978h4.38V52.225h7.232v-4.21h-11.612zM398.225 47.539c-2.377 0-4.211.815-5.501 2.478v-2.003h-4.38v23.768h4.38v-8.794c1.29 1.664 3.124 2.479 5.501 2.479 2.275 0 4.244-.849 5.84-2.58 1.63-1.732 2.445-3.871 2.445-6.384 0-2.513-.815-4.618-2.445-6.35-1.596-1.731-3.565-2.614-5.84-2.614zm-4.177 12.427c-.883-.916-1.324-2.071-1.324-3.463s.441-2.547 1.324-3.43c.883-.916 2.004-1.358 3.362-1.358s2.478.442 3.361 1.358c.917.883 1.359 2.038 1.359 3.43 0 1.392-.442 2.547-1.359 3.463-.883.883-2.003 1.325-3.361 1.325s-2.479-.442-3.362-1.325zM414.658 53.447v-5.433h-4.38v16.978h7.674c3.836 0 6.417-2.275 6.417-5.773 0-3.497-2.581-5.772-6.417-5.772h-3.294zm11.579 11.545h4.38V48.014h-4.38v16.978zm-11.579-3.871v-3.837h3.328c1.222 0 2.105.815 2.105 1.935s-.883 1.902-2.105 1.902h-3.328zM447.519 56.3c1.121-.85 1.664-2.004 1.664-3.498 0-2.852-2.071-4.788-5.636-4.788h-8.251v16.978h8.93c3.633 0 5.67-1.97 5.67-4.822 0-1.8-.781-3.09-2.377-3.87zm-4.38-4.687c1.256 0 1.868.51 1.868 1.528 0 1.019-.612 1.528-1.868 1.528h-3.735v-3.056h3.735zm-3.735 9.678v-3.158h4.312c1.189 0 1.902.577 1.902 1.528 0 1.086-.645 1.63-1.902 1.63h-4.312zM466.22 50.017c-1.325-1.663-3.158-2.478-5.535-2.478-2.275 0-4.211.883-5.84 2.614-1.596 1.732-2.411 3.837-2.411 6.35 0 2.513.815 4.652 2.411 6.383 1.629 1.732 3.565 2.58 5.84 2.58 2.377 0 4.21-.814 5.535-2.478v2.004h4.38V48.014h-4.38v2.003zm-8.082 9.95c-.883-.917-1.324-2.072-1.324-3.464s.441-2.547 1.324-3.43c.883-.916 2.004-1.358 3.362-1.358s2.478.442 3.361 1.358c.917.883 1.359 2.038 1.359 3.43 0 1.392-.442 2.547-1.359 3.463-.883.883-2.003 1.325-3.361 1.325s-2.479-.442-3.362-1.325zM487.95 45.841v-3.803h-9.847v3.803h9.847zm-8.421 11.816v-9.643h-4.278v16.978h3.259l7.98-9.644v9.644h4.278V48.014h-3.26l-7.979 9.643zM504.628 48.014v16.978h4.38v-12.87h6.757v12.87h4.38V48.014h-15.517zM534.719 47.539c-2.377 0-4.211.815-5.501 2.478v-2.003h-4.38v23.768h4.38v-8.794c1.29 1.664 3.124 2.479 5.501 2.479 2.275 0 4.244-.849 5.84-2.58 1.63-1.732 2.445-3.871 2.445-6.384 0-2.513-.815-4.618-2.445-6.35-1.596-1.731-3.565-2.614-5.84-2.614zm-4.177 12.427c-.883-.916-1.324-2.071-1.324-3.463s.441-2.547 1.324-3.43c.883-.916 2.004-1.358 3.362-1.358s2.478.442 3.361 1.358c.917.883 1.358 2.038 1.358 3.43 0 1.392-.441 2.547-1.358 3.463-.883.883-2.003 1.325-3.361 1.325s-2.479-.442-3.362-1.325zM551.05 57.657v-9.643h-4.278v16.978h3.259l7.98-9.644v9.644h4.278V48.014h-3.26l-7.979 9.643zM576.93 56.333c1.256-.849 1.868-2.071 1.868-3.735 0-1.392-.578-2.58-1.732-3.565-1.121-.985-2.682-1.494-4.618-1.494-3.124 0-5.331 1.29-6.621 3.905l3.531 2.037c.645-1.426 1.698-2.14 3.158-2.14 1.256 0 2.105.646 2.105 1.63 0 1.053-.645 1.563-1.969 1.563h-1.834v3.735h2.411c1.324 0 2.003.509 2.003 1.561 0 1.087-.916 1.766-2.546 1.766-1.8 0-2.954-.78-3.498-2.309l-3.565 2.105c1.257 2.717 3.599 4.075 7.029 4.075 4.346 0 6.859-2.207 6.859-5.093 0-1.868-.849-3.192-2.581-4.04zM587.327 53.447v-5.433h-4.38v16.978h7.674c3.836 0 6.417-2.275 6.417-5.773 0-3.497-2.581-5.772-6.417-5.772h-3.294zm11.578 11.545h4.381V48.014h-4.381v16.978zm-11.578-3.871v-3.837h3.327c1.223 0 2.106.815 2.106 1.935s-.883 1.902-2.106 1.902h-3.327zM612.243 57.012l.883-8.998v-6.79h-5.263v6.79l.916 8.998h3.464zm.305 7.572a2.889 2.889 0 000-4.075 2.889 2.889 0 00-4.074 0 2.889 2.889 0 000 4.075 2.889 2.889 0 004.074 0z" stroke="#fff" stroke-width="2.4" mask="url(#db)"/></g><defs><linearGradient id="dpaint0_linear_1370_5297" x1="326.694" y1="40.578" x2="326.694" y2="71.782" gradientUnits="userSpaceOnUse"><stop stop-color="#F28B50"/><stop offset="1" stop-color="#ED6A1F"/></linearGradient><linearGradient id="dpaint1_linear_1370_5297" x1="326.694" y1="40.578" x2="326.694" y2="71.782" gradientUnits="userSpaceOnUse"><stop stop-color="#F28B50"/><stop offset="1" stop-color="#ED6A1F"/></linearGradient><linearGradient id="dpaint2_linear_1370_5297" x1="326.694" y1="40.578" x2="326.694" y2="71.782" gradientUnits="userSpaceOnUse"><stop stop-color="#F28B50"/><stop offset="1" stop-color="#ED6A1F"/></linearGradient><linearGradient id="dpaint3_linear_1370_5297" x1="326.694" y1="40.578" x2="326.694" y2="71.782" gradientUnits="userSpaceOnUse"><stop stop-color="#F28B50"/><stop offset="1" stop-color="#ED6A1F"/></linearGradient><linearGradient id="dpaint4_linear_1370_5297" x1="326.694" y1="40.578" x2="326.694" y2="71.782" gradientUnits="userSpaceOnUse"><stop stop-color="#F28B50"/><stop offset="1" stop-color="#ED6A1F"/></linearGradient><linearGradient id="dpaint5_linear_1370_5297" x1="326.694" y1="40.578" x2="326.694" y2="71.782" gradientUnits="userSpaceOnUse"><stop stop-color="#F28B50"/><stop offset="1" stop-color="#ED6A1F"/></linearGradient><linearGradient id="dpaint6_linear_1370_5297" x1="326.694" y1="40.578" x2="326.694" y2="71.782" gradientUnits="userSpaceOnUse"><stop stop-color="#F28B50"/><stop offset="1" stop-color="#ED6A1F"/></linearGradient><linearGradient id="dpaint7_linear_1370_5297" x1="326.694" y1="40.578" x2="326.694" y2="71.782" gradientUnits="userSpaceOnUse"><stop stop-color="#F28B50"/><stop offset="1" stop-color="#ED6A1F"/></linearGradient><linearGradient id="dpaint8_linear_1370_5297" x1="326.694" y1="40.578" x2="326.694" y2="71.782" gradientUnits="userSpaceOnUse"><stop stop-color="#F28B50"/><stop offset="1" stop-color="#ED6A1F"/></linearGradient><linearGradient id="dpaint9_linear_1370_5297" x1="326.694" y1="40.578" x2="326.694" y2="71.782" gradientUnits="userSpaceOnUse"><stop stop-color="#F28B50"/><stop offset="1" stop-color="#ED6A1F"/></linearGradient><linearGradient id="dpaint10_linear_1370_5297" x1="326.694" y1="40.578" x2="326.694" y2="71.782" gradientUnits="userSpaceOnUse"><stop stop-color="#F28B50"/><stop offset="1" stop-color="#ED6A1F"/></linearGradient><linearGradient id="dpaint11_linear_1370_5297" x1="326.694" y1="40.578" x2="326.694" y2="71.782" gradientUnits="userSpaceOnUse"><stop stop-color="#F28B50"/><stop offset="1" stop-color="#ED6A1F"/></linearGradient><linearGradient id="dpaint12_linear_1370_5297" x1="326.694" y1="40.578" x2="326.694" y2="71.782" gradientUnits="userSpaceOnUse"><stop stop-color="#F28B50"/><stop offset="1" stop-color="#ED6A1F"/></linearGradient><linearGradient id="dpaint13_linear_1370_5297" x1="326.694" y1="40.578" x2="326.694" y2="71.782" gradientUnits="userSpaceOnUse"><stop stop-color="#F28B50"/><stop offset="1" stop-color="#ED6A1F"/></linearGradient><linearGradient id="dpaint14_linear_1370_5297" x1="326.694" y1="40.578" x2="326.694" y2="71.782" gradientUnits="userSpaceOnUse"><stop stop-color="#F28B50"/><stop offset="1" stop-color="#ED6A1F"/></linearGradient><linearGradient id="dpaint15_linear_1370_5297" x1="326.694" y1="40.578" x2="326.694" y2="71.782" gradientUnits="userSpaceOnUse"><stop stop-color="#F28B50"/><stop offset="1" stop-color="#ED6A1F"/></linearGradient><linearGradient id="dpaint16_linear_1370_5297" x1="326.694" y1="40.578" x2="326.694" y2="71.782" gradientUnits="userSpaceOnUse"><stop stop-color="#F28B50"/><stop offset="1" stop-color="#ED6A1F"/></linearGradient><linearGradient id="dpaint17_linear_1370_5297" x1="326.694" y1="40.578" x2="326.694" y2="71.782" gradientUnits="userSpaceOnUse"><stop stop-color="#F28B50"/><stop offset="1" stop-color="#ED6A1F"/></linearGradient><linearGradient id="dpaint18_linear_1370_5297" x1="326.694" y1="40.578" x2="326.694" y2="71.782" gradientUnits="userSpaceOnUse"><stop stop-color="#F28B50"/><stop offset="1" stop-color="#ED6A1F"/></linearGradient><linearGradient id="dpaint19_linear_1370_5297" x1="326.694" y1="40.578" x2="326.694" y2="71.782" gradientUnits="userSpaceOnUse"><stop stop-color="#F28B50"/><stop offset="1" stop-color="#ED6A1F"/></linearGradient><linearGradient id="dpaint20_linear_1370_5297" x1="326.694" y1="40.578" x2="326.694" y2="71.782" gradientUnits="userSpaceOnUse"><stop stop-color="#F28B50"/><stop offset="1" stop-color="#ED6A1F"/></linearGradient><linearGradient id="dpaint21_linear_1370_5297" x1="326.694" y1="40.578" x2="326.694" y2="71.782" gradientUnits="userSpaceOnUse"><stop stop-color="#F28B50"/><stop offset="1" stop-color="#ED6A1F"/></linearGradient><linearGradient id="dpaint22_linear_1370_5297" x1="326.694" y1="40.578" x2="326.694" y2="71.782" gradientUnits="userSpaceOnUse"><stop stop-color="#F28B50"/><stop offset="1" stop-color="#ED6A1F"/></linearGradient><linearGradient id="dpaint23_linear_1370_5297" x1="326.694" y1="40.578" x2="326.694" y2="71.782" gradientUnits="userSpaceOnUse"><stop stop-color="#F28B50"/><stop offset="1" stop-color="#ED6A1F"/></linearGradient><linearGradient id="dpaint24_linear_1370_5297" x1="326.694" y1="40.578" x2="326.694" y2="71.782" gradientUnits="userSpaceOnUse"><stop stop-color="#F28B50"/><stop offset="1" stop-color="#ED6A1F"/></linearGradient><linearGradient id="dpaint25_linear_1370_5297" x1="326.694" y1="40.578" x2="326.694" y2="71.782" gradientUnits="userSpaceOnUse"><stop stop-color="#F28B50"/><stop offset="1" stop-color="#ED6A1F"/></linearGradient><linearGradient id="dpaint26_linear_1370_5297" x1="326.694" y1="40.578" x2="326.694" y2="71.782" gradientUnits="userSpaceOnUse"><stop stop-color="#F28B50"/><stop offset="1" stop-color="#ED6A1F"/></linearGradient><filter id="dfilter0_d_1370_5297" x="0" y=".578" width="653.389" height="111.205" filterUnits="userSpaceOnUse" color-interpolation-filters="sRGB"><feFlood flood-opacity="0" result="BackgroundImageFix"/><feColorMatrix in="SourceAlpha" values="0 0 0 0 0 0 0 0 0 0 0 0 0 0 0 0 0 0 127 0" result="hardAlpha"/><feOffset/><feGaussianBlur stdDeviation="20"/><feComposite in2="hardAlpha" operator="out"/><feColorMatrix values="0 0 0 0 0.998917 0 0 0 0 1 0 0 0 0 0.945833 0 0 0 1 0"/><feBlend in2="BackgroundImageFix" result="effect1_dropShadow_1370_5297"/><feBlend in="SourceGraphic" in2="effect1_dropShadow_1370_5297" result="shape"/></filter><filter id="dfilter1_f_1370_5297" x="35.876" y="35.223" width="581.637" height="40.683" filterUnits="userSpaceOnUse" color-interpolation-filters="sRGB"><feFlood flood-opacity="0" result="BackgroundImageFix"/><feBlend in="SourceGraphic" in2="BackgroundImageFix" result="shape"/><feGaussianBlur stdDeviation=".612" result="effect1_foregroundBlur_1370_5297"/></filter><filter id="dfilter2_f_1370_5297" x="37.984" y="38.053" width="577.421" height="35.745" filterUnits="userSpaceOnUse" color-interpolation-filters="sRGB"><feFlood flood-opacity="0" result="BackgroundImageFix"/><feBlend in="SourceGraphic" in2="BackgroundImageFix" result="shape"/><feGaussianBlur stdDeviation=".408" result="effect1_foregroundBlur_1370_5297"/></filter></defs></svg>