<?xml version="1.0" encoding="utf-8"?><svg width="36" height="36" fill="none" xmlns="http://www.w3.org/2000/svg" viewBox="0 0 36 36"><path d="M5.626 6.875a17.364 17.364 0 0110.65-5.042.632.632 0 00.538-.439 1.234 1.234 0 012.372 0 .632.632 0 00.537.44A17.5 17.5 0 0135.5 19.211a1.281 1.281 0 01-.566 1.084 1.25 1.25 0 01-1.568-.163 4.054 4.054 0 00-5.727-.005 1.245 1.245 0 01-1.766.012 4.89 4.89 0 00-6.366-.459.644.644 0 00-.257.515v11.518c0 .671.515 1.25 1.187 1.284a1.249 1.249 0 001.313-1.248 1.251 1.251 0 011.273-1.25c.703.012 1.242.633 1.226 1.335a3.754 3.754 0 01-3.7 3.664c-2.1.027-3.8-1.713-3.8-3.813v-11.49a.643.643 0 00-.256-.515 4.89 4.89 0 00-6.36.452 1.25 1.25 0 01-1.767 0 4.055 4.055 0 00-5.733 0 1.25 1.25 0 01-1.526.188 1.282 1.282 0 01-.607-1.11A17.386 17.386 0 015.626 6.875z" fill="#fff"/></svg>