<?xml version="1.0" encoding="utf-8"?><svg width="37" height="31" fill="none" xmlns="http://www.w3.org/2000/svg" viewBox="0 0 37 31"><g clip-path="url(#hclip0_24_280)" fill="#fff"><path d="M8.016 2.325a1.155 1.155 0 001.077-.716 1.171 1.171 0 00-.25-1.273 1.157 1.157 0 00-1.98.83c.002.307.124.6.34.818.216.217.508.34.813.341z"/><path d="M8.159 2.821a1.081 1.081 0 001.003-.675 1.097 1.097 0 00-.238-1.19 1.083 1.083 0 00-1.85.78c0 .288.116.564.32.768.203.203.478.317.765.317z"/><path d="M8.053 2.665a1.192 1.192 0 001.11-.74A1.209 1.209 0 008.907.613a1.194 1.194 0 00-2.043.857c0 .317.126.621.349.846.223.224.526.35.841.35zM12.518 17.248a1.149 1.149 0 001.068-.723 1.166 1.166 0 00-.264-1.267 1.152 1.152 0 00-1.957.862c.008.302.133.59.349.8.215.21.504.329.804.328z"/><path d="M12.87 17.36a1.075 1.075 0 00.997-.67 1.09 1.09 0 00-.234-1.183 1.078 1.078 0 00-1.842.768 1.083 1.083 0 001.08 1.085z"/><path d="M12.555 17.534a1.186 1.186 0 001.1-.739 1.202 1.202 0 00-.258-1.304 1.189 1.189 0 00-2.032.846 1.195 1.195 0 00.734 1.107c.145.06.3.09.456.09zM15.565 20.677a1.192 1.192 0 001.105-.742 1.209 1.209 0 00-.26-1.311 1.194 1.194 0 00-2.042.85c0 .32.126.625.35.85.225.226.53.353.847.353z"/><path d="M15.54 20.74a1.174 1.174 0 001.093-.729 1.19 1.19 0 00-.254-1.293 1.177 1.177 0 00-1.287-.256 1.18 1.18 0 00-.724 1.1c.002.311.126.61.345.83.22.221.517.346.827.348z"/><path d="M15.342 20.875a1.185 1.185 0 001.122-.717 1.202 1.202 0 00-.238-1.314 1.188 1.188 0 00-2.043.835c-.002.312.12.613.336.837.217.224.513.353.823.36zM19.252 24.18a1.228 1.228 0 001.14-.766 1.246 1.246 0 00-.267-1.352 1.232 1.232 0 00-1.345-.268 1.235 1.235 0 00-.761 1.145c0 .33.13.645.361.877.232.233.545.363.872.363z"/><path d="M19.037 24.18a1.229 1.229 0 001.139-.766 1.246 1.246 0 00-.267-1.352 1.232 1.232 0 00-1.344-.268 1.235 1.235 0 00-.762 1.145c0 .33.13.645.361.877.232.233.545.363.873.363z"/><path d="M18.993 24.23a1.192 1.192 0 001.106-.743 1.21 1.21 0 00-.26-1.31 1.195 1.195 0 00-2.042.85 1.203 1.203 0 00.737 1.113c.146.06.302.09.46.09zM22.706 27.546a1.228 1.228 0 001.139-.765 1.246 1.246 0 00-.267-1.351 1.232 1.232 0 00-2.106.876c.008.327.14.638.37.868.23.231.539.364.864.372z"/><path d="M22.496 27.61a1.265 1.265 0 001.174-.79 1.284 1.284 0 00-.276-1.391 1.269 1.269 0 00-2.168.903 1.278 1.278 0 00.37.905 1.263 1.263 0 00.9.372z"/><path d="M22.447 27.671a1.228 1.228 0 001.14-.765 1.246 1.246 0 00-.268-1.351 1.232 1.232 0 00-2.106.876c0 .33.13.645.362.877.23.233.545.363.872.363zM15.88 27.188a.866.866 0 00.803-.54.88.88 0 00-.189-.953.867.867 0 00-1.484.619.868.868 0 00.87.874z"/><path d="M15.886 27.192a.872.872 0 00.809-.544.885.885 0 00-.193-.96.874.874 0 00-1.492.63.878.878 0 00.54.81c.107.043.22.065.335.064z"/><path d="M15.848 27.236a.843.843 0 00.785-.52.854.854 0 00-.179-.928.844.844 0 00-1.444.599.85.85 0 00.516.784.834.834 0 00.322.065zM14.8 30.429a.85.85 0 00.778-.853.858.858 0 00-.778-.852.848.848 0 00-.852.508.858.858 0 00.505 1.154c.111.038.23.053.347.043z"/><path d="M14.8 30.485a.847.847 0 00.778-.539.86.86 0 00-.195-.929.85.85 0 00-1.446.618.854.854 0 00.534.79.84.84 0 00.329.06z"/><path d="M14.757 30.48a.817.817 0 00.757-.51.829.829 0 00-.177-.898.819.819 0 00-1.4.583.818.818 0 00.82.825zM25.339 30.852a1.32 1.32 0 001.225-.823 1.34 1.34 0 00-.288-1.453 1.323 1.323 0 00-2.263.942c0 .354.14.693.388.943.25.25.586.39.938.39z"/><path d="M25.13 30.913a1.327 1.327 0 001.234-.823 1.347 1.347 0 00-.285-1.461 1.33 1.33 0 00-2.276.945c0 .354.14.693.388.944.249.251.586.393.938.395z"/><path d="M25.08 31a1.272 1.272 0 001.18-.792 1.29 1.29 0 00-.278-1.398 1.274 1.274 0 00-2.179.907c0 .34.135.667.374.908.24.24.564.375.903.375zM22.897 20.393a.81.81 0 00.752-.506.822.822 0 00-.593-1.115.81.81 0 00-.836.348.821.821 0 00.677 1.273z"/><path d="M22.662 20.398a.787.787 0 00.79-.794.795.795 0 00-.79-.793.788.788 0 00-.789.793.787.787 0 00.79.794z"/><path d="M22.817 20.46a.756.756 0 00.701-.472.767.767 0 00-.167-.831.757.757 0 00-1.293.547.76.76 0 00.469.701c.092.038.19.057.29.056zM29.088 2.064a.786.786 0 00.735-.487.798.798 0 00-.17-.868.788.788 0 00-1.348.567.79.79 0 00.783.788z"/><path d="M28.614 2.48a.737.737 0 00.684-.46.748.748 0 00-.163-.812.738.738 0 00-1.261.534.74.74 0 00.457.684.73.73 0 00.283.054z"/><path d="M28.903 2.332a.81.81 0 00.753-.507.823.823 0 00-.18-.892.812.812 0 00-1.387.587.816.816 0 00.503.752c.1.04.205.06.311.06z"/><path fill-rule="evenodd" clip-rule="evenodd" d="M27.694 1.17a.572.572 0 00-.56-.55H10.65a.571.571 0 00-.574.576.58.58 0 00.354.532c.07.03.144.044.22.044h16.483a.57.57 0 00.526-.376.579.579 0 00.035-.225z"/><path fill-rule="evenodd" clip-rule="evenodd" d="M27.207 1.655a.578.578 0 00-.573-.577H10.866a.57.57 0 00-.53.356.58.58 0 00.31.753c.07.03.144.044.22.044h15.768a.572.572 0 00.573-.576z"/><path fill-rule="evenodd" clip-rule="evenodd" d="M27.349 1.495a.578.578 0 00-.573-.577H10.65a.571.571 0 00-.574.577.58.58 0 00.354.532c.07.03.144.044.22.044h16.126a.572.572 0 00.573-.576z"/><path d="M8.633 6.139a1.093 1.093 0 001.014-.681 1.11 1.11 0 00-.238-1.203 1.096 1.096 0 00-1.873.78c0 .293.115.574.321.78.206.208.485.324.776.324z"/><path d="M8.744 6.59a1.026 1.026 0 00.958-.64 1.04 1.04 0 00-.23-1.134 1.028 1.028 0 00-1.751.764c.004.27.114.526.306.715.191.19.449.295.717.295z"/><path d="M8.633 6.479a1.13 1.13 0 001.049-.704 1.147 1.147 0 00-.246-1.244 1.133 1.133 0 00-1.937.807 1.14 1.14 0 00.699 1.056c.138.057.286.086.435.085zM28.62 5.816a.75.75 0 00.7-.463.76.76 0 00-.16-.827.75.75 0 00-1.287.533.758.758 0 00.747.757z"/><path d="M28.145 6.2a.695.695 0 00.696-.7.702.702 0 00-.696-.701.695.695 0 00-.697.7.702.702 0 00.697.701z"/><path d="M28.428 6.075a.768.768 0 00.717-.474.78.78 0 00-.163-.846.77.77 0 00-1.318.545.777.777 0 00.764.775z"/><path fill-rule="evenodd" clip-rule="evenodd" d="M27.22 5.022a.553.553 0 00-.549-.551h-15.62a.548.548 0 00-.49.548.553.553 0 00.49.55h15.62a.547.547 0 00.549-.546z"/><path fill-rule="evenodd" clip-rule="evenodd" d="M26.763 5.45a.547.547 0 00-.543-.546H11.267a.541.541 0 00-.542.546.547.547 0 00.542.545h14.955a.534.534 0 00.503-.335.54.54 0 00.04-.21z"/><path fill-rule="evenodd" clip-rule="evenodd" d="M26.887 5.288a.544.544 0 00-.335-.506.535.535 0 00-.208-.04H11.05a.541.541 0 00-.542.546.547.547 0 00.543.545h15.293a.534.534 0 00.543-.545z"/><path d="M9.91 9.92a1.118 1.118 0 001.041-.693 1.134 1.134 0 00-.242-1.232 1.12 1.12 0 00-1.916.804c0 .297.118.583.327.793.21.21.494.329.79.329z"/><path d="M10.052 10.348a1.044 1.044 0 00.969-.652 1.06 1.06 0 00-.23-1.15 1.046 1.046 0 00-1.788.754c.002.279.113.545.31.742.196.196.462.306.739.306z"/><path d="M9.73 10.243a1.149 1.149 0 001.066-.716 1.165 1.165 0 00-.25-1.264 1.151 1.151 0 00-1.968.82c0 .308.121.603.337.82.217.217.51.34.816.34zM27.966 9.56a.731.731 0 00.678-.456.741.741 0 00-.535-1.006.73.73 0 00-.753.314.74.74 0 00.09.931.732.732 0 00.52.217z"/><path d="M27.491 9.92a.688.688 0 00.639-.43.697.697 0 00-.508-.946.687.687 0 00-.708.3.698.698 0 00.313 1.025.682.682 0 00.264.051z"/><path d="M27.75 9.771a.756.756 0 00.701-.47.766.766 0 00-.553-1.04.755.755 0 00-.779.324.766.766 0 00.095.963.756.756 0 00.536.223z"/><path fill-rule="evenodd" clip-rule="evenodd" d="M26.547 8.854a.503.503 0 00-.5-.502H11.865a.499.499 0 00-.444.499.504.504 0 00.444.499h14.184a.491.491 0 00.5-.496z"/><path fill-rule="evenodd" clip-rule="evenodd" d="M26.153 9.338a.497.497 0 00-.493-.496H12.093a.492.492 0 00-.493.496.497.497 0 00.493.496H25.66a.492.492 0 00.493-.496z"/><path fill-rule="evenodd" clip-rule="evenodd" d="M26.245 9.064a.497.497 0 00-.493-.496H11.86a.492.492 0 00-.494.496.497.497 0 00.494.496h13.893a.491.491 0 00.493-.496zM20.726 26.362a.622.622 0 00-.617-.62h-2.146a.616.616 0 00-.466.602.622.622 0 00.466.601h2.171a.615.615 0 00.592-.583z"/><path fill-rule="evenodd" clip-rule="evenodd" d="M20.35 26.32a.566.566 0 00-.555-.558H17.71a.56.56 0 00-.502.56.566.566 0 00.502.562h2.066a.558.558 0 00.53-.346.566.566 0 00.044-.218z"/><path fill-rule="evenodd" clip-rule="evenodd" d="M20.48 26.498a.578.578 0 00-.574-.576H17.73a.572.572 0 00-.573.576.578.578 0 00.573.577h2.177a.572.572 0 00.574-.576zM23.316 29.661a.622.622 0 00-.616-.62h-5.797a.615.615 0 00-.617.62.622.622 0 00.617.62h5.809a.615.615 0 00.604-.62z"/><path fill-rule="evenodd" clip-rule="evenodd" d="M23.008 29.555a.622.622 0 00-.617-.62h-5.698a.615.615 0 00-.616.62.622.622 0 00.616.62h5.704a.615.615 0 00.611-.62z"/><path fill-rule="evenodd" clip-rule="evenodd" d="M23.205 29.792a.622.622 0 00-.616-.62h-5.877a.615.615 0 00-.617.62.622.622 0 00.617.62h5.864a.615.615 0 00.63-.62z"/><path d="M10.94 13.701a1.074 1.074 0 001.001-.665 1.09 1.09 0 00-.23-1.185 1.077 1.077 0 00-1.844.765c0 .287.113.562.314.765.2.204.474.319.759.32z"/><path d="M11.1 14.098a1.008 1.008 0 00.935-.63 1.02 1.02 0 00-.741-1.385 1.007 1.007 0 00-1.038.438 1.02 1.02 0 00-.09.955 1.012 1.012 0 00.548.547 1 1 0 00.386.075z"/><path d="M10.977 13.987a1.113 1.113 0 001.035-.689 1.127 1.127 0 00-.238-1.225 1.114 1.114 0 00-1.907.791c0 .297.116.581.324.792.208.21.49.329.786.33zM27.133 13.417a.75.75 0 00.7-.464.76.76 0 00-.161-.827.752.752 0 00-1.285.54.759.759 0 00.746.751z"/><path d="M26.646 13.695a.7.7 0 00.652-.444.71.71 0 00-.535-.96.7.7 0 00-.717.327.709.709 0 00.6 1.077z"/><path d="M26.93 13.64a.774.774 0 00.722-.477.786.786 0 00-.164-.854.776.776 0 00-1.329.55.779.779 0 00.475.722c.093.04.194.06.296.06z"/><path fill-rule="evenodd" clip-rule="evenodd" d="M25.79 12.685a.454.454 0 00-.451-.453h-11.81a.45.45 0 00-.45.453.454.454 0 00.45.453h11.81a.442.442 0 00.418-.279.45.45 0 00.032-.174z"/><path fill-rule="evenodd" clip-rule="evenodd" d="M25.283 13.119a.454.454 0 00-.45-.453H13.53a.45.45 0 00-.45.453.454.454 0 00.45.452h11.303a.45.45 0 00.45-.452z"/><path fill-rule="evenodd" clip-rule="evenodd" d="M25.327 12.902a.454.454 0 00-.45-.453H13.313a.449.449 0 00-.45.453.454.454 0 00.45.452h11.562a.45.45 0 00.45-.452z"/><path d="M25.838 16.92a.751.751 0 00.685-.753.759.759 0 00-.685-.754.75.75 0 00-.756.448.762.762 0 00.181.864.751.751 0 00.575.195z"/><path d="M25.357 17.087a.695.695 0 00.648-.428.704.704 0 00-.503-.96.692.692 0 00-.718.297.703.703 0 00.573 1.09z"/><path d="M25.666 17.113a.787.787 0 00.724-.495.798.798 0 00-.175-.862.788.788 0 00-1.345.563.802.802 0 00.796.794z"/><path fill-rule="evenodd" clip-rule="evenodd" d="M24.494 16.214a.622.622 0 00-.616-.62h-8.461a.633.633 0 00-.635.638.64.64 0 00.635.639h8.442a.613.613 0 00.598-.404.623.623 0 00.037-.253z"/><path fill-rule="evenodd" clip-rule="evenodd" d="M24.05 16.38a.586.586 0 00-.349-.573.576.576 0 00-.23-.047h-8.523a.585.585 0 00-.526.586.59.59 0 00.526.586h8.523a.579.579 0 00.58-.552zM21.707 19.511a.622.622 0 00-.617-.62h-2.917a.614.614 0 00-.733.313.623.623 0 00.448.89c.095.017.193.01.285-.019h2.948a.615.615 0 00.586-.564z"/><path fill-rule="evenodd" clip-rule="evenodd" d="M21.287 19.661a.622.622 0 00-.616-.62h-2.652a.63.63 0 00-.632.636.637.637 0 00.632.635h2.652a.614.614 0 00.578-.404.621.621 0 00.038-.247zM36.778 4.525c.05 1.593.001 3.188-.148 4.774a10.117 10.117 0 01-.98 3.169 9.25 9.25 0 01-1.733 2.22 8.66 8.66 0 01-3.25 1.772c-.966.21-1.948.33-2.935.36-.722 0-.617-1.085 0-1.073.412 0 .825-.03 1.233-.093a4.52 4.52 0 002.602-1.463c1.073-1.172 1.116-1.327 1.27-1.73.303-.738.54-1.501.71-2.281.135-.945.2-1.898.197-2.852V5.765H30.55a.842.842 0 01-.2-.958.842.842 0 01.2-.282h6.228zM34.885 5.71h.882s.505 4.755-1.85 7.365c-.043 0 1.073-1.916.968-7.365z"/><path fill-rule="evenodd" clip-rule="evenodd" d="M36.383 4.96a39.77 39.77 0 01-.154 4.76 10.12 10.12 0 01-.98 3.175 9.044 9.044 0 01-1.72 2.22 8.617 8.617 0 01-3.312 1.773 16.67 16.67 0 01-2.936.366c-.721 0-.616-1.085 0-1.079.413.005.826-.024 1.234-.087a4.575 4.575 0 002.608-1.47c1.08-1.183 1.104-1.326 1.277-1.723.298-.739.534-1.502.703-2.281a18.82 18.82 0 00.197-2.852V6.193h-3.176a.83.83 0 01-.204-.96.83.83 0 01.204-.28l6.26.006zm-1.93 1.184h.876s.5 4.749-1.887 7.365c0 0 1.091-1.953 1.011-7.365z"/><path fill-rule="evenodd" clip-rule="evenodd" d="M36.568 4.744a39.895 39.895 0 01-.154 4.767 10.118 10.118 0 01-.98 3.169 9.332 9.332 0 01-1.721 2.2 8.736 8.736 0 01-3.256 1.774c-.965.21-1.948.33-2.935.36-.722 0-.617-1.086 0-1.073.413 0 .825-.03 1.233-.093a4.533 4.533 0 002.608-1.47c1.074-1.184 1.104-1.326 1.277-1.723.3-.739.535-1.502.703-2.282.138-.944.204-1.898.197-2.852V5.96h-3.2a.837.837 0 01-.202-.96.837.837 0 01.202-.28l6.228.025zm-1.9 1.184h.87s.506 4.755-1.88 7.365c0 0 1.116-1.946 1.01-7.365zM0 4.525A38.167 38.167 0 00.16 9.3c.154 1.104.488 2.174.987 3.169a9.15 9.15 0 001.72 2.225 8.712 8.712 0 003.25 1.774c.966.21 1.948.33 2.936.36.721 0 .616-1.086 0-1.073a7.97 7.97 0 01-1.234-.093 4.545 4.545 0 01-2.608-1.464c-1.06-1.178-1.092-1.333-1.258-1.736a13.072 13.072 0 01-.703-2.281 19.036 19.036 0 01-.204-2.852V5.765h3.195a.837.837 0 00.202-.959.837.837 0 00-.202-.28H0zM1.905 5.71h-.869s-.5 4.755 1.887 7.365c0 0-1.122-1.916-1.018-7.365z"/><path fill-rule="evenodd" clip-rule="evenodd" d="M.444 4.96C.402 6.548.46 8.138.617 9.72a10.12 10.12 0 00.955 3.175 9.143 9.143 0 001.727 2.22 8.576 8.576 0 003.25 1.773 16.67 16.67 0 002.935.366c.722 0 .617-1.085 0-1.079a7.566 7.566 0 01-1.233-.087 4.575 4.575 0 01-2.609-1.47c-1.06-1.183-1.091-1.326-1.264-1.723-.29-.74-.517-1.503-.678-2.281a18.817 18.817 0 01-.197-2.852V6.193h3.194a.837.837 0 00.202-.959.837.837 0 00-.202-.28l-6.253.005zm1.893 1.184h-.87s-.505 4.749 1.881 7.365c0 0-1.116-1.953-1.01-7.365z"/><path fill-rule="evenodd" clip-rule="evenodd" d="M.228 4.8c-.05 1.588 0 3.178.148 4.76a10.12 10.12 0 00.98 3.175 9.145 9.145 0 001.728 2.22 8.577 8.577 0 003.25 1.785c.965.209 1.948.331 2.935.366.721 0 .616-1.085 0-1.079a7.668 7.668 0 01-1.234-.086 4.552 4.552 0 01-2.602-1.47c-1.067-1.196-1.116-1.339-1.264-1.736a13.977 13.977 0 01-.71-2.281c-.134-.945-.2-1.898-.197-2.852V6.033h3.195a.837.837 0 000-1.24l-6.229.006zm1.894 1.177h-.888s-.506 4.756 1.88 7.372c.019 0-1.097-1.953-.992-7.372z"/></g><defs><clipPath id="hclip0_24_280"><path fill="#fff" d="M0 0h37v31H0z"/></clipPath></defs></svg>