<?xml version="1.0" encoding="utf-8"?><svg width="41" height="41" fill="none" xmlns="http://www.w3.org/2000/svg" viewBox="0 0 41 41"><path d="M29.298 23.75a1.964 1.964 0 003.577-1.125 1.964 1.964 0 00-3.577-1.125h-.923a7.718 7.718 0 00-1.575-4.714l1.508-1.507a2.004 2.004 0 001.755-.529 2.032 2.032 0 000-2.813 2.032 2.032 0 00-2.813 0 2.004 2.004 0 00-.529 1.756L25.214 15.2a7.78 7.78 0 00-3.589-1.485V12.14A1.964 1.964 0 0020.5 8.562a1.964 1.964 0 00-1.125 3.578v1.575a7.81 7.81 0 00-2.812.967l-1.249-1.788a1.948 1.948 0 00-.78-2.333 1.968 1.968 0 00-2.19.049 1.955 1.955 0 00-.484 2.734c.383.551.99.844 1.609.844l1.328 1.89a7.005 7.005 0 00-1.193 1.62 1.98 1.98 0 00-2.104.427 2.032 2.032 0 000 2.813c.326.303.72.483 1.125.562 0 .608.079 1.192.203 1.755l-1.474.394a1.988 1.988 0 00-1.778-.394 1.97 1.97 0 001.035 3.803 1.955 1.955 0 001.328-1.238l1.699-.461a8.51 8.51 0 001.969 2.328l-1.238 2.25a2.02 2.02 0 00-1.508 1.035 1.967 1.967 0 002.298 2.82 1.97 1.97 0 001.167-.952c.316-.585.304-1.26.023-1.811l1.204-2.216a7.99 7.99 0 002.947.562h.203c-.146.293-.203.63-.203.99a1.983 1.983 0 002.115 1.823 1.984 1.984 0 001.823-2.116 1.984 1.984 0 00-.732-1.383 8.16 8.16 0 001.508-.889l2.633 2.633c-.113.63.067 1.27.528 1.755a2.032 2.032 0 002.813 0c.787-.754.754-2.026 0-2.813a2.004 2.004 0 00-1.755-.529L26.8 26.214a7.834 7.834 0 001.249-2.464h1.249zM18.813 21.5a1.685 1.685 0 01-1.688-1.688c0-.933.754-1.687 1.688-1.687.934 0 1.687.754 1.687 1.688 0 .933-.753 1.687-1.687 1.687zm3.937 3.375a1.128 1.128 0 01-1.125-1.125c0-.619.506-1.125 1.125-1.125s1.125.506 1.125 1.125-.506 1.125-1.125 1.125z" fill="#7EE1FF"/><circle cx="20.5" cy="21.5" r="5.121" fill="#7EE1FF"/><path d="M20.705 1.206C10.051 1.092 1.32 9.64 1.205 20.294c-.113 10.654 8.435 19.386 19.089 19.5 10.654.113 19.386-8.435 19.5-19.089.113-10.654-8.435-19.386-19.089-19.5zM20.33 36.52A16.024 16.024 0 018.182 10.255l22.297 22.776a15.95 15.95 0 01-10.15 3.492v-.002zm12.488-5.777L10.52 7.968a16.025 16.025 0 0122.295 22.776h.002z" fill="#fff" stroke="#fff"/></svg>