<?xml version="1.0" encoding="utf-8"?><svg width="38" height="38" fill="none" xmlns="http://www.w3.org/2000/svg" viewBox="0 0 38 38"><path d="M27.991 1.168a4 4 0 00-2.83-1.165L12.755.03A4 4 0 009.93 1.207l-8.76 8.798a4 4 0 00-1.166 2.831L.03 25.241a4 4 0 001.177 2.826l8.798 8.764a4 4 0 002.831 1.165l12.405-.025a4 4 0 002.826-1.178l8.764-8.802a4 4 0 001.166-2.83l-.026-12.405a4 4 0 00-1.178-2.827L27.99 1.17zm-2.427 1.878l9.363 9.314.025 13.204-9.315 9.363-13.277-.048-9.287-9.242-.027-13.204 9.314-9.36 13.204-.027zm0 0l-13.204.027-9.314 9.36.027 13.204 9.36 9.315 13.204-.025 9.315-9.363-.025-13.204-9.363-9.314zM7.064 15.31c.428 0 .873.04 1.326.105.46.065.93.162 1.415.291v1.658a6.888 6.888 0 00-1.262-.437 5.096 5.096 0 00-1.164-.145c-.485 0-.84.064-1.071.202-.232.13-.348.34-.348.623 0 .21.078.371.232.493.158.113.443.218.856.299l.857.17c.873.178 1.496.444 1.867.8.364.364.55.873.55 1.528 0 .866-.258 1.512-.768 1.941-.517.42-1.302.63-2.36.63-.494 0-.995-.048-1.498-.145a8.726 8.726 0 01-1.504-.42v-1.706c.501.266.985.468 1.452.606.47.13.927.194 1.355.194.445 0 .784-.073 1.019-.218a.703.703 0 00.356-.631c0-.25-.081-.437-.243-.574-.162-.13-.477-.25-.954-.356l-.784-.17c-.787-.17-1.363-.436-1.728-.808-.362-.364-.542-.865-.542-1.488 0-.784.252-1.383.758-1.803.505-.429 1.232-.639 2.183-.639zm15.177 0c1.261 0 2.248.364 2.967 1.092.72.72 1.076 1.714 1.076 2.991 0 1.27-.356 2.264-1.076 2.992-.72.72-1.706 1.084-2.967 1.084-1.262 0-2.248-.364-2.968-1.084-.72-.728-1.075-1.722-1.075-2.992 0-1.277.356-2.272 1.075-2.991.72-.728 1.706-1.092 2.968-1.092zm-11.474.146h7.245v1.528h-2.604v6.331h-2.03v-6.331h-2.611v-1.528zm16.64 0h3.364c.995 0 1.763.226 2.297.67.541.437.808 1.068.808 1.893s-.267 1.463-.808 1.908c-.534.437-1.302.663-2.297.663H29.43v2.725h-2.021v-7.86zm-5.166 1.326c-.623 0-1.1.226-1.44.687-.34.453-.509 1.1-.509 1.924 0 .825.17 1.464.51 1.925.34.453.816.679 1.439.679.622 0 1.1-.226 1.44-.68.339-.46.508-1.099.508-1.924 0-.824-.17-1.471-.509-1.924-.34-.46-.817-.687-1.44-.687zm7.188.145v2.191h1.124c.396 0 .695-.096.914-.282.21-.195.315-.47.315-.817 0-.348-.105-.623-.315-.809-.219-.194-.518-.283-.914-.283h-1.124z" fill="#fff"/></svg>